<?xml version="1.0" standalone="no"?>
<!DOCTYPE svg PUBLIC "-//W3C//DTD SVG 1.1//EN" "http://www.w3.org/Graphics/SVG/1.1/DTD/svg11.dtd" >
<svg xmlns="http://www.w3.org/2000/svg">
<metadata></metadata>
<defs>
<font id="ryeregular" horiz-adv-x="0" >
<font-face units-per-em="2048" ascent="1638" descent="-410" />
<missing-glyph horiz-adv-x="500" />
<glyph horiz-adv-x="2048" />
<glyph horiz-adv-x="2048" />
<glyph unicode="&#xd;" />
<glyph />
<glyph />
<glyph />
<glyph />
<glyph />
<glyph />
<glyph />
<glyph />
<glyph unicode="&#x9;" />
<glyph />
<glyph />
<glyph />
<glyph />
<glyph />
<glyph />
<glyph />
<glyph />
<glyph />
<glyph />
<glyph unicode=" "  horiz-adv-x="500" />
<glyph unicode="&#x09;" horiz-adv-x="500" />
<glyph unicode="&#xa0;" horiz-adv-x="500" />
<glyph unicode="!" horiz-adv-x="848" d="M80 1596q0 30 25.5 57t76.5 27t104 -15q62 35 139 35t136 -35q49 15 102.5 15t79 -27.5t25.5 -52.5q0 -33 -11 -48q-25 17 -52.5 17t-42 -6t-22.5 -18q-13 -18 -20 -72l-93 -896q-9 -54 -37 -81t-59.5 -27t-61 29t-37.5 80l-104 895q-7 54 -17 69q-19 27 -58.5 27 t-61.5 -17q-11 14 -11 44zM168 164q56 35 70.5 56.5t23.5 38.5q24 45 70.5 70.5t100.5 25.5q112 0 162 -94q40 -74 95 -97q-15 -9 -28 -16t-24 -16q-23 -19 -46 -58.5t-65.5 -69t-93.5 -29.5t-98.5 29.5t-72.5 74.5q-29 50 -52.5 63.5t-41.5 21.5zM283 164q16 -9 29.5 -28.5 t31.5 -41.5q27 -32 71 -32q-6 11 -12.5 20.5t-12.5 20t-9.5 25t-3.5 54t38 96.5q-22 0 -39 -8.5t-30 -25.5t-18.5 -26.5t-13.5 -19.5q-19 -28 -31 -34zM319 1513l82 -877q22 11 22 149q0 59 -5 125l-9 138q-26 377 -63 450q-12 23 -27 15z" />
<glyph unicode="&#x22;" horiz-adv-x="1059" d="M40 1383q65 33 91 77q55 90 160 90q49 0 91 -23t62.5 -57t41.5 -51.5t56 -35.5q-77 -25 -106 -109l-25 -76q-44 -142 -56 -219.5t-18 -101.5t-13 -38q-14 -25 -35 -25t-30 18q-14 30 -23 88t-18.5 102.5t-21.5 89t-25 86.5l-25 76q-29 84 -106 109zM135 1383 q38 -25 54 -59q25 -53 53 -173v211q0 90 13 111q-31 -8 -47 -26t-25 -29q-15 -19 -48 -35zM517 1383q65 33 91 77q55 90 160 90q49 0 91 -23t62.5 -57t41.5 -51.5t56 -35.5q-77 -25 -106 -109l-25 -76q-44 -142 -56 -219.5t-18 -101.5t-13 -38q-14 -25 -35 -25t-30 18 q-14 30 -23 88t-18.5 102.5t-21.5 89t-25 86.5l-25 76q-29 84 -106 109zM612 1383q38 -25 54 -59q25 -53 53 -173v211q0 90 13 111q-31 -8 -47 -26t-25 -29q-15 -19 -48 -35z" />
<glyph unicode="#" horiz-adv-x="1392" d="M105 559q0 33 32.5 66t96.5 33h139l35 194h-235q-8 14 -8 47t32.5 66t96.5 33h141l100 540q15 12 41 12q101 0 101 -124q0 -18 -10 -76l-65 -352h272l100 540q15 12 41 12q101 0 101 -124q0 -18 -10 -76l-65 -352h228q8 -14 8 -47t-32.5 -66t-96.5 -33h-134l-36 -194h231 q8 -14 8 -47t-32.5 -66t-96.5 -33h-137l-97 -530q-15 -12 -41 -12q-101 0 -101 124q0 18 10 76l63 342h-273l-97 -530q-15 -12 -41 -12q-101 0 -101 124q0 18 10 76l63 342h-233q-8 14 -8 47zM539 658h273l35 194h-272z" />
<glyph unicode="$" horiz-adv-x="1255" d="M110 209.5q0 61.5 58 125.5q-17 34 -17 72.5t11.5 72t31.5 58.5q42 55 82.5 55t57.5 -32q-36 -38 -36 -119t23.5 -139.5t66.5 -100.5q90 -88 235 -88q98 0 163 50q72 56 72 156q0 72 -34 117q-53 70 -166 148q-87 61 -139 61q-53 0 -117 -43q17 51 17 95q0 10 -19 26 l-37 33q-175 161 -207 299q-11 48 -11 110.5t22.5 123.5t62.5 108q81 95 221 132v359q14 8 47 8t63 -32.5t30 -96.5v-219l15 1q39 0 75 -4v343q14 8 47 8t63 -32.5t30 -96.5v-255q67 -19 105 -19q48 0 67.5 26t19.5 41t-4 25q7 3 19.5 3t27.5 -8.5t27 -23.5q27 -34 27 -76.5 t-24 -64.5q34 -30 34 -93q0 -62 -42 -104q8 -27 8 -48.5t-7.5 -41t-20.5 -33.5q-29 -31 -55 -31q-41 0 -69 14q17 40 17 86t-20.5 93t-57.5 80q-77 70 -204 70q-80 0 -131 -44q-48 -42 -48 -106q0 -49 24 -82q42 -57 133 -118l48 -32q40 -25 54 -25t28 3t31 8q36 12 70 34 l-13 -56q-6 -28 -6 -41q0 -21 21 -38q187 -162 250 -271q55 -95 55 -231q0 -140 -95 -251q-100 -117 -269 -158v-359q-14 -8 -47 -8t-63 32.5t-30 96.5v219l-32 -1q-30 0 -58 2v-341q-14 -8 -47 -8t-63 32.5t-30 96.5v241q-54 13 -98 36q-82 -80 -153 -80q-46 0 -62 34 q23 28 23 84v15q0 6 -1 11q-50 45 -50 106.5zM246 1168q0 -140 183 -302l49 -44q45 -40 45 -49q0 -29 -5 -42q23 15 43 15q26 0 100 -46q172 -106 242 -201q50 -69 52 -172q0 -37 -5 -62q53 34 53 108q0 72 -19.5 111t-45.5 69.5t-67.5 66.5t-102.5 78l-142 97 q-175 115 -266 243q-80 113 -76 212q-38 -16 -38 -82z" />
<glyph unicode="%" horiz-adv-x="2314" d="M80 1160q92 42 120 155q26 103 132 180q118 85 273 85q154 0 269 -85q103 -76 130 -180q28 -113 120 -155q-67 -33 -87 -58q-22 -30 -35.5 -87t-48.5 -109t-87 -90q-111 -84 -259 -84t-265 84q-114 82 -140 202q-13 54 -27 72q-28 37 -95 70zM209 1160q54 -25 59 -51 q32 -149 110 -222q9 7 9 23q0 31 -27.5 95t-27.5 133q0 119 37 204q17 40 17 53q0 32 -8 38q-78 -73 -110 -222q-5 -26 -59 -51zM473 65q0 64 65 142l1127 1343q42 0 65 -27t23 -63q0 -64 -65 -142l-1127 -1343q-42 0 -65 27t-23 63zM497 1005q0 -105 66 -122q20 -5 43 -5 q53 0 73 20q37 35 37 107v295q0 134 -110 134q-60 0 -84.5 -34t-24.5 -100v-295zM812 897q48 19 56 121q5 71 5 116t-0.5 72t-1.5 55q-4 117 -23 140.5t-36 31.5v-536zM1150 408q92 42 120 155q26 103 132 180q118 85 273 85q154 0 269 -85q103 -76 130 -180 q28 -113 120 -155q-67 -33 -87 -58q-22 -30 -35.5 -87t-48.5 -109t-87 -90q-111 -84 -259 -84t-265 84q-114 82 -140 202q-13 54 -27 72q-28 37 -95 70zM1279 408q54 -25 59 -51q32 -149 110 -222q9 7 9 23q0 31 -27.5 95t-27.5 133q0 119 37 204q17 40 17 53q0 32 -8 38 q-78 -73 -110 -222q-5 -26 -59 -51zM1567 253q0 -105 66 -122q20 -5 43 -5q53 0 73 20q37 35 37 107v296q0 134 -110 134q-60 0 -84.5 -34t-24.5 -100v-296zM1882 145q48 19 56 121q5 71 5 116t-0.5 72t-1.5 55q-4 117 -23 140.5t-36 31.5v-536z" />
<glyph unicode="&#x26;" horiz-adv-x="1707" d="M141 502q75 44 91.5 101t40.5 100.5t55 82.5q62 78 138 131q-143 51 -181 174q-18 58 -94 101q75 44 92.5 105t61.5 106t109 77q139 70 315 70q47 0 97 -10l68 -15q20 -4 42.5 -4t45.5 9t28 23q29 -10 29 -57.5t-33 -73.5q15 -32 15 -67t-7.5 -56.5t-19.5 -36.5 q-24 -30 -54.5 -30t-39.5 18q17 36 17 61.5t-7.5 43.5t-22.5 33q-35 37 -78.5 37t-77 -10.5t-59.5 -31.5q-56 -47 -56 -126v-179q0 -81 50 -106q23 -12 66.5 -12t80.5 40q26 -16 26 -48t-5 -47.5t-17 -29.5q-24 -28 -67 -49.5t-71 -41.5t-49 -50q-44 -65 -44 -182v-158 q0 -143 82 -216q70 -62 180 -62q87 0 180 62q102 70 102 154q0 74 -40 108q-12 9 -27 9t-25.5 -8t-15.5 -19q-8 -16 -8 -37.5t12 -33.5q-23 -50 -84 -23.5t-61 96.5q0 141 204 408q216 279 216 412q0 75 -53 118q15 43 54.5 43t74.5 -14t65 -39q70 -57 70 -129 q0 -26 -11 -57q35 -38 35 -92.5t-43 -95.5q23 -34 23 -56.5t-7 -36t-21 -24.5t-34 -21l-48 -21q-107 -45 -204 -129q-28 -25 -47 -47q105 -48 143 -156q15 -42 15 -111.5t-46.5 -144.5t-120.5 -131q-161 -120 -349 -120q-324 0 -501 216q-62 76 -85.5 154t-50.5 106t-59 46z M250 512q55 -18 74 -84q5 -19 11.5 -54t21.5 -69.5t33 -56.5q32 -41 61 -46q-33 77 -46.5 169.5t-13.5 137.5t5 90t12 83q13 73 29 110q-62 -11 -103 -197q-9 -39 -31 -56t-53 -27zM300 1192q31 -10 53 -27t31 -57.5t36 -65.5t57 -30q-6 14 -12.5 27t-12.5 34 q-11 44 -11 110t3 93.5t8.5 48.5t11.5 37l13 30q-29 -5 -57 -35t-34.5 -66t-12 -49.5t-15.5 -21.5q-14 -13 -58 -28zM1135 689q138 123 174 158q144 140 144 233q1 37 -26 68q-26 -113 -143 -267z" />
<glyph unicode="'" horiz-adv-x="582" d="M40 1383q65 33 91 77q55 90 160 90q49 0 91 -23t62.5 -57t41.5 -51.5t56 -35.5q-77 -25 -106 -109l-25 -76q-44 -142 -56 -219.5t-18 -101.5t-13 -38q-14 -25 -35 -25t-30 18q-14 30 -23 88t-18.5 102.5t-21.5 89t-25 86.5l-25 76q-29 84 -106 109zM135 1383 q38 -25 54 -59q25 -53 53 -173v211q0 90 13 111q-31 -8 -47 -26t-25 -29q-15 -19 -48 -35z" />
<glyph unicode="(" horiz-adv-x="791" d="M80 667q61 31 96 105q11 23 23 88t42 155t69 167q70 142 182 262q-8 49 -52 96q-11 13 -21 19q22 36 61.5 34.5t71.5 -28.5q41 35 115 35q24 -41 24 -71.5t-8 -44.5q25 -8 44 -26t19 -36q0 -36 -34 -49q-25 23 -76 23h-17q-9 0 -17 -2q-67 -80 -118 -242 q-54 -174 -54 -344q0 -60 54 -114q17 -17 38 -27q-65 -32 -86 -103q-6 -20 -6 -74.5t14.5 -145.5t38.5 -170q50 -167 116 -241q19 -3 55.5 -3t61.5 23q30 -12 30 -40q0 -55 -58 -75q3 -9 3 -36t-24 -68q-74 0 -115 35q-32 -27 -57 -27q-55 -2 -76 33q66 42 73 104 q-229 242 -301 637q-15 74 -75 128q-18 15 -36 23zM622 -89q3 -3 7 -5zM629 1421l10 7z" />
<glyph unicode=")" horiz-adv-x="791" d="M44 -87q0 -55 58 -75q-3 -9 -3 -36t24 -68q74 0 115 35q32 -27 57 -27q55 -2 76 33q-66 42 -73 104q229 242 301 637q15 74 75 128q18 15 36 23q-61 31 -96 105q-11 23 -23 88t-42 155t-69 167q-70 142 -182 262q8 49 52 96q11 13 21 19q-22 36 -61.5 34.5t-71.5 -28.5 q-41 35 -115 35q-24 -41 -24 -71.5t8 -44.5q-25 -8 -44 -26t-19 -36q0 -36 34 -49q25 23 76 23h17q9 0 17 -2q67 -80 118 -242q54 -174 54 -344q0 -60 -54 -114q-17 -17 -38 -27q65 -32 86 -103q6 -20 6 -74.5t-14.5 -145.5t-38.5 -170q-50 -167 -116 -241q-19 -3 -55.5 -3 t-61.5 23q-30 -12 -30 -40zM151 1428l10 -7zM161 -94l7 5q-3 -3 -7 -5z" />
<glyph unicode="*" horiz-adv-x="985" d="M80 1306q41 47 102 47q132 0 280 -148q-36 73 -47.5 143t-11.5 110q0 104 94 142q50 -21 69 -61.5t19 -80t-5 -66.5t-14 -60q-19 -74 -46 -126q110 102 225 133q66 18 101.5 0t58.5 -45q-8 -78 -75.5 -113.5t-201.5 -35.5q-63 0 -93 6q104 -56 169 -131q61 -70 61 -130 q0 -42 -24 -79q-22 -5 -48.5 -5t-59 22.5t-60.5 63.5q-62 92 -83 227q-34 -185 -128 -273q-35 -34 -73 -34t-59 6q-20 35 -20 86.5t60 119t175 127.5l-31 -4q-67 -8 -137.5 3t-109.5 30q-81 41 -87 126z" />
<glyph unicode="+" horiz-adv-x="1078" d="M120 525v146h342v355h154v-355h342v-146h-342v-355h-154v355h-342z" />
<glyph unicode="," horiz-adv-x="701" d="M88 164q48 31 62 54l22 41q37 68 124 89q27 7 67.5 7t79 -24.5t59.5 -63.5q43 -80 98 -103q-62 -25 -85 -108q-6 -22 -16 -66.5t-39.5 -112t-67.5 -119.5q-82 -115 -167 -115q-34 0 -55 17t-21 45q54 6 101 76.5t47 147.5q0 26 -8 55q-80 27 -117 95l-18 31 q-20 34 -66 54zM193 164q16 -9 29.5 -28.5t31.5 -41.5q27 -32 71 -32q-6 11 -12.5 20.5t-12.5 20t-9.5 25t-3.5 54t38 96.5q-22 0 -39 -8.5t-30 -25.5t-18.5 -26.5t-13.5 -19.5q-19 -28 -31 -34z" />
<glyph unicode="-" horiz-adv-x="860" d="M130 572q0 33 32.5 66t96.5 33h463q8 -14 8 -47t-32.5 -66t-96.5 -33h-463q-8 14 -8 47z" />
<glyph unicode="." horiz-adv-x="678" d="M78 164q56 35 70.5 56.5t23.5 38.5q24 45 70.5 70.5t100.5 25.5q112 0 162 -94q40 -74 95 -97q-15 -9 -28 -16t-24 -16q-23 -19 -46 -58.5t-65.5 -69t-93.5 -29.5t-98.5 29.5t-72.5 74.5q-29 50 -52.5 63.5t-41.5 21.5zM193 164q16 -9 29.5 -28.5t31.5 -41.5 q27 -32 71 -32q-6 11 -12.5 20.5t-12.5 20t-9.5 25t-3.5 54t38 96.5q-22 0 -39 -8.5t-30 -25.5t-18.5 -26.5t-13.5 -19.5q-19 -28 -31 -34z" />
<glyph unicode="/" horiz-adv-x="817" d="M65 -167q0 40 23 107l532 1647q17 13 41 13q87 0 87 -100q0 -40 -23 -107l-532 -1647q-17 -13 -41 -13q-87 0 -87 100z" />
<glyph unicode="0" horiz-adv-x="1463" d="M40 797q87 41 102.5 168.5t62.5 237t122 187.5q155 160 409 160t403 -149t182 -443q13 -120 102 -161q-87 -43 -103.5 -185.5t-63.5 -262.5t-122 -202q-151 -167 -400 -167q-518 0 -592 644q-15 131 -102 173zM175 797q56 -25 59 -51q36 -310 92 -414q19 -37 43 -67 q15 6 15 21q0 22 -21 69q-53 121 -53 442q0 234 56 398q7 25 7 38t-13 17q-47 -59 -67 -117q-37 -106 -59 -287q-3 -26 -59 -49zM561 327q0 -103 44.5 -158t128.5 -55q164 0 164 213v870q0 153 -96 204q-31 16 -68 16q-78 0 -125.5 -57t-47.5 -163v-870zM994 265 q45 18 56 125q11 101 11 345q0 50 68 73q-68 21 -68 96v81q0 236 -67 265v-985z" />
<glyph unicode="1" horiz-adv-x="923" d="M125 73q0 20 11 35q22 -17 56 -17q89 0 123 76v489q0 46 -19 68q-30 37 -103 73q68 31 88 55q34 39 34 88l1 216q0 88 -54.5 88t-94.5 -46q-14 12 -14 34t7.5 49t25.5 55q43 67 124 97q40 15 73 15t55 -4q79 100 137 107t92.5 -16.5t34.5 -78.5v-24q0 -14 -1 -30l-2 -32 t-3 -30t-4.5 -40t-4.5 -57q-4 -62 -4 -133v-170q0 -49 21 -73q33 -39 101 -70q-73 -36 -93 -59q-29 -36 -29 -82v-489q34 -76 123 -76q34 0 56 17q11 -15 11 -34.5t-11.5 -36.5t-31.5 -29q-46 -28 -105 -28t-110 32q-51 -32 -116 -32t-116 32q-51 -32 -94.5 -32t-71.5 7.5 t-49 20.5q-43 26 -43 65zM331 796q60 -21 68 -50q12 -48 12 -351v-130q50 19 55 131q6 112 6 309.5t-0.5 257t-1.5 92.5t-4 49l-5 36q-9 53 -50 72q0 -287 -4.5 -316.5t-9.5 -45.5q-12 -37 -66 -54z" />
<glyph unicode="2" horiz-adv-x="1299" d="M139 47q23 11 35 24q-17 51 -17 122t24.5 142.5t72.5 134.5q86 111 289 232q121 81 171 164q60 102 60 258q0 292 -199 292q-101 0 -171 -70q-75 -75 -75 -205t51 -194q-23 -19 -47.5 -19t-50.5 9.5t-48 28.5q-50 46 -50 108.5t16 98.5q-53 35 -53 91t38 96 q-32 41 -32 75.5t9.5 59t27.5 43.5q37 39 90 39q26 0 48 -11q-14 -19 -14 -40q0 -27 30 -27q20 0 74 18q99 33 219 33t193.5 -15t133.5 -48q121 -66 190 -217q32 -73 95 -110q-60 -34 -100 -134q-73 -178 -241 -294q-58 -39 -151 -84.5t-170 -91.5t-125 -86 q-89 -74 -108 -153q139 -24 295 -24t218 9.5t99 29.5q69 35 69 114q0 29 -12 50q6 14 34 14t49.5 -11t37.5 -29q34 -40 34 -101t-49 -112q38 -25 38 -70t-26 -71q14 -23 14 -46.5t-8.5 -40t-22.5 -27.5q-30 -22 -76 -22t-86 20q-145 -20 -299.5 -20t-319.5 32 q-58 -50 -106.5 -50t-73 23.5t-24.5 61.5zM342 193q3 -12 11 -22t43.5 -19t81.5 -14q70 -9 152 -9t134.5 2t98.5 7q107 13 128 41q13 17 10 40q-106 -47 -338 -47t-320 39q-4 -6 -1 -18zM791 1402q74 -83 74 -260q0 -173 -28 -240q40 8 69 84q10 28 15.5 58t9 47t11.5 30 q15 26 53 39q-40 13 -49 27.5t-13 28.5l-10 35q-25 89 -87 132q-21 15 -45 19z" />
<glyph unicode="3" horiz-adv-x="1245" d="M90 266q0 58 56 93q-19 36 -19 80t10.5 71t30.5 48q42 44 107 44q28 0 49 -19q-51 -65 -51 -192q0 -199 143 -257q45 -18 93.5 -18t92 14t78.5 46q80 73 80 218v108q0 107 -42 172q-40 63 -102 59q-156 -10 -156 84q0 38 27 63q21 -14 46 -14t36 5l34 15q57 27 89 87 q18 34 18 85v88q0 145 -62 214q-49 56 -138 56q-140 0 -188 -140q-16 -46 -16 -94t6.5 -73.5t15.5 -42.5q13 -27 29 -39q-20 -19 -51.5 -19t-58.5 10t-46 26q-40 34 -40 72.5t11 60.5q-48 33 -48 88t38 95q-32 41 -32 75.5t9.5 59t26.5 43.5q38 39 91 39q26 0 48 -11 q-14 -22 -14 -40q0 -27 30 -27q20 0 69 15q114 36 210 36t171.5 -19.5t138.5 -55.5q137 -78 170 -202q20 -69 95 -113q-77 -43 -100 -121q-41 -136 -190 -202q100 -38 170.5 -102.5t94.5 -148.5q16 -57 95 -103q-77 -43 -103.5 -131t-86 -159.5t-137.5 -118.5 q-155 -94 -357 -94q-126 0 -239 46q-19 8 -35 8q-29 0 -29 -25t14 -45q-24 -11 -50.5 -11t-50 11.5t-39.5 30.5q-35 40 -35 87.5t30 88.5q-37 37 -37 95zM767 1392l10 -22q24 -50 24 -157t-0.5 -145t-2.5 -67q-2 -48 -15 -100q59 10 79 183q6 53 72 76q-31 10 -52.5 39.5 t-26.5 58t-14.5 51.5t-21.5 41q-26 38 -52 42zM798 722q4 -9 13 -23t18 -39q22 -63 22 -147t-2.5 -130t-6.5 -83q-8 -72 -19 -99q32 6 47 32q24 41 37 115q22 116 77 135q-62 19 -72 84q-11 64 -39 97q-44 53 -75 58z" />
<glyph unicode="4" horiz-adv-x="1424" d="M2 506q0 41 52 109l520 807q50 66 89 97t79.5 31t78.5 -29q39 29 83 29t80 -20q40 20 77.5 20t59 -7t37.5 -19q37 -28 37 -67q0 -20 -11 -35q-22 17 -56 17q-75 0 -111 -64v-801q93 0 127.5 15.5t50 37t15.5 75.5t-21 89q16 14 50 14q67 0 97 -69q11 -25 11 -52.5 t-12 -61.5q41 -47 41 -111.5t-41 -111.5q12 -34 12 -61.5t-11 -52.5t-28 -40q-30 -28 -69 -28q-28 0 -50 16q21 35 21 80.5t-17 69t-40 33.5t-38.5 13t-32.5 5q-39 6 -65 6v-278q34 -76 123 -76q34 0 56 17q11 -15 11 -34.5t-11.5 -36.5t-31.5 -30q-46 -27 -105 -27t-110 32 q-51 -32 -116 -32t-116 32q-51 -32 -94.5 -32t-71.5 7.5t-49 19.5q-43 27 -43 66q0 20 11 35q22 -17 56 -17q89 0 123 76v278h-534q-60 0 -86.5 20t-26.5 46zM191 574h458v720zM745 265q61 24 61 197q0 28 68 51q-68 21 -68 57q0 538 -8 588q-12 73 -53 92v-985z" />
<glyph unicode="5" horiz-adv-x="1287" d="M91 277q0 61 54 95q-7 25 -7 68t10.5 70t29.5 48q43 44 108 44q28 0 49 -19q-51 -65 -51 -192q0 -129 86 -205q81 -70 206 -70q144 0 198 156q19 58 19 142v140q0 207 -103 276q-34 24 -97.5 24t-113.5 -10.5t-83 -23.5t-55.5 -23.5t-47.5 -10.5q-116 0 -112 108v516 q4 101 43 128q16 12 53.5 12t64.5 -40q134 40 256.5 40t287.5 -22q55 22 95 22t58 -5.5t33 -16.5q31 -24 31 -56.5t-22 -61.5q34 -25 34 -71t-32 -73q18 -24 18 -55.5t-8 -51.5t-23 -35q-33 -36 -79 -36q-44 0 -50 26q13 14 13 46.5t-20.5 49t-65.5 29.5q-97 28 -260.5 28 t-271.5 -39v-320q135 80 336 80q321 0 442 -201q39 -66 51.5 -120t23.5 -71.5t25 -31.5q19 -22 54 -42q-84 -47 -100 -121q-51 -235 -182 -329q-128 -92 -384 -92q-156 0 -268 46q-20 8 -36 8q-29 0 -29 -25t14 -45q-51 -23 -89 -5.5t-56 36.5q-40 41 -40 90t32 87 q-39 44 -39 105zM344 1358q72 39 276 39t298 -47q3 30 -13.5 47.5t-86.5 31t-148.5 13.5t-124 -3t-83.5 -9q-82 -11 -102.5 -29.5t-15.5 -42.5zM826 802q63 -113 63 -279q0 -226 -38 -302q35 7 52 36q28 50 42 127.5t34 104t43 34.5q-29 9 -48 38t-30 84t-45.5 103t-72.5 54 z" />
<glyph unicode="6" horiz-adv-x="1461" d="M57 799q107 50 121.5 180t72.5 235t147 180q187 156 443 156q117 0 173 -21q60 -22 93 -22q28 0 28 35q0 20 -7 44q26 15 58 15t53.5 -6t38.5 -19q41 -30 41 -75.5t-18 -73.5q36 -32 36 -87t-53 -96q6 -15 6 -37.5t-9.5 -44t-24.5 -36.5q-30 -27 -62 -27q-67 0 -87 18 q3 7 9 13.5t11 15.5q13 25 13 68.5t-20 83t-58 66.5q-72 51 -208 51q-102 0 -166 -68q-70 -73 -70 -206v-174q97 53 213 53t202.5 -17.5t154.5 -58.5q139 -83 185 -267q20 -81 95 -125q-75 -42 -101.5 -137.5t-67.5 -178t-105 -140.5q-134 -121 -383 -121q-403 0 -557 323 q-57 119 -75 296q-8 74 -42.5 128.5t-79.5 76.5zM202 799q38 -17 53 -35t16 -26q25 -214 48 -288q34 -104 87 -171q15 6 15 21q0 22 -21 69q-53 121 -53 430q0 232 56 396q7 25 7 38t-13 17q-49 -61 -68 -114q-36 -100 -58 -278q-2 -19 -49 -49q-11 -7 -20 -10zM618 357 q0 -178 124 -231q39 -17 77.5 -17t67 14t49.5 43q47 63 47 181v313q0 114 -45 170t-120 56q-135 0 -184 -128q-16 -44 -16 -102v-299zM1030 852q53 -119 53 -299q0 -174 -11.5 -257t-16.5 -95q41 8 71 149q9 42 18 92q17 92 72 111q-29 9 -48 38t-29 89t-42 113t-67 59z" />
<glyph unicode="7" horiz-adv-x="1250" d="M110 1119.5q0 59.5 47 103.5q-36 27 -36 71t26 70q-34 52 -34 99t9 75t24 49q35 47 84 47q-4 -107 98 -107q30 0 150 12q110 11 266.5 11t331.5 -47q36 47 76 47q58 0 58 -67q0 -39 -34 -110l-49 -101q-325 -660 -325 -1065q0 -116 134 -116q34 0 56 17q11 -15 11 -35 t-11.5 -37t-29.5 -30q-40 -26 -94.5 -26t-102.5 21q-88 -46 -166 7q-58 -41 -131 -21q-86 23 -86 111q0 87 33 167.5t60 139.5l151 309l280 504q-109 29 -231 29t-198 -17t-125 -46q-99 -56 -99 -140q0 -29 12 -50q-6 -14 -34 -14t-49.5 11t-37.5 29q-34 40 -34 99.5z M344 1358q72 39 276 39t298 -47q3 30 -13.5 47.5t-86.5 31t-148.5 13.5t-124 -3t-83.5 -9q-82 -11 -102.5 -29.5t-15.5 -42.5zM505 174q0 -36 20 -51.5t64 -15.5q-15 23 -15 45v34q0 76 84 276q88 203 111 259l30 76q11 29 11 42.5t-10 19.5q-295 -520 -295 -685z" />
<glyph unicode="8" horiz-adv-x="1407" d="M20 483q75 44 95 113q30 110 165 196q40 25 82 40q-118 73 -172 189l-20 43q-30 68 -80 96q40 19 55 39q20 27 46 88t76 113.5t116 85.5q125 64 322 64t325 -64.5t192 -212.5q34 -78 95 -113q-59 -33 -94 -108q-71 -153 -174 -220q134 -46 211 -164q23 -36 30.5 -64.5 t18.5 -46.5t25 -32q23 -25 53 -42q-70 -39 -103 -131t-84 -165t-122 -120q-138 -92 -370 -92q-253 0 -390 91q-71 47 -119 120t-70.5 148t-49.5 103t-59 46zM139 483q60 -19 79.5 -87t35.5 -103t31 -55q24 -33 54 -38q-66 165 -66 283q0 101 19 145.5t36 73.5 q-70 -12 -108 -136q-12 -38 -31 -55.5t-50 -27.5zM199 1160q61 -20 78 -65q31 -80 59.5 -115.5t69.5 -38.5q-66 91 -66 238q0 114 76 223q-35 -6 -73 -44.5t-61 -113.5q-16 -45 -58 -72q-13 -8 -25 -12zM515 325q0 -102 60 -162q54 -54 133 -54q78 0 128 54q56 59 56 162 v233q0 133 -118 164q-33 8 -67.5 8t-69 -12t-61.5 -34q-61 -50 -61 -126v-233zM545 1034q0 -137 108 -163q29 -7 54.5 -7t53 7t49.5 26q52 43 52 137v223q0 69 -48 115q-45 43 -106 43t-98 -31q-65 -53 -65 -120v-230zM919 1392l10 -22q24 -50 24 -210v-66q0 -102 -8 -153 q25 4 36 25q18 34 27 85t14.5 63.5t14.5 20.5q17 15 49 25q-38 13 -55.5 39.5t-22 51.5t-14.5 51.5t-22 45.5q-27 40 -53 44zM955 201q32 6 47 32q24 41 37 115q22 116 77 135q-65 20 -75 81.5t-33.5 97t-49.5 40.5q25 -56 25 -164.5t-2.5 -154.5t-6.5 -83q-8 -72 -19 -99z " />
<glyph unicode="9" horiz-adv-x="1461" d="M40 1068q77 43 103 130t84 155.5t133 112.5q146 84 312 84t277 -40.5t189 -116.5q150 -148 181 -425q15 -129 102 -171q-87 -41 -102 -163q-30 -263 -185 -448q-179 -211 -471 -211q-117 0 -173 21q-60 22 -93 22q-28 0 -28 -35q0 -19 7 -44q-26 -15 -58 -15t-53.5 6 t-38.5 19q-41 30 -41 75t17 74q-35 33 -35 86.5t53 96.5q-6 15 -6 37.5t9.5 44t24.5 35.5q30 28 62 28q67 0 87 -18q-3 -7 -9 -13.5t-11 -16.5q-13 -24 -13 -67.5t20 -83t58 -65.5q72 -52 208 -52q100 0 168 68q71 71 71 187v195q-99 -55 -208.5 -55t-199 23t-159.5 76 q-147 111 -187 351q-12 64 -95 113zM174 1068q54 -25 59 -50q33 -150 90 -238l30 -44q14 11 14 33t-9 44.5t-15 40.5l-15 44q-34 101 -34 150t6.5 78t15.5 55q18 47 36 78q42 69 42 79q0 22 -14 33q-67 -52 -115 -153q-20 -43 -32 -98q-5 -27 -59 -52zM521 871 q0 -168 102 -217q31 -15 76 -15t82.5 17.5t61.5 46.5q46 56 46 147v303q0 187 -111 244q-37 19 -79 19t-73 -13.5t-54 -42.5q-51 -61 -51 -177v-312zM985 265q42 16 52 89q15 90 15 370q0 50 69 74q-69 21 -69 86t-1 106t-3 72q-8 123 -28 152t-35 36v-985z" />
<glyph unicode=":" horiz-adv-x="678" d="M78 164q56 35 70.5 56.5t23.5 38.5q24 45 70.5 70.5t100.5 25.5q112 0 162 -94q40 -74 95 -97q-15 -9 -28 -16t-24 -16q-23 -19 -46 -58.5t-65.5 -69t-93.5 -29.5t-98.5 29.5t-72.5 74.5q-29 50 -52.5 63.5t-41.5 21.5zM78 796q56 35 70.5 56.5t23.5 38.5 q24 45 70.5 70.5t100.5 25.5q112 0 162 -94q40 -74 95 -97q-15 -9 -28 -16t-24 -16q-23 -19 -46 -58.5t-65.5 -69t-93.5 -29.5t-98.5 29.5t-72.5 74.5q-29 50 -52.5 63.5t-41.5 21.5zM193 164q16 -9 29.5 -28.5t31.5 -41.5q27 -32 71 -32q-6 11 -12.5 20.5t-12.5 20t-9.5 25 t-3.5 54t38 96.5q-22 0 -39 -8.5t-30 -25.5t-18.5 -26.5t-13.5 -19.5q-19 -28 -31 -34zM193 796q16 -9 29.5 -28.5t31.5 -41.5q27 -32 71 -32q-6 11 -12.5 20.5t-12.5 20t-9.5 25t-3.5 54t38 96.5q-22 0 -39 -8.5t-30 -25.5t-18.5 -26.5t-13.5 -19.5q-19 -28 -31 -34z" />
<glyph unicode=";" horiz-adv-x="678" d="M78 796q56 35 70.5 56.5t23.5 38.5q24 45 70.5 70.5t100.5 25.5q112 0 162 -94q40 -74 95 -97q-15 -9 -28 -16t-24 -16q-23 -19 -46 -58.5t-65.5 -69t-93.5 -29.5t-98.5 29.5t-72.5 74.5q-29 50 -52.5 63.5t-41.5 21.5zM83 164q48 31 62 54l22 41q37 68 124 89 q27 7 67.5 7t79 -24.5t59.5 -63.5q43 -80 98 -103q-62 -25 -85 -108q-6 -22 -16 -66.5t-39.5 -112t-67.5 -119.5q-82 -115 -167 -115q-34 0 -55 17t-21 45q54 6 101 76.5t47 147.5q0 26 -8 55q-80 27 -117 95l-18 31q-20 34 -66 54zM188 164q16 -9 29.5 -28.5t31.5 -41.5 q27 -32 71 -32q-6 11 -12.5 20.5t-12.5 20t-9.5 25t-3.5 54t38 96.5q-22 0 -39 -8.5t-30 -25.5t-18.5 -26.5t-13.5 -19.5q-19 -28 -31 -34zM193 796q16 -9 29.5 -28.5t31.5 -41.5q27 -32 71 -32q-6 11 -12.5 20.5t-12.5 20t-9.5 25t-3.5 54t38 96.5q-22 0 -39 -8.5 t-30 -25.5t-18.5 -26.5t-13.5 -19.5q-19 -28 -31 -34z" />
<glyph unicode="&#x3c;" horiz-adv-x="1022" d="M164 598q0 46 56 85l638 439q20 -20 20 -56t-5.5 -64t-21.5 -56q-32 -55 -122 -114l-352 -234l352 -234q125 -87 143 -170q6 -28 6 -51q0 -49 -20 -69l-638 439q-56 39 -56 85z" />
<glyph unicode="=" horiz-adv-x="1108" d="M170 270v146h768v-146h-768zM170 774v146h768v-146h-768z" />
<glyph unicode="&#x3e;" horiz-adv-x="1022" d="M143 143q0 -49 20 -69l638 439q56 39 56 85t-56 85l-638 439q-20 -20 -20 -56t5.5 -64t21.5 -56q32 -55 122 -114l352 -234l-352 -234q-125 -87 -143 -170q-6 -28 -6 -51z" />
<glyph unicode="?" horiz-adv-x="1174" d="M-28 1292q64 36 84.5 66t36.5 73t62 91t109 82q134 73 311 73q377 0 479 -272q24 -71 95 -113q-16 -9 -32 -17t-29 -19q-32 -24 -41.5 -77t-45.5 -106.5t-82.5 -98.5t-98.5 -84l-94 -72q-98 -80 -98 -135q0 -27 17 -39.5t36.5 -12.5t40.5 14q23 -10 23 -49t-11.5 -66.5 t-31.5 -47.5q-43 -43 -88.5 -43t-76 11.5t-54.5 32.5q-54 47 -54 110t22 108.5t55 86t71 79.5t71 83q76 104 76 220l1 37q0 36 -39 61q-16 10 -44 24q60 27 71 50q11 24 11 87q0 116 -163.5 116t-163.5 -120v-265q0 -101 91 -101q32 0 48 14q15 -8 15 -31t-9.5 -39 t-29.5 -29q-43 -29 -111 -29t-119.5 21.5t-93.5 55.5q-86 71 -116 169q-17 56 -69 84zM100 1291q56 -19 73 -65q6 -17 12 -39q21 -70 69 -85q-28 81 -28 130v65q0 111 28 205q-26 -13 -36 -26q-24 -31 -39.5 -86t-31.5 -72t-47 -27zM336 164q56 35 70.5 56.5t23.5 38.5 q24 45 70.5 70.5t100.5 25.5q112 0 162 -94q40 -74 95 -97q-15 -9 -28 -16t-24 -16q-23 -19 -46 -58.5t-65.5 -69t-93.5 -29.5t-98.5 29.5t-72.5 74.5q-29 50 -52.5 63.5t-41.5 21.5zM451 164q16 -9 29.5 -28.5t31.5 -41.5q27 -32 71 -32q-6 11 -12.5 20.5t-12.5 20t-9.5 25 t-3.5 54t38 96.5q-22 0 -39 -8.5t-30 -25.5t-18.5 -26.5t-13.5 -19.5q-19 -28 -31 -34zM760 1291q32 -11 40 -28.5t8 -49.5v-36q0 -83 -15 -115q46 0 69 146q8 52 8 96t-7.5 87t-18.5 72q-22 59 -51 59q15 -32 15 -109.5t-11.5 -96t-36.5 -25.5z" />
<glyph unicode="@" horiz-adv-x="2462" d="M70 456q0 288 184 542q181 251 488 398q321 154 693 154q457 0 715 -204q117 -93 174.5 -215t57.5 -242.5t-31 -221t-86 -188t-129.5 -159t-161.5 -122.5q-182 -108 -375 -108t-294 74q-105 -74 -251 -74q-154 0 -246 119q-90 115 -90 298q0 58 -14 80q-21 36 -67 62 q51 15 83 37.5t40 42.5q78 200 256 304q148 87 317 87q92 0 174 -20h226q-86 -355 -86 -374q0 -49 64 -86q-58 -22 -75 -41q-27 -30 -37 -75l-35 -155q-2 -8 -4 -26l-6 -37q-6 -51 -6 -63q0 -54 44 -54q75 0 151.5 50t138.5 138q141 198 141 468q0 423 -319 548 q-110 43 -250 43t-265 -35t-237 -99t-207 -154t-165 -200q-148 -233 -154 -501q-8 -321 202 -513q207 -190 562 -190t587 154q81 53 142 130q19 -15 19 -56t-43.5 -91.5t-113 -92t-142 -72t-159.5 -53.5q-189 -50 -364.5 -50t-302.5 22t-239 66.5t-204.5 113.5t-159.5 163 q-140 197 -140 478zM175 456q0 -166 69 -322q73 -164 192 -240q4 4 4 19q0 19 -28.5 54.5t-62 91.5t-59.5 119q-54 135 -54 251t17 194t49 151q54 122 181 289q18 23 18 39t-3 24q-153 -122 -241 -309q-82 -174 -82 -361zM798 513q0 -167 91 -258q-30 84 -30 226 q0 270 200 480q-108 -53 -182 -173q-79 -129 -79 -275zM1015 446.5q0 -75.5 8.5 -113.5t24.5 -66q34 -59 96 -59q66 0 125 59l27 150q28 126 28 147t-9 34.5t-21 22t-24 13t-19 7.5q106 47 116 90l71 280q-27 6 -71.5 6t-102.5 -25t-101 -66.5t-67.5 -95t-24.5 -106 t66 -84.5q-71 -23 -95 -68q-27 -50 -27 -125.5zM1355 265q49 19 68 72q60 181 102 485q5 36 5 54q0 38 -35 54zM2048 495q141 122 141 390q0 102 -29 174q-51 127 -112 162q80 -147 80 -355q0 -202 -80 -371z" />
<glyph unicode="A" horiz-adv-x="1458" d="M-70 61q0 32 10 47q29 -17 71.5 -17t64 11.5t41.5 31.5l142 421l20 69q9 31 9 57q0 91 -86 116q79 30 111 65q50 55 79 145l110 369q-32 43 -76 43t-82 -19q-10 18 -10 40.5t9.5 42.5t26.5 35q38 32 108 32t119 -42q50 42 124.5 42t118.5 -40q64 40 130 40t102.5 -25 t36.5 -68q0 -20 -12 -35q-23 17 -54 17q-67 0 -87 -91l128 -409q24 -77 120 -120q27 -12 55 -22q-100 -33 -100 -99q0 -25 8 -44l191 -512q44 -46 89 -46t70 17q11 -8 11 -30t-7 -40.5t-22 -32.5q-32 -30 -94 -30t-108 34q-52 -34 -117.5 -34t-112.5 33q-45 -33 -106 -33 t-101 25.5t-42 72.5q0 28 11 35q27 -17 55 -17q59 0 83 24l-76 255h-541l-66 -221q41 -63 99.5 -63t87.5 17q11 -18 11 -49.5t-31 -55t-80 -23.5t-90 25q-36 -25 -82.5 -25t-79.5 27q-37 -27 -84.5 -27t-76 24.5t-28.5 56.5zM390 510h460l-232 771zM727 1250 q67 -242 88 -310q145 -446 174 -529l52 -146q18 0 18 40q0 70 -21 136l-38 117q-40 132 -40 168q0 54 49 72q-69 14 -84 43q-7 12 -11.5 19t-9 16.5t-10.5 24.5t-16 43l-62 187q-22 70 -65 106q-13 11 -24 13zM1336 175l2 -6z" />
<glyph unicode="B" horiz-adv-x="1521" d="M75 73q0 20 11 35q22 -17 56 -17q89 0 123 76v489q0 45 -19 69q-30 39 -103 74q67 31 88 54q34 39 34 87v422q-34 77 -123 77q-34 0 -56 -17q-11 15 -11 34.5t11.5 36.5t31.5 29q46 28 105.5 28t109.5 -33q52 33 116 33q70 0 122 -37q111 47 221 47t200.5 -21.5 t163.5 -60.5q159 -84 198 -218q22 -74 95 -110q-81 -56 -100 -128q-42 -158 -170 -206q188 -52 245 -246q20 -69 95 -113q-77 -43 -103 -130t-91.5 -156.5t-152.5 -114.5q-168 -86 -379 -86q-126 0 -225 45q-52 -35 -118 -35t-117 32q-51 -32 -94.5 -32t-71.5 7.5t-49 20.5 q-43 26 -43 65zM281 797q60 -21 68 -51q12 -48 12 -351v-130q50 19 55 131q6 112 6 310t-0.5 263.5t-1.5 105.5q-3 118 -22.5 142.5t-36.5 32.5q0 -348 -12 -396q-14 -40 -68 -57zM633 261q0 -70 53 -115q51 -42 122 -42q69 0 116 30q90 59 90 135v293q0 91 -59 137 q-50 39 -131 39h-191v-477zM633 864h187q88 0 125 42q39 43 39 148v231q0 61 -64 103q-56 37 -103.5 37t-78 -11.5t-54.5 -31.5q-51 -42 -51 -101v-417zM1041 1402q34 -76 34 -222q0 -215 -28 -279q42 8 71 81q11 27 16.5 57t9 46.5t10.5 28.5q15 25 54 38q-40 13 -50 28 q-13 17 -21 62t-19 73.5t-24 46.5q-25 36 -53 40zM1081 707q24 -54 24 -250q0 -248 -18 -291q21 4 43 51t31 97t12.5 68t10.5 32q16 30 54 43q-60 19 -70.5 76t-20.5 88t-21 49q-19 32 -45 37z" />
<glyph unicode="C" horiz-adv-x="1320" d="M30 797q47 22 65 46q29 41 37.5 111.5t32.5 146.5t63.5 144.5t94.5 126t126 99.5q150 89 350 89q195 0 323 -98q115 -89 149 -242q16 -76 41 -94q10 -8 25 -15q-30 -50 -91 -55q-27 -4 -58 11q-55 -94 -155 -100q-21 -2 -32 8q25 34 25 77v7q0 9 -3 18q-16 -3 -30 -3 q-27 0 -48 11q-52 30 -54 65q0 8 3 16q17 -5 34 -5q43 0 84 33q36 29 36 66q0 39 -18 72q-16 29 -46 52q-68 54 -170 54q-174 0 -226 -156q-17 -52 -17 -122v-202q0 -113 110 -161q-110 -53 -110 -173v-247q0 -190 151 -251q49 -19 108 -19t111.5 16t92.5 50t63.5 88 t23.5 113.5t-23 92.5q16 28 67 28t78.5 -33t27.5 -101.5t-36.5 -142t-102.5 -128.5q-146 -120 -365 -120q-261 0 -429 164q-171 168 -206 479q-17 142 -102 184zM165 797q56 -25 59 -51q36 -310 92 -414q19 -37 43 -67q15 6 15 21q0 22 -21 69q-53 121 -53 442q0 234 56 398 q7 25 7 38t-13 17q-47 -59 -67 -117q-37 -106 -59 -287q-3 -26 -59 -49z" />
<glyph unicode="D" horiz-adv-x="1590" d="M75 73q0 20 11 35q22 -17 56 -17q89 0 123 76v489q0 46 -19 68q-30 37 -103 73q68 31 88 55q34 39 34 88v422q-34 77 -123 77q-34 0 -56 -17q-11 15 -11 34.5t11.5 36.5t31.5 29q46 28 105.5 28t109.5 -33q52 33 110.5 33t108.5 -25q118 35 219 35t179 -11t149 -38.5 t133.5 -73.5t111.5 -115q104 -145 133 -384q6 -59 25 -83q32 -39 87 -58q-58 -22 -76 -45q-30 -38 -36 -96q-33 -332 -223 -512q-183 -174 -475 -174q-117 0 -210 36q-45 -26 -119 -26q-66 0 -117 32q-51 -32 -94.5 -32t-71.5 7.5t-49 20.5q-43 26 -43 65zM281 797 q60 -21 68 -51q12 -48 12 -351v-130q50 19 55 131q6 112 6 310t-0.5 263.5t-1.5 105.5q-3 118 -22.5 142.5t-36.5 32.5q0 -348 -12 -396q-14 -40 -68 -57zM633 157q48 -54 127.5 -54t138 31.5t98.5 97.5q81 135 81 424q0 63 -20 86q-27 32 -89 55q61 21 79 42q30 36 30 91.5 t-8 110.5t-25.5 109t-44 103.5t-63.5 87.5q-81 83 -191 83q-34 0 -66 -1.5t-47 -19.5v-1246zM1130 1250q75 -209 75 -358q0 -51 -8.5 -60t-18.5 -16q-18 -12 -39 -19q60 -27 63 -52q2 -11 2 -22v-25q0 -135 -28 -261.5t-42 -171.5q45 13 65.5 59.5t35 100t23.5 113.5 q20 123 20 257q0 240 -71 387q-31 58 -77 68z" />
<glyph unicode="E" horiz-adv-x="1441" d="M75 73q0 20 11 35q22 -17 56 -17q89 0 123 76v489q0 46 -19 68q-30 37 -103 73q68 31 88 55q34 39 34 88v422q-34 77 -123 77q-34 0 -56 -17q-11 15 -11 34.5t11.5 36.5t31.5 29q46 28 105.5 28t109.5 -33q52 33 119 33t122 -39q106 39 245 39q103 0 176 -20l89 -24 q16 -4 31 -4q28 0 28 40q0 10 -7 34q28 5 71 5t73 -28.5t30 -82t-19 -78.5q27 -40 27 -97.5t-39 -96.5q12 -30 12 -58.5t-9.5 -52t-23.5 -39.5q-28 -29 -57 -29q-42 0 -76 18q12 24 12 71q0 110 -55 193q-75 114 -225 114q-76 0 -137.5 -37t-86.5 -106v-387q35 -22 65.5 -22 t46 1t31.5 4q41 6 63 16q42 20 42 98q0 44 -21 68q20 14 50 14q67 0 97 -54q11 -19 11 -42t-12 -57q41 -47 41 -111.5t-41 -111.5q12 -34 12 -61.5t-11 -52.5t-27 -40q-31 -28 -70 -28q-28 0 -50 16q21 35 21 82q0 93 -51 115q-45 18 -103 18t-94 -21v-500q58 -102 224 -102 q188 0 256 116q79 133 79 285q0 44 -8 68q25 25 52 25t41 -7.5t25 -18.5q24 -27 24 -55l-6 -49q0 -19 10 -31q20 -21 20 -39.5t-12 -44.5q23 -13 41.5 -38.5t18.5 -52.5q0 -57 -48 -102q21 -30 21 -86.5t-32.5 -96t-84.5 -39.5q-28 0 -58 6q4 22 4 44q0 46 -42 46 q-47 0 -94 -19q-111 -45 -252.5 -45t-240.5 37q-52 -37 -121 -37q-66 0 -117 32q-51 -32 -94.5 -32t-71.5 7.5t-49 20.5q-43 26 -43 65zM281 797q60 -21 68 -51q12 -48 12 -351v-130q50 19 55 131q6 112 6 310t-0.5 263.5t-1.5 105.5q-3 118 -22.5 142.5t-36.5 32.5 q0 -348 -12 -396q-14 -40 -68 -57zM613 275q0 -3 1 -5z" />
<glyph unicode="F" horiz-adv-x="1351" d="M75 1456.5q0 19.5 12.5 36.5t34.5 29q47 28 107.5 28t110.5 -33q52 33 119.5 33t122.5 -40q111 40 264 40q97 0 166 -20l86 -24q16 -4 31 -4q28 0 28 40q0 10 -7 34q28 5 71 5t73 -28.5t30 -84t-22 -85.5q30 -46 30 -108t-40 -107q13 -32 13 -64.5t-9 -57.5t-23 -42 q-28 -34 -67 -34q-35 0 -67 17q13 27 13 64.5t-3.5 63t-10.5 53.5q-14 63 -47 124q-66 123 -207 123q-175 0 -244 -91v-462q32 -18 59 -18t44 1t34 3q43 5 65 16q43 20 43 90.5t-21 105.5q16 14 50 14q67 0 97 -69q11 -25 11 -52.5t-12 -61.5q41 -47 41 -111.5t-41 -111.5 q12 -34 12 -61.5t-11 -52.5t-27 -40q-31 -28 -70 -28q-28 0 -50 16q21 35 21 82q0 93 -51 115q-43 17 -102.5 17t-91.5 -18v-528q38 -79 143 -79q34 0 56 17q11 -15 11 -34.5t-11.5 -36.5t-32.5 -29q-45 -28 -107.5 -28t-120.5 31q-52 -31 -119.5 -31t-118.5 32 q-51 -32 -94.5 -32t-71.5 7.5t-48 20.5q-44 26 -44 65q0 20 11 35q22 -17 56 -17q89 0 123 76v490q0 45 -18 67q-31 37 -104 73q68 31 88 55q34 39 34 88v422q-34 77 -123 77q-41 0 -63 -17q-11 15 -11 34.5zM288 797q60 -21 68 -51q12 -48 12 -351v-130q50 19 56 131 q5 112 5 310t-0.5 263.5t-1.5 105.5q-3 118 -22.5 142.5t-36.5 32.5q0 -348 -12 -396q-14 -40 -68 -57z" />
<glyph unicode="G" horiz-adv-x="1473" d="M40 797q87 41 103 172.5t76 243t154 189.5q192 158 481 158q199 0 334 -91q125 -84 155 -219q16 -76 41 -94q10 -8 25 -15q-50 -75 -102 -75q-9 0 -18 2q-15 3 -28 8q-22 -44 -57 -73t-77.5 -33.5t-53.5 5.5q25 37 25 94q0 7 -3 18q-5 -2 -9 -2t-15 -0.5t-31 7.5t-37 22 q-38 30 -40 66q0 8 3 16q18 -5 35 -5q43 0 83 33q36 31 36 66q0 38 -20 66q-19 24 -53 42q-76 40 -195 40q-271 0 -271 -314v-166q0 -113 110 -161q-110 -53 -110 -173v-268q0 -127 48 -188.5t152 -61.5q123 0 163 110q13 36 13 83v231q-19 19 -53 19t-56 -17q-11 11 -11 42 t26 58.5t79.5 27.5t88.5 -29q48 29 103 29t100 -30q42 30 79 30t58 -7t37 -19q36 -27 36 -67q0 -24 -11 -35q-23 17 -59 17t-70 -68v-328q19 -62 83 -62q24 0 46 17q11 -15 11 -35q0 -41 -45 -67t-128.5 -26t-144.5 44q-154 -54 -304.5 -54t-263 43.5t-198.5 126.5 q-183 175 -218 485q-15 130 -102 172zM174 797q56 -25 59 -51q36 -310 91 -414q20 -37 44 -67q15 6 15 21q0 22 -21 69.5t-38.5 161t-17.5 263.5q0 243 59 415q7 25 7 38t-13 17q-47 -59 -67 -117q-37 -106 -59 -287q-3 -26 -59 -49zM1060 205q58 36 58 127v57q0 85 -58 111 v-295zM1293 207l3 -20z" />
<glyph unicode="H" horiz-adv-x="1721" d="M78 73q0 20 11 35q22 -17 56 -17q89 0 123 76v489q0 78 -78 118l-44 23q89 41 112 89q10 22 10 54v422q-34 77 -123 77q-34 0 -56 -17q-11 15 -11 34.5t11.5 36.5t32.5 29q45 28 103.5 28t109.5 -32q45 32 108.5 32t112.5 -32q47 32 105 32q85 0 121 -57q12 -18 12 -38 t-12 -33q-22 17 -55 17q-77 0 -103 -75v-528h473v528q-26 75 -103 75q-33 0 -55 -17q-12 13 -12 33t11.5 38t29.5 31q38 26 92 26q58 0 105 -32q51 32 113.5 32t107.5 -32q49 32 93 32t72 -7.5t49 -20.5q43 -26 43 -65q0 -20 -11 -35q-22 17 -56 17q-89 0 -123 -77v-422 q0 -78 77 -121q22 -12 45 -22q-60 -29 -81 -47q-41 -38 -41 -94v-489q34 -76 123 -76q34 0 56 17q11 -15 11 -34.5t-11.5 -36.5t-31.5 -29q-46 -28 -105.5 -28t-108.5 32q-45 -32 -107.5 -32t-113.5 32q-47 -32 -105 -32q-85 0 -122 57q-11 18 -11 38t12 33q22 -17 55 -17 q77 0 103 75v527h-473v-527q26 -75 103 -75q33 0 55 17q12 -13 12 -33t-11.5 -38t-30.5 -31q-36 -26 -91 -26q-57 0 -105 31q-50 -31 -113 -31t-108 32q-51 -32 -94 -32t-71 7.5t-48 20.5q-44 26 -44 65zM284 797q60 -21 68 -51q12 -48 12 -351v-130q48 19 54 131 q5 112 5 310t-0.5 263.5t-1.5 105.5q-3 117 -21.5 142t-35.5 33q0 -348 -12 -396q-14 -40 -68 -57zM1179 656q0 -248 7 -292q13 -84 52 -99v130q0 266 4 300.5t8 48.5q9 35 61 53q-46 14 -61 57q-12 48 -12 396q-39 -18 -48 -72q-9 -59 -10 -166.5t-1 -355.5z" />
<glyph unicode="I" horiz-adv-x="898" d="M75 73q0 20 11 35q22 -17 56 -17q89 0 123 76v489q0 46 -19 68q-30 37 -103 73q68 31 88 55q34 39 34 88v422q-34 77 -123 77q-34 0 -56 -17q-11 15 -11 34.5t11.5 36.5t31.5 29q46 28 105.5 28t109.5 -33q52 33 116 33t116 -33q50 33 94 33t72 -7.5t49 -20.5 q43 -26 43 -65q0 -20 -11 -35q-22 17 -56 17q-89 0 -123 -77v-422q0 -49 21 -73q33 -39 101 -70q-73 -36 -93 -59q-29 -36 -29 -82v-489q34 -76 123 -76q34 0 56 17q11 -15 11 -34.5t-11.5 -36.5t-31.5 -29q-46 -28 -105 -28t-110 32q-51 -32 -116 -32t-116 32 q-51 -32 -94.5 -32t-71.5 7.5t-49 20.5q-43 26 -43 65zM281 797q60 -21 68 -51q12 -48 12 -351v-130q50 19 55 131q6 112 6 310t-0.5 263.5t-1.5 105.5q-3 118 -22.5 142.5t-36.5 32.5q0 -348 -12 -396q-14 -40 -68 -57z" />
<glyph unicode="J" horiz-adv-x="1233" d="M-6 503q30 49 84 49q30 0 58 -17q47 60 178 60q22 0 31 -11q-13 -15 -5.5 -43.5t7.5 -35.5v-12q0 -5 2 -10q10 2 21 2t27.5 -6t29.5 -17q30 -25 30 -59q0 -9 -3 -16q-18 7 -39 7t-42 -7t-39 -23q-40 -35 -40 -102q0 -65 50 -112q51 -46 131.5 -46t143.5 47v505 q0 46 -19 68q-30 37 -103 73q68 31 88 55q34 39 34 88v422q-34 77 -123 77q-34 0 -56 -17q-11 15 -11 34.5t11.5 36.5t31.5 29q46 28 105.5 28t109.5 -33q52 33 116 33t116 -33q50 33 94 33t72 -7.5t49 -20.5q43 -26 43 -65q0 -20 -11 -35q-22 17 -56 17q-89 0 -123 -77 v-422q0 -49 21 -73q33 -39 101 -70q-73 -36 -93 -59q-29 -36 -29 -82v-294q22 -61 73 -81q-40 -13 -75 -47t-38 -44q-32 -99 -174 -162q-131 -58 -245 -58t-192.5 28.5t-138.5 79.5q-132 111 -132 272q0 106 -71 153zM635 797q60 -21 68 -51q12 -48 12 -351v-130 q50 19 55 131q6 112 6 310t-0.5 263.5t-1.5 105.5q-3 118 -22.5 142.5t-36.5 32.5q0 -348 -12 -396q-14 -40 -68 -57z" />
<glyph unicode="K" horiz-adv-x="1541" d="M75 73q0 20 11 35q22 -17 56 -17q89 0 123 76v489q0 78 -78 118l-44 23q89 41 111 89q11 22 11 54v422q-34 77 -123 77q-34 0 -56 -17q-11 15 -11 34.5t11.5 36.5t31.5 29q46 28 104.5 28t109.5 -32q45 32 108.5 32t112.5 -32q47 32 105 32q85 0 122 -57q11 -18 11 -38 t-12 -33q-22 17 -55 17q-77 0 -103 -75v-514l460 545q0 45 -50 45t-83 -19q-11 18 -11 46.5t30 55.5t83.5 27t88.5 -26q35 26 78 26t77 -27q34 27 69 27t55.5 -6.5t35.5 -17.5q35 -26 35 -58t-10 -47q-21 7 -48 7q-55 0 -80.5 -11t-49 -25t-47.5 -32l-46 -34 q-23 -18 -37 -33l-229 -269l421 -766q78 -140 125 -160q17 -7 44 -7t49 17q11 -15 11 -34.5t-11 -36.5t-29 -29q-41 -28 -104 -28t-114 32q-51 -32 -116 -32t-116 32q-51 -32 -111.5 -32t-94 27.5t-33.5 65.5q0 20 11 35q22 -17 56 -17q63 0 93 49l-309 618l-93 -109v-483 q26 -75 103 -75q33 0 55 17q12 -13 12 -33t-11.5 -38t-29.5 -31q-38 -26 -92 -26q-57 0 -105 31q-50 -31 -113 -31t-108 32q-51 -32 -94 -32t-71 7.5t-49 20.5q-43 26 -43 65zM279 797q60 -21 68 -51q12 -48 12 -351v-130q50 19 55 131q6 112 6 310t-0.5 263.5t-1.5 105.5 q-3 118 -22.5 142.5t-36.5 32.5q0 -348 -12 -396q-14 -40 -68 -57zM789 820l275 -555q12 16 12 47q0 68 -47 155l-195 400z" />
<glyph unicode="L" horiz-adv-x="1351" d="M75 73q0 20 11 35q22 -17 56 -17q89 0 123 76v489q0 46 -19 68q-30 37 -103 73q68 31 88 55q34 39 34 88v422q-34 77 -123 77q-34 0 -56 -17q-11 15 -11 34.5t11.5 36.5t31.5 29q46 28 105.5 28t109.5 -33q52 33 116 33t116 -33q56 33 102 33t74 -7.5t49 -20.5 q43 -26 43 -65q0 -20 -11 -35q-22 17 -59 17t-74.5 -19.5t-55.5 -58.5v-421q0 -49 21 -73q33 -39 101 -70q-73 -36 -93 -59q-29 -36 -29 -82v-437q66 -105 165 -105q245 0 315 208q31 92 31 168.5t-21 102.5q23 19 47.5 19t45.5 -10t38 -30q35 -41 35 -97t-9 -86 q46 -38 46 -107t-39 -112q33 -42 33 -76t-9.5 -58.5t-26.5 -43.5q-38 -39 -91 -39q-26 0 -48 11q4 22 4 44q0 46 -42 46q-31 0 -86 -25q-106 -49 -241.5 -49t-211.5 35q-52 -35 -118 -35t-117 32q-51 -32 -94.5 -32t-71.5 7.5t-49 20.5q-43 26 -43 65zM281 797 q60 -21 68 -51q12 -48 12 -351v-130q50 19 55 131q6 112 6 310t-0.5 263.5t-1.5 105.5q-3 118 -22.5 142.5t-36.5 32.5q0 -348 -12 -396q-14 -40 -68 -57z" />
<glyph unicode="M" horiz-adv-x="2094" d="M66 61q0 32 10 47q29 -17 92 -17q25 0 55 25.5t48 70.5v469q0 47 -20 70q-30 36 -102 71q73 35 92 58q30 38 30 85l1 436q-24 63 -106 63q-42 0 -62 -17q-10 13 -10 34t9 38t25 30q34 26 91 26t94 -33q33 33 77 33t75 -37q39 37 69 37t46 -5t32 -19q32 -25 67 -101 l383 -795l316 779l28 65q25 55 47 65.5t51.5 10.5t60.5 -22q38 22 99.5 22t106.5 -33q40 33 83.5 33t68 -7t42.5 -19q38 -27 38 -67q0 -20 -11 -35q-22 17 -56 17q-76 0 -103 -71v-428q0 -49 21 -73q33 -39 101 -70q-73 -36 -93 -59q-29 -36 -29 -82v-489q34 -76 123 -76 q34 0 56 17q11 -15 11 -34.5t-11.5 -36.5t-31.5 -29q-46 -28 -105 -28t-110 32q-47 -32 -107 -32q-64 0 -113 32q-51 -32 -94.5 -32t-71.5 7.5t-49 20.5q-43 26 -43 65q0 20 11 35q22 -17 56 -17q89 0 123 76v1093l-390 -966l-43 -98q-31 -70 -43.5 -79t-20.5 -9 q-25 0 -35 5l-534 1053v-978q19 -46 52 -71.5t74 -25.5t70 17q11 -18 11 -49.5t-31 -55t-80 -23.5t-90 25q-36 -25 -82.5 -25t-79.5 27q-37 -27 -84.5 -27t-76 24.5t-28.5 56.5zM284 240l1 12q-1 -4 -1 -12zM397 252q0 -8 1 -12zM542 1208q0 -81 68 -215l364 -727q7 9 7 38 q0 87 -83 255l-346 692q-10 -15 -10 -43zM1573 265q50 19 55 131q6 112 6 310t-0.5 263.5t-1.5 105.5q-3 118 -22.5 142.5t-36.5 32.5v-985z" />
<glyph unicode="N" horiz-adv-x="1658" d="M65 61q0 32 10 47q29 -17 91.5 -17t103.5 85v480q0 47 -20 70q-30 36 -102 71q73 35 92 58q30 38 30 85v422q-34 77 -123 77q-34 0 -56 -17q-11 15 -11 35t10 37t26 30q35 26 94.5 26t101.5 -33q28 33 77 33t79 -34q29 34 59.5 34t46 -6t26.5 -16q16 -13 36 -51 l620 -1117v305q0 44 -19 65q-29 31 -103 67q69 34 89 55q33 35 33 78v419q-23 42 -56.5 66t-76 24t-71.5 -17q-11 18 -11 49.5t31 55t81 23.5t89 -26q35 26 80.5 26t80.5 -27q39 27 86 27t75.5 -24.5t28.5 -56.5t-10 -47q-29 17 -93 17t-102 -86v-423q0 -43 18 -63 q30 -33 104 -70q-81 -44 -97 -61q-25 -27 -25 -71l18 -508q36 -66 113 -66q34 0 56 17q11 -15 11 -35t-10 -37t-26 -30q-35 -26 -85 -26t-90 20q-37 -21 -74 -21q-43 0 -87 28q-32 -27 -61 -27t-43 5t-26 18q-19 19 -59 95l-615 1060v-982q41 -85 104 -85t92 17 q11 -18 11 -49.5t-31 -55t-80 -23.5t-90 25q-36 -25 -82.5 -25t-79.5 27q-37 -27 -84.5 -27t-76 24.5t-28.5 56.5zM536 1210q0 -62 85 -217l415 -728q7 9 7 28.5t-5.5 44t-15.5 52.5q-21 56 -55 120l-424 740q-7 -11 -7 -40z" />
<glyph unicode="O" horiz-adv-x="1575" d="M46 797q87 41 102.5 168.5t70.5 238.5t140 190q179 166 431 166q259 0 429 -154q177 -160 208 -448q13 -120 102 -161q-87 -43 -103 -182t-63 -260t-126 -207q-165 -178 -446 -178q-269 0 -441 178q-83 86 -134.5 207t-63.5 229t-36.5 149.5t-69.5 63.5zM181 797 q56 -25 59 -51q36 -310 92 -414q19 -37 43 -67q15 6 15 21q0 22 -21 69q-53 121 -53 442q0 234 56 398q7 25 7 38t-13 17q-47 -59 -67 -117q-37 -106 -59 -287q-3 -26 -59 -49zM567 327q0 -163 135 -209q40 -14 87 -14t86.5 14t68.5 42q60 58 60 167v297q0 120 -108 173 q108 50 108 161v239q0 111 -65 173q-61 57 -151 57q-153 0 -204 -128q-17 -43 -17 -102v-239q0 -113 110 -161q-110 -53 -110 -173v-297zM1055 797q60 -27 63 -52q10 -98 10 -169.5t-2 -115t-6 -80.5q-8 -79 -20 -115q78 24 87 231q5 116 5 258.5t-3 214t-9 117.5 q-12 106 -50 147q-11 12 -34 17q28 -84 28 -289q0 -116 -10 -127t-20 -18q-18 -12 -39 -19z" />
<glyph unicode="P" horiz-adv-x="1424" d="M75 73q0 20 11 35q22 -17 56 -17q89 0 123 76v489q0 46 -19 68q-30 37 -103 73q68 31 88 55q34 39 34 88v422q-34 77 -123 77q-34 0 -56 -17q-11 15 -11 34.5t11.5 36.5t31.5 29q46 28 105.5 28t109.5 -33q52 33 115.5 33t114.5 -32q99 42 223.5 42t215.5 -29t164 -81 q152 -108 201 -285q20 -69 95 -113q-77 -43 -103 -130t-86.5 -161.5t-138.5 -124.5q-159 -102 -338 -102q-78 0 -163 20v-382q27 -58 111 -76q22 -5 49 -5t49 17q11 -15 11 -34.5t-14.5 -36.5t-38.5 -29q-53 -28 -116 -28t-119 33q-52 -33 -116.5 -33t-115.5 32 q-51 -32 -94.5 -32t-71.5 7.5t-49 20.5q-43 26 -43 65zM281 797q60 -21 68 -51q12 -48 12 -351v-130q50 19 55 131q6 112 6 310t-0.5 263.5t-1.5 105.5q-3 118 -22.5 142.5t-36.5 32.5q0 -348 -12 -396q-14 -40 -68 -57zM633 815q0 -68 50 -109q46 -38 118 -38q110 0 159 84 q17 29 17 71v452q0 72 -55 113q-50 38 -99.5 38t-81 -9.5t-55.5 -28.5q-53 -42 -53 -117v-456zM1042 712q23 4 47.5 56t37 122.5t31.5 104t61 47.5q-69 23 -87 122.5t-42.5 146.5t-47.5 51q37 -83 37 -320q0 -158 -16 -238t-21 -92z" />
<glyph unicode="Q" horiz-adv-x="1575" d="M46 797q87 41 102.5 168.5t70.5 238.5t140 190q179 166 431 166q259 0 429 -154q177 -160 208 -448q13 -120 102 -161q-87 -43 -101 -166.5t-46 -223t-84 -179.5q-105 -163 -285 -224q29 -8 61 -19l64 -23q47 -18 88 -31q85 0 124 57q23 -7 41 -24t18 -34t-3 -29 q37 7 60.5 31t30.5 54q30 -6 49 -25q32 -34 32 -61q0 -35 -4 -52q36 25 52 65q37 0 56 -45q6 -13 6 -38.5t-17 -57.5t-45 -56q-61 -49 -139 -49q-74 0 -127 21q-85 33 -190 96.5t-159.5 89t-102.5 40.5q-83 26 -174 26q-179 0 -208 -225q-55 0 -98 41q-39 38 -39 88 q0 131 146 176q-247 107 -343 399q-32 95 -42 184t-34.5 130.5t-69.5 63.5zM181 797q56 -25 59 -51q36 -310 92 -414q19 -37 43 -67q15 6 15 21q0 22 -21 69q-53 121 -53 442q0 234 56 398q7 25 7 38t-13 17q-47 -59 -67 -117q-37 -106 -59 -287q-3 -26 -59 -49zM567 327 q0 -163 135 -209q40 -14 87 -14t86.5 14t68.5 42q60 58 60 167v297q0 120 -108 173q108 50 108 161v239q0 111 -65 173q-61 57 -151 57q-153 0 -204 -128q-17 -43 -17 -102v-239q0 -113 110 -161q-110 -53 -110 -173v-297zM1055 797q60 -27 63 -52q10 -98 10 -169.5t-2 -115 t-6 -80.5q-8 -79 -20 -115q78 24 87 231q5 116 5 258.5t-3 214t-9 117.5q-12 106 -50 147q-11 12 -34 17q28 -84 28 -289q0 -116 -10 -127t-20 -18q-18 -12 -39 -19z" />
<glyph unicode="R" horiz-adv-x="1553" d="M75 73q0 20 11 35q22 -17 56 -17q89 0 123 76v489q0 46 -19 68q-30 37 -103 73q68 31 88 55q34 39 34 88v422q-34 77 -123 77q-34 0 -56 -17q-11 15 -11 34.5t11.5 36.5t31.5 29q46 28 105.5 28t109.5 -33q52 33 116 33t116 -33q113 43 250.5 43t230.5 -25t160 -71 q135 -93 168 -259q13 -74 95 -112q-78 -44 -102 -140q-49 -198 -245 -247q101 -27 165 -111q66 -87 66 -205v-100q0 -144 93 -186q28 -13 61 -13t55 17q11 -15 11 -34.5t-10 -36.5t-27 -29q-36 -28 -84 -28t-94 26q-47 -25 -90 -25q-35 0 -67 16q-28 -17 -59 -17t-59.5 14 t-50.5 46q-47 69 -47 212v74q0 231 -132 300q-44 23 -103 23h-117v-487q27 -71 103 -71q34 0 56 17q11 -15 11 -44t-31.5 -56.5t-94.5 -27.5t-112 32q-51 -32 -116 -32t-116 32q-51 -32 -94.5 -32t-71.5 7.5t-49 20.5q-43 26 -43 65zM281 797q60 -21 68 -51q12 -48 12 -351 v-130q50 19 55 131q6 112 6 310t-0.5 263.5t-1.5 105.5q-3 118 -22.5 142.5t-36.5 32.5q0 -348 -12 -396q-14 -40 -68 -57zM633 869q0 -52 41 -70q39 -17 115.5 -17t107 8.5t52.5 29.5q45 43 45 144v292q0 125 -104 160q-31 11 -65 11q-192 0 -192 -149v-409zM1051 539 q40 -45 40 -110v-132q0 -166 66 -177q8 -1 15 -1q10 0 20 2q-36 56 -36 118v140q0 79 -22 112q-33 49 -72 49q-5 0 -11 -1zM1061 1363q31 -70 31 -224q0 -265 -25 -317q55 11 79 147l8 41q11 65 64 83q-39 13 -50 31q-12 21 -21.5 71.5t-19.5 81.5t-21 49q-19 32 -45 37z " />
<glyph unicode="S" horiz-adv-x="1255" d="M110 209.5q0 61.5 58 125.5q-17 34 -17 72.5t11.5 72t31.5 58.5q42 55 82.5 55t57.5 -32q-36 -38 -36 -119t23.5 -141t66.5 -103q92 -94 235 -94q96 0 163 55q72 59 72 161q0 72 -34 117q-53 70 -166 148q-87 61 -139 61q-53 0 -117 -43q17 51 17 95q0 10 -19 26l-37 33 q-175 161 -207 299q-11 48 -11 120.5t35.5 147t97.5 126.5q129 110 328 110q121 0 222 -39q43 -17 98 -17q23 0 41.5 2.5t32.5 20.5q13 19 13 34t-4 25q7 3 19.5 3t27.5 -8.5t27 -23.5q27 -34 27 -76.5t-24 -64.5q34 -30 34 -93q0 -62 -42 -104q8 -27 8 -48.5t-7.5 -41 t-20.5 -33.5q-29 -31 -55 -31q-41 0 -69 14q17 40 17 86t-20.5 94.5t-57.5 84.5q-78 74 -204 74q-80 0 -131 -49q-48 -46 -48 -111q0 -49 24 -82q42 -57 133 -118l48 -32q40 -25 54 -25t28 3t31 8q36 12 70 34l-13 -56q-6 -28 -6 -41q0 -21 21 -38q187 -162 250 -271 q55 -95 55 -205t-36 -189t-105 -140q-152 -136 -395 -136q-171 0 -297 69q-80 -80 -152 -80q-46 0 -62 34q23 28 23 84v15q0 6 -1 11q-50 45 -50 106.5zM246 1167q0 -137 183 -301l60 -54q31 -28 27.5 -43t-6 -24t-5.5 -17t-4 -12q35 21 57 21q44 0 83 -24 q193 -120 262 -214q50 -69 52 -172q0 -37 -5 -62q53 34 53 108q0 72 -19.5 111t-45.5 69.5t-67.5 66.5t-102.5 78l-142 97q-175 115 -266 243q-76 108 -76 203v9q-38 -16 -38 -83z" />
<glyph unicode="T" horiz-adv-x="1510" d="M35 1464q0 88 81 118q24 9 42 9q34 0 51 -15q-7 -24 -7 -34q0 -40 28 -40q15 0 31 4l45 13q117 31 195 31t137 -34q51 34 116 34t118 -34q57 34 118 34q97 0 170 -20l89 -24q16 -4 31 -4q28 0 28 40q0 10 -7 34q17 15 43 15t50 -9t42 -26q39 -35 39 -100.5t-42 -112.5 q30 -36 30 -91t-38 -100q23 -41 23 -82t-10 -74t-29 -58q-41 -56 -103 -56q-34 0 -46 25q32 46 32 138.5t-24.5 161t-64.5 115.5q-81 94 -191 94q-42 0 -73 -12v-464q0 -49 21 -73q33 -39 101 -70q-73 -36 -93 -59q-29 -36 -29 -82v-487q18 -40 55.5 -59t74.5 -19t59 17 q11 -15 11 -34.5t-11.5 -36.5t-31.5 -29q-46 -28 -107.5 -28t-117.5 33q-52 -33 -115.5 -33t-117.5 33q-55 -33 -101 -33t-74 7.5t-49 20.5q-43 26 -43 65q0 20 11 35q22 -17 58.5 -17t74 19t56.5 59v487q0 46 -19 68q-30 37 -103 73q68 31 88 55q34 39 34 88v464 q-33 12 -78.5 12t-95.5 -24t-90 -70q-89 -104 -89 -272q0 -97 32 -143q-12 -25 -45 -25t-59 15t-45 41q-39 52 -39 112t22 102q-37 44 -37 99.5t30 91.5q-42 45 -42 121zM587 797q60 -21 68 -51q12 -48 12 -351v-130q50 19 55 131q6 112 6 310t-0.5 263.5t-1.5 105.5 q-3 118 -22.5 142.5t-36.5 32.5q0 -348 -12 -396q-14 -40 -68 -57z" />
<glyph unicode="U" horiz-adv-x="1548" d="M55 1456.5q0 19.5 11.5 36.5t31.5 29q46 28 105.5 28t109.5 -33q52 33 116 33t116 -33q50 33 94 33t72 -7.5t49 -20.5q43 -26 43 -65q0 -20 -11 -35q-22 17 -56 17q-89 0 -123 -77v-422q0 -49 21 -73q33 -39 101 -70q-73 -36 -93 -59q-29 -36 -29 -82v-279 q0 -121 91 -199q84 -71 191 -71q112 0 199 69q89 70 89 170v319q0 44 -19 65q-29 31 -103 67q69 34 89 55q33 35 33 78v445q-43 64 -105 64t-91 -17q-11 18 -11 49.5t31 55t81 23.5t89 -26q35 26 80.5 26t80.5 -27q39 27 86 27t75.5 -24.5t28.5 -56.5t-10 -47 q-29 17 -92.5 17t-102.5 -64v-445q0 -44 19 -64q30 -31 113 -69q-88 -43 -105 -60q-27 -27 -27 -72v-340q18 -44 73 -84q-35 -14 -87.5 -66t-117.5 -93t-129 -66q-116 -46 -250.5 -46t-244 32t-181.5 87q-141 109 -141 290v277q0 46 -19 68q-30 37 -103 73q68 31 88 55 q34 39 34 88v422q-34 77 -123 77q-34 0 -56 -17q-11 15 -11 34.5zM261 797q60 -21 68 -51q12 -48 12 -207t4.5 -188t12.5 -47q13 -32 35 -39q9 54 9 346.5t-0.5 358t-1.5 105.5q-3 118 -22.5 142.5t-36.5 32.5q0 -348 -12 -396q-14 -40 -68 -57z" />
<glyph unicode="V" horiz-adv-x="1417" d="M-65 1447q0 22 7 40.5t22 32.5q32 30 92 30t106 -32q51 32 119.5 32t118.5 -31q53 31 97 31t72 -6.5t49 -19.5q45 -26 47 -72q0 -28 -11 -35q-27 17 -55 17q-63 0 -98 -24l328 -936l308 891q-5 34 -26.5 54t-65.5 20t-73 -17q-10 15 -10 47t27 56.5t74.5 24.5t84.5 -23 q32 23 80 23t79 -22q44 22 88 22t70.5 -28.5t26.5 -73.5q0 -23 -11 -31q-26 17 -62 17q-71 0 -128 -78q-152 -405 -157 -434t-5 -42q0 -62 68 -83q-74 -30 -102 -60q-44 -49 -79 -150l-183 -500q-51 -145 -75 -161q-9 -5 -21 -5t-20 7l-325 727q-20 47 -52 72 q-52 40 -133 70q85 47 85 87q0 21 -16 63l-175 450q-53 37 -97 37q-32 0 -58 -17q-11 8 -11 30zM300 1208.5q0 -25.5 1.5 -38.5t7.5 -33.5t18 -52.5l55 -142q20 -52 22 -78v-7q0 -39 -56 -60q41 -8 67.5 -19.5t47.5 -57t55 -130.5l84 -204q38 -93 84 -112q13 -6 26 -9 l-390 985q-22 -16 -22 -41.5zM1134 1314l2 8q-2 -6 -2 -8z" />
<glyph unicode="W" horiz-adv-x="2161" d="M-66 1447q0 22 7 40.5t22 32.5q32 30 93 30t108 -35q50 35 118.5 35t112.5 -34q53 34 99 34t74 -6.5t49 -19.5q45 -26 47 -72q0 -28 -11 -35q-27 17 -55 17q-63 0 -98 -24l325 -908l221 637l-89 260q-51 35 -89 35t-63 -17q-11 8 -11 30t7 40.5t22 32.5q32 30 93 30 t108 -35q50 35 118.5 35t112.5 -34q53 34 99 34t74 -6.5t49 -19.5q45 -26 47 -72q0 -28 -11 -35q-27 17 -55 17q-65 0 -99 -25l267 -837l270 835q-32 32 -92 32t-89 -17q-10 15 -10 47t27 56.5t77 24.5t86 -26q32 26 78 26t77 -22q44 22 88 22t70.5 -28.5t26.5 -73.5 q0 -23 -11 -31q-26 17 -63 17q-68 0 -115 -51l-136 -375q-34 -94 -34 -128q0 -54 97 -83q-82 -33 -114 -62q-61 -57 -96 -148l-174 -500q-56 -142 -85 -160q-9 -6 -21 -6t-20 7l-341 991l-313 -832q-56 -140 -85 -160q-9 -6 -21 -6t-20 7l-323 727q-24 57 -51 81 q-42 36 -110 61q86 49 84 91q0 27 -20 75l-28 68l-136 367q-52 36 -90.5 36t-63.5 -17q-11 8 -11 30zM298 1212.5q0 -25.5 2 -38.5t8 -34q13 -53 33.5 -111.5t27.5 -83t10.5 -41.5t4.5 -28q2 -23 2 -26q0 -26 -62 -51q41 -8 64.5 -14t33.5 -22.5t28.5 -54.5t39.5 -86 l43 -102q22 -53 38.5 -98t31 -73.5t27.5 -46.5q25 -31 58 -37q-55 135 -103.5 266.5t-98.5 254t-87.5 238.5t-80.5 226q-20 -12 -20 -37.5zM1139 1191q0 -42 17 -91l36 -107l271 -728q4 5 4 15q-1 3 -1 6q-2 15 -1.5 43.5t-2.5 50t-8 44.5q-7 40 -24 90l-276 740 q-15 -21 -15 -63z" />
<glyph unicode="X" horiz-adv-x="1377" d="M-70 1447q0 22 7 40.5t22 32.5q32 30 93 30t108 -35q50 35 118.5 35t112.5 -34q53 34 99 34t74 -6.5t49 -19.5q45 -26 47 -72q0 -28 -11 -35q-27 17 -58 17q-58 0 -89 -18l271 -454l296 455q-38 22 -90.5 22t-81.5 -17q-10 15 -10 47t27 56.5t77 24.5t86 -26q32 26 78 26 t77 -22q44 22 88 22t70.5 -28.5t26.5 -73.5q0 -23 -11 -31q-26 17 -71.5 17t-87.5 -22l-391 -588l420 -705q43 -23 88.5 -23t71.5 17q11 -8 11 -30t-7 -40.5t-22 -32.5q-32 -30 -94 -30t-108 34q-52 -34 -118.5 -34t-112.5 34q-51 -34 -97.5 -34t-74.5 6.5t-49 19.5 q-45 26 -47 72q0 28 11 35q27 -17 58 -17q59 0 88 18l-275 461l-298 -462q37 -22 90.5 -22t82.5 17q10 -15 10 -47t-27 -56.5t-76.5 -24.5t-87.5 25q-34 -25 -78.5 -25t-75.5 21q-44 -21 -88 -21t-70.5 28.5t-26.5 73.5q0 23 11 31q26 -17 69.5 -17t81.5 18l400 600 l-412 689q-49 31 -93.5 31t-69.5 -17q-11 8 -11 30zM366 1225.5q0 -16.5 2 -37t10 -48.5q18 -61 71 -147l452 -728q5 7 5 32.5t-25 97t-92 189.5l-419 666q-4 -8 -4 -24.5z" />
<glyph unicode="Y" horiz-adv-x="1357" d="M-67 1447q0 22 7 40.5t22 32.5q32 30 93 30t108 -35q50 35 118.5 35t112.5 -34q53 34 99 34t74 -6.5t49 -19.5q45 -26 47 -72q0 -28 -11 -35q-27 17 -54 17q-58 0 -94 -21l299 -574l284 575q-41 25 -94.5 25t-82.5 -17q-10 15 -10 47t27 56.5t77 24.5t86 -26q32 26 78 26 t77 -22q44 22 88 22t70.5 -28.5t26.5 -73.5q0 -23 -11 -31q-26 17 -64 17q-66 0 -117 -36l-350 -693v-55q0 -49 21 -73q34 -38 101 -69q-72 -35 -92 -59q-30 -37 -30 -83v-197q18 -40 55.5 -59t74.5 -19t59 17q11 -15 11 -34.5t-13 -36.5t-35 -29q-50 -28 -109.5 -28 t-110.5 32q-51 -32 -116 -32t-116 32q-51 -32 -94.5 -32t-73 7.5t-52.5 20.5q-48 26 -48 65q0 20 11 35q22 -17 58.5 -17t74 19t56.5 59v197q0 46 -18 68q-32 39 -104 74q67 31 88 54q34 39 34 88v36l-402 696q-58 52 -103 52t-71 -17q-11 8 -11 30zM318 1250l300 -556v-49 q0 -59 -8 -81q-12 -38 -74 -57q67 -25 76 -61q7 -28 7 -65.5t-1.5 -65.5t-1.5 -50q53 20 58 157q1 42 1 86v167q0 48 -18 79l-205 371q-43 75 -62 93q-30 28 -72 32z" />
<glyph unicode="Z" horiz-adv-x="1428" d="M40 82q0 23 11 31q25 -17 48 -17t39 3.5t34 15.5q35 24 81 111q218 416 230 462q3 12 3 21q0 54 -97 88q117 29 171 93q19 22 34 49l243 450q-80 33 -145 33t-104.5 -7.5t-75.5 -23.5q-139 -61 -192 -239q-19 -63 -19 -121t21 -84q-23 -19 -47.5 -19t-45.5 9.5t-37 28.5 q-36 42 -36 106.5t16 100.5q-53 35 -53 91t38 96q-32 41 -32 75.5t9.5 59t27.5 43.5q37 39 90 39q26 0 48 -11q-4 -22 -4 -44q0 -46 42 -46q31 0 86 25q106 49 256.5 49t248.5 -50q59 50 130 50t122 -34q42 34 83.5 34t62 -8t35.5 -22q31 -30 31 -72q0 -23 -11 -31 q-26 17 -53.5 17t-45.5 -6.5t-34 -21.5q-30 -29 -74 -124q-147 -313 -158.5 -350t-11.5 -54q0 -56 71 -81q-81 -19 -136 -66t-96 -129l-220 -441q91 -53 220 -53q157 0 256 136q60 81 78 196q4 29 4 73t-21 70q23 19 47.5 19t45.5 -10t38 -30q35 -41 35 -103.5t-17 -102.5 q54 -35 54 -91t-39 -95q33 -42 33 -76t-9.5 -58.5t-26.5 -43.5q-38 -39 -91 -39q-26 0 -48 11q4 22 4 44q0 46 -42 46q-31 0 -86 -25q-106 -49 -256 -49t-258 39q-68 -39 -143.5 -39t-130.5 35q-47 -35 -94.5 -35t-70 8t-37.5 22q-29 27 -29 72zM426 322q0 -42 18 -57 l483 985q-69 -16 -124 -128l-94 -187q-38 -74 -55 -98.5t-41.5 -35t-65.5 -18.5q20 -8 34 -24t12 -33.5t-8.5 -36t-17.5 -43t-27 -56.5l-76 -157q-38 -81 -38 -111z" />
<glyph unicode="[" horiz-adv-x="774" d="M80 668q68 31 88 55q34 39 34 88v665q-29 13 -53 13t-46 -17q-11 14 -11 43.5t30 57t83 27.5t104 -43q43 43 142 43h311q12 -14 12 -51t-36 -66t-104 -29h-234v-643q0 -49 21 -73q33 -39 101 -70q-68 -31 -88 -55q-34 -39 -34 -88v-646h234q68 0 104 -29t36 -66.5 t-12 -50.5h-311q-99 0 -142 43q-51 -43 -104 -43t-83 27.5t-30 51.5q0 35 11 49q22 -17 46 -17t53 13v668q0 49 -21 73q-33 39 -101 70z" />
<glyph unicode="\" horiz-adv-x="817" d="M65 1499q0 -40 23 -107l532 -1647q17 -13 41 -13q87 0 87 100q0 40 -23 107l-532 1647q-17 13 -41 13q-87 0 -87 -100z" />
<glyph unicode="]" horiz-adv-x="774" d="M0 -216.5q0 -37.5 12 -50.5h311q99 0 142 43q51 -43 104 -43t83 27.5t30 51.5q0 35 -11 49q-22 -17 -46 -17t-53 13v668q0 49 21 73q33 39 101 70q-68 31 -88 55q-34 39 -34 88v665q29 13 53 13t46 -17q11 14 11 43.5t-30 57t-83 27.5t-104 -43q-43 43 -142 43h-311 q-12 -14 -12 -51t36 -66t104 -29h234v-643q0 -49 -21 -73q-33 -39 -101 -70q68 -31 88 -55q34 -39 34 -88v-646h-234q-68 0 -104 -29t-36 -66.5z" />
<glyph unicode="^" horiz-adv-x="1048" d="M120 922l319 572q31 56 85 56q55 0 85 -56l319 -572q-20 -20 -53 -20t-58 3.5t-49 18.5q-53 32 -100 127l-144 291l-144 -291q-66 -134 -149 -145q-25 -4 -45 -4q-46 0 -66 20z" />
<glyph unicode="_" horiz-adv-x="868" d="M-20 -170h908v-146h-908v146z" />
<glyph unicode="`" horiz-adv-x="586" d="M100 1727q0 68 42 113q40 44 93 44q105 0 141 -40l-6 -31q-4 -16 -4 -57t8 -93.5t22 -95.5q26 -77 58 -117t32 -60q0 -27 -30.5 -27t-76.5 12t-100.5 47.5t-94.5 83.5q-84 103 -84 221zM170 1737q0 -33 8.5 -62.5t22.5 -59t31.5 -56.5t36.5 -47q42 -45 71 -39 q-68 81 -86 126t-22.5 77t-4.5 67.5t14 65.5q-29 14 -45 -6q-26 -33 -26 -66z" />
<glyph unicode="a" horiz-adv-x="1281" d="M19 340q72 33 103 124q33 96 110 139q83 45 183 47.5t148 6.5t85 13q69 16 108 59v150q0 99 -40.5 145t-123 46t-122 -30.5t-39.5 -81.5q0 -76 76 -76h4q-16 -78 -84 -78q-20 0 -39 7v-3q0 -26 24 -33q-24 -37 -81 -37h-3q-59 1 -92 63q-15 -4 -34.5 -4t-43 13t-37.5 36 q50 30 61 93q12 77 123 156q134 95 342 95q345 0 421 -212q25 -71 25 -168v-81q0 -49 24.5 -80t83.5 -51q-63 -29 -81 -52q-27 -35 -27 -80v-300q29 -75 83 -75q34 0 56 17q14 -19 14 -47.5t-28.5 -54.5t-85.5 -26t-106 32q-43 -32 -76.5 -32t-58 6.5t-45.5 20.5 q-47 31 -58 88q-91 -120 -273 -120q-222 0 -333 133q-48 57 -66 127q-10 42 -35 64.5t-62 40.5zM152 340q64 -29 70 -51q34 -119 110 -178q10 7 10 18q0 15 -14 42q-50 92 -50 151t4.5 85t12 44.5t17 32.5t16.5 25q13 23 13 31.5t-9 14.5q-41 -19 -60 -45q-34 -46 -50 -119 q-4 -21 -70 -51zM482 336q0 -42 9 -82t27 -70q40 -63 113 -63q55 0 91 45q34 44 34 113v326q-64 -37 -164 -51q-110 -17 -110 -218zM851 265q58 23 61 221v96t-0.5 92.5t-1.5 73.5q-4 126 -23 150.5t-36 32.5v-666z" />
<glyph unicode="b" horiz-adv-x="1383" d="M42 1431.5q0 20.5 10.5 39.5t31.5 35q48 34 120 34t113 -9q60 69 123 69q103 0 103 -108v-428q77 77 206 107q39 9 101 9t130 -18t118 -64q100 -92 123 -328q10 -123 122 -174q-71 -35 -90 -59q-26 -34 -32 -81q-29 -241 -124 -356q-104 -125 -301 -125q-101 0 -208 55 q-35 17 -63 40q-109 -90 -222 -90q-101 0 -124 26q22 27 24 81t2 101v278q0 44 -19 64q-27 31 -103 68q70 32 89 51q33 33 33 80v566q0 114 -93 114q-34 0 -56 -17q-14 19 -14 39.5zM386 774q1 -54 2 -146.5t2 -142.5q2 -108 6 -137t18.5 -52.5t32.5 -30.5v985 q-41 -19 -50 -72q-11 -66 -11 -218v-154v-32zM543 317q0 -81 55 -139q52 -57 118 -57q167 0 167 240v438q0 188 -87 223q-28 12 -63 12q-128 0 -173 -123q-17 -45 -17 -112v-482zM979 265q50 19 55 131q6 112 6 166.5t-0.5 91t-1.5 75.5q-4 146 -23 170t-36 32v-666z" />
<glyph unicode="c" horiz-adv-x="1113" d="M40 597q106 48 122 173q26 191 170 302q138 108 336 108q171 0 288 -104q111 -98 111 -227q0 -73 51 -93q-30 -49 -84 -49q-19 0 -35 4q-35 -51 -101 -69q-21 -5 -40 -5t-45 7.5t-36 20.5q29 12 34 60q-6 -1 -11 -1h-8q-68 0 -84 78q74 0 108 57q12 20 12 49 q0 64 -41 100.5t-114 36.5q-169 0 -169 -218v-486q0 -170 130 -215q38 -14 86 -14t87.5 12t66.5 33q55 43 55 109q0 20 -4 36q22 42 81 42q40 0 62 -33q18 -26 18 -63.5t-18.5 -75.5t-49.5 -69t-71.5 -55t-86.5 -40q-93 -33 -194 -33t-191 35.5t-155 99.5q-131 129 -158 346 q-7 49 -23 70q-30 37 -99 71zM178 598q54 -25 59 -51q37 -169 61 -215t39 -67q14 11 14 25q0 22 -9 56q-41 157 -41 218.5t4 96t11 69.5q12 68 26 120q9 34 9 46q0 24 -14 35q-42 -50 -64 -134t-36 -148q-5 -26 -59 -51z" />
<glyph unicode="d" horiz-adv-x="1366" d="M40 596q118 54 123 166t39.5 191.5t92.5 130.5q111 96 310 96q109 0 189 -56q27 -19 46 -44v215q0 114 -93 114q-34 0 -56 -17q-14 19 -14 39.5t10.5 39.5t32.5 35q47 34 119 34t112 -9q55 69 124 69q103 0 103 -108v-763q0 -76 122 -132q-122 -55 -122 -131v-300 q29 -75 83 -75q34 0 56 17q14 -19 14 -47.5t-28.5 -54.5t-85.5 -26t-106 32q-43 -32 -86 -32q-102 0 -159 110q-71 -82 -190 -108q-35 -7 -69 -7q-210 0 -326 133q-106 123 -119 348q-2 44 -20 67q-30 38 -102 73zM178 596q54 -25 59 -51q37 -169 61 -214t39 -66 q14 11 14 25q0 22 -9 56q-41 157 -41 217.5t4 95.5t11 69q13 72 26 122q9 34 9 46q0 24 -14 35q-42 -50 -64 -135t-36 -149q-5 -26 -59 -51zM500 361q0 -183 121 -227q34 -13 67.5 -13t61 13.5t47.5 35.5q43 49 43 117v512q0 184 -112 223q-33 12 -68 12q-160 0 -160 -235 v-438zM936 265q50 19 54 119q1 23 1.5 56.5t1.5 74.5t1 83l2 80q0 39 0.5 68.5t0.5 46.5v15q0 3 -0.5 28.5t-1 63t-1.5 80.5l-2 84q-2 92 -7 117q-8 50 -49 69v-985z" />
<glyph unicode="e" horiz-adv-x="1220" d="M40 597q87 39 111 125q7 24 11 48q25 176 178 300q148 120 331 120q190 0 329 -134q144 -138 144 -339q0 -7 -0.5 -14t0.5 -13q2 -13 16 -15q18 -23 18 -49q0 -60 -64 -71q-16 -3 -50 -8l-564 -90v-96q0 -116 70 -184q66 -65 167 -65q107 0 172 44q61 42 61 110 q0 16 -5 36q22 42 81 42q40 0 62 -33q18 -26 18 -63.5t-19 -75.5t-52 -69t-75.5 -55t-90.5 -40q-99 -33 -206 -33t-200.5 35.5t-160.5 99.5q-131 126 -160 346q-7 49 -23 70q-30 37 -99 71zM178 597q54 -25 59 -50q37 -169 61 -215t39 -67q14 11 14 25q0 22 -9 56 q-41 157 -41 218.5t4 96t11 69.5q12 68 26 120q9 34 9 46q0 24 -14 35q-42 -50 -64 -134t-36 -148q-5 -27 -59 -52zM500 578l290 47v280q0 66 -26 97q-46 53 -91 53t-75 -13.5t-52 -42.5q-46 -61 -46 -190v-231zM876 640l62 10v31q0 186 -31 225q-14 17 -31 25v-291z" />
<glyph unicode="f" horiz-adv-x="854" d="M52 1047.5q0 38.5 28 62t71 23.5h70v61q0 232 120 386q128 163 341 163q224 0 310 -143q27 -44 34 -88.5t22.5 -58.5t40.5 -24q-31 -49 -89 -49q-12 0 -28 4q-39 -59 -95 -59q-103 0 -109 33q37 4 37 43v2q-17 -6 -38 -6t-36.5 4.5t-27.5 14.5q-25 20 -25 50q0 4 1 9 q89 0 119 32q11 11 11 33.5t-30 45.5t-78.5 23t-77.5 -10.5t-50 -36.5q-44 -56 -44 -184q0 -49 12.5 -134t15.5 -111h299q8 -16 8 -53.5t-29 -60t-70 -22.5h-206v-268q0 -48 21 -69q31 -31 101 -63q-75 -37 -94 -56q-28 -31 -28 -75v-302q30 -73 103 -73q44 0 66 17 q14 -19 14 -40t-8.5 -35.5t-25.5 -26.5q-35 -26 -96 -26t-119 34q-41 -34 -99.5 -34t-105.5 32q-46 -32 -104.5 -32t-87 26t-28.5 50q0 33 14 52q22 -17 56 -17q58 0 83 67v308q0 44 -19 64q-28 30 -103 67q70 32 89 51q33 33 33 81v268h-161q-8 12 -8 50.5zM237 598 q60 -21 68 -51q12 -48 12 -217v-65q52 30 55 169q1 79 1 141v103q0 345 4 363t5.5 20.5t3.5 18.5q-42 -20 -56 -59q-25 -70 -25 -212v-160q0 -28 -68 -51z" />
<glyph unicode="g" horiz-adv-x="1226" d="M32 747q50 23 76.5 59t46 94t55 111t91.5 93q123 86 317 86q62 0 129 -13q14 109 97 185q82 77 192 77q129 0 217 -67q38 -29 77 -29l19 2v-9q0 -72 -62 -94q-11 -135 -117 -135q-42 0 -51 6q15 13 15 33.5t-17 35.5q-21 -39 -94 -39q-40 0 -63 38q38 12 60 36.5t22 45.5 q0 55 -58 55q-112 0 -131 -174q182 -78 232 -245q33 -113 122 -152q-78 -39 -103 -87q-10 -19 -18 -45q-54 -170 -169 -250.5t-296 -80.5q-115 0 -200 28q-33 -21 -33 -46.5t10 -43t36 -31.5q51 -27 194 -48q8 -2 15 -2q58 0 119 86q4 -51 23 -76.5t42 -28.5 q276 -41 357 -180q28 -47 28 -120.5t-47 -143t-127 -118.5q-166 -100 -408 -100q-284 0 -434 93q-129 81 -129 207q0 84 85 159q28 24 64 42q-72 66 -72 164q0 146 173 240q-113 79 -165 250q-17 53 -34 72q-25 30 -86 60zM180 747q53 -26 56 -39l20 -84q26 -106 57 -151 q20 15 20 35q0 26 -7 50q-27 92 -27 189q0 96 27 188q7 24 7 38v24q0 9 -8 15q-41 -50 -59.5 -114t-29.5 -113q-4 -15 -56 -38zM245 -219q0 -68 103 -123q115 -62 297 -62q224 0 291 77q19 21 19 44.5t-22.5 41.5t-58.5 29q-53 18 -167 31h-7q-53 0 -129 -81q0 56 -18.5 81 t-36.5 27q-116 15 -200 51q-71 -31 -71 -116zM253 91q4 -108 308 -163q35 -8 50 -76q5 22 39.5 36.5t46.5 13.5q151 -18 204 -34q94 -29 137 -86q12 14 12 36t-22 44.5t-72 39.5q-86 31 -233 48t-206.5 30t-109.5 32q-109 43 -145 105q-9 -9 -9 -26zM502 594q0 -97 22 -128 t44 -39.5t51.5 -8.5t51.5 8.5t37 29.5q29 41 29 138v277q0 97 -22 128t-44 39.5t-51.5 8.5t-51.5 -8.5t-36 -28.5q-30 -42 -30 -139v-277zM834 473q46 16 53 99q7 78 7 175q0 150 -8 192q-12 56 -52 73v-539z" />
<glyph unicode="h" horiz-adv-x="1391" d="M56 1431.5q0 20.5 10.5 39.5t31.5 35q48 34 120 34t112 -9q55 69 124 69q103 0 103 -108v-493q97 181 317 181q252 0 321 -223q22 -71 22 -161v-67q0 -47 21 -68q31 -31 101 -63q-76 -37 -94 -57q-28 -31 -28 -75v-313q19 -62 83 -62q34 0 56 17q11 -15 11 -44 t-26.5 -56.5t-84.5 -27.5t-107 32q-45 -32 -101.5 -32t-98.5 30q-39 -30 -87.5 -30t-77.5 25t-29 72q0 22 15 35q23 -18 46 -18q44 0 63 49v596q0 195 -95 225q-30 10 -65 10q-104 0 -145 -110q-13 -34 -17 -74v-647q19 -49 63 -49q23 0 46 18q15 -13 15 -47.5t-29 -59.5 t-78 -25t-88 30q-41 -30 -97 -30t-103 32q-46 -32 -104.5 -32t-87 26t-28.5 50q0 33 14 52q22 -17 56 -17q58 0 83 67v308q0 50 -19 68q-23 24 -103 63q70 32 89 51q33 33 33 81v566q0 114 -93 114q-34 0 -56 -17q-14 19 -14 39.5zM233 597q60 -21 68 -50q12 -48 12 -216 v-65q45 29 53 127q3 43 4 96t1.5 75.5t0.5 33.5v90v84l-2 98q-2 265 -9 295q-14 63 -48 85v-337q0 -207 -4.5 -230.5t-7.5 -34.5q-9 -31 -68 -51zM924 932q38 -90 44 -164t6 -143v-360q50 19 56 131q5 112 5 205.5t-6 152.5t-19.5 93.5t-34.5 52t-51 32.5z" />
<glyph unicode="i" horiz-adv-x="716" d="M45 991.5q0 20.5 10.5 46t32.5 48.5q52 54 120 54t123 -24q49 64 112 64q103 0 103 -108v-343q0 -48 21 -69q31 -31 101 -63q-75 -37 -94 -56q-28 -31 -28 -75v-322q33 -53 75 -53t64 17q14 -19 14 -47.5t-28.5 -54.5t-85.5 -26t-106 32q-41 -32 -99 -32t-105 32 q-46 -32 -104.5 -32t-87 26t-28.5 50q0 33 14 52q22 -17 65 -17t74 56v319q0 44 -18 64q-29 30 -104 67q70 32 89 51q33 33 33 81v146q0 85 -58 92q-17 2 -43 2t-48 -17q-14 19 -14 39.5zM100 1507l34 21q48 30 71 73t69.5 67.5t100.5 24.5q112 0 162 -94q34 -62 105 -92 q-15 -9 -29.5 -16t-27.5 -16q-29 -20 -51.5 -59t-65 -66t-93.5 -27t-98.5 27t-72.5 72q-27 46 -72 70q-14 7 -32 15zM215 1507q16 -9 29.5 -28.5t31.5 -40.5q27 -33 71 -33q-6 11 -12.5 20.5t-12.5 20t-9.5 25t-3.5 51.5t38 94q-37 0 -52 -13.5t-22.5 -23t-13 -19 t-13.5 -20.5q-19 -27 -31 -33zM224 598q60 -21 68 -51q12 -48 12 -217v-65q46 30 52 123q5 64 5.5 98t1 57t0.5 37v27q0 15 -0.5 39t-1 53t-1.5 57q-4 69 -10 95q-12 58 -46 80v-65q0 -169 -7.5 -198.5t-24 -44t-48.5 -25.5z" />
<glyph unicode="j" horiz-adv-x="735" d="M-273 -229q0 46 26.5 67.5t52 21.5t37.5 -4.5t21 -10.5q17 -11 23 -23q-3 -17 -3 -42t13 -56t37 -55q52 -52 128 -52q146 0 146 248v600q0 44 -18 64q-28 31 -104 68q70 32 89 51q33 33 33 81v146q0 85 -58 92q-17 2 -43 2t-48 -17q-14 19 -14 39.5t10.5 46t32.5 48.5 q52 54 120.5 54t118.5 -22q48 62 105.5 62t85.5 -23t28 -85v-343q0 -48 21 -69q31 -31 101 -63q-76 -37 -94 -57q-28 -31 -28 -75v-306q0 -79 16 -102q19 -30 66 -57q-65 -22 -84 -85q-5 -17 -19 -76t-58 -132.5t-103 -121.5q-117 -95 -278 -95q-146 0 -252 79 q-107 80 -107 202zM100 1507l34 21q48 30 71 73t69.5 67.5t100.5 24.5q112 0 162 -94q34 -62 105 -92q-15 -9 -29.5 -16t-27.5 -16q-29 -20 -51.5 -59t-65 -66t-93.5 -27t-98.5 27t-72.5 72q-27 46 -72 70q-14 7 -32 15zM218 1507q16 -9 29.5 -28.5t31.5 -40.5 q27 -33 71 -33q-6 11 -12.5 20.5t-12.5 20t-9.5 25t-3.5 51.5t38 94q-37 0 -52 -13.5t-22.5 -23t-13 -19t-12.5 -20.5q-20 -27 -32 -33zM224 597q60 -21 68 -50q12 -48 12 -492v-79q46 30 52 120q1 27 2 101l2 117v86v243v53l-2 58q-1 61 -7 92q-12 63 -47 85v-65 q0 -169 -7.5 -198.5t-24 -44.5t-48.5 -26z" />
<glyph unicode="k" horiz-adv-x="1375" d="M45 1431.5q0 20.5 10.5 39.5t32.5 35q47 34 119 34t112 -9q55 69 124 69q103 0 103 -108v-837l289 267q66 68 66 98t-38 30t-71 -19q-11 18 -11 46.5t30 55.5t85 27t97 -34q39 34 85 34t80 -27q34 27 80 27t76.5 -24t30.5 -64q0 -37 -10 -51q-27 27 -66.5 27t-64 -11.5 t-53.5 -33t-64 -52.5l-166 -144l305 -600q28 -60 49.5 -88t55 -28t55.5 17q14 -19 14 -47.5t-28.5 -54.5t-90.5 -26t-120 34q-47 -34 -103.5 -34t-98.5 30q-39 -30 -87.5 -30t-77.5 23.5t-29 59.5t15 49q23 -18 47 -18l31 8q14 7 25 27l-212 461l-125 -109v-338 q19 -49 63 -49q23 0 46 18q15 -13 15 -49.5t-29 -59.5t-78 -23t-88 30q-41 -30 -97 -30t-103 32q-46 -32 -104.5 -32t-87 26t-28.5 50q0 33 14 52q22 -17 56 -17q58 0 83 67v307q0 44 -18 64q-28 31 -104 68q70 32 89 51q33 33 33 81v566q0 114 -93 114q-34 0 -56 -17 q-14 19 -14 39.5zM222 597q60 -21 68 -50q12 -48 12 -216v-65q53 34 56 180v60q1 30 1 53v60l1 133v196q0 186 -7 217q-14 61 -51 85v-337q0 -207 -4.5 -230.5t-7.5 -34.5q-9 -31 -68 -51zM756 663l181 -398q13 17 13 46t-4.5 52t-11.5 46q-13 37 -38 88l-95 206z" />
<glyph unicode="l" horiz-adv-x="734" d="M51 1431.5q0 20.5 10.5 39.5t32.5 35q47 34 119 34t112 -9q55 69 124 69q100 0 100 -108v-762q0 -48 21 -69q31 -32 101 -64q-75 -37 -94 -56q-28 -31 -28 -75v-308q24 -67 83 -67q34 0 56 17q14 -19 14 -47.5t-28.5 -54.5t-85.5 -26t-106 32q-41 -32 -97.5 -32 t-103.5 32q-46 -32 -104.5 -32t-87 26t-28.5 50q0 33 14 52q22 -17 56 -17q58 0 83 67v308q0 44 -18 64q-29 30 -104 67q70 32 90 52q32 33 32 81v565q0 114 -93 114q-34 0 -56 -17q-14 19 -14 39.5zM230 597q60 -21 68 -50q12 -48 12 -216v-65q45 29 53 127q3 43 4 96 t1.5 75.5t0.5 33.5v90q0 37 -1 84v98q-3 265 -10 295q-14 63 -48 85v-337q0 -207 -4.5 -230.5t-7.5 -34.5q-9 -31 -68 -51z" />
<glyph unicode="m" horiz-adv-x="2048" d="M58 991.5q0 20.5 10.5 46t31.5 48.5q53 54 122.5 54t115.5 -22q55 62 118 62q103 0 103 -108l-1 -83q84 134 234 177q49 14 101 14q118 0 196 -57t112 -162q75 155 243 203q55 16 124.5 16t131 -26.5t104.5 -75.5q87 -102 87 -282l-3 -67q0 -48 21 -69q31 -31 101 -63 q-76 -37 -94 -57q-28 -31 -28 -75v-312q19 -62 83 -62q24 0 46 17q6 -8 13.5 -15.5t7.5 -32.5t-26.5 -52.5t-84 -27.5t-106.5 32q-45 -32 -100.5 -32t-97.5 30q-39 -30 -87.5 -30t-77.5 25t-29 72q0 22 15 35q23 -18 46 -18q44 0 63 49v596q0 235 -171 235q-49 0 -96 -57 q-47 -56 -61 -136l-3 -638q19 -49 63 -49q23 0 46 18q15 -13 15 -47.5t-29 -59.5t-78 -25t-88 30q-43 -30 -97.5 -30t-96.5 30q-39 -30 -87.5 -30t-77.5 25t-29 72q0 22 15 35q23 -18 46 -18q44 0 63 49v596q0 187 -91 223q-29 12 -64 12q-67 0 -116 -58q-46 -54 -58 -136 l-2 -637q19 -49 63 -49q23 0 46 18q18 -15 18 -48.5t-30.5 -58.5t-80 -25t-87.5 29q-40 -29 -95 -29t-102 32q-46 -32 -105 -32t-85.5 27.5t-26.5 52.5q0 33 11 48q22 -17 56 -17q64 0 83 62v312q0 44 -19 64q-27 31 -103 68q70 32 89 51q33 33 33 81v146q0 85 -58 92 q-17 2 -43 2t-48 -17q-14 19 -14 39.5zM237 597q60 -21 68 -50q12 -48 12 -217v-65q47 30 53 125q4 72 4 129v127q0 148 -8 190q-14 72 -49 95v-65q0 -169 -7.5 -198.5t-24 -44.5t-48.5 -26zM953 931q30 -73 30 -285v-381q50 19 55 131q6 112 6 198.5t-5 144.5t-16 97 q-20 70 -70 95zM1619 931q30 -73 30 -285v-381q50 19 55 131q6 112 6 198.5t-5 144.5t-16 97q-20 70 -70 95z" />
<glyph unicode="n" horiz-adv-x="1385" d="M48 991.5q0 20.5 10.5 46t31.5 48.5q53 54 122.5 54t115.5 -22q55 62 112 62t79 -26.5t22 -81.5v-94q52 93 142 147.5t191 54.5t162.5 -26.5t101.5 -75.5q78 -97 78 -282v-66q0 -48 21 -69q31 -32 101 -64q-75 -37 -94 -56q-28 -31 -28 -75v-313q19 -62 83 -62 q34 0 56 17q11 -15 11 -44t-26.5 -56.5t-81.5 -27.5t-100 31q-40 -31 -93.5 -31t-95.5 30q-44 -30 -94 -30t-79 25t-29 72q0 22 15 35q23 -18 46 -18q44 0 63 49v596q0 194 -95 225q-31 10 -67 10t-67 -14.5t-56 -40.5q-55 -58 -65 -138v-638q19 -49 63 -49q23 0 46 18 q15 -13 15 -47.5t-29 -59.5t-76.5 -25t-86.5 30q-38 -30 -93 -30t-102 32q-46 -32 -105 -32t-85.5 27.5t-26.5 52.5q0 33 11 48q22 -17 56 -17q64 0 83 62v311q0 44 -19 64q-29 33 -103 69q70 32 89 51q33 33 33 81v146q0 85 -58 92q-17 2 -43 2t-48 -17q-14 19 -14 39.5z M227 597q60 -21 68 -50q12 -48 12 -216v-65q46 30 53 122q4 65 4.5 98t1 55.5t0.5 36.5v28.5t-0.5 38.5t-1 53t-2.5 57q-3 69 -9 95q-12 58 -46 80v-65q0 -168 -7.5 -197.5t-24 -44.5t-48.5 -26zM937 953q38 -90 44 -164t6 -143v-381q50 19 55 131q6 112 6 211t-8 163.5 t-23 101t-35.5 53t-44.5 28.5z" />
<glyph unicode="o" horiz-adv-x="1375" d="M47 597q87 39 111 125q7 24 11 48q26 179 173 299.5t343 120.5q204 0 351 -122q143 -119 169 -298q9 -63 27 -92q34 -53 95 -81q-68 -33 -88 -58q-27 -35 -34 -83q-32 -236 -164 -358.5t-352 -122.5q-236 0 -371 137q-63 64 -99.5 152t-44.5 151t-13.5 81t-18.5 34 q-26 33 -95 67zM195 597q54 -25 59 -50q37 -169 61 -215t39 -67q14 11 14 25q0 22 -9 56q-41 157 -41 218.5t4 96t10 69.5q13 68 27 120q9 34 9 46q0 24 -14 35q-42 -50 -64 -134t-36 -148q-5 -27 -59 -52zM517 356q0 -240 169 -240q171 0 171 240v443q0 250 -170 250 t-170 -250v-443zM953 265q50 19 55 131q6 112 6 166.5t-0.5 91t-1.5 75.5q-4 146 -23 170t-36 32v-666z" />
<glyph unicode="p" horiz-adv-x="1384" d="M46 991.5q0 20.5 10.5 46t31.5 48.5q53 54 122.5 54t115.5 -22q55 62 118 62q103 0 103 -108v-7q79 79 206 107q39 8 100.5 8t129.5 -18t118 -64q100 -92 123 -328q10 -122 122 -173q-71 -35 -90 -59q-25 -34 -32 -82q-29 -241 -124 -356q-104 -125 -301 -125 q-152 0 -252 80v-385q25 -69 83 -69q34 0 56 17q14 -19 14 -47.5t-28.5 -54.5t-86.5 -26t-105 33q-40 -33 -99.5 -33t-104.5 33q-45 -33 -104 -33t-87.5 26t-28.5 50q0 33 14 52q22 -17 56 -17q58 0 83 67v788q0 46 -19 68q-30 37 -103 73q122 56 122 173v105q0 85 -58 92 q-17 2 -43 2t-48 -17q-14 19 -14 39.5zM223 597q60 -21 68 -50q12 -44 12 -246v-327q47 32 53 134q2 58 3 134q2 171 2.5 217.5t0.5 79.5v79q0 16 -0.5 39.5t-1 51t-2.5 53.5q-5 99 -21.5 128.5t-33.5 40.5v-60q0 -174 -7.5 -203.5t-24 -44.5t-48.5 -26zM546 317 q0 -81 54 -139q53 -57 119 -57q167 0 167 240v438q0 110 -39 172.5t-110 62.5q-127 0 -175 -140q-16 -48 -16 -115v-462zM982 265q50 19 56 131q5 112 5 166.5t-0.5 91t-1.5 75.5q-4 146 -23 170t-36 32v-666z" />
<glyph unicode="q" horiz-adv-x="1337" d="M40 597q118 54 123 165.5t39.5 191t92.5 130.5q111 96 310 96q121 0 203 -67q27 -22 44 -52q52 59 108.5 89t112.5 30q96 0 152 -28q-47 -58 -47 -158v-224q0 -116 122 -172q-72 -35 -92 -59q-30 -37 -30 -83v-786q25 -69 83 -69q34 0 56 17q14 -19 14 -47.5t-28.5 -54.5 t-86.5 -26t-105 33q-40 -33 -99.5 -33t-104.5 33q-45 -33 -104 -33t-87.5 26t-28.5 50q0 33 14 52q22 -17 56 -17q58 0 83 67v411q-92 -104 -217.5 -104t-206 35t-135.5 98q-106 123 -119 348q-2 45 -20 68q-30 38 -102 73zM178 597q54 -25 59 -50q37 -169 61 -215t39 -67 q14 11 14 25q0 22 -9 56q-41 157 -41 218.5t4 96t11 69.5q12 68 26 120q9 34 9 46q0 24 -14 35q-42 -50 -64 -134t-36 -148q-5 -27 -59 -52zM500 361q0 -183 121 -227q34 -13 67.5 -13t61 13.5t47.5 35.5q43 49 43 117v512q0 184 -112 223q-33 12 -68 12q-160 0 -160 -235 v-438zM940 256q0 -149 8 -188q13 -69 48 -92v79q0 444 12 492q8 29 68 50q-59 20 -68 52q-12 48 -12 222v60q-41 -27 -49 -127q-5 -59 -5.5 -104t-1 -68t-0.5 -111v-265z" />
<glyph unicode="r" horiz-adv-x="1101" d="M45 991.5q0 20.5 10.5 46t32.5 48.5q52 54 121.5 54t115.5 -22q55 62 118 62q98 0 98 -108v-137q100 246 318 246q98 0 159 -60q63 -61 63 -169v-14q0 -7 -2 -28.5t1.5 -43.5t11.5 -36q11 -21 41 -33q-7 -27 -32.5 -48.5t-56.5 -21.5h-19q-39 -49 -109 -69 q-20 -6 -43.5 -6t-41 10.5t-19.5 22.5q19 9 19 36v5q-8 -2 -14 -2h-10q-33 0 -59.5 25t-34.5 63h5q51 0 89 40q36 37 36 76q0 92 -80 92q-69 0 -139 -110q-66 -101 -83 -209v-541q11 -35 34 -52t63 -17t62 17q11 -15 11 -44t-26.5 -56.5t-89 -27.5t-119.5 34 q-40 -34 -97 -34t-104 32q-46 -32 -105 -32t-85.5 27.5t-26.5 52.5q0 33 11 48q22 -17 56 -17q64 0 83 62v303q0 46 -18 68q-32 39 -104 74q122 56 122 172v105q0 85 -58 92q-17 2 -43 2t-48 -17q-14 19 -14 39.5zM224 598q60 -21 68 -51q12 -48 12 -216v-65q46 30 52 122 q5 65 5.5 98.5t1 56.5t0.5 37v27q0 15 -0.5 38.5t-1 53t-1.5 57.5q-6 104 -22.5 133.5t-33.5 40.5v-65q0 -168 -7.5 -197.5t-24 -44t-48.5 -25.5z" />
<glyph unicode="s" horiz-adv-x="1060" d="M82 159.5q0 37.5 42 85.5q-20 28 -20 62t11.5 56.5t29.5 40.5q40 38 85 38q30 0 43 -21q-27 -29 -27 -91.5t21.5 -106.5t58.5 -75q78 -66 192 -66q127 0 176 93q14 28 14 56.5t-13 51t-34 43.5q-35 34 -107 78q-69 49 -163 49q-61 0 -82 -10q13 30 13 60t-40 65.5 t-71.5 71.5t-50.5 72q-38 68 -38 144t31.5 134.5t88.5 100.5q119 89 305 89q90 0 123.5 -8t53.5 -15q27 -10 66 -10t54.5 17t15.5 31.5t-3 22.5q6 2 18 2t27.5 -7t27.5 -19q24 -27 24 -57.5t-12 -46.5q28 -26 28 -74t-40 -81q9 -18 9 -44t-28 -50t-53 -24q-43 0 -58 11 q13 32 13 69.5t-20 71.5t-51 55q-58 40 -138 40q-101 0 -136 -64q-11 -20 -11 -43.5t6.5 -43t21.5 -39.5q29 -39 82 -74q69 -45 96 -45q58 0 101 28q-12 -48 -12 -67q0 -29 46 -67q129 -89 176 -163q45 -72 45 -160t-39 -150.5t-106 -107.5q-139 -93 -337 -93 q-135 0 -245 49q-68 -65 -131 -65q-35 0 -48 26q23 23 23 46t-7 35l-13 23l16 -30q-24 11 -37 37t-13 63.5zM228 862.5q0 -63.5 41 -121t130 -129.5q21 -16 21 -31q0 -23 -4 -37q12 3 42 6q6 1 13 1q70 0 168 -69q172 -106 172 -223q0 -44 -12 -66q36 7 55 61q5 16 5 33 q0 81 -87.5 164.5t-251.5 161.5q-263 134 -263 315v12q-29 -14 -29 -77.5z" />
<glyph unicode="t" horiz-adv-x="895" d="M10 1011.5q0 20.5 7.5 45t26.5 44.5q37 40 104 40q21 0 45 -4v32q0 105 53 185q47 72 83.5 72t56.5 -25q17 79 45 114t80 35v-417h325q8 -16 8 -53.5t-29 -60t-70 -22.5h-234v-677q0 -174 79 -204q23 -8 49.5 -8t51 9.5t43.5 29t30 50t11 64t-4 61.5q7 15 38 23.5t41 8.5 q38 0 61 -28.5t23 -79t-29.5 -99.5t-78.5 -87q-109 -85 -254 -85q-276 0 -366 209q-33 77 -33 193v122q0 47 -103 99q103 59 103 159v118q0 114 -93 114q-34 0 -56 -17q-14 19 -14 39.5zM189 606q60 -21 68 -51q12 -48 12 -225v-65q47 30 53 125q4 68 4.5 106t1 61.5 t0.5 36.5v40q0 29 -0.5 74.5t-1 99t-2.5 102.5q-3 118 -9 144q-12 58 -46 80v-312q0 -139 -4.5 -147t-7.5 -19q-9 -30 -68 -50z" />
<glyph unicode="u" horiz-adv-x="1389" d="M45 991.5q0 20.5 10.5 46t32.5 48.5q52 54 121 54t130 -23q44 63 104 63q103 0 103 -108v-651q0 -190 88 -228q28 -12 62.5 -12t62.5 14.5t49 39.5q39 49 50 134v506q0 114 -93 114q-34 0 -56 -17q-14 19 -14 39.5t10.5 43t32.5 41.5q49 44 119.5 44t131.5 -23 q44 63 104 63q103 0 103 -108v-332q0 -46 18 -68q32 -39 104 -74q-122 -56 -122 -172v-258q19 -77 83 -77q34 0 56 17q14 -19 14 -47.5t-28.5 -54.5t-89 -26t-114.5 32q-40 -32 -89 -32q-141 0 -152 195q-51 -92 -137.5 -146t-186 -54t-161.5 27t-103 78q-80 100 -80 284v62 q0 116 -122 172q72 35 92 59q30 37 30 83v135q0 85 -58 92q-17 2 -43 2t-48 -17q-14 19 -14 39.5zM224 598q60 -21 68 -51q12 -48 12 -217v-65q30 7 49 89q5 23 5 112l-3 132l3 132q0 89 -6 118q-17 76 -48 83v-65q0 -169 -7.5 -198.5t-24 -44t-48.5 -25.5zM953 265 q58 23 61 221v96t-0.5 92.5t-1.5 73.5q-4 126 -23 150.5t-36 32.5v-666z" />
<glyph unicode="v" horiz-adv-x="1220" d="M-35 1075q0 32 27 58.5t85.5 26.5t108.5 -36q41 36 100.5 36t103.5 -33q47 33 102.5 33t87.5 -26.5t32 -66.5q0 -24 -15 -39q-24 18 -49 18q-54 0 -54 -51q0 -22 8 -41l204 -534l187 541q1 9 1 16q0 73 -77 73q-40 0 -73 -19q-11 18 -11 48.5t27 55.5t74.5 25t81.5 -32 q36 32 83 32t82 -30q38 30 81.5 30t68 -24t24.5 -57t-10 -48q-24 14 -71.5 14t-79 -14.5t-49.5 -62.5l-51 -135q-32 -84 -32 -124t8 -56.5t19 -28.5q21 -22 43 -27q-126 -17 -164 -117l-162 -433q-22 -56 -70 -76q-17 -7 -36.5 -7t-43.5 7l-219 503q-44 92 -178 123 q79 46 77 92q0 36 -32 119l-56 144q-24 59 -41 73q-29 24 -69 24t-62 -17q-11 11 -11 43zM293 895q0 -25 1.5 -37.5t5.5 -29.5q8 -33 27 -78q31 -78 31 -100v-5q-6 -15 -12 -23q-12 -20 -29 -26q70 -14 87 -44q20 -40 29 -60l55 -123q21 -46 40.5 -71t53.5 -33l-273 666 q-16 -11 -16 -36z" />
<glyph unicode="w" horiz-adv-x="1837" d="M-45 1075q0 32 27 58.5t85.5 26.5t108.5 -36q41 36 101.5 36t106.5 -34q44 34 101 34t89 -26.5t32 -66.5q0 -24 -15 -39q-24 18 -44.5 18t-30.5 -2.5t-18 -8.5q-20 -14 -18 -39l205 -533l167 512q-34 74 -89 74q-33 0 -56 -17q-11 11 -11 43t31.5 58.5t86.5 26.5t95 -34 q43 34 100 34t102 -33q39 33 82 33t66.5 -5.5t40.5 -16.5q38 -22 38 -61q0 -24 -15 -39q-24 18 -49 18t-39.5 -19t-14.5 -42.5t6 -42.5l-2 5l183 -494l174 515q-3 72 -88 72q-40 0 -73 -19q-11 18 -11 48.5t27 55.5t74.5 25t81.5 -32q36 32 82 32t81 -29q37 29 80.5 29 t68 -24t24.5 -57t-10 -48q-24 14 -61.5 14t-55.5 -3t-34 -11q-34 -17 -49 -63l-72 -210q-11 -33 -11 -57.5t8.5 -39.5t20.5 -29q27 -29 45 -34q-78 -21 -103 -41q-37 -28 -56 -77l-143 -433q-33 -83 -105 -83q-21 0 -45 7l-334 829l-234 -753q-17 -54 -70 -76 q-17 -7 -36.5 -7t-43.5 7l-212 503q-26 64 -120 101l-58 22q72 62 72 85t-5 43t-15.5 50t-26.5 73l-41 104q-24 60 -39 73q-26 24 -66 24t-62 -17q-11 11 -11 43zM279 896q0 -26 1 -38.5t5 -29.5q8 -36 33 -95.5t25.5 -72.5t-2.5 -21.5t-9 -16.5q-12 -20 -29 -26 q70 -14 87 -44l14 -27q6 -13 14 -33l55 -123q21 -46 41 -71t54 -33l-275 666q-14 -9 -14 -35zM481 984q3 -11 9 -25zM1007 883q0 -28 5.5 -51t14.5 -49t21 -55l22 -58l177 -405q9 10 9 34t-2.5 38t-9 35t-17.5 52l-27 75l-179 432q-14 -20 -14 -48z" />
<glyph unicode="x" horiz-adv-x="1236" d="M-6 61q0 33 10 48q24 -14 53.5 -14t53.5 6t49 22q53 34 109 112l199 273l-326 488q-27 40 -42.5 46.5t-29.5 6.5q-34 0 -56 -17q-11 11 -11 34.5t5.5 39t17.5 27.5q29 27 81.5 27t98.5 -29q39 29 94.5 29t101.5 -34q50 34 95 34t68 -7t41 -19q37 -27 37 -67 q0 -24 -15 -39q-23 18 -51 18q-40 0 -69 -18l184 -274l185 269q-38 27 -72.5 27t-67.5 -19q-11 18 -11 48t28 55.5t72 25.5t79 -29q36 29 76.5 29t78.5 -26q31 26 61 26t45 -5.5t28 -16.5q28 -23 28 -57.5t-10 -49.5q-24 14 -50 14t-48 -5.5t-44 -19.5q-50 -31 -96 -95 l-209 -281l292 -436q17 -24 29.5 -45t25.5 -37q30 -35 67.5 -35t59.5 17q11 -11 11 -43t-27 -58.5t-79.5 -26.5t-87.5 33q-44 -33 -106 -33t-114 34q-46 -34 -102.5 -34t-88.5 26.5t-32 66.5q0 24 15 39q24 -18 46 -18q37 0 63 11l-200 300l-178 -290q29 -25 66 -25t70 19 q11 -18 11 -41q0 -88 -99 -88q-48 0 -85 32q-37 -32 -83 -32t-78 25q-30 -25 -74 -25t-68.5 24t-24.5 57zM352 890q0 -25 13 -50.5t33 -55.5l80 -114l273 -405q13 16 13 43q0 42 -111 205l-290 418q-11 -16 -11 -41z" />
<glyph unicode="y" horiz-adv-x="1210" d="M-57 1070q0 21 6 36t20 27q30 27 86.5 27t106.5 -36q41 36 100 36t104 -33q45 33 101 33t88.5 -26.5t33.5 -52.5q1 -39 -13 -53q-24 18 -50 18t-42.5 -15t-14.5 -49l231 -624l219 641q-11 51 -73 51q-39 0 -74 -19q-10 19 -9.5 49t28 55t75 25t81.5 -32q36 32 81 32 t82 -28q34 28 75.5 28t66.5 -24q23 -23 23 -48v-2q-2 -40 -12 -55q-22 14 -70 14q-96 0 -145 -130l-31 -87q-34 -95 -34.5 -130t12 -56.5t56.5 -44.5q-108 -30 -147 -101q-12 -22 -21 -46l-166 -451q-97 -279 -180 -378q-76 -91 -190 -91q-87 0 -164 56q-88 63 -88 148 q0 53 28 80.5t51.5 27.5t32.5 -0.5t18 -3.5q18 -8 34 -36q-6 -12 -6 -25q0 -30 33 -63q45 -47 84.5 -47t66 15t47.5 46q46 68 46 195q0 69 -37 152q-10 28 -24 59l-142 320q-23 51 -69.5 90.5t-104.5 52.5q69 35 69 92q0 41 -33 121l-59 142q-26 58 -43 73q-30 24 -69.5 24 t-61.5 -17q-13 13 -13 38zM280 858q1 -13 5 -30q9 -32 36.5 -94.5t29 -78t-10.5 -34t-29 -24.5q64 -12 79 -45q7 -14 20 -44l68 -152q20 -46 42 -91q14 17 14 50q0 63 -50 180l-184 436q-23 -15 -23 -37q0 -20 3 -36z" />
<glyph unicode="z" horiz-adv-x="1207" d="M62 74q0 17 12 34q15 -10 41 -10q30 0 49 19q38 36 77 104q152 260 152 293q3 22 -26 48.5t-43 35.5q98 34 172 102q25 23 38 45l154 261q-49 17 -116 17t-117 -17.5t-89 -49.5q-86 -71 -86 -179q0 -52 16 -73q-12 -24 -38 -24t-44 9t-32 25q-32 38 -32 86t13 75 q-41 27 -41 69.5t29 71.5q-24 31 -24 57.5t9 44.5t24 32q32 30 73 30q25 0 46 -8q-3 -12 -3 -34q0 -34 32 -34q50 0 93 19q82 37 187 37t200 -34q45 34 96 34q65 0 104 -34q41 34 89 34t75 -26q25 -24 25 -63v-6q0 -22 -12 -34q-17 11 -45 11q-57 0 -97 -78l-111 -209 q-26 -52 -27 -66t2.5 -24t10.5 -21q17 -28 42 -46q-130 -29 -200 -155l-181 -304q41 -27 124.5 -27t128.5 20.5t77 55.5q67 75 67 185q0 47 -16 73q32 24 53 24t38.5 -9t31.5 -25q32 -38 32 -84.5t-20 -77.5q48 -30 48 -69t-36 -70q32 -34 32 -59.5t-9 -45t-24 -35.5 q-33 -35 -73 -35q-16 0 -37 8q3 12 3 34q0 34 -31 34q-25 0 -55 -14t-57 -22t-56 -14q-61 -11 -115 -11q-126 0 -214 39q-48 -34 -103.5 -34t-95.5 34q-45 -34 -88 -34q-102 0 -102 84v10zM428 272q3 -6 9 -7l365 666q-64 -4 -111 -86l-78 -135q-31 -53 -45 -72 q-22 -28 -82 -40q34 -16 32.5 -35.5t-6 -33.5t-10.5 -27q-9 -22 -28 -57l-38 -67q-19 -35 -19 -64q0 -23 11 -42z" />
<glyph unicode="{" horiz-adv-x="699" d="M80 668q0 6 12 11q148 53 148 216q0 108 -40 241q-22 72 -22 120q0 85 57.5 147.5t165.5 88.5q-4 50 -37 93q19 15 57.5 15t69.5 -44q26 7 46 7q36 0 80 -16q2 -7 2 -14v-14q0 -58 -39 -79q20 -27 20 -55q0 -49 -40 -58q-29 43 -84 72q-86 -7 -116 -67q-10 -21 -10 -42.5 t2.5 -38.5t10.5 -39q16 -44 48.5 -98t46 -81.5t22.5 -52.5q15 -44 15 -87t-10 -75t-29 -61q-44 -64 -120 -89q114 -40 149 -150q10 -32 10 -60.5t-3.5 -53t-11.5 -48.5q-17 -49 -48.5 -101t-46 -80.5t-22.5 -50.5q-13 -36 -13 -67.5t10 -52t27 -34.5q36 -31 89 -33 q55 29 84 72q17 -4 28.5 -17.5t11.5 -41t-20 -54.5q39 -21 39 -79v-14t-2 -14q-44 -16 -72 -16t-54 7q-31 -44 -78 -44q-30 0 -49 15q33 40 37 93q-106 26 -164.5 87t-58.5 149q0 48 14 95q48 158 48 254.5t-38 149t-110 78.5q-12 5 -12 11zM443 -75l11 3zM443 1411l11 -3z " />
<glyph unicode="|" horiz-adv-x="548" d="M200 -139v1731q14 8 48 8t67 -32.5t33 -96.5v-1731q-14 -8 -48 -8t-67 32.5t-33 96.5z" />
<glyph unicode="}" horiz-adv-x="699" d="M79 -183v-14t2 -14q44 -16 72 -16t54 7q31 -44 78 -44q30 0 49 15q-33 40 -37 93q106 26 164.5 87t58.5 149q0 48 -14 95q-48 158 -48 254.5t38 149t110 78.5q12 5 12 11t-12 11q-148 53 -148 216q0 108 40 241q22 72 22 120q0 85 -57.5 147.5t-165.5 88.5q4 50 37 93 q-19 15 -57.5 15t-69.5 -44q-26 7 -46 7q-36 0 -80 -16q-2 -7 -2 -14v-14q0 -58 39 -79q-20 -27 -20 -55q0 -49 40 -58q29 43 84 72q86 -7 116 -67q10 -21 10 -42.5t-2.5 -38.5t-10.5 -39q-16 -44 -48.5 -98t-46 -81.5t-22.5 -52.5q-15 -44 -15 -87t10 -75t29 -61 q44 -64 120 -89q-114 -40 -149 -150q-10 -32 -10 -60.5t3.5 -53t11.5 -48.5q17 -49 48.5 -101t46 -80.5t22.5 -50.5q13 -36 13 -67.5t-10 -52t-27 -34.5q-36 -31 -89 -33q-55 29 -84 72q-17 -4 -28.5 -17.5t-11.5 -41t20 -54.5q-39 -21 -39 -79zM244 -72l11 -3zM244 1408 l11 3z" />
<glyph unicode="~" horiz-adv-x="1351" d="M120 571.5q0 62.5 26.5 114.5t69.5 90q90 81 204 81q141 0 276 -122q132 -119 198 -133q22 -4 48.5 -4t59 15t58.5 47q58 70 58 197q75 0 104 -84q9 -24 9 -70.5t-27.5 -100t-71.5 -90.5q-90 -77 -197 -77q-152 0 -299 126q-98 84 -135 104q-54 29 -91.5 29t-67 -13 t-54.5 -43q-55 -70 -55 -203q-51 0 -82 37t-31 99.5z" />
<glyph unicode="&#xa1;" horiz-adv-x="848" d="M80 -243q0 -30 25.5 -57t76.5 -27t104 15q62 -35 139 -35t136 35q49 -15 102.5 -15t79 27.5t25.5 52.5q0 33 -11 48q-25 -17 -52.5 -17t-42 6t-22.5 18q-13 18 -20 72l-93 896q-9 54 -37 81t-59.5 27t-61 -29t-37.5 -80l-104 -895q-7 -54 -17 -69q-19 -27 -58.5 -27 t-61.5 17q-11 -14 -11 -44zM168 1189q56 -35 70.5 -56.5t23.5 -38.5q24 -45 70.5 -70.5t100.5 -25.5q112 0 162 94q40 74 95 97q-15 9 -28 16t-24 16q-23 19 -46 58.5t-65.5 69t-93.5 29.5t-98.5 -29.5t-72.5 -74.5q-29 -50 -52.5 -63.5t-41.5 -21.5zM283 1189 q16 9 29.5 28.5t31.5 41.5q27 32 71 32q-6 -11 -12.5 -20.5t-12.5 -20t-9.5 -25t-3.5 -54t38 -96.5q-22 0 -39 8.5t-30 25.5t-18.5 26.5t-13.5 19.5q-19 28 -31 34zM319 -160l82 877q22 -11 22 -149q0 -59 -5 -125l-9 -138q-26 -377 -63 -450q-12 -23 -27 -15z" />
<glyph unicode="&#xa2;" horiz-adv-x="1073" d="M40 718q42 19 60 44q29 39 55 110.5t55 121t74 90.5q99 89 263 109v349q14 8 47 8t63 -32.5t30 -96.5v-222q139 -10 227 -95q83 -81 83 -185q0 -73 51 -93q-30 -49 -84 -49q-17 0 -33 4q-20 -32 -57.5 -53t-65.5 -21q-49 0 -71 28q29 12 34 60q-6 -1 -11 -1h-8 q-68 0 -84 78q76 0 106 50q12 18 12 54t-31.5 62.5t-91.5 26.5q-163 0 -163 -212v-272q0 -122 45.5 -183t151.5 -61q185 0 185 185q5 8 22.5 20t38 12t34.5 -7t23 -19q16 -20 16 -62.5t-21.5 -91.5t-63.5 -86q-92 -82 -244 -88v-366q-14 -8 -47 -8t-63 32.5t-30 96.5v255 q-222 43 -333 233q-35 61 -47 111.5t-22 71.5t-24 37q-24 28 -81 55zM178 718q54 -25 59 -51q35 -160 73 -221q12 -20 27 -41q14 11 14 25q0 22 -9 56l-13 52q-28 114 -28 175.5t15 116.5l26 100q9 34 9 46q0 24 -14 35q-36 -43 -49 -71q-26 -55 -51 -171q-5 -26 -59 -51z " />
<glyph unicode="&#xa3;" horiz-adv-x="1324" d="M90 195q0 107 83 165q74 51 190 51q49 0 95 -14q-15 86 -44 171l-57 174h-238q-8 14 -8 32q0 94 129 94h75q-50 164 -50 272.5t35.5 181.5t97.5 124q128 104 328 104q121 0 222 -39q43 -17 98 -17q48 0 67.5 26t19.5 41t-4 25q7 3 19.5 3t27.5 -8.5t27 -23.5 q27 -34 27 -76.5t-24 -64.5q34 -30 34 -93q0 -62 -42 -104q8 -27 8 -48.5t-7.5 -41t-20.5 -33.5q-29 -31 -55 -31q-41 0 -69 14q17 40 17 86t-20.5 93t-57.5 80q-77 70 -204 70q-80 0 -131 -44q-48 -42 -48 -96t8 -100t21.5 -95t30.5 -100l35 -105h325q8 -14 8 -32 q0 -94 -129 -94h-165q55 -191 55 -312t-37 -204l54 -43q90 -69 169 -69q160 -2 160 141q0 44 -23 77q16 28 64 28t75.5 -33t27.5 -88.5t-26 -103t-67 -81.5q-89 -74 -200 -74q-180 0 -323 118q-122 -118 -301 -118q-137 0 -214 66q-68 58 -68 149zM250 200q0 -36 28 -60.5 t60 -24.5t54 8.5t40 26.5q37 39 39 109q-52 27 -109 27t-84.5 -25t-27.5 -61zM346 1167q0 -72 34 -177.5t69.5 -204.5t58.5 -170.5t36 -123.5q21 -89 21 -135q0 -66 -5 -91q63 24 63 108q0 79 -37 197l-139 422q-50 148 -56.5 190t-6.5 68q-38 -18 -38 -83z" />
<glyph unicode="&#xa4;" horiz-adv-x="1328" d="M120 154l215 230q-70 95 -70 222.5t71 224.5l-216 232l123 117l221 -239q94 49 204 49t198 -46l218 236l124 -115l-216 -233q67 -96 67 -222.5t-69 -223.5l218 -234l-124 -115l-221 238q-86 -45 -197 -45t-203 46l-220 -239zM438 608q0 -52 19 -95t51 -73q64 -61 153 -61 q157 0 209 133q16 43 16 95t-17 94t-47 73q-63 65 -162 65q-93 0 -156 -63q-66 -66 -66 -168z" />
<glyph unicode="&#xa5;" horiz-adv-x="1357" d="M-70 1447q0 22 7 40.5t22 32.5q32 30 93 30t108 -35q50 35 118.5 35t112.5 -34q53 34 99 34t74 -6.5t49 -19.5q45 -26 47 -72q0 -28 -11 -35q-27 17 -54 17q-59 0 -95 -21l300 -592l284 593q-39 25 -93.5 25t-83.5 -17q-10 15 -10 47t27 56.5t77 24.5t86 -26q32 26 78 26 t77 -22q44 22 88 22t70.5 -28.5t26.5 -73.5q0 -23 -11 -31q-26 17 -64 17q-66 0 -117 -36l-298 -589h309q8 -14 8 -32q0 -94 -129 -94h-240v-144h361q8 -14 8 -32q0 -94 -129 -94h-240v-246q34 -76 123 -76q34 0 56 17q11 -15 11 -34.5t-11.5 -36.5t-31.5 -29 q-46 -28 -105 -28t-110 32q-51 -32 -116 -32t-116 32q-51 -32 -94.5 -32t-71.5 7.5t-49 20.5q-43 26 -43 65q0 20 11 35q22 -17 56 -17q89 0 123 76v246h-359q-8 14 -8 32q0 94 129 94h238v138l-4 6h-355q-8 14 -8 32q0 94 129 94h162l-327 574q-57 51 -102.5 51t-70.5 -17 q-11 8 -11 30zM315 1250l300 -546v-439q51 20 55 157q2 42 2 86v177q0 52 -18 79l-205 381q-45 68 -65 83q-24 18 -69 22z" />
<glyph unicode="&#xa6;" horiz-adv-x="548" d="M200 -139v680q14 8 48 8t67 -32.5t33 -96.5v-680q-14 -8 -48 -8t-67 32.5t-33 96.5zM200 953v639q14 8 48 8t67 -32.5t33 -96.5v-639q-14 -8 -48 -8t-67 32.5t-33 96.5z" />
<glyph unicode="&#xa7;" horiz-adv-x="1036" d="M80 735.5q0 99.5 64 167.5t174 98q-138 110 -138 256q0 132 96 210q99 82 282 82q152 0 236 -72q74 -63 74 -157q0 -54 -31 -80.5t-78 -26.5q-10 0 -24.5 7t-19.5 17q19 19 19 48.5t-11.5 53.5t-33.5 45q-50 46 -120 46t-102 -25t-32 -54.5t8.5 -50t31.5 -42.5 q41 -39 152 -100t171.5 -106.5t95.5 -87.5q62 -76 62 -176t-64 -167.5t-175 -97.5q139 -111 139 -256q0 -132 -96 -210q-99 -82 -282 -82q-152 0 -236 72q-74 63 -74 157q0 54 31 80.5t78 26.5q10 0 24.5 -7t19.5 -17q-19 -19 -19 -48.5t11.5 -53.5t33.5 -45q50 -46 120 -46 t102 25t32 54.5t-8.5 50t-31.5 42.5q-38 36 -150.5 98.5t-173 108t-95.5 87.5q-62 76 -62 175.5zM171 740.5q0 -32.5 10 -61.5t41 -63q65 -73 245 -175q189 -109 217 -195q8 -25 8 -49q0 -50 -24 -79q44 0 70 62q7 18 7 43.5t-11.5 56.5t-40.5 64q-61 71 -168.5 132 t-163 97.5t-92.5 73.5q-73 73 -69 173q-8 -4 -18.5 -25.5t-10.5 -54zM271 1270.5q0 -32.5 10 -65t41 -71.5q69 -85 245 -185q135 -77 172 -117.5t45 -63t8 -46.5q0 -50 -24 -79q44 0 70 62q7 18 7 42t-9.5 50.5t-37.5 56.5q-55 62 -168 126.5t-168.5 104.5t-92.5 81 q-73 81 -69 184q-8 -4 -18.5 -25.5t-10.5 -54zM319 828q0 -19 13 -40q24 -39 130 -105l95 -57q42 -25 50 -29q69 13 101 65q9 15 9 34t-13 40t-45 46.5t-85 58.5l-133 79q-3 2 -6.5 3.5t-6.5 3.5q-70 -13 -100 -65q-9 -15 -9 -34z" />
<glyph unicode="&#xa8;" horiz-adv-x="1361" d="M190 1531q34 21 54.5 37.5t39 51t58.5 57.5t88 23q94 0 140 -85q32 -59 92 -84l-26 -15q-42 -22 -66 -63q-50 -90 -140 -90q-45 0 -86 24.5t-56.5 53.5t-25 40.5t-20 20t-23.5 14.5zM298 1531q14 -8 25.5 -26t27.5 -37q24 -30 63 -30q-6 10 -12 18.5t-11 18t-8 23t-3 48 t34 83.5q-20 0 -35 -5t-26 -20t-16 -24t-11 -19q-17 -25 -28 -30zM693 1531q34 21 54.5 37.5t39 51t58.5 57.5t87 23q95 0 141 -85q32 -59 92 -84l-26 -15q-42 -22 -66 -63q-50 -90 -141 -90q-44 0 -85 24.5t-56.5 53.5t-25 40.5t-20 20t-23.5 14.5zM801 1531 q14 -8 25.5 -26t27.5 -37q24 -30 63 -30q-6 10 -12 18.5t-11 18t-8 23t-3 48t34 83.5q-20 0 -35 -5t-26 -20t-16 -24t-12 -19q-16 -25 -27 -30z" />
<glyph unicode="&#xa9;" horiz-adv-x="1442" d="M100 590q0 129 48.5 238.5t133.5 189.5q181 172 449 172q274 0 448 -183q163 -171 163 -416q0 -270 -180 -445q-177 -171 -429 -171q-288 0 -463 177q-170 172 -170 438zM233 582q0 -105 37 -195.5t103 -156.5q139 -137 359 -137q210 0 343 137t133 355q0 217 -138 353 q-135 134 -342 134q-220 0 -360 -142q-135 -137 -135 -348zM405 592q0 158 95 245q92 85 254 85q107 0 180 -56q71 -54 71 -134q0 -35 -22 -55.5t-46 -20.5q-48 0 -62 33q11 14 11 40.5t-27 51.5t-74 25q-105 0 -105 -121v-201q0 -128 105 -128q45 0 73 23t28 51.5t-11 42.5 q19 33 55.5 33t55.5 -22t19 -58t-19 -70.5t-54 -59.5q-76 -56 -172 -56t-158 23.5t-106 68.5q-91 95 -91 260zM486 564.5q0 -71.5 21.5 -124.5t61.5 -66q-28 75 -28 219q0 89 15.5 150t22.5 70q-61 -10 -85 -138q-8 -39 -8 -110.5z" />
<glyph unicode="&#xaa;" horiz-adv-x="999" d="M85 951q0 111 54 166t173 58q176 4 227 62v96q0 51 -31 82t-91 31q-68 0 -105 -44q-10 -12 -10 -28t10.5 -32.5t25.5 -16.5q0 -26 -20 -43q-35 -27 -64.5 -26.5t-50.5 8t-39 21.5q-38 31 -38 75t23.5 77t66.5 58q95 55 261 55t268 -67.5t102 -197.5v-445q22 -18 56.5 -18 t49.5 12q11 -11 11 -45t-29 -58t-77.5 -24t-92.5 36q-42 -36 -85 -36q-91 0 -128 68q-64 -72 -191.5 -72t-201.5 68.5t-74 179.5zM174 959.5q0 -29.5 5.5 -55t16.5 -46.5q23 -49 61 -60q-28 75 -28 127.5t3.5 75.5t8.5 43q11 44 26 63q-62 -10 -85 -91q-8 -27 -8 -56.5z M378 947.5q0 -62.5 19.5 -92.5t67.5 -30t67 57q7 21 7 54v177q-29 -18 -78.5 -25t-66 -42.5t-16.5 -98zM635 906q50 19 53 118q1 55 1 104t-0.5 75t-0.5 44q-4 116 -53 122v-463z" />
<glyph unicode="&#xab;" horiz-adv-x="1169" d="M80 604q0 18 21 33l41 28q242 159 394 363q23 -22 23 -65q0 -163 -223 -360q223 -197 223 -358q0 -43 -23 -65q-152 204 -394 363q-55 36 -58.5 45t-3.5 16zM570 604q0 18 21 33l41 28q242 159 394 363q23 -22 23 -65q0 -163 -223 -360q223 -197 223 -358q0 -43 -23 -65 q-152 204 -394 363q-55 36 -58.5 45t-3.5 16z" />
<glyph unicode="&#xac;" horiz-adv-x="1078" d="M120 525v146h838v-400h-154v254h-684z" />
<glyph unicode="&#xad;" horiz-adv-x="1229" />
<glyph unicode="&#xae;" horiz-adv-x="1227" d="M100 1105q0 212 150 353q151 142 371 142q227 0 371 -151q135 -143 135 -344q0 -223 -149 -368q-145 -141 -364 -141q-112 0 -209 39t-165 107q-140 142 -140 363zM226 1099q0 -172 110 -281q111 -109 284 -109q86 0 155 28.5t119 80.5q105 108 105 281q0 172 -109 279 q-108 107 -271 107q-175 0 -285 -113q-108 -109 -108 -273zM363 910q0 15 10 20q10 -10 21 -10t19 3v371q-8 3 -19 3t-21 -10q-10 5 -10 20q0 44 68 44q34 0 66 -18q52 26 139 26t139 -41t52 -111.5t-68 -113.5q26 -12 42.5 -36.5t16.5 -53.5v-42q0 -20 9 -30.5t23 -10.5 t24 10q10 -5 10 -18.5t-6.5 -21.5t-17.5 -14q-20 -10 -49 -10t-45 19q-16 -19 -40.5 -19t-42.5 14t-18 42v75q0 29 -17.5 48.5t-52.5 19.5h-31v-137q10 -8 24 -8t24 10q10 -5 10 -20q0 -44 -68 -44q-30 0 -62 15q-30 -15 -61 -15q-68 0 -68 44zM564 1118h20q50 0 69.5 19 t19.5 69q0 92 -70 92q-21 0 -39 -9v-171z" />
<glyph unicode="&#xaf;" horiz-adv-x="962" d="M100 1430q0 33 32.5 66t96.5 33h625q8 -14 8 -47t-32.5 -66t-96.5 -33h-625q-8 14 -8 47z" />
<glyph unicode="&#xb0;" horiz-adv-x="716" d="M80 1284q0 108 76 185q79 81 210 81q118 0 193 -72q77 -73 77 -194q0 -118 -79 -193q-77 -73 -195 -73q-60 0 -112.5 19t-89.5 54q-80 74 -80 193zM219 1299.5q0 -49.5 11.5 -77t31.5 -46.5q40 -39 100 -39t98 39t38 89.5t-10 77.5t-28 47q-40 41 -102 41q-60 0 -99 -41 q-40 -41 -40 -90.5z" />
<glyph unicode="&#xb1;" horiz-adv-x="1078" d="M120 0v146h838v-146h-838zM120 624v146h342v355h154v-355h342v-146h-342v-359h-154v359h-342z" />
<glyph unicode="&#xb2;" horiz-adv-x="915" d="M90 705q26 0 39 8q-8 29 -8 63q0 78 55 158.5t172 145.5q96 55 128 104q28 44 28 99.5t-10.5 82t-27.5 42.5q-34 32 -90 32q-122 0 -122 -131q0 -66 29 -93q-14 -23 -58.5 -23t-71 33.5t-26.5 87t20.5 95.5t60.5 73q84 68 228 68q258 0 346 -133q29 -45 29 -96t-16 -88 t-51 -71q-68 -66 -195 -114.5t-183 -89t-81 -85.5q114 -19 191 -19t123 6.5t75 17.5q57 20 57 47.5t-18 37.5q8 8 36 8t52 -27.5t24 -82t-47 -101.5q34 -22 34 -50t-7 -41.5t-19 -22.5q-22 -18 -55.5 -18t-61.5 23q-84 -23 -197.5 -23t-201.5 17q-38 -28 -72 -28t-50.5 6.5 t-29.5 18.5q-28 26 -28 63zM534 1147q49 12 76 45q45 58 45 98t-10 65.5t-27 44.5q-36 44 -79 44q55 -59 55 -149q0 -95 -60 -148z" />
<glyph unicode="&#xb3;" horiz-adv-x="876" d="M90 851.5q0 46.5 8.5 71t23.5 42.5q32 38 71 38t55 -18q-34 -45 -34 -110.5t40.5 -104t116.5 -38.5q79 0 111 66q11 22 11 52v71q0 63 -18.5 92.5t-60.5 44.5q-76 28 -76 81q0 46 49 58q15 -25 43 -25q33 0 33 53v84q0 131 -131 131q-112 0 -112 -115q0 -54 30 -88 q-14 -26 -59.5 -26t-71.5 32.5t-26 80.5t18.5 87.5t57.5 70.5q88 68 241 68q246 0 314 -134q22 -43 22 -83.5t-10.5 -69.5t-29.5 -55q-44 -58 -112 -86q97 -28 144.5 -87t47.5 -126.5t-26.5 -118.5t-75.5 -87q-102 -75 -275 -75q-80 0 -127 12.5t-55.5 12.5t-8.5 -13t8 -24 q-16 -9 -35.5 -9t-35 4.5t-29.5 14.5q-32 24 -32 66.5t34 69.5q-38 43 -38 89.5zM496 1462q57 -62 57 -149q0 -81 -36 -128q67 17 91 89q6 20 6 45t-10.5 51.5t-27.5 47.5q-35 44 -80 44zM526 725q46 0 80 47q38 52 38 102t-7.5 77.5t-21.5 50.5q-31 49 -78 60 q46 -61 46 -168t-57 -169z" />
<glyph unicode="&#xb4;" horiz-adv-x="586" d="M100 1390q0 20 29.5 57t60 120.5t30.5 166t-10 110.5q36 40 124 40q105 0 141 -94q11 -29 11 -75.5t-22.5 -103.5t-61.5 -105q-85 -103 -212 -135q-29 -8 -59.5 -8t-30.5 27zM214 1473q48 -11 94 93q44 97 44 161q0 101 -47 101q-13 0 -20 -7q11 -24 11 -64 q0 -172 -82 -284z" />
<glyph unicode="&#xb6;" horiz-adv-x="1364" d="M40 1160q97 45 122 132q32 115 129 187q96 71 220.5 71t202.5 -45q70 45 148.5 45t146.5 -41q62 41 111 41t77 -7.5t49 -20.5q43 -26 43 -65q0 -20 -11 -35q-22 17 -56 17q-85 0 -123 -86v-1188q29 -74 115 -74q42 0 64 17q11 -15 11 -34.5t-11 -36.5t-30 -29 q-40 -28 -94 -28t-93 21q-18 -21 -50 -21q-80 0 -80 108v1230q0 82 -69 82q-63 0 -63 -79v-1233q0 -108 -81 -108q-32 0 -50 20q-38 -20 -78.5 -20t-65 7.5t-42.5 20.5q-41 27 -41 65q0 20 11 35q22 -17 64 -17q83 0 115 73l-4 624q-52 -16 -110 -16q-125 0 -218 60.5 t-137 185.5l-13 39q-13 39 -42.5 62t-66.5 41zM149 1160q61 -20 77 -62.5t30.5 -75.5t29.5 -57q34 -52 70 -54q-47 64 -62 201q-4 37 -4 86.5t22 113.5t54 110q-56 -10 -107 -110q-16 -31 -24 -56.5t-17 -39t-20 -24.5q-24 -24 -49 -32z" />
<glyph unicode="&#xb7;" horiz-adv-x="678" d="M78 796q56 35 70.5 56.5t23.5 38.5q24 45 70.5 70.5t100.5 25.5q112 0 162 -94q40 -74 95 -97q-15 -9 -28 -16t-24 -16q-23 -19 -46 -58.5t-65.5 -69t-93.5 -29.5t-98.5 29.5t-72.5 74.5q-29 50 -52.5 63.5t-41.5 21.5zM193 796q16 -9 29.5 -28.5t31.5 -41.5 q27 -32 71 -32q-6 11 -12.5 20.5t-12.5 20t-9.5 25t-3.5 54t38 96.5q-22 0 -39 -8.5t-30 -25.5t-18.5 -26.5t-13.5 -19.5q-19 -28 -31 -34z" />
<glyph unicode="&#xb8;" horiz-adv-x="738" d="M100 -369q0 26 6 44.5t18 32.5q28 31 60 31q72 0 78 -56q-21 -15 -21 -36t7 -35.5t19 -27.5q27 -28 72 -28t69 31.5t24 66t-10.5 61.5t-33.5 49q-52 50 -146 50l38 208l107 1l-21 -113q185 -10 250 -130q22 -40 22 -87t-21.5 -88.5t-60.5 -73.5q-87 -71 -211 -71 q-183 0 -231 114q-14 31 -14 57z" />
<glyph unicode="&#xb9;" horiz-adv-x="723" d="M45 1323.5q0 37.5 13 72t37 60.5q51 54 123.5 54t118.5 -24q38 64 101 64q105 0 105 -131v-671q18 -7 52.5 -7t56.5 17q11 -15 11 -47.5t-28.5 -56.5t-77.5 -24t-87 29q-35 -29 -81.5 -29t-78.5 32q-42 -32 -88.5 -32t-76.5 25t-30 68q0 20 11 35q22 -17 56.5 -17t52.5 7 v563q-28 8 -77 8t-102 -47q-11 14 -11 51.5zM325 775q49 19 55 124q6 84 6 145t-0.5 81t-1.5 37.5t-4 33.5l-5 35q-9 53 -50 72v-528z" />
<glyph unicode="&#xba;" horiz-adv-x="1028" d="M90 1138q2 189 116 299q116 113 313 113q194 0 307 -104q116 -106 120 -308q2 -219 -118 -331q-112 -104 -310 -104q-95 0 -175.5 27.5t-136.5 82.5q-120 116 -116 325zM180 1138q0 -152 72 -232q16 8 16 24q0 22 -10 56q-22 75 -22 140q0 114 29 187q6 15 6 22v12 q0 9 -19 23q-72 -91 -72 -232zM432 919q0 -104 89 -104q35 0 61.5 25t26.5 79v408q0 111 -88 111q-41 0 -65 -30t-24 -81v-408zM720 906q50 19 52 118q2 55 2 104t-0.5 75t-1.5 44q-3 116 -52 122v-463z" />
<glyph unicode="&#xbb;" horiz-adv-x="1169" d="M119 245q0 -43 23 -65q152 204 394 363q55 36 58.5 45t3.5 16q0 18 -21 33l-41 28q-242 159 -394 363q-23 -22 -23 -65q0 -163 223 -360q-223 -197 -223 -358zM609 245q0 -43 23 -65q152 204 394 363q55 36 58.5 45t3.5 16q0 18 -21 33l-41 28q-242 159 -394 363 q-23 -22 -23 -65q0 -163 223 -360q-223 -197 -223 -358z" />
<glyph unicode="&#xbc;" horiz-adv-x="2088" d="M45 1323.5q0 37.5 13 72t37 60.5q51 54 123.5 54t118.5 -24q38 64 101 64q105 0 105 -131v-671q18 -7 52.5 -7t56.5 17q11 -15 11 -47.5t-28.5 -56.5t-77.5 -24t-87 29q-35 -29 -81.5 -29t-78.5 32q-42 -32 -88.5 -32t-76.5 25t-30 68q0 20 11 35q22 -17 56.5 -17t52.5 7 v563q-28 8 -77 8t-102 -47q-11 14 -11 51.5zM325 775q49 19 55 124q6 84 6 145t-0.5 81t-1.5 37.5t-4 33.5l-5 35q-9 53 -50 72v-528zM373 65q0 36 16.5 67.5t48.5 74.5l1022 1343q42 0 65 -27t23 -63t-16.5 -67.5t-48.5 -74.5l-1022 -1343q-42 0 -65 27t-23 63zM1058 356 q0 49 38 92l285 338q71 84 121.5 84t81.5 -24q46 39 94 39q105 0 105 -131v-338q99 0 116 18q7 8 7 24t-15 33q6 8 26 8t34 -8t25 -21q22 -26 22 -60.5t-20 -64.5q20 -24 20 -50t-7 -42t-19 -28q-33 -35 -71 -24q-7 2 -10 6q15 17 15 33t-7 23.5t-24.5 11.5t-41.5 5l-50 2 v-171q29 -25 73 -25t66 17q11 -15 11 -46.5t-32 -56.5t-82.5 -25t-103.5 32q-38 -32 -85.5 -32t-86.5 33q-51 -33 -102.5 -33t-83.5 25t-32 68q0 20 11 35q22 -17 64.5 -17t74.5 24l-2 172h-314q-50 0 -75.5 22.5t-25.5 51.5zM1246 416h227v267zM1563 135q49 19 55 124 q6 84 6 159q0 199 -30 236q-14 18 -31 26v-545z" />
<glyph unicode="&#xbd;" horiz-adv-x="2017" d="M45 1323.5q0 37.5 13 72t37 60.5q51 54 123.5 54t118.5 -24q38 64 101 64q105 0 105 -131v-671q18 -7 52.5 -7t56.5 17q11 -15 11 -47.5t-28.5 -56.5t-77.5 -24t-87 29q-35 -29 -81.5 -29t-78.5 32q-42 -32 -88.5 -32t-76.5 25t-30 68q0 20 11 35q22 -17 56.5 -17t52.5 7 v563q-28 8 -77 8t-102 -47q-11 14 -11 51.5zM325 775q49 19 55 124q6 84 6 145t-0.5 81t-1.5 37.5t-4 33.5l-5 35q-9 53 -50 72v-528zM374 65q0 36 16.5 67.5t48.5 74.5l1022 1343q42 0 65 -27t23 -63t-16.5 -67.5t-48.5 -74.5l-1022 -1343q-42 0 -65 27t-23 63zM1192 63 q26 0 39 8q-8 29 -8 63q0 78 55 158.5t172 145.5q96 55 128 104q28 44 28 99.5t-10.5 82t-27.5 42.5q-34 32 -90 32q-122 0 -122 -131q0 -66 29 -93q-14 -23 -58.5 -23t-71 33.5t-26.5 87t20.5 95.5t60.5 73q84 68 228 68q258 0 346 -133q29 -45 29 -96t-16 -88t-51 -71 q-68 -66 -195 -114.5t-183 -89t-81 -85.5q114 -19 191 -19t123 6.5t75 17.5q57 20 57 47.5t-18 37.5q8 8 36 8t52 -27.5t24 -82t-47 -101.5q34 -22 34 -50t-7 -41.5t-19 -22.5q-22 -18 -55.5 -18t-61.5 23q-84 -23 -197.5 -23t-201.5 17q-38 -28 -72 -28t-50.5 6.5 t-29.5 18.5q-28 26 -28 63zM1636 505q49 12 76 45q45 58 45 98t-10 65.5t-27 44.5q-36 44 -79 44q55 -59 55 -149q0 -95 -60 -148z" />
<glyph unicode="&#xbe;" horiz-adv-x="2129" d="M90 851.5q0 46.5 8.5 71t23.5 42.5q32 38 71 38t55 -18q-34 -45 -34 -110.5t40.5 -104t116.5 -38.5q79 0 111 66q11 22 11 52v71q0 63 -18.5 92.5t-60.5 44.5q-76 28 -76 81q0 46 49 58q15 -25 43 -25q33 0 33 53v84q0 131 -131 131q-112 0 -112 -115q0 -54 30 -88 q-14 -26 -59.5 -26t-71.5 32.5t-26 80.5t18.5 87.5t57.5 70.5q88 68 241 68q246 0 314 -134q22 -43 22 -83.5t-10.5 -69.5t-29.5 -55q-44 -58 -112 -86q97 -28 144.5 -87t47.5 -126.5t-26.5 -118.5t-75.5 -87q-102 -75 -275 -75q-80 0 -127 12.5t-55.5 12.5t-8.5 -13t8 -24 q-16 -9 -35.5 -9t-35 4.5t-29.5 14.5q-32 24 -32 66.5t34 69.5q-38 43 -38 89.5zM413 65q0 36 16.5 67.5t48.5 74.5l1022 1343q42 0 65 -27t23 -63t-16.5 -67.5t-48.5 -74.5l-1022 -1343q-42 0 -65 27t-23 63zM496 1462q57 -62 57 -149q0 -81 -36 -128q67 17 91 89 q6 20 6 45t-10.5 51.5t-27.5 47.5q-35 44 -80 44zM526 725q46 0 80 47q38 52 38 102t-7.5 77.5t-21.5 50.5q-31 49 -78 60q46 -61 46 -168t-57 -169zM1099 356q0 49 38 92l285 338q71 84 121.5 84t81.5 -24q46 39 94 39q105 0 105 -131v-338q99 0 116 18q7 8 7 24t-15 33 q6 8 26 8t34 -8t24 -21q23 -26 23 -60.5t-20 -64.5q20 -24 20 -50t-7 -42t-18 -28q-34 -35 -72 -24q-7 2 -10 6q15 17 15 33t-7 23.5t-24.5 11.5t-41.5 5l-50 2v-171q29 -25 73 -25t66 17q11 -15 11 -46.5t-32 -56.5t-82.5 -25t-103.5 32q-38 -32 -85.5 -32t-86.5 33 q-51 -33 -102.5 -33t-83.5 25t-32 68q0 20 11 35q22 -17 64.5 -17t74.5 24l-2 172h-314q-50 0 -75.5 22.5t-25.5 51.5zM1287 416h227v267zM1604 135q49 19 56 124q5 84 5 159q0 199 -30 236q-14 18 -31 26v-545z" />
<glyph unicode="&#xbf;" horiz-adv-x="1177" d="M-27 60q16 9 32 17t29 19q32 24 41.5 77t45.5 106.5t82.5 98.5t98.5 84l94 72q98 80 98 135q0 27 -17 39.5t-36.5 12.5t-40.5 -14q-23 10 -23 49t11.5 66.5t31.5 47.5q43 43 88.5 43t76 -11.5t54.5 -32.5q54 -47 54 -110t-22 -108.5t-55 -86t-71 -79.5t-71 -83 q-76 -104 -76 -220l-1 -37q0 -36 39 -61q16 -10 44 -24q-60 -27 -71 -50q-11 -24 -11 -87q0 -116 163.5 -116t163.5 120v265q0 101 -91 101q-32 0 -48 -14q-15 8 -15 31t9.5 39t29.5 29q43 29 111 29t119.5 -21.5t93.5 -55.5q86 -71 116 -169q17 -56 69 -84l31 -17 q-64 -36 -84.5 -66t-36.5 -73t-62 -91t-109 -82q-134 -73 -311 -73q-377 0 -479 272q-24 71 -95 113zM252 48q0 -44 7.5 -87t18.5 -72q22 -59 51 -59q-15 32 -15 109.5t11.5 96t36.5 25.5q-32 11 -40 28.5t-8 49.5v36q0 83 15 115q-46 0 -69 -146q-8 -52 -8 -96zM264 1188 q15 9 28 16t24 16q23 19 46 58.5t65.5 69t93.5 29.5t98.5 -29.5t72.5 -74.5q29 -50 52.5 -63.5t41.5 -21.5q-56 -35 -70.5 -56.5t-23.5 -38.5q-24 -45 -70.5 -70.5t-100.5 -25.5q-112 0 -162 94q-40 74 -95 97zM539 1074q22 0 39 8.5t30 25.5t18.5 26.5t13.5 19.5 q19 28 31 34q-16 9 -29.5 28.5t-31.5 41.5q-27 32 -71 32q6 -11 12.5 -20.5t12.5 -20t9.5 -25t3.5 -54t-38 -96.5zM868 -150q26 13 36 26q24 31 39.5 86t31.5 72t47 27q-56 19 -73 65q-6 17 -12 39q-21 70 -69 85q28 -81 28 -130v-65q0 -111 -28 -205z" />
<glyph unicode="&#xc0;" horiz-adv-x="1458" d="M-70 61q0 32 10 47q29 -17 71.5 -17t64 11.5t41.5 31.5l142 421l20 69q9 31 9 57q0 91 -86 116q79 30 111 65q50 55 79 145l110 369q-32 43 -76 43t-82 -19q-10 18 -10 40.5t9.5 42.5t26.5 35q38 32 108 32t119 -42q50 42 124.5 42t118.5 -40q64 40 130 40t102.5 -25 t36.5 -68q0 -20 -12 -35q-23 17 -54 17q-67 0 -87 -91l128 -409q24 -77 120 -120q27 -12 55 -22q-100 -33 -100 -99q0 -25 8 -44l191 -512q44 -46 89 -46t70 17q11 -8 11 -30t-7 -40.5t-22 -32.5q-32 -30 -94 -30t-108 34q-52 -34 -117.5 -34t-112.5 33q-45 -33 -106 -33 t-101 25.5t-42 72.5q0 28 11 35q27 -17 55 -17q59 0 83 24l-76 255h-541l-66 -221q41 -63 99.5 -63t87.5 17q11 -18 11 -49.5t-31 -55t-80 -23.5t-90 25q-36 -25 -82.5 -25t-79.5 27q-37 -27 -84.5 -27t-76 24.5t-28.5 56.5zM390 510h460l-232 771zM536 1858q0 50 12 77 t33 46q43 39 94 39q86 0 122 -40q-4 -17 -4 -46.5t3.5 -64t14.5 -69.5q25 -77 82 -134q24 -24 24 -40q0 -26 -53 -26t-143.5 40t-137.5 104t-47 114zM604 1876q0 -63 66 -128q63 -61 133 -82q-70 50 -105 111t-35 105t14 74q-32 1 -52.5 -23t-20.5 -57zM727 1250 q67 -242 88 -310q145 -446 174 -529l52 -146q18 0 18 40q0 70 -21 136l-38 117q-40 132 -40 166q-1 56 49 74q-69 14 -84 43q-7 12 -11.5 19t-9 16.5t-10.5 24.5t-16 43l-62 187q-22 70 -65 106q-13 11 -24 13zM1336 175l2 -6z" />
<glyph unicode="&#xc1;" horiz-adv-x="1458" d="M-70 61q0 32 10 47q29 -17 71.5 -17t64 11.5t41.5 31.5l142 421l20 69q9 31 9 57q0 91 -86 116q79 30 111 65q50 55 79 145l110 369q-32 43 -76 43t-82 -19q-10 18 -10 40.5t9.5 42.5t26.5 35q38 32 108 32t119 -42q50 42 124.5 42t118.5 -40q64 40 130 40t102.5 -25 t36.5 -68q0 -20 -12 -35q-23 17 -54 17q-67 0 -87 -91l128 -409q24 -77 120 -120q27 -12 55 -22q-100 -33 -100 -99q0 -25 8 -44l191 -512q44 -46 89 -46t70 17q11 -8 11 -30t-7 -40.5t-22 -32.5q-32 -30 -94 -30t-108 34q-52 -34 -117.5 -34t-112.5 33q-45 -33 -106 -33 t-101 25.5t-42 72.5q0 28 11 35q27 -17 55 -17q59 0 83 24l-76 255h-541l-66 -221q41 -63 99.5 -63t87.5 17q11 -18 11 -49.5t-31 -55t-80 -23.5t-90 25q-36 -25 -82.5 -25t-79.5 27q-37 -27 -84.5 -27t-76 24.5t-28.5 56.5zM390 510h460l-232 771zM536 1624q0 18 28 46 t47.5 62t30.5 68q18 57 18 110t-4 70q36 40 111 40q62 0 94 -29q56 -51 56 -117t-47 -130t-120 -96q-107 -48 -166 -48q-20 0 -34 5t-14 19zM634 1666q77 36 121 104q36 56 36 108q0 90 -45 90q-13 0 -20 -7q11 -24 11 -60.5t-5.5 -65.5t-17.5 -57q-25 -53 -80 -112z M727 1250q67 -242 88 -310q145 -446 174 -529l52 -146q18 0 18 40q0 70 -21 136l-38 117q-40 132 -40 166q-1 56 49 74q-69 14 -84 43q-7 12 -11.5 19t-9 16.5t-10.5 24.5t-16 43l-62 187q-22 70 -65 106q-13 11 -24 13zM1336 175l2 -6z" />
<glyph unicode="&#xc2;" horiz-adv-x="1458" d="M-70 61q0 32 10 47q29 -17 71.5 -17t64 11.5t41.5 31.5l142 421l20 69q9 31 9 57q0 91 -86 116q79 30 111 65q50 55 79 145l110 369q-32 43 -76 43t-82 -19q-10 18 -10 40.5t9.5 42.5t26.5 35q38 32 108 32t119 -42q50 42 124.5 42t118.5 -40q64 40 130 40t102.5 -25 t36.5 -68q0 -20 -12 -35q-23 17 -54 17q-67 0 -87 -91l128 -409q24 -77 120 -120q27 -12 55 -22q-100 -33 -100 -99q0 -25 8 -44l191 -512q44 -46 89 -46t70 17q11 -8 11 -30t-7 -40.5t-22 -32.5q-32 -30 -94 -30t-108 34q-52 -34 -117.5 -34t-112.5 33q-45 -33 -106 -33 t-101 25.5t-42 72.5q0 28 11 35q27 -17 55 -17q59 0 83 24l-76 255h-541l-66 -221q41 -63 99.5 -63t87.5 17q11 -18 11 -49.5t-31 -55t-80 -23.5t-90 25q-36 -25 -82.5 -25t-79.5 27q-37 -27 -84.5 -27t-76 24.5t-28.5 56.5zM385 1596l209 291q70 93 126 93q47 0 91 -44 q19 -19 45 -49l230 -275q-13 -23 -47 -37.5t-69.5 -14.5t-62 5.5t-50.5 16.5q-36 18 -97 75l-109 103l-81 -115q-63 -85 -129 -85q-51 0 -56 36zM390 510h460l-232 771zM687 1811l109 -103q67 -64 127 -64l-209 201zM727 1250q67 -242 88 -310q145 -446 174 -529l52 -146 q18 0 18 40q0 70 -21 136l-38 117q-40 132 -40 166q-1 56 49 74q-69 14 -84 43q-7 12 -11.5 19t-9 16.5t-10.5 24.5t-16 43l-62 187q-22 70 -65 106q-13 11 -24 13zM1336 175l2 -6z" />
<glyph unicode="&#xc3;" horiz-adv-x="1458" d="M-70 61q0 32 10 47q29 -17 71.5 -17t64 11.5t41.5 31.5l142 421l20 69q9 31 9 57q0 91 -86 116q79 30 111 65q50 55 79 145l110 369q-32 43 -76 43t-82 -19q-10 18 -10 40.5t9.5 42.5t26.5 35q38 32 108 32t119 -42q50 42 124.5 42t118.5 -40q64 40 130 40t102.5 -25 t36.5 -68q0 -20 -12 -35q-23 17 -54 17q-67 0 -87 -91l128 -409q24 -77 120 -120q27 -12 55 -22q-100 -33 -100 -99q0 -25 8 -44l191 -512q44 -46 89 -46t70 17q11 -8 11 -30t-7 -40.5t-22 -32.5q-32 -30 -94 -30t-108 34q-52 -34 -117.5 -34t-112.5 33q-45 -33 -106 -33 t-101 25.5t-42 72.5q0 28 11 35q27 -17 55 -17q59 0 83 24l-76 255h-541l-66 -221q41 -63 99.5 -63t87.5 17q11 -18 11 -49.5t-31 -55t-80 -23.5t-90 25q-36 -25 -82.5 -25t-79.5 27q-37 -27 -84.5 -27t-76 24.5t-28.5 56.5zM351 1726q0 53 14.5 93t41.5 69q58 62 148 62 q65 0 114 -23l79 -37q73 -37 99.5 -40t48 -3t45 26.5t23.5 74.5q12 12 33 12t38.5 -11.5t31.5 -30.5q28 -42 28 -95t-14.5 -93t-41.5 -69q-56 -62 -144 -62q-68 0 -116.5 19.5t-79.5 33.5l-50 24q-56 26 -88 26t-55.5 -26.5t-23.5 -74.5q-12 -12 -33 -12t-38.5 11.5 t-31.5 31.5q-28 41 -28 94zM390 510h460l-232 771zM454 1745q0 -18 8 -28q22 56 92 56q51 0 93 -17t75 -32.5t61 -26.5t50 -17q40 -11 76 -11t65 21.5t30 58.5q0 18 -8 28q-22 -57 -91 -57q-56 0 -129.5 34.5t-100 44.5t-47.5 15q-36 10 -75 10t-68.5 -21t-30.5 -58z M727 1250q67 -242 88 -310q145 -446 174 -529l52 -146q18 0 18 40q0 70 -21 136l-38 117q-40 132 -40 166q-1 56 49 74q-69 14 -84 43q-7 12 -11.5 19t-9 16.5t-10.5 24.5t-16 43l-62 187q-22 70 -65 106q-13 11 -24 13zM1336 175l2 -6z" />
<glyph unicode="&#xc4;" horiz-adv-x="1458" d="M-70 61q0 32 10 47q29 -17 71.5 -17t64 11.5t41.5 31.5l142 421l20 69q9 31 9 57q0 91 -86 116q79 30 111 65q50 55 79 145l110 369q-32 43 -76 43t-82 -19q-10 18 -10 40.5t9.5 42.5t26.5 35q38 32 108 32t119 -42q50 42 124.5 42t118.5 -40q64 40 130 40t102.5 -25 t36.5 -68q0 -20 -12 -35q-23 17 -54 17q-67 0 -87 -91l128 -409q24 -77 120 -120q27 -12 55 -22q-100 -33 -100 -99q0 -25 8 -44l191 -512q44 -46 89 -46t70 17q11 -8 11 -30t-7 -40.5t-22 -32.5q-32 -30 -94 -30t-108 34q-52 -34 -117.5 -34t-112.5 33q-45 -33 -106 -33 t-101 25.5t-42 72.5q0 28 11 35q27 -17 55 -17q59 0 83 24l-76 255h-541l-66 -221q41 -63 99.5 -63t87.5 17q11 -18 11 -49.5t-31 -55t-80 -23.5t-90 25q-36 -25 -82.5 -25t-79.5 27q-37 -27 -84.5 -27t-76 24.5t-28.5 56.5zM332 1771q34 21 54.5 37.5t39 51t58.5 57.5 t88 23q94 0 140 -85q32 -59 92 -84l-26 -15q-42 -22 -66 -63q-50 -90 -140 -90q-45 0 -86 24.5t-56.5 53.5t-25 40.5t-20 20t-23.5 14.5zM390 510h460l-232 771zM440 1771q14 -8 25.5 -26t27.5 -37q24 -30 63 -30q-6 10 -12 18.5t-11 18t-8 23t-3 48t34 83.5q-20 0 -35 -5 t-26 -20t-16 -24t-11 -19q-17 -25 -28 -30zM727 1250q67 -242 88 -310q145 -446 174 -529l52 -146q18 0 18 40q0 70 -21 136l-38 117q-40 132 -40 166q-1 56 49 74q-69 14 -84 43q-7 12 -11.5 19t-9 16.5t-10.5 24.5t-16 43l-62 187q-22 70 -65 106q-13 11 -24 13zM835 1771 q34 21 54.5 37.5t39 51t58.5 57.5t87 23q95 0 141 -85q32 -59 92 -84l-26 -15q-42 -22 -66 -63q-50 -90 -141 -90q-44 0 -85 24.5t-56.5 53.5t-25 40.5t-20 20t-23.5 14.5zM943 1771q14 -8 25.5 -26t27.5 -37q24 -30 63 -30q-6 10 -12 18.5t-11 18t-8 23t-3 48t34 83.5 q-20 0 -35 -5t-26 -20t-16 -24t-12 -19q-16 -25 -27 -30zM1336 175l2 -6z" />
<glyph unicode="&#xc5;" horiz-adv-x="1458" d="M-70 61q0 32 10 47q29 -17 71.5 -17t64 11.5t41.5 31.5l142 421l20 69q9 31 9 57q0 91 -86 116q79 30 111 65q50 55 79 145l110 369q-32 43 -76 43t-82 -19q-10 18 -10 40.5t9.5 42.5t26.5 35q38 32 108 32t119 -42q50 42 124.5 42t118.5 -40q64 40 130 40t102.5 -25 t36.5 -68q0 -20 -12 -35q-23 17 -54 17q-67 0 -87 -91l128 -409q24 -77 120 -120q27 -12 55 -22q-100 -33 -100 -99q0 -25 8 -44l191 -512q44 -46 89 -46t70 17q11 -8 11 -30t-7 -40.5t-22 -32.5q-32 -30 -94 -30t-108 34q-52 -34 -117.5 -34t-112.5 33q-45 -33 -106 -33 t-101 25.5t-42 72.5q0 28 11 35q27 -17 55 -17q59 0 83 24l-76 255h-541l-66 -221q41 -63 99.5 -63t87.5 17q11 -18 11 -49.5t-31 -55t-80 -23.5t-90 25q-36 -25 -82.5 -25t-79.5 27q-37 -27 -84.5 -27t-76 24.5t-28.5 56.5zM390 510h460l-232 771zM483 1755q0 95 68 159 q68 65 166 65q99 0 166 -64q68 -64 68 -160q0 -97 -68 -161q-66 -62 -167 -62q-50 0 -93 17.5t-74 48.5q-66 64 -66 157zM607 1754q0 -47 24 -71q42 -42 89 -42t71 25q43 42 43 88q0 47 -25 72q-42 42 -89 42t-71 -24q-42 -42 -42 -90zM727 1250q67 -242 88 -310 q145 -446 174 -529l52 -146q18 0 18 40q0 70 -21 136l-38 117q-40 132 -40 166q-1 56 49 74q-69 14 -84 43q-7 12 -11.5 19t-9 16.5t-10.5 24.5t-16 43l-62 187q-22 70 -65 106q-13 11 -24 13zM1336 175l2 -6z" />
<glyph unicode="&#xc6;" horiz-adv-x="2089" d="M-70 61q0 32 10 47q29 -17 78.5 -17t83.5 17l277 447q49 82 50 137.5t-47 105.5q90 19 123 37q63 34 108 105l269 443q-31 36 -73 36t-80 -19q-10 18 -10 40.5t9.5 42.5t27.5 35q37 32 107 32t119 -42q50 42 121.5 42t126.5 -39q106 39 245 39q103 0 176 -20l89 -24 q16 -4 31 -4q28 0 28 40q0 10 -7 34q28 5 71 5t73 -28.5t30 -84t-22 -85.5q30 -46 30 -108t-40 -107q13 -32 13 -64.5t-9.5 -57.5t-23.5 -42q-29 -35 -57 -35q-42 0 -76 18q12 24 12 59.5t-2.5 64t-8.5 57.5q-32 154 -157 218q-55 29 -121.5 29t-128 -37t-86.5 -106v-387 q35 -22 71 -22q134 0 156 59q11 28 11 66t-21 62q20 14 50 14q67 0 97 -54q11 -19 11 -42t-12 -57q41 -47 41 -111.5t-41 -111.5q12 -34 12 -61.5t-11 -52.5t-27 -40q-31 -28 -70 -28q-28 0 -50 16q21 35 21 82q0 93 -51 115q-45 18 -98 18t-89 -21v-492q28 -46 87 -78 t132 -32q156 0 251 130q89 121 89 271q0 34 -8 58q31 25 55 25t38 -6t25 -16q24 -22 24 -49l-6 -49q0 -19 10 -31q20 -21 20 -39.5t-12 -44.5q23 -13 41.5 -38.5t18.5 -66t-43 -83.5q26 -30 26 -84t-32.5 -93.5t-84.5 -39.5q-28 0 -58 6q4 22 4 44q0 46 -42 46 q-31 0 -91 -24q-125 -50 -266 -50t-240 37q-52 -37 -121 -37q-66 0 -117 32q-51 -32 -94.5 -32t-71.5 7.5t-49 20.5q-43 26 -43 65q0 20 11 35q22 -17 56 -17q89 0 123 76v208h-490l-151 -252q42 -32 102 -32t89 17q11 -18 11 -49.5t-31 -55t-80 -23.5t-90 25 q-36 -25 -82.5 -25t-79.5 27q-37 -27 -84.5 -27t-76 24.5t-28.5 56.5zM125 121q12 9 24 21zM525 530h396v658zM1017 265q50 19 55 131q6 112 6 310t-0.5 263.5t-1.5 105.5q-3 118 -22.5 142.5t-36.5 32.5v-985zM1269 275q0 -6 1 -9z" />
<glyph unicode="&#xc7;" horiz-adv-x="1320" d="M30 797q47 22 65 46q29 41 37.5 111.5t32.5 146.5t63.5 144.5t94.5 126t126 99.5q150 89 350 89q195 0 323 -98q115 -89 149 -242q16 -76 41 -94q10 -8 25 -15q-30 -50 -91 -55q-27 -4 -58 11q-55 -94 -155 -100q-21 -2 -32 8q27 36 25 84q0 9 -3 18q-46 -9 -78 8 q-52 30 -54 65q0 8 3 16q62 -18 118 28q38 31 36 70t-18 68t-46 52q-68 54 -170 54q-174 0 -226 -156q-17 -52 -17 -122v-202q0 -113 110 -161q-110 -53 -110 -173v-247q0 -190 151 -251q49 -19 108 -19t111.5 16t92.5 50q87 74 87 217q0 44 -23 77q16 28 67 28t78.5 -33 t27.5 -101.5t-36.5 -142t-103 -128.5t-159.5 -87.5t-177 -32.5t-126 7l-12 -67q185 -10 251 -130q21 -40 21 -87t-21.5 -88.5t-60.5 -73.5q-87 -71 -211 -71q-183 0 -232 114q-13 31 -13 57t6 44.5t19 32.5q27 31 59 31q72 0 78 -56q-21 -15 -21 -36t7 -35.5t19 -27.5 q27 -28 72 -28t69 31.5t24 66t-10.5 61.5t-33.5 49q-52 50 -146 50l34 185q-275 83 -385 387q-36 102 -47 198.5t-35.5 143.5t-69.5 69zM165 797q56 -25 59 -51q36 -310 92 -414q19 -37 43 -67q15 6 15 21q0 22 -21 69q-53 121 -53 442q0 234 56 398q7 25 7 38t-13 17 q-47 -59 -67 -117q-37 -106 -59 -287q-3 -26 -59 -49z" />
<glyph unicode="&#xc8;" horiz-adv-x="1441" d="M75 73q0 20 11 35q22 -17 56 -17q89 0 123 76v489q0 46 -19 68q-30 37 -103 73q68 31 88 55q34 39 34 88v422q-34 77 -123 77q-34 0 -56 -17q-11 15 -11 34.5t11.5 36.5t31.5 29q46 28 105.5 28t109.5 -33q52 33 119 33t122 -39q106 39 245 39q103 0 176 -20l89 -24 q16 -4 31 -4q28 0 28 40q0 10 -7 34q28 5 71 5t73 -28.5t30 -82t-19 -78.5q27 -40 27 -97.5t-39 -96.5q12 -30 12 -58.5t-9.5 -52t-23.5 -39.5q-28 -29 -57 -29q-42 0 -76 18q12 24 12 71q0 110 -55 193q-75 114 -225 114q-76 0 -137.5 -37t-86.5 -106v-387q35 -22 65.5 -22 t46 1t31.5 4q41 6 63 16q42 20 42 98q0 44 -21 68q20 14 50 14q67 0 97 -54q11 -19 11 -42t-12 -57q41 -47 41 -111.5t-41 -111.5q12 -34 12 -61.5t-11 -52.5t-27 -40q-31 -28 -70 -28q-28 0 -50 16q21 35 21 82q0 93 -51 115q-45 18 -103 18t-94 -21v-500q58 -102 224 -102 q188 0 256 116q79 133 79 285q0 44 -8 68q25 25 52 25t41 -7.5t25 -18.5q24 -27 24 -55l-6 -49q0 -19 10 -31q20 -21 20 -39.5t-12 -44.5q23 -13 41.5 -38.5t18.5 -52.5q0 -57 -48 -102q21 -30 21 -86.5t-32.5 -96t-84.5 -39.5q-28 0 -58 6q4 22 4 44q0 46 -42 46 q-47 0 -94 -19q-111 -45 -252.5 -45t-240.5 37q-52 -37 -121 -37q-66 0 -117 32q-51 -32 -94.5 -32t-71.5 7.5t-49 20.5q-43 26 -43 65zM281 797q60 -21 68 -51q12 -48 12 -351v-130q50 19 55 131q6 112 6 310t-0.5 263.5t-1.5 105.5q-3 118 -22.5 142.5t-36.5 32.5 q0 -348 -12 -396q-14 -40 -68 -57zM613 275q0 -3 1 -5zM628 1858q0 50 12 77t33 46q43 39 94 39q86 0 122 -40q-4 -17 -4 -46.5t3.5 -64t14.5 -69.5q25 -77 82 -134q24 -24 24 -40q0 -26 -53 -26t-143.5 40t-137.5 104t-47 114zM696 1876q0 -63 66 -128q63 -61 133 -82 q-70 50 -105 111t-35 105t14 74q-32 1 -52.5 -23t-20.5 -57z" />
<glyph unicode="&#xc9;" horiz-adv-x="1441" d="M75 73q0 20 11 35q22 -17 56 -17q89 0 123 76v489q0 46 -19 68q-30 37 -103 73q68 31 88 55q34 39 34 88v422q-34 77 -123 77q-34 0 -56 -17q-11 15 -11 34.5t11.5 36.5t31.5 29q46 28 105.5 28t109.5 -33q52 33 119 33t122 -39q106 39 245 39q103 0 176 -20l89 -24 q16 -4 31 -4q28 0 28 40q0 10 -7 34q28 5 71 5t73 -28.5t30 -82t-19 -78.5q27 -40 27 -97.5t-39 -96.5q12 -30 12 -58.5t-9.5 -52t-23.5 -39.5q-28 -29 -57 -29q-42 0 -76 18q12 24 12 71q0 110 -55 193q-75 114 -225 114q-76 0 -137.5 -37t-86.5 -106v-387q35 -22 65.5 -22 t46 1t31.5 4q41 6 63 16q42 20 42 98q0 44 -21 68q20 14 50 14q67 0 97 -54q11 -19 11 -42t-12 -57q41 -47 41 -111.5t-41 -111.5q12 -34 12 -61.5t-11 -52.5t-27 -40q-31 -28 -70 -28q-28 0 -50 16q21 35 21 82q0 93 -51 115q-45 18 -103 18t-94 -21v-500q58 -102 224 -102 q188 0 256 116q79 133 79 285q0 44 -8 68q25 25 52 25t41 -7.5t25 -18.5q24 -27 24 -55l-6 -49q0 -19 10 -31q20 -21 20 -39.5t-12 -44.5q23 -13 41.5 -38.5t18.5 -52.5q0 -57 -48 -102q21 -30 21 -86.5t-32.5 -96t-84.5 -39.5q-28 0 -58 6q4 22 4 44q0 46 -42 46 q-47 0 -94 -19q-111 -45 -252.5 -45t-240.5 37q-52 -37 -121 -37q-66 0 -117 32q-51 -32 -94.5 -32t-71.5 7.5t-49 20.5q-43 26 -43 65zM281 797q60 -21 68 -51q12 -48 12 -351v-130q50 19 55 131q6 112 6 310t-0.5 263.5t-1.5 105.5q-3 118 -22.5 142.5t-36.5 32.5 q0 -348 -12 -396q-14 -40 -68 -57zM613 275q0 -3 1 -5zM628 1624q0 18 28 46t47.5 62t30.5 68q18 57 18 110t-4 70q36 40 111 40q62 0 94 -29q56 -51 56 -117t-47 -130t-120 -96q-107 -48 -166 -48q-20 0 -34 5t-14 19zM726 1666q77 36 121 104q36 56 36 108q0 90 -45 90 q-13 0 -20 -7q11 -24 11 -60.5t-5.5 -65.5t-17.5 -57q-25 -53 -80 -112z" />
<glyph unicode="&#xca;" horiz-adv-x="1441" d="M75 73q0 20 11 35q22 -17 56 -17q89 0 123 76v489q0 46 -19 68q-30 37 -103 73q68 31 88 55q34 39 34 88v422q-34 77 -123 77q-34 0 -56 -17q-11 15 -11 34.5t11.5 36.5t31.5 29q46 28 105.5 28t109.5 -33q52 33 119 33t122 -39q106 39 245 39q103 0 176 -20l89 -24 q16 -4 31 -4q28 0 28 40q0 10 -7 34q28 5 71 5t73 -28.5t30 -82t-19 -78.5q27 -40 27 -97.5t-39 -96.5q12 -30 12 -58.5t-9.5 -52t-23.5 -39.5q-28 -29 -57 -29q-42 0 -76 18q12 24 12 71q0 110 -55 193q-75 114 -225 114q-76 0 -137.5 -37t-86.5 -106v-387q35 -22 65.5 -22 t46 1t31.5 4q41 6 63 16q42 20 42 98q0 44 -21 68q20 14 50 14q67 0 97 -54q11 -19 11 -42t-12 -57q41 -47 41 -111.5t-41 -111.5q12 -34 12 -61.5t-11 -52.5t-27 -40q-31 -28 -70 -28q-28 0 -50 16q21 35 21 82q0 93 -51 115q-45 18 -103 18t-94 -21v-500q58 -102 224 -102 q188 0 256 116q79 133 79 285q0 44 -8 68q25 25 52 25t41 -7.5t25 -18.5q24 -27 24 -55l-6 -49q0 -19 10 -31q20 -21 20 -39.5t-12 -44.5q23 -13 41.5 -38.5t18.5 -52.5q0 -57 -48 -102q21 -30 21 -86.5t-32.5 -96t-84.5 -39.5q-28 0 -58 6q4 22 4 44q0 46 -42 46 q-47 0 -94 -19q-111 -45 -252.5 -45t-240.5 37q-52 -37 -121 -37q-66 0 -117 32q-51 -32 -94.5 -32t-71.5 7.5t-49 20.5q-43 26 -43 65zM281 797q60 -21 68 -51q12 -48 12 -351v-130q50 19 55 131q6 112 6 310t-0.5 263.5t-1.5 105.5q-3 118 -22.5 142.5t-36.5 32.5 q0 -348 -12 -396q-14 -40 -68 -57zM477 1596l209 291q70 93 126 93q47 0 91 -44q19 -19 45 -49l230 -275q-13 -23 -47 -37.5t-69.5 -14.5t-62 5.5t-50.5 16.5q-36 18 -97 75l-109 103l-81 -115q-63 -85 -129 -85q-51 0 -56 36zM613 275q0 -3 1 -5zM779 1811l109 -103 q67 -64 127 -64l-209 201z" />
<glyph unicode="&#xcb;" horiz-adv-x="1441" d="M75 73q0 20 11 35q22 -17 56 -17q89 0 123 76v489q0 46 -19 68q-30 37 -103 73q68 31 88 55q34 39 34 88v422q-34 77 -123 77q-34 0 -56 -17q-11 15 -11 34.5t11.5 36.5t31.5 29q46 28 105.5 28t109.5 -33q52 33 119 33t122 -39q106 39 245 39q103 0 176 -20l89 -24 q16 -4 31 -4q28 0 28 40q0 10 -7 34q28 5 71 5t73 -28.5t30 -82t-19 -78.5q27 -40 27 -97.5t-39 -96.5q12 -30 12 -58.5t-9.5 -52t-23.5 -39.5q-28 -29 -57 -29q-42 0 -76 18q12 24 12 71q0 110 -55 193q-75 114 -225 114q-76 0 -137.5 -37t-86.5 -106v-387q35 -22 65.5 -22 t46 1t31.5 4q41 6 63 16q42 20 42 98q0 44 -21 68q20 14 50 14q67 0 97 -54q11 -19 11 -42t-12 -57q41 -47 41 -111.5t-41 -111.5q12 -34 12 -61.5t-11 -52.5t-27 -40q-31 -28 -70 -28q-28 0 -50 16q21 35 21 82q0 93 -51 115q-45 18 -103 18t-94 -21v-500q58 -102 224 -102 q188 0 256 116q79 133 79 285q0 44 -8 68q25 25 52 25t41 -7.5t25 -18.5q24 -27 24 -55l-6 -49q0 -19 10 -31q20 -21 20 -39.5t-12 -44.5q23 -13 41.5 -38.5t18.5 -52.5q0 -57 -48 -102q21 -30 21 -86.5t-32.5 -96t-84.5 -39.5q-28 0 -58 6q4 22 4 44q0 46 -42 46 q-47 0 -94 -19q-111 -45 -252.5 -45t-240.5 37q-52 -37 -121 -37q-66 0 -117 32q-51 -32 -94.5 -32t-71.5 7.5t-49 20.5q-43 26 -43 65zM281 797q60 -21 68 -51q12 -48 12 -351v-130q50 19 55 131q6 112 6 310t-0.5 263.5t-1.5 105.5q-3 118 -22.5 142.5t-36.5 32.5 q0 -348 -12 -396q-14 -40 -68 -57zM424 1771q34 21 54.5 37.5t39 51t58.5 57.5t88 23q94 0 140 -85q32 -59 92 -84l-26 -15q-42 -22 -66 -63q-50 -90 -140 -90q-45 0 -86 24.5t-56.5 53.5t-25 40.5t-20 20t-23.5 14.5zM532 1771q14 -8 25.5 -26t27.5 -37q24 -30 63 -30 q-6 10 -12 18.5t-11 18t-8 23t-3 48t34 83.5q-20 0 -35 -5t-26 -20t-16 -24t-11 -19q-17 -25 -28 -30zM613 275q0 -3 1 -5zM927 1771q34 21 54.5 37.5t39 51t58.5 57.5t87 23q95 0 141 -85q32 -59 92 -84l-26 -15q-42 -22 -66 -63q-50 -90 -141 -90q-44 0 -85 24.5 t-56.5 53.5t-25 40.5t-20 20t-23.5 14.5zM1035 1771q14 -8 25.5 -26t27.5 -37q24 -30 63 -30q-6 10 -12 18.5t-11 18t-8 23t-3 48t34 83.5q-20 0 -35 -5t-26 -20t-16 -24t-12 -19q-16 -25 -27 -30z" />
<glyph unicode="&#xcc;" horiz-adv-x="898" d="M75 73q0 20 11 35q22 -17 56 -17q89 0 123 76v489q0 46 -19 68q-30 37 -103 73q68 31 88 55q34 39 34 88v422q-34 77 -123 77q-34 0 -56 -17q-11 15 -11 34.5t11.5 36.5t31.5 29q46 28 105.5 28t109.5 -33q52 33 116 33t116 -33q50 33 94 33t72 -7.5t49 -20.5 q43 -26 43 -65q0 -20 -11 -35q-22 17 -56 17q-89 0 -123 -77v-422q0 -49 21 -73q33 -39 101 -70q-73 -36 -93 -59q-29 -36 -29 -82v-489q34 -76 123 -76q34 0 56 17q11 -15 11 -34.5t-11.5 -36.5t-31.5 -29q-46 -28 -105 -28t-110 32q-51 -32 -116 -32t-116 32 q-51 -32 -94.5 -32t-71.5 7.5t-49 20.5q-43 26 -43 65zM266 1858q0 50 12 77t33 46q43 39 94 39q86 0 122 -40q-4 -17 -4 -46.5t3.5 -64t14.5 -69.5q25 -77 82 -134q24 -24 24 -40q0 -26 -53 -26t-143.5 40t-137.5 104t-47 114zM281 797q60 -21 68 -51q12 -48 12 -351v-130 q50 19 55 131q6 112 6 310t-0.5 263.5t-1.5 105.5q-3 118 -22.5 142.5t-36.5 32.5q0 -348 -12 -396q-14 -40 -68 -57zM334 1876q0 -63 66 -128q63 -61 133 -82q-70 50 -105 111t-35 105t14 74q-32 1 -52.5 -23t-20.5 -57z" />
<glyph unicode="&#xcd;" horiz-adv-x="898" d="M75 73q0 20 11 35q22 -17 56 -17q89 0 123 76v489q0 46 -19 68q-30 37 -103 73q68 31 88 55q34 39 34 88v422q-34 77 -123 77q-34 0 -56 -17q-11 15 -11 34.5t11.5 36.5t31.5 29q46 28 105.5 28t109.5 -33q52 33 116 33t116 -33q50 33 94 33t72 -7.5t49 -20.5 q43 -26 43 -65q0 -20 -11 -35q-22 17 -56 17q-89 0 -123 -77v-422q0 -49 21 -73q33 -39 101 -70q-73 -36 -93 -59q-29 -36 -29 -82v-489q34 -76 123 -76q34 0 56 17q11 -15 11 -34.5t-11.5 -36.5t-31.5 -29q-46 -28 -105 -28t-110 32q-51 -32 -116 -32t-116 32 q-51 -32 -94.5 -32t-71.5 7.5t-49 20.5q-43 26 -43 65zM266 1624q0 18 28 46t47.5 62t30.5 68q18 57 18 110t-4 70q36 40 111 40q62 0 94 -29q56 -51 56 -117t-47 -130t-120 -96q-107 -48 -166 -48q-20 0 -34 5t-14 19zM281 797q60 -21 68 -51q12 -48 12 -351v-130 q50 19 55 131q6 112 6 310t-0.5 263.5t-1.5 105.5q-3 118 -22.5 142.5t-36.5 32.5q0 -348 -12 -396q-14 -40 -68 -57zM364 1666q77 36 121 104q36 56 36 108q0 90 -45 90q-13 0 -20 -7q11 -24 11 -60.5t-5.5 -65.5t-17.5 -57q-25 -53 -80 -112z" />
<glyph unicode="&#xce;" horiz-adv-x="898" d="M75 73q0 20 11 35q22 -17 56 -17q89 0 123 76v489q0 46 -19 68q-30 37 -103 73q68 31 88 55q34 39 34 88v422q-34 77 -123 77q-34 0 -56 -17q-11 15 -11 34.5t11.5 36.5t31.5 29q46 28 105.5 28t109.5 -33q52 33 116 33t116 -33q50 33 94 33t72 -7.5t49 -20.5 q43 -26 43 -65q0 -20 -11 -35q-22 17 -56 17q-89 0 -123 -77v-422q0 -49 21 -73q33 -39 101 -70q-73 -36 -93 -59q-29 -36 -29 -82v-489q34 -76 123 -76q34 0 56 17q11 -15 11 -34.5t-11.5 -36.5t-31.5 -29q-46 -28 -105 -28t-110 32q-51 -32 -116 -32t-116 32 q-51 -32 -94.5 -32t-71.5 7.5t-49 20.5q-43 26 -43 65zM115 1596l209 291q70 93 126 93q47 0 91 -44q19 -19 45 -49l230 -275q-13 -23 -47 -37.5t-69.5 -14.5t-62 5.5t-50.5 16.5q-36 18 -97 75l-109 103l-81 -115q-63 -85 -129 -85q-51 0 -56 36zM281 797q60 -21 68 -51 q12 -48 12 -351v-130q50 19 55 131q6 112 6 310t-0.5 263.5t-1.5 105.5q-3 118 -22.5 142.5t-36.5 32.5q0 -348 -12 -396q-14 -40 -68 -57zM417 1811l109 -103q67 -64 127 -64l-209 201z" />
<glyph unicode="&#xcf;" horiz-adv-x="898" d="M63 1771q34 21 54.5 37.5t39 51t58.5 57.5t88 23q94 0 140 -85q32 -59 92 -84l-26 -15q-42 -22 -66 -63q-50 -90 -140 -90q-45 0 -86 24.5t-56.5 53.5t-25 40.5t-20 20t-23.5 14.5zM75 73q0 20 11 35q22 -17 56 -17q89 0 123 76v489q0 46 -19 68q-30 37 -103 73 q68 31 88 55q34 39 34 88v422q-34 77 -123 77q-34 0 -56 -17q-11 15 -11 34.5t11.5 36.5t31.5 29q46 28 105.5 28t109.5 -33q52 33 116 33t116 -33q50 33 94 33t72 -7.5t49 -20.5q43 -26 43 -65q0 -20 -11 -35q-22 17 -56 17q-89 0 -123 -77v-422q0 -49 21 -73 q33 -39 101 -70q-73 -36 -93 -59q-29 -36 -29 -82v-489q34 -76 123 -76q34 0 56 17q11 -15 11 -34.5t-11.5 -36.5t-31.5 -29q-46 -28 -105 -28t-110 32q-51 -32 -116 -32t-116 32q-51 -32 -94.5 -32t-71.5 7.5t-49 20.5q-43 26 -43 65zM171 1771q14 -8 25.5 -26t27.5 -37 q24 -30 63 -30q-6 10 -12 18.5t-11 18t-8 23t-3 48t34 83.5q-20 0 -35 -5t-26 -20t-16 -24t-11 -19q-17 -25 -28 -30zM281 797q60 -21 68 -51q12 -48 12 -351v-130q50 19 55 131q6 112 6 310t-0.5 263.5t-1.5 105.5q-3 118 -22.5 142.5t-36.5 32.5q0 -348 -12 -396 q-14 -40 -68 -57zM566 1771q34 21 54.5 37.5t39 51t58.5 57.5t87 23q95 0 141 -85q32 -59 92 -84l-26 -15q-42 -22 -66 -63q-50 -90 -141 -90q-44 0 -85 24.5t-56.5 53.5t-25 40.5t-20 20t-23.5 14.5zM674 1771q14 -8 25.5 -26t27.5 -37q24 -30 63 -30q-6 10 -12 18.5 t-11 18t-8 23t-3 48t34 83.5q-20 0 -35 -5t-26 -20t-16 -24t-12 -19q-16 -25 -27 -30z" />
<glyph unicode="&#xd0;" horiz-adv-x="1629" d="M75 73q0 20 11 35q22 -17 56 -17q89 0 123 76v562h-180q-8 14 -8 32q0 94 129 94h59v507q-34 77 -123 77q-34 0 -56 -17q-11 15 -11 34.5t11.5 36.5t31.5 29q46 28 105.5 28t109.5 -33q52 33 116 33t116 -33q125 33 225 33t175 -10.5t144.5 -36.5t130 -70.5t108.5 -112.5 q102 -143 129 -382q6 -59 25 -83q32 -39 87 -58q-58 -22 -76 -45q-30 -38 -36 -96q-31 -330 -216 -508q-175 -168 -462 -168q-132 0 -228 37q-52 -37 -121 -37q-66 0 -117 32q-51 -32 -94.5 -32t-71.5 7.5t-49 20.5q-43 26 -43 65zM361 265q50 19 55 131q6 112 6 310 t-0.5 263.5t-1.5 105.5q-3 118 -22.5 142.5t-36.5 32.5v-985zM633 171q54 -58 138 -58t139 31t92 103q76 145 76 486v138q0 278 -92 418q-81 125 -220 125q-98 0 -133 -51v-508h247q8 -14 8 -32q0 -94 -129 -94h-126v-558zM1130 1250q73 -209 73 -464q0 -296 -69 -521 q45 13 68 64q76 173 76 455q0 251 -71 398q-31 58 -77 68z" />
<glyph unicode="&#xd1;" horiz-adv-x="1658" d="M65 61q0 32 10 47q29 -17 91.5 -17t103.5 85v480q0 47 -20 70q-30 36 -102 71q73 35 92 58q30 38 30 85v422q-34 77 -123 77q-34 0 -56 -17q-11 15 -11 35t10 37t26 30q35 26 94.5 26t101.5 -33q28 33 77 33t79 -34q29 34 59.5 34t46 -6t26.5 -16q16 -13 36 -51 l620 -1117v305q0 44 -19 65q-29 31 -103 67q69 34 89 55q33 35 33 78v419q-23 42 -56.5 66t-76 24t-71.5 -17q-11 18 -11 49.5t31 55t81 23.5t89 -26q35 26 80.5 26t80.5 -27q39 27 86 27t75.5 -24.5t28.5 -56.5t-10 -47q-29 17 -93 17t-102 -86v-423q0 -43 18 -63 q30 -33 104 -70q-81 -44 -97 -61q-25 -27 -25 -71l18 -508q36 -66 113 -66q34 0 56 17q11 -15 11 -35t-10 -37t-26 -30q-35 -26 -85 -26t-90 20q-79 -45 -161 7q-32 -27 -61 -27t-43 5t-26 18q-19 19 -59 95l-615 1060v-982q41 -85 104 -85t92 17q11 -18 11 -49.5t-31 -55 t-80 -23.5t-90 25q-36 -25 -82.5 -25t-79.5 27q-37 -27 -84.5 -27t-76 24.5t-28.5 56.5zM481 1726q0 53 14.5 93t41.5 69q58 62 148 62q65 0 114 -23l79 -37q73 -37 99.5 -40t48 -3t45 26.5t23.5 74.5q12 12 33 12t38.5 -11.5t31.5 -30.5q28 -42 28 -95t-14.5 -93t-41.5 -69 q-56 -62 -144 -62q-68 0 -116.5 19.5t-79.5 33.5l-50 24q-56 26 -88 26t-55.5 -26.5t-23.5 -74.5q-12 -12 -33 -12t-38.5 11.5t-31.5 31.5q-28 41 -28 94zM536 1210q0 -62 85 -217l415 -728q7 9 7 28.5t-5.5 44t-15.5 52.5q-21 56 -55 120l-424 740q-7 -11 -7 -40zM584 1745 q0 -18 8 -28q22 56 92 56q51 0 93 -17t75 -32.5t61 -26.5t50 -17q40 -11 76 -11t65 21.5t30 58.5q0 18 -8 28q-22 -57 -91 -57q-56 0 -129.5 34.5t-100 44.5t-47.5 15q-36 10 -75 10t-68.5 -21t-30.5 -58z" />
<glyph unicode="&#xd2;" horiz-adv-x="1575" d="M46 797q87 41 102.5 168.5t70.5 238.5t140 190q179 166 431 166q259 0 429 -154q177 -160 208 -448q13 -120 102 -161q-87 -43 -103 -182t-63 -260t-126 -207q-165 -178 -446 -178q-269 0 -441 178q-83 86 -134.5 207t-63.5 229t-36.5 149.5t-69.5 63.5zM181 797 q56 -25 59 -51q36 -310 92 -414q19 -37 43 -67q15 6 15 21q0 22 -21 69q-53 121 -53 442q0 234 56 398q7 25 7 38t-13 17q-47 -59 -67 -117q-37 -106 -59 -287q-3 -26 -59 -49zM567 327q0 -163 135 -209q40 -14 87 -14t86.5 14t68.5 42q60 58 60 167v297q0 120 -108 173 q108 50 108 161v239q0 111 -65 173q-61 57 -151 57q-153 0 -204 -128q-17 -43 -17 -102v-239q0 -113 110 -161q-110 -53 -110 -173v-297zM597 1858q0 50 12 77t33 46q43 39 94 39q86 0 122 -40q-4 -17 -4 -46.5t3.5 -64t14.5 -69.5q25 -77 82 -134q24 -24 24 -40 q0 -26 -53 -26t-143.5 40t-137.5 104t-47 114zM665 1876q0 -63 66 -128q63 -61 133 -82q-70 50 -105 111t-35 105t14 74q-32 1 -52.5 -23t-20.5 -57zM1055 797q60 -27 63 -52q10 -98 10 -169.5t-2 -115t-6 -80.5q-8 -79 -20 -115q78 24 87 231q5 116 5 258.5t-3 214 t-9 117.5q-12 106 -50 147q-11 12 -34 17q28 -84 28 -289q0 -116 -10 -127t-20 -18q-18 -12 -39 -19z" />
<glyph unicode="&#xd3;" horiz-adv-x="1575" d="M46 797q87 41 102.5 168.5t70.5 238.5t140 190q179 166 431 166q259 0 429 -154q177 -160 208 -448q13 -120 102 -161q-87 -43 -103 -182t-63 -260t-126 -207q-165 -178 -446 -178q-269 0 -441 178q-83 86 -134.5 207t-63.5 229t-36.5 149.5t-69.5 63.5zM181 797 q56 -25 59 -51q36 -310 92 -414q19 -37 43 -67q15 6 15 21q0 22 -21 69q-53 121 -53 442q0 234 56 398q7 25 7 38t-13 17q-47 -59 -67 -117q-37 -106 -59 -287q-3 -26 -59 -49zM567 327q0 -163 135 -209q40 -14 87 -14t86.5 14t68.5 42q60 58 60 167v297q0 120 -108 173 q108 50 108 161v239q0 111 -65 173q-61 57 -151 57q-153 0 -204 -128q-17 -43 -17 -102v-239q0 -113 110 -161q-110 -53 -110 -173v-297zM597 1624q0 18 28 46t47.5 62t30.5 68q18 57 18 110t-4 70q36 40 111 40q62 0 94 -29q56 -51 56 -117t-47 -130t-120 -96 q-107 -48 -166 -48q-20 0 -34 5t-14 19zM695 1666q77 36 121 104q36 56 36 108q0 90 -45 90q-13 0 -20 -7q11 -24 11 -60.5t-5.5 -65.5t-17.5 -57q-25 -53 -80 -112zM1055 797q60 -27 63 -52q10 -98 10 -169.5t-2 -115t-6 -80.5q-8 -79 -20 -115q78 24 87 231q5 116 5 258.5 t-3 214t-9 117.5q-12 106 -50 147q-11 12 -34 17q28 -84 28 -289q0 -116 -10 -127t-20 -18q-18 -12 -39 -19z" />
<glyph unicode="&#xd4;" horiz-adv-x="1575" d="M46 797q87 41 102.5 168.5t70.5 238.5t140 190q179 166 431 166q259 0 429 -154q177 -160 208 -448q13 -120 102 -161q-87 -43 -103 -182t-63 -260t-126 -207q-165 -178 -446 -178q-269 0 -441 178q-83 86 -134.5 207t-63.5 229t-36.5 149.5t-69.5 63.5zM181 797 q56 -25 59 -51q36 -310 92 -414q19 -37 43 -67q15 6 15 21q0 22 -21 69q-53 121 -53 442q0 234 56 398q7 25 7 38t-13 17q-47 -59 -67 -117q-37 -106 -59 -287q-3 -26 -59 -49zM446 1596l209 291q70 93 126 93q47 0 91 -44q19 -19 45 -49l230 -275q-13 -23 -47 -37.5 t-69.5 -14.5t-62 5.5t-50.5 16.5q-36 18 -97 75l-109 103l-81 -115q-63 -85 -129 -85q-51 0 -56 36zM567 327q0 -163 135 -209q40 -14 87 -14t86.5 14t68.5 42q60 58 60 167v297q0 120 -108 173q108 50 108 161v239q0 111 -65 173q-61 57 -151 57q-153 0 -204 -128 q-17 -43 -17 -102v-239q0 -113 110 -161q-110 -53 -110 -173v-297zM748 1811l109 -103q67 -64 127 -64l-209 201zM1055 797q60 -27 63 -52q10 -98 10 -169.5t-2 -115t-6 -80.5q-8 -79 -20 -115q78 24 87 231q5 116 5 258.5t-3 214t-9 117.5q-12 106 -50 147q-11 12 -34 17 q28 -84 28 -289q0 -116 -10 -127t-20 -18q-18 -12 -39 -19z" />
<glyph unicode="&#xd5;" horiz-adv-x="1575" d="M46 797q87 41 102.5 168.5t70.5 238.5t140 190q179 166 431 166q259 0 429 -154q177 -160 208 -448q13 -120 102 -161q-87 -43 -103 -182t-63 -260t-126 -207q-165 -178 -446 -178q-269 0 -441 178q-83 86 -134.5 207t-63.5 229t-36.5 149.5t-69.5 63.5zM181 797 q56 -25 59 -51q36 -310 92 -414q19 -37 43 -67q15 6 15 21q0 22 -21 69q-53 121 -53 442q0 234 56 398q7 25 7 38t-13 17q-47 -59 -67 -117q-37 -106 -59 -287q-3 -26 -59 -49zM412 1726q0 53 14.5 93t41.5 69q58 62 148 62q65 0 114 -23l79 -37q73 -37 99.5 -40t48 -3 t45 26.5t23.5 74.5q12 12 33 12t38.5 -11.5t31.5 -30.5q28 -42 28 -95t-14.5 -93t-41.5 -69q-56 -62 -144 -62q-68 0 -116.5 19.5t-79.5 33.5l-50 24q-56 26 -88 26t-55.5 -26.5t-23.5 -74.5q-12 -12 -33 -12t-38.5 11.5t-31.5 31.5q-28 41 -28 94zM515 1745q0 -18 8 -28 q22 56 92 56q51 0 93 -17t75 -32.5t61 -26.5t50 -17q40 -11 76 -11t65 21.5t30 58.5q0 18 -8 28q-22 -57 -91 -57q-56 0 -129.5 34.5t-100 44.5t-47.5 15q-36 10 -75 10t-68.5 -21t-30.5 -58zM567 327q0 -163 135 -209q40 -14 87 -14t86.5 14t68.5 42q60 58 60 167v297 q0 120 -108 173q108 50 108 161v239q0 111 -65 173q-61 57 -151 57q-153 0 -204 -128q-17 -43 -17 -102v-239q0 -113 110 -161q-110 -53 -110 -173v-297zM1055 797q60 -27 63 -52q10 -98 10 -169.5t-2 -115t-6 -80.5q-8 -79 -20 -115q78 24 87 231q5 116 5 258.5t-3 214 t-9 117.5q-12 106 -50 147q-11 12 -34 17q28 -84 28 -289q0 -116 -10 -127t-20 -18q-18 -12 -39 -19z" />
<glyph unicode="&#xd6;" horiz-adv-x="1575" d="M46 797q87 41 102.5 168.5t70.5 238.5t140 190q179 166 431 166q259 0 429 -154q177 -160 208 -448q13 -120 102 -161q-87 -43 -103 -182t-63 -260t-126 -207q-165 -178 -446 -178q-269 0 -441 178q-83 86 -134.5 207t-63.5 229t-36.5 149.5t-69.5 63.5zM181 797 q56 -25 59 -51q36 -310 92 -414q19 -37 43 -67q15 6 15 21q0 22 -21 69q-53 121 -53 442q0 234 56 398q7 25 7 38t-13 17q-47 -59 -67 -117q-37 -106 -59 -287q-3 -26 -59 -49zM393 1771q34 21 54.5 37.5t39 51t58.5 57.5t88 23q94 0 140 -85q32 -59 92 -84l-26 -15 q-42 -22 -66 -63q-50 -90 -140 -90q-45 0 -86 24.5t-56.5 53.5t-25 40.5t-20 20t-23.5 14.5zM501 1771q14 -8 25.5 -26t27.5 -37q24 -30 63 -30q-6 10 -12 18.5t-11 18t-8 23t-3 48t34 83.5q-20 0 -35 -5t-26 -20t-16 -24t-11 -19q-17 -25 -28 -30zM567 327q0 -163 135 -209 q40 -14 87 -14t86.5 14t68.5 42q60 58 60 167v297q0 120 -108 173q108 50 108 161v239q0 111 -65 173q-61 57 -151 57q-153 0 -204 -128q-17 -43 -17 -102v-239q0 -113 110 -161q-110 -53 -110 -173v-297zM896 1771q34 21 54.5 37.5t39 51t58.5 57.5t87 23q95 0 141 -85 q32 -59 92 -84l-26 -15q-42 -22 -66 -63q-50 -90 -141 -90q-44 0 -85 24.5t-56.5 53.5t-25 40.5t-20 20t-23.5 14.5zM1004 1771q14 -8 25.5 -26t27.5 -37q24 -30 63 -30q-6 10 -12 18.5t-11 18t-8 23t-3 48t34 83.5q-20 0 -35 -5t-26 -20t-16 -24t-12 -19q-16 -25 -27 -30z M1055 797q60 -27 63 -52q10 -98 10 -169.5t-2 -115t-6 -80.5q-8 -79 -20 -115q78 24 87 231q5 116 5 258.5t-3 214t-9 117.5q-12 106 -50 147q-11 12 -34 17q28 -84 28 -289q0 -116 -10 -127t-20 -18q-18 -12 -39 -19z" />
<glyph unicode="&#xd7;" horiz-adv-x="1031" d="M148 340l266 266l-260 261l101 101l260 -261l267 267l100 -100l-267 -267l261 -260l-101 -101l-261 260l-266 -266z" />
<glyph unicode="&#xd8;" horiz-adv-x="1562" d="M45 797q87 41 102.5 168.5t70.5 238.5t140 190q179 166 431 166q157 0 285 -60l140 277q17 13 47.5 13t52 -24t21.5 -60q0 -57 -32 -123l-88 -175q178 -159 211 -450q13 -120 102 -161q-87 -43 -103 -182t-63 -260t-126 -207q-165 -178 -446 -178q-141 0 -259 51 l-148 -295q-17 -13 -41 -13q-80 0 -80 95q0 49 39 127l88 175q-206 179 -242 514q-15 131 -102 173zM180 797q56 -25 59 -51q36 -310 91 -414q20 -37 44 -67q15 6 15 21q0 22 -21 69q-53 121 -53 442q0 234 56 398q7 25 7 38t-13 17q-47 -59 -67 -117q-37 -106 -59 -287 q-3 -26 -59 -49zM566 327q0 -163 134 -209q41 -14 88 -14t86.5 14t67.5 42q61 58 61 167v297q0 120 -108 173q108 50 108 161v239q0 111 -65 173q-61 57 -151 57q-153 0 -204 -128q-17 -43 -17 -102v-239q0 -113 110 -161q-110 -53 -110 -173v-297zM1054 797q60 -27 63 -52 q10 -98 10 -169.5t-2 -115t-6 -80.5q-8 -79 -20 -115q78 24 87 231q5 116 5 258.5t-3 214t-8 117.5q-13 106 -51 147q-11 12 -34 17q28 -84 28 -289q0 -116 -10 -127t-19 -18q-19 -12 -40 -19z" />
<glyph unicode="&#xd9;" horiz-adv-x="1548" d="M55 1456.5q0 19.5 11.5 36.5t31.5 29q46 28 105.5 28t109.5 -33q52 33 116 33t116 -33q50 33 94 33t72 -7.5t49 -20.5q43 -26 43 -65q0 -20 -11 -35q-22 17 -56 17q-89 0 -123 -77v-422q0 -49 21 -73q33 -39 101 -70q-73 -36 -93 -59q-29 -36 -29 -82v-279 q0 -121 91 -199q84 -71 191 -71q112 0 199 69q89 70 89 170v319q0 44 -19 65q-29 31 -103 67q69 34 89 55q33 35 33 78v445q-43 64 -105 64t-91 -17q-11 18 -11 49.5t31 55t81 23.5t89 -26q35 26 80.5 26t80.5 -27q39 27 86 27t75.5 -24.5t28.5 -56.5t-10 -47 q-29 17 -92.5 17t-102.5 -64v-445q0 -44 19 -64q30 -31 113 -69q-88 -43 -105 -60q-27 -27 -27 -72v-340q18 -44 73 -84q-35 -14 -87.5 -66t-117.5 -93t-129 -66q-116 -46 -250.5 -46t-244 32t-181.5 87q-141 109 -141 290v277q0 46 -19 68q-30 37 -103 73q68 31 88 55 q34 39 34 88v422q-34 77 -123 77q-34 0 -56 -17q-11 15 -11 34.5zM261 797q60 -21 68 -51q12 -48 12 -207t4.5 -188t12.5 -47q13 -32 35 -39q9 54 9 346.5t-0.5 358t-1.5 105.5q-3 118 -22.5 142.5t-36.5 32.5q0 -348 -12 -396q-14 -40 -68 -57zM683 1858q0 50 12 77t33 46 q43 39 94 39q86 0 122 -40q-4 -17 -4 -46.5t3.5 -64t14.5 -69.5q25 -77 82 -134q24 -24 24 -40q0 -26 -53 -26t-143.5 40t-137.5 104t-47 114zM751 1876q0 -63 66 -128q63 -61 133 -82q-70 50 -105 111t-35 105t14 74q-32 1 -52.5 -23t-20.5 -57z" />
<glyph unicode="&#xda;" horiz-adv-x="1548" d="M55 1456.5q0 19.5 11.5 36.5t31.5 29q46 28 105.5 28t109.5 -33q52 33 116 33t116 -33q50 33 94 33t72 -7.5t49 -20.5q43 -26 43 -65q0 -20 -11 -35q-22 17 -56 17q-89 0 -123 -77v-422q0 -49 21 -73q33 -39 101 -70q-73 -36 -93 -59q-29 -36 -29 -82v-279 q0 -121 91 -199q84 -71 191 -71q112 0 199 69q89 70 89 170v319q0 44 -19 65q-29 31 -103 67q69 34 89 55q33 35 33 78v445q-43 64 -105 64t-91 -17q-11 18 -11 49.5t31 55t81 23.5t89 -26q35 26 80.5 26t80.5 -27q39 27 86 27t75.5 -24.5t28.5 -56.5t-10 -47 q-29 17 -92.5 17t-102.5 -64v-445q0 -44 19 -64q30 -31 113 -69q-88 -43 -105 -60q-27 -27 -27 -72v-340q18 -44 73 -84q-35 -14 -87.5 -66t-117.5 -93t-129 -66q-116 -46 -250.5 -46t-244 32t-181.5 87q-141 109 -141 290v277q0 46 -19 68q-30 37 -103 73q68 31 88 55 q34 39 34 88v422q-34 77 -123 77q-34 0 -56 -17q-11 15 -11 34.5zM261 797q60 -21 68 -51q12 -48 12 -207t4.5 -188t12.5 -47q13 -32 35 -39q9 54 9 346.5t-0.5 358t-1.5 105.5q-3 118 -22.5 142.5t-36.5 32.5q0 -348 -12 -396q-14 -40 -68 -57zM683 1624q0 18 28 46 t47.5 62t30.5 68q18 57 18 110t-4 70q36 40 111 40q62 0 94 -29q56 -51 56 -117t-47 -130t-120 -96q-107 -48 -166 -48q-20 0 -34 5t-14 19zM781 1666q77 36 121 104q36 56 36 108q0 90 -45 90q-13 0 -20 -7q11 -24 11 -60.5t-5.5 -65.5t-17.5 -57q-25 -53 -80 -112z" />
<glyph unicode="&#xdb;" horiz-adv-x="1548" d="M55 1456.5q0 19.5 11.5 36.5t31.5 29q46 28 105.5 28t109.5 -33q52 33 116 33t116 -33q50 33 94 33t72 -7.5t49 -20.5q43 -26 43 -65q0 -20 -11 -35q-22 17 -56 17q-89 0 -123 -77v-422q0 -49 21 -73q33 -39 101 -70q-73 -36 -93 -59q-29 -36 -29 -82v-279 q0 -121 91 -199q84 -71 191 -71q112 0 199 69q89 70 89 170v319q0 44 -19 65q-29 31 -103 67q69 34 89 55q33 35 33 78v445q-43 64 -105 64t-91 -17q-11 18 -11 49.5t31 55t81 23.5t89 -26q35 26 80.5 26t80.5 -27q39 27 86 27t75.5 -24.5t28.5 -56.5t-10 -47 q-29 17 -92.5 17t-102.5 -64v-445q0 -44 19 -64q30 -31 113 -69q-88 -43 -105 -60q-27 -27 -27 -72v-340q18 -44 73 -84q-35 -14 -87.5 -66t-117.5 -93t-129 -66q-116 -46 -250.5 -46t-244 32t-181.5 87q-141 109 -141 290v277q0 46 -19 68q-30 37 -103 73q68 31 88 55 q34 39 34 88v422q-34 77 -123 77q-34 0 -56 -17q-11 15 -11 34.5zM261 797q60 -21 68 -51q12 -48 12 -207t4.5 -188t12.5 -47q13 -32 35 -39q9 54 9 346.5t-0.5 358t-1.5 105.5q-3 118 -22.5 142.5t-36.5 32.5q0 -348 -12 -396q-14 -40 -68 -57zM532 1596l209 291 q70 93 126 93q47 0 91 -44q19 -19 45 -49l230 -275q-13 -23 -47 -37.5t-69.5 -14.5t-62 5.5t-50.5 16.5q-36 18 -97 75l-109 103l-81 -115q-63 -85 -129 -85q-51 0 -56 36zM834 1811l109 -103q67 -64 127 -64l-209 201z" />
<glyph unicode="&#xdc;" horiz-adv-x="1548" d="M55 1456.5q0 19.5 11.5 36.5t31.5 29q46 28 105.5 28t109.5 -33q52 33 116 33t116 -33q50 33 94 33t72 -7.5t49 -20.5q43 -26 43 -65q0 -20 -11 -35q-22 17 -56 17q-89 0 -123 -77v-422q0 -49 21 -73q33 -39 101 -70q-73 -36 -93 -59q-29 -36 -29 -82v-279 q0 -121 91 -199q84 -71 191 -71q112 0 199 69q89 70 89 170v319q0 44 -19 65q-29 31 -103 67q69 34 89 55q33 35 33 78v445q-43 64 -105 64t-91 -17q-11 18 -11 49.5t31 55t81 23.5t89 -26q35 26 80.5 26t80.5 -27q39 27 86 27t75.5 -24.5t28.5 -56.5t-10 -47 q-29 17 -92.5 17t-102.5 -64v-445q0 -44 19 -64q30 -31 113 -69q-88 -43 -105 -60q-27 -27 -27 -72v-340q18 -44 73 -84q-35 -14 -87.5 -66t-117.5 -93t-129 -66q-116 -46 -250.5 -46t-244 32t-181.5 87q-141 109 -141 290v277q0 46 -19 68q-30 37 -103 73q68 31 88 55 q34 39 34 88v422q-34 77 -123 77q-34 0 -56 -17q-11 15 -11 34.5zM261 797q60 -21 68 -51q12 -48 12 -207t4.5 -188t12.5 -47q13 -32 35 -39q9 54 9 346.5t-0.5 358t-1.5 105.5q-3 118 -22.5 142.5t-36.5 32.5q0 -348 -12 -396q-14 -40 -68 -57zM479 1771q34 21 54.5 37.5 t39 51t58.5 57.5t88 23q94 0 140 -85q32 -59 92 -84l-26 -15q-42 -22 -66 -63q-50 -90 -140 -90q-45 0 -86 24.5t-56.5 53.5t-25 40.5t-20 20t-23.5 14.5zM587 1771q14 -8 25.5 -26t27.5 -37q24 -30 63 -30q-6 10 -12 18.5t-11 18t-8 23t-3 48t34 83.5q-20 0 -35 -5t-26 -20 t-16 -24t-11 -19q-17 -25 -28 -30zM982 1771q34 21 54.5 37.5t39 51t58.5 57.5t87 23q95 0 141 -85q32 -59 92 -84l-26 -15q-42 -22 -66 -63q-50 -90 -141 -90q-44 0 -85 24.5t-56.5 53.5t-25 40.5t-20 20t-23.5 14.5zM1090 1771q14 -8 25.5 -26t27.5 -37q24 -30 63 -30 q-6 10 -12 18.5t-11 18t-8 23t-3 48t34 83.5q-20 0 -35 -5t-26 -20t-16 -24t-12 -19q-16 -25 -27 -30z" />
<glyph unicode="&#xdd;" horiz-adv-x="1357" d="M-67 1447q0 22 7 40.5t22 32.5q32 30 93 30t108 -35q50 35 118.5 35t112.5 -34q53 34 99 34t74 -6.5t49 -19.5q45 -26 47 -72q0 -28 -11 -35q-27 17 -54 17q-58 0 -94 -21l299 -574l284 575q-41 25 -94.5 25t-82.5 -17q-10 15 -10 47t27 56.5t77 24.5t86 -26q32 26 78 26 t77 -22q44 22 88 22t70.5 -28.5t26.5 -73.5q0 -23 -11 -31q-26 17 -64 17q-66 0 -117 -36l-350 -693v-55q0 -49 21 -73q34 -38 101 -69q-72 -35 -92 -59q-30 -37 -30 -83v-197q18 -40 55.5 -59t74.5 -19t59 17q11 -15 11 -34.5t-13 -36.5t-35 -29q-50 -28 -109.5 -28 t-110.5 32q-51 -32 -116 -32t-116 32q-51 -32 -94.5 -32t-73 7.5t-52.5 20.5q-48 26 -48 65q0 20 11 35q22 -17 58.5 -17t74 19t56.5 59v197q0 46 -18 68q-32 39 -104 74q67 31 88 54q34 39 34 88v36l-402 696q-58 52 -103 52t-71 -17q-11 8 -11 30zM318 1250l300 -556v-49 q0 -59 -8 -81q-12 -38 -74 -57q67 -25 76 -61q7 -28 7 -65.5t-1.5 -65.5t-1.5 -50q53 20 58 157q1 42 1 86v167q0 48 -18 79l-205 371q-43 75 -62 93q-30 28 -72 32zM559 1624q0 18 28 46t47.5 62t30.5 68q18 57 18 110t-4 70q36 40 111 40q62 0 94 -29q56 -51 56 -117 t-47 -130t-120 -96q-107 -48 -166 -48q-20 0 -34 5t-14 19zM657 1666q77 36 121 104q36 56 36 108q0 90 -45 90q-13 0 -20 -7q11 -24 11 -60.5t-5.5 -65.5t-17.5 -57q-25 -53 -80 -112z" />
<glyph unicode="&#xde;" horiz-adv-x="1462" d="M75 73q0 20 11 35q22 -17 56 -17q89 0 123 76v489q0 46 -19 68q-30 37 -103 73q68 31 88 55q34 39 34 88v422q-34 77 -123 77q-34 0 -56 -17q-11 15 -11 34.5t11.5 36.5t31.5 29q46 28 105.5 28t109.5 -33q52 33 116 33t116 -33q50 33 94 33t72 -7.5t49 -20.5 q43 -26 43 -65q0 -20 -11 -35q-22 17 -56 17q-77 0 -123 -72v-134q84 22 171 22t175 -19.5t157 -60.5q144 -86 191 -255q20 -69 95 -113q-77 -43 -103 -130t-83.5 -153.5t-131.5 -107.5q-139 -77 -328 -77q-71 0 -143 18v-186q23 -35 57 -57.5t67 -22.5t55 17 q11 -15 11 -34.5t-11.5 -36.5t-31.5 -29q-46 -28 -105 -28t-110 32q-51 -32 -116 -32t-116 32q-51 -32 -94.5 -32t-71.5 7.5t-49 20.5q-43 26 -43 65zM281 797q60 -21 68 -51q12 -48 12 -351v-130q50 19 55 131q6 112 6 310t-0.5 263.5t-1.5 105.5q-3 118 -22.5 142.5 t-36.5 32.5q0 -348 -12 -396q-14 -40 -68 -57zM633 620q0 -72 40 -109.5t108 -37.5q103 0 143 84q13 29 13 71v342q0 109 -93 142q-27 9 -56 9q-69 0 -112 -38t-43 -117v-346zM1002 517q60 10 86 156q19 101 88 124q-69 23 -85 111q-27 148 -89 159q26 -59 26 -270 q0 -218 -26 -280z" />
<glyph unicode="&#xdf;" horiz-adv-x="1394" d="M14 -434q0 33 14 52q22 -17 56 -17q58 0 83 67v788q0 46 -19 68q-31 39 -103 74q122 56 122 172v281q0 242 145 393q150 156 396 156q164 0 265 -72.5t101 -187.5q0 -93 -95 -192q-67 -71 -67 -121q0 -109 209 -271q255 -197 255 -410q0 -173 -122 -274 q-118 -97 -310 -97q-132 0 -219 72q-85 70 -85 162q0 59 24 91q41 55 90 55q54 0 76 -34q-37 -38 -37 -80t10.5 -66.5t28.5 -42.5q37 -35 92.5 -35t91 32t35.5 105t-43.5 139t-125 129.5t-127 111t-73.5 94.5q-54 87 -54 194q0 53 41.5 114.5t100.5 108.5t86.5 75.5 t41.5 50.5q21 35 21 71t-13.5 61t-37.5 43q-53 40 -136 40q-153 0 -208 -152q-19 -55 -19 -134v-1510q25 -69 83 -69q34 0 56 17q14 -19 14 -47.5t-28.5 -54.5t-86.5 -26t-105 33q-40 -33 -99.5 -33t-104.5 33q-45 -33 -104 -33t-87.5 26t-28.5 50zM178 598q60 -21 68 -51 q12 -48 12 -217v-65q52 30 54 169q2 79 2 141v103q0 345 4 363t5.5 20.5t3.5 18.5q-42 -20 -56 -59q-25 -70 -25 -212v-160q0 -28 -68 -51z" />
<glyph unicode="&#xe0;" horiz-adv-x="1281" d="M19 340q72 33 103 124q33 96 110 139q83 45 183 47.5t148 6.5t85 13q69 16 108 59v150q0 99 -40.5 145t-123 46t-122 -30.5t-39.5 -81.5q0 -78 80 -76q-16 -78 -84 -78q-20 0 -39 7v-3q0 -26 24 -33q-25 -38 -84 -37t-92 63q-15 -4 -34.5 -4t-43 13t-37.5 36q50 30 61 93 q12 77 123 156q134 95 342 95q345 0 421 -212q25 -71 25 -168v-81q0 -49 24.5 -80t83.5 -51q-63 -29 -81 -52q-27 -35 -27 -80v-300q29 -75 83 -75q34 0 56 17q14 -19 14 -47.5t-28.5 -54.5t-85.5 -26t-106 32q-43 -32 -76.5 -32t-58 6.5t-45.5 20.5q-47 31 -58 88 q-91 -120 -273 -120q-222 0 -333 133q-48 57 -66 127q-10 42 -35 64.5t-62 40.5zM152 340q64 -29 70 -51q34 -119 110 -178q10 7 10 18q0 15 -14 42q-50 92 -50 151t4.5 85t12 44.5t17 32.5t16.5 25q13 23 13 31.5t-9 14.5q-41 -19 -60 -45q-34 -46 -50 -119q-4 -21 -70 -51 zM468 1727q0 68 42 113q40 44 93 44q105 0 141 -40l-6 -31q-4 -16 -4 -57t8 -93.5t22 -95.5q26 -77 58 -117t32 -60q0 -27 -30.5 -27t-76.5 12t-100.5 47.5t-94.5 83.5q-84 103 -84 221zM482 336q0 -42 9 -82t27 -70q40 -63 113 -63q55 0 91 45q34 44 34 113v326 q-64 -37 -164 -51q-110 -17 -110 -218zM538 1737q0 -33 8.5 -62.5t22.5 -59t31.5 -56.5t36.5 -47q42 -45 71 -39q-68 81 -86 126t-22.5 77t-4.5 67.5t14 65.5q-29 14 -45 -6q-26 -33 -26 -66zM851 265q58 23 61 221v96t-0.5 92.5t-1.5 73.5q-4 126 -23 150.5t-36 32.5v-666z " />
<glyph unicode="&#xe1;" horiz-adv-x="1281" d="M19 340q72 33 103 124q33 96 110 139q83 45 183 47.5t148 6.5t85 13q69 16 108 59v150q0 99 -40.5 145t-123 46t-122 -30.5t-39.5 -81.5q0 -78 80 -76q-16 -78 -84 -78q-20 0 -39 7v-3q0 -26 24 -33q-25 -38 -84 -37t-92 63q-15 -4 -34.5 -4t-43 13t-37.5 36q50 30 61 93 q12 77 123 156q134 95 342 95q345 0 421 -212q25 -71 25 -168v-81q0 -49 24.5 -80t83.5 -51q-63 -29 -81 -52q-27 -35 -27 -80v-300q29 -75 83 -75q34 0 56 17q14 -19 14 -47.5t-28.5 -54.5t-85.5 -26t-106 32q-43 -32 -76.5 -32t-58 6.5t-45.5 20.5q-47 31 -58 88 q-91 -120 -273 -120q-222 0 -333 133q-48 57 -66 127q-10 42 -35 64.5t-62 40.5zM152 340q64 -29 70 -51q34 -119 110 -178q10 7 10 18q0 15 -14 42q-50 92 -50 151t4.5 85t12 44.5t17 32.5t16.5 25q13 23 13 31.5t-9 14.5q-41 -19 -60 -45q-34 -46 -50 -119q-4 -21 -70 -51 zM419 1390q0 20 29.5 57t60 120.5t30.5 166t-10 110.5q36 40 124 40q105 0 141 -94q11 -29 11 -75.5t-22.5 -103.5t-61.5 -105q-85 -103 -212 -135q-29 -8 -59.5 -8t-30.5 27zM482 336q0 -42 9 -82t27 -70q40 -63 113 -63q55 0 91 45q34 44 34 113v326q-64 -37 -164 -51 q-110 -17 -110 -218zM533 1473q48 -11 94 93q44 97 44 161q0 101 -47 101q-13 0 -20 -7q11 -24 11 -64q0 -172 -82 -284zM851 265q58 23 61 221v96t-0.5 92.5t-1.5 73.5q-4 126 -23 150.5t-36 32.5v-666z" />
<glyph unicode="&#xe2;" horiz-adv-x="1281" d="M19 340q72 33 103 124q33 96 110 139q83 45 183 47.5t148 6.5t85 13q69 16 108 59v150q0 99 -40.5 145t-123 46t-122 -30.5t-39.5 -81.5q0 -78 80 -76q-16 -78 -84 -78q-20 0 -39 7v-3q0 -26 24 -33q-25 -38 -84 -37t-92 63q-15 -4 -34.5 -4t-43 13t-37.5 36q50 30 61 93 q12 77 123 156q134 95 342 95q345 0 421 -212q25 -71 25 -168v-81q0 -49 24.5 -80t83.5 -51q-63 -29 -81 -52q-27 -35 -27 -80v-300q29 -75 83 -75q34 0 56 17q14 -19 14 -47.5t-28.5 -54.5t-85.5 -26t-106 32q-43 -32 -76.5 -32t-58 6.5t-45.5 20.5q-47 31 -58 88 q-91 -120 -273 -120q-222 0 -333 133q-48 57 -66 127q-10 42 -35 64.5t-62 40.5zM152 340q64 -29 70 -51q34 -119 110 -178q10 7 10 18q0 15 -14 42q-50 92 -50 151t4.5 85t12 44.5t17 32.5t16.5 25q13 23 13 31.5t-9 14.5q-41 -19 -60 -45q-34 -46 -50 -119q-4 -21 -70 -51 zM298 1399l210 343q63 103 119 103q44 0 87 -51q16 -20 39 -52l229 -324q-34 -55 -118 -55q-99 0 -162 59q-23 21 -46 51l-101 132l-93 -157q-30 -51 -56 -68t-52.5 -17t-41 11t-14.5 25zM482 336q0 -42 9 -82t27 -70q40 -63 113 -63q55 0 91 45q34 44 34 113v326 q-64 -37 -164 -51q-110 -17 -110 -218zM590 1664l102 -134q55 -75 98 -86q13 -4 29 -4l-203 264zM851 265q58 23 61 221v96t-0.5 92.5t-1.5 73.5q-4 126 -23 150.5t-36 32.5v-666z" />
<glyph unicode="&#xe3;" horiz-adv-x="1281" d="M19 340q72 33 103 124q33 96 110 139q83 45 183 47.5t148 6.5t85 13q69 16 108 59v150q0 99 -40.5 145t-123 46t-122 -30.5t-39.5 -81.5q0 -78 80 -76q-16 -78 -84 -78q-20 0 -39 7v-3q0 -26 24 -33q-25 -38 -84 -37t-92 63q-15 -4 -34.5 -4t-43 13t-37.5 36q50 30 61 93 q12 77 123 156q134 95 342 95q345 0 421 -212q25 -71 25 -168v-81q0 -49 24.5 -80t83.5 -51q-63 -29 -81 -52q-27 -35 -27 -80v-300q29 -75 83 -75q34 0 56 17q14 -19 14 -47.5t-28.5 -54.5t-85.5 -26t-106 32q-43 -32 -76.5 -32t-58 6.5t-45.5 20.5q-47 31 -58 88 q-91 -120 -273 -120q-222 0 -333 133q-48 57 -66 127q-10 42 -35 64.5t-62 40.5zM152 340q64 -29 70 -51q34 -119 110 -178q10 7 10 18q0 15 -14 42q-50 92 -50 151t4.5 85t12 44.5t17 32.5t16.5 25q13 23 13 31.5t-9 14.5q-41 -19 -60 -45q-34 -46 -50 -119q-4 -21 -70 -51 zM268 1490q0 53 14.5 93t41.5 69q58 62 148 62q65 0 114 -23l79 -37q73 -37 99.5 -40t40.5 -3t28.5 7t26.5 20q25 29 21 74q12 12 33 12t38.5 -11.5t31.5 -30.5q28 -42 28 -95t-14.5 -93t-41.5 -69q-56 -62 -144 -62q-68 0 -116.5 19.5t-79.5 33.5l-50 24q-56 26 -80.5 26 t-39.5 -6.5t-26 -19.5q-25 -29 -21 -75q-12 -12 -33 -12t-38.5 11.5t-31.5 31.5q-28 41 -28 94zM371 1509q0 -18 8 -28q22 56 92 56q51 0 93 -17t75 -32.5t61 -26.5t50 -17q40 -11 76 -11t65 21.5t30 58.5q0 18 -8 28q-22 -57 -91 -57q-56 0 -129.5 34.5t-100 44.5t-47.5 15 q-36 10 -75 10t-68.5 -21t-30.5 -58zM482 336q0 -42 9 -82t27 -70q40 -63 113 -63q55 0 91 45q34 44 34 113v326q-64 -37 -164 -51q-110 -17 -110 -218zM851 265q58 23 61 221v96t-0.5 92.5t-1.5 73.5q-4 126 -23 150.5t-36 32.5v-666z" />
<glyph unicode="&#xe4;" horiz-adv-x="1281" d="M19 340q72 33 103 124q33 96 110 139q83 45 183 47.5t148 6.5t85 13q69 16 108 59v150q0 99 -40.5 145t-123 46t-122 -30.5t-39.5 -81.5q0 -78 80 -76q-16 -78 -84 -78q-20 0 -39 7v-3q0 -26 24 -33q-25 -38 -84 -37t-92 63q-15 -4 -34.5 -4t-43 13t-37.5 36q50 30 61 93 q12 77 123 156q134 95 342 95q345 0 421 -212q25 -71 25 -168v-81q0 -49 24.5 -80t83.5 -51q-63 -29 -81 -52q-27 -35 -27 -80v-300q29 -75 83 -75q34 0 56 17q14 -19 14 -47.5t-28.5 -54.5t-85.5 -26t-106 32q-43 -32 -76.5 -32t-58 6.5t-45.5 20.5q-47 31 -58 88 q-91 -120 -273 -120q-222 0 -333 133q-48 57 -66 127q-10 42 -35 64.5t-62 40.5zM152 340q64 -29 70 -51q34 -119 110 -178q10 7 10 18q0 15 -14 42q-50 92 -50 151t4.5 85t12 44.5t17 32.5t16.5 25q13 23 13 31.5t-9 14.5q-41 -19 -60 -45q-34 -46 -50 -119q-4 -21 -70 -51 zM155 1531q34 21 54.5 37.5t39 51t58.5 57.5t88 23q94 0 140 -85q32 -59 92 -84l-26 -15q-42 -22 -66 -63q-50 -90 -140 -90q-45 0 -86 24.5t-56.5 53.5t-25 40.5t-20 20t-23.5 14.5zM263 1531q14 -8 25.5 -26t27.5 -37q24 -30 63 -30q-6 10 -12 18.5t-11 18t-8 23t-3 48 t34 83.5q-20 0 -35 -5t-26 -20t-16 -24t-11 -19q-17 -25 -28 -30zM482 336q0 -42 9 -82t27 -70q40 -63 113 -63q55 0 91 45q34 44 34 113v326q-64 -37 -164 -51q-110 -17 -110 -218zM658 1531q34 21 54.5 37.5t39 51t58.5 57.5t87 23q95 0 141 -85q32 -59 92 -84l-26 -15 q-42 -22 -66 -63q-50 -90 -141 -90q-44 0 -85 24.5t-56.5 53.5t-25 40.5t-20 20t-23.5 14.5zM766 1531q14 -8 25.5 -26t27.5 -37q24 -30 63 -30q-6 10 -12 18.5t-11 18t-8 23t-3 48t34 83.5q-20 0 -35 -5t-26 -20t-16 -24t-12 -19q-16 -25 -27 -30zM851 265q58 23 61 221v96 t-0.5 92.5t-1.5 73.5q-4 126 -23 150.5t-36 32.5v-666z" />
<glyph unicode="&#xe5;" horiz-adv-x="1281" d="M19 340q72 33 103 124q33 96 110 139q83 45 183 47.5t148 6.5t85 13q69 16 108 59v150q0 99 -40.5 145t-123 46t-122 -30.5t-39.5 -81.5q0 -78 80 -76q-16 -78 -84 -78q-20 0 -39 7v-3q0 -26 24 -33q-25 -38 -84 -37t-92 63q-15 -4 -34.5 -4t-43 13t-37.5 36q50 30 61 93 q12 77 123 156q134 95 342 95q345 0 421 -212q25 -71 25 -168v-81q0 -49 24.5 -80t83.5 -51q-63 -29 -81 -52q-27 -35 -27 -80v-300q29 -75 83 -75q34 0 56 17q14 -19 14 -47.5t-28.5 -54.5t-85.5 -26t-106 32q-43 -32 -76.5 -32t-58 6.5t-45.5 20.5q-47 31 -58 88 q-91 -120 -273 -120q-222 0 -333 133q-48 57 -66 127q-10 42 -35 64.5t-62 40.5zM152 340q64 -29 70 -51q34 -119 110 -178q10 7 10 18q0 15 -14 42q-50 92 -50 151t4.5 85t12 44.5t17 32.5t16.5 25q13 23 13 31.5t-9 14.5q-41 -19 -60 -45q-34 -46 -50 -119q-4 -21 -70 -51 zM374 1559q0 94 76 159q77 65 188 65q118 0 196 -64q78 -65 78 -160q0 -99 -79 -161q-77 -62 -195 -62q-115 0 -190 66q-74 64 -74 157zM482 336q0 -42 9 -82t27 -70q40 -63 113 -63q55 0 91 45q34 44 34 113v326q-64 -37 -164 -51q-110 -17 -110 -218zM528 1558 q0 -48 24 -73q42 -45 89 -45t72 26q42 45 42 92t-25 73q-43 46 -89 46t-71 -27q-42 -44 -42 -92zM851 265q58 23 61 221v96t-0.5 92.5t-1.5 73.5q-4 126 -23 150.5t-36 32.5v-666z" />
<glyph unicode="&#xe6;" horiz-adv-x="1796" d="M19 340q79 36 107 123q7 24 15 47.5t24.5 48t48.5 44.5q71 45 171.5 47.5t151 7.5t89.5 15q75 19 119 69v137q0 100 -41.5 145.5t-123 45.5t-121 -30.5t-39.5 -81.5q0 -78 80 -76q-16 -78 -84 -78q-20 0 -39 7v-3q0 -26 24 -33q-25 -38 -79 -37t-86 53q-16 -4 -35.5 -4 t-43 13t-37.5 36q40 25 58.5 84t52 106t87.5 84q119 80 314.5 80t318.5 -97q131 97 282 97q190 0 329 -134q144 -138 144 -339q0 -69 48 -90q0 -85 -95 -85q-31 0 -131 -14q-271 -41 -446 -71v-96q0 -116 70 -184q66 -65 167 -65q90 0 161 56q74 59 74 144q5 8 22.5 20 t37.5 12q64 0 64 -69q0 -77 -68 -151q-94 -101 -254 -138q-47 -11 -103 -11t-114.5 6t-111.5 20q-105 28 -200 99q-118 -125 -323 -125q-217 0 -324 133q-46 58 -64 127q-10 42 -35 64.5t-62 40.5zM152 340q52 -24 59 -51q34 -119 110 -178q10 7 10 18q0 15 -15 42 q-49 92 -49 151t4.5 85t12 44.5t17 32.5t15.5 25q14 23 14 31.5t-9 14.5q-41 -19 -60 -45q-34 -46 -50 -119q-5 -26 -59 -51zM471 336q0 -42 9 -82t28 -70q39 -63 112 -63q81 0 114 87q11 29 11 68v329q-64 -37 -164 -51q-110 -17 -110 -218zM840 265q58 23 60 221 q1 42 1 96t-0.5 92.5t-1.5 73.5q-4 126 -23 150t-36 32v-665zM1082 579l270 46v280q0 103 -72 139q-24 11 -55 11q-143 0 -143 -246v-230zM1438 640l62 10v31q0 186 -31 225q-14 17 -31 25v-291z" />
<glyph unicode="&#xe7;" horiz-adv-x="1113" d="M40 597q106 48 122 173q26 191 170 302q138 108 336 108q171 0 288 -104q111 -98 111 -227q0 -73 51 -93q-30 -49 -84 -49q-19 0 -35 4q-35 -51 -101 -69q-21 -5 -40 -5t-45 7.5t-36 20.5q29 12 34 60q-6 -1 -11 -1h-8q-68 0 -84 78q74 0 108 57q12 20 12 49 q0 64 -41 100.5t-114 36.5q-169 0 -169 -218v-486q0 -170 130 -215q38 -14 86 -14t87.5 12t66.5 33q55 43 55 109q0 20 -4 36q22 42 81 42q40 0 62 -33q18 -26 18 -63.5t-18.5 -75.5t-49.5 -69t-71.5 -55t-86 -40t-92.5 -24.5t-98 -8.5t-103 10l-14 -75q185 -10 251 -130 q21 -40 21 -87t-21.5 -88.5t-60.5 -73.5q-87 -71 -211 -71q-183 0 -232 114q-13 31 -13 57t6 44.5t19 32.5q27 31 59 31q72 0 78 -56q-21 -15 -21 -36t7 -35.5t19 -27.5q27 -28 72 -28t69 31.5t24 66t-10.5 61.5t-33.5 49q-52 50 -146 50l36 200q-260 108 -303 442 q-7 49 -23 70q-30 37 -99 71zM178 598q54 -25 59 -51q37 -169 61 -215t39 -67q14 11 14 25q0 22 -9 56q-41 157 -41 218.5t4 96t11 69.5q12 68 26 120q9 34 9 46q0 24 -14 35q-42 -50 -64 -134t-36 -148q-5 -26 -59 -51z" />
<glyph unicode="&#xe8;" horiz-adv-x="1220" d="M40 597q87 39 111 125q7 24 11 48q25 176 178 300q148 120 331 120q190 0 329 -134q144 -138 144 -339q0 -7 -0.5 -14t0.5 -13q2 -13 16 -15q18 -23 18 -49q0 -60 -64 -71q-16 -3 -50 -8l-564 -90v-96q0 -116 70 -184q66 -65 167 -65q107 0 172 44q61 42 61 110 q0 16 -5 36q22 42 81 42q40 0 62 -33q18 -26 18 -63.5t-19 -75.5t-52 -69t-75.5 -55t-90.5 -40q-99 -33 -206 -33t-200.5 35.5t-160.5 99.5q-131 126 -160 346q-7 49 -23 70q-30 37 -99 71zM178 597q54 -25 59 -50q37 -169 61 -215t39 -67q14 11 14 25q0 22 -9 56 q-41 157 -41 218.5t4 96t11 69.5q12 68 26 120q9 34 9 46q0 24 -14 35q-42 -50 -64 -134t-36 -148q-5 -27 -59 -52zM478 1727q0 68 42 113q40 44 93 44q105 0 141 -40l-6 -31q-4 -16 -4 -57t8 -93.5t22 -95.5q26 -77 58 -117t32 -60q0 -27 -30.5 -27t-76.5 12t-100.5 47.5 t-94.5 83.5q-84 103 -84 221zM500 578l290 47v280q0 66 -26 97q-46 53 -91 53t-75 -13.5t-52 -42.5q-46 -61 -46 -190v-231zM548 1737q0 -33 8.5 -62.5t22.5 -59t31.5 -56.5t36.5 -47q42 -45 71 -39q-68 81 -86 126t-22.5 77t-4.5 67.5t14 65.5q-29 14 -45 -6 q-26 -33 -26 -66zM876 640l62 10v31q0 186 -31 225q-14 17 -31 25v-291z" />
<glyph unicode="&#xe9;" horiz-adv-x="1220" d="M40 597q87 39 111 125q7 24 11 48q25 176 178 300q148 120 331 120q190 0 329 -134q144 -138 144 -339q0 -7 -0.5 -14t0.5 -13q2 -13 16 -15q18 -23 18 -49q0 -60 -64 -71q-16 -3 -50 -8l-564 -90v-96q0 -116 70 -184q66 -65 167 -65q107 0 172 44q61 42 61 110 q0 16 -5 36q22 42 81 42q40 0 62 -33q18 -26 18 -63.5t-19 -75.5t-52 -69t-75.5 -55t-90.5 -40q-99 -33 -206 -33t-200.5 35.5t-160.5 99.5q-131 126 -160 346q-7 49 -23 70q-30 37 -99 71zM178 597q54 -25 59 -50q37 -169 61 -215t39 -67q14 11 14 25q0 22 -9 56 q-41 157 -41 218.5t4 96t11 69.5q12 68 26 120q9 34 9 46q0 24 -14 35q-42 -50 -64 -134t-36 -148q-5 -27 -59 -52zM429 1390q0 20 29.5 57t60 120.5t30.5 166t-10 110.5q36 40 124 40q105 0 141 -94q11 -29 11 -75.5t-22.5 -103.5t-61.5 -105q-85 -103 -212 -135 q-29 -8 -59.5 -8t-30.5 27zM500 578l290 47v280q0 66 -26 97q-46 53 -91 53t-75 -13.5t-52 -42.5q-46 -61 -46 -190v-231zM543 1473q48 -11 94 93q44 97 44 161q0 101 -47 101q-13 0 -20 -7q11 -24 11 -64q0 -172 -82 -284zM876 640l62 10v31q0 186 -31 225q-14 17 -31 25 v-291z" />
<glyph unicode="&#xea;" horiz-adv-x="1220" d="M40 597q87 39 111 125q7 24 11 48q25 176 178 300q148 120 331 120q190 0 329 -134q144 -138 144 -339q0 -7 -0.5 -14t0.5 -13q2 -13 16 -15q18 -23 18 -49q0 -60 -64 -71q-16 -3 -50 -8l-564 -90v-96q0 -116 70 -184q66 -65 167 -65q107 0 172 44q61 42 61 110 q0 16 -5 36q22 42 81 42q40 0 62 -33q18 -26 18 -63.5t-19 -75.5t-52 -69t-75.5 -55t-90.5 -40q-99 -33 -206 -33t-200.5 35.5t-160.5 99.5q-131 126 -160 346q-7 49 -23 70q-30 37 -99 71zM178 597q54 -25 59 -50q37 -169 61 -215t39 -67q14 11 14 25q0 22 -9 56 q-41 157 -41 218.5t4 96t11 69.5q12 68 26 120q9 34 9 46q0 24 -14 35q-42 -50 -64 -134t-36 -148q-5 -27 -59 -52zM268 1399l210 343q63 103 119 103q44 0 87 -51q16 -20 39 -52l229 -324q-34 -55 -118 -55q-99 0 -162 59q-23 21 -46 51l-101 132l-93 -157q-30 -51 -56 -68 t-52.5 -17t-41 11t-14.5 25zM500 578l290 47v280q0 66 -26 97q-46 53 -91 53t-75 -13.5t-52 -42.5q-46 -61 -46 -190v-231zM560 1664l102 -134q55 -75 98 -86q13 -4 29 -4l-203 264zM876 640l62 10v31q0 186 -31 225q-14 17 -31 25v-291z" />
<glyph unicode="&#xeb;" horiz-adv-x="1220" d="M40 597q87 39 111 125q7 24 11 48q25 176 178 300q148 120 331 120q190 0 329 -134q144 -138 144 -339q0 -7 -0.5 -14t0.5 -13q2 -13 16 -15q18 -23 18 -49q0 -60 -64 -71q-16 -3 -50 -8l-564 -90v-96q0 -116 70 -184q66 -65 167 -65q107 0 172 44q61 42 61 110 q0 16 -5 36q22 42 81 42q40 0 62 -33q18 -26 18 -63.5t-19 -75.5t-52 -69t-75.5 -55t-90.5 -40q-99 -33 -206 -33t-200.5 35.5t-160.5 99.5q-131 126 -160 346q-7 49 -23 70q-30 37 -99 71zM165 1531q34 21 54.5 37.5t39 51t58.5 57.5t88 23q94 0 140 -85q32 -59 92 -84 l-26 -15q-42 -22 -66 -63q-50 -90 -140 -90q-45 0 -86 24.5t-56.5 53.5t-25 40.5t-20 20t-23.5 14.5zM178 597q54 -25 59 -50q37 -169 61 -215t39 -67q14 11 14 25q0 22 -9 56q-41 157 -41 218.5t4 96t11 69.5q12 68 26 120q9 34 9 46q0 24 -14 35q-42 -50 -64 -134 t-36 -148q-5 -27 -59 -52zM273 1531q14 -8 25.5 -26t27.5 -37q24 -30 63 -30q-6 10 -12 18.5t-11 18t-8 23t-3 48t34 83.5q-20 0 -35 -5t-26 -20t-16 -24t-11 -19q-17 -25 -28 -30zM500 578l290 47v280q0 66 -26 97q-46 53 -91 53t-75 -13.5t-52 -42.5q-46 -61 -46 -190 v-231zM668 1531q34 21 54.5 37.5t39 51t58.5 57.5t87 23q95 0 141 -85q32 -59 92 -84l-26 -15q-42 -22 -66 -63q-50 -90 -141 -90q-44 0 -85 24.5t-56.5 53.5t-25 40.5t-20 20t-23.5 14.5zM776 1531q14 -8 25.5 -26t27.5 -37q24 -30 63 -30q-6 10 -12 18.5t-11 18t-8 23 t-3 48t34 83.5q-20 0 -35 -5t-26 -20t-16 -24t-12 -19q-16 -25 -27 -30zM876 640l62 10v31q0 186 -31 225q-14 17 -31 25v-291z" />
<glyph unicode="&#xec;" horiz-adv-x="734" d="M45 1011.5q0 20.5 10.5 43t32.5 41.5q49 44 118.5 44t124.5 -24q49 64 112 64q103 0 103 -108v-343q0 -48 21 -69q31 -31 101 -63q-75 -37 -94 -56q-28 -31 -28 -75v-322q33 -53 75 -53t64 17q14 -19 14 -47.5t-28.5 -54.5t-85.5 -26t-106 32q-41 -32 -99 -32t-105 32 q-46 -32 -104.5 -32t-87 26t-28.5 50q0 33 14 52q22 -17 65 -17t74 56v319q0 44 -18 64q-29 30 -104 67q70 32 89 51q33 33 33 81v146q0 114 -93 114q-34 0 -56 -17q-14 19 -14 39.5zM164 1727q0 68 42 113q40 44 93 44q105 0 141 -40l-6 -31q-4 -16 -4 -57t8 -93.5 t22 -95.5q26 -77 58 -117t32 -60q0 -27 -30.5 -27t-76.5 12t-100.5 47.5t-94.5 83.5q-84 103 -84 221zM224 598q60 -21 68 -51q12 -48 12 -217v-65q46 30 52 123q5 64 5.5 98t1 57t0.5 37v27q0 15 -0.5 39t-1 53t-1.5 57q-4 69 -10 95q-12 58 -46 80v-65q0 -169 -7.5 -198.5 t-24 -44t-48.5 -25.5zM234 1737q0 -33 8.5 -62.5t22.5 -59t31.5 -56.5t36.5 -47q42 -45 71 -39q-68 81 -86 126t-22.5 77t-4.5 67.5t14 65.5q-29 14 -45 -6q-26 -33 -26 -66z" />
<glyph unicode="&#xed;" horiz-adv-x="734" d="M45 1011.5q0 20.5 10.5 43t32.5 41.5q49 44 118.5 44t124.5 -24q49 64 112 64q103 0 103 -108v-343q0 -48 21 -69q31 -31 101 -63q-75 -37 -94 -56q-28 -31 -28 -75v-322q33 -53 75 -53t64 17q14 -19 14 -47.5t-28.5 -54.5t-85.5 -26t-106 32q-41 -32 -99 -32t-105 32 q-46 -32 -104.5 -32t-87 26t-28.5 50q0 33 14 52q22 -17 65 -17t74 56v319q0 44 -18 64q-29 30 -104 67q70 32 89 51q33 33 33 81v146q0 114 -93 114q-34 0 -56 -17q-14 19 -14 39.5zM115 1390q0 20 29.5 57t60 120.5t30.5 166t-10 110.5q36 40 124 40q105 0 141 -94 q11 -29 11 -75.5t-22.5 -103.5t-61.5 -105q-85 -103 -212 -135q-29 -8 -59.5 -8t-30.5 27zM224 598q60 -21 68 -51q12 -48 12 -217v-65q46 30 52 123q5 64 5.5 98t1 57t0.5 37v27q0 15 -0.5 39t-1 53t-1.5 57q-4 69 -10 95q-12 58 -46 80v-65q0 -169 -7.5 -198.5t-24 -44 t-48.5 -25.5zM229 1473q48 -11 94 93q44 97 44 161q0 101 -47 101q-13 0 -20 -7q11 -24 11 -64q0 -172 -82 -284z" />
<glyph unicode="&#xee;" horiz-adv-x="734" d="M26 1399l210 343q63 103 119 103q44 0 87 -51q16 -20 39 -52l229 -324q-34 -55 -118 -55q-99 0 -162 59q-23 21 -46 51l-101 132l-93 -157q-30 -51 -56 -68t-52.5 -17t-41 11t-14.5 25zM45 1011.5q0 20.5 10.5 43t32.5 41.5q49 44 118.5 44t124.5 -24q49 64 112 64 q103 0 103 -108v-343q0 -48 21 -69q31 -31 101 -63q-75 -37 -94 -56q-28 -31 -28 -75v-322q33 -53 75 -53t64 17q14 -19 14 -47.5t-28.5 -54.5t-85.5 -26t-106 32q-41 -32 -99 -32t-105 32q-46 -32 -104.5 -32t-87 26t-28.5 50q0 33 14 52q22 -17 65 -17t74 56v319 q0 44 -18 64q-29 30 -104 67q70 32 89 51q33 33 33 81v146q0 114 -93 114q-34 0 -56 -17q-14 19 -14 39.5zM224 598q60 -21 68 -51q12 -48 12 -217v-65q46 30 52 123q5 64 5.5 98t1 57t0.5 37v27q0 15 -0.5 39t-1 53t-1.5 57q-4 69 -10 95q-12 58 -46 80v-65 q0 -169 -7.5 -198.5t-24 -44t-48.5 -25.5zM318 1664l102 -134q55 -75 98 -86q13 -4 29 -4l-203 264z" />
<glyph unicode="&#xef;" horiz-adv-x="734" d="M-149 1531q34 21 54.5 37.5t39 51t58.5 57.5t88 23q94 0 140 -85q32 -59 92 -84l-26 -15q-42 -22 -66 -63q-50 -90 -140 -90q-45 0 -86 24.5t-56.5 53.5t-25 40.5t-20 20t-23.5 14.5zM-41 1531q14 -8 25.5 -26t27.5 -37q24 -30 63 -30q-6 10 -12 18.5t-11 18t-8 23t-3 48 t34 83.5q-20 0 -35 -5t-26 -20t-16 -24t-11 -19q-17 -25 -28 -30zM45 1011.5q0 20.5 10.5 43t32.5 41.5q49 44 118.5 44t124.5 -24q49 64 112 64q103 0 103 -108v-343q0 -48 21 -69q31 -31 101 -63q-75 -37 -94 -56q-28 -31 -28 -75v-322q33 -53 75 -53t64 17 q14 -19 14 -47.5t-28.5 -54.5t-85.5 -26t-106 32q-41 -32 -99 -32t-105 32q-46 -32 -104.5 -32t-87 26t-28.5 50q0 33 14 52q22 -17 65 -17t74 56v319q0 44 -18 64q-29 30 -104 67q70 32 89 51q33 33 33 81v146q0 114 -93 114q-34 0 -56 -17q-14 19 -14 39.5zM224 598 q60 -21 68 -51q12 -48 12 -217v-65q46 30 52 123q5 64 5.5 98t1 57t0.5 37v27q0 15 -0.5 39t-1 53t-1.5 57q-4 69 -10 95q-12 58 -46 80v-65q0 -169 -7.5 -198.5t-24 -44t-48.5 -25.5zM354 1531q34 21 54.5 37.5t39 51t58.5 57.5t87 23q95 0 141 -85q32 -59 92 -84l-26 -15 q-42 -22 -66 -63q-50 -90 -141 -90q-44 0 -85 24.5t-56.5 53.5t-25 40.5t-20 20t-23.5 14.5zM462 1531q14 -8 25.5 -26t27.5 -37q24 -30 63 -30q-6 10 -12 18.5t-11 18t-8 23t-3 48t34 83.5q-20 0 -35 -5t-26 -20t-16 -24t-12 -19q-16 -25 -27 -30z" />
<glyph unicode="&#xf0;" horiz-adv-x="1360" d="M40 598q79 36 106 125q8 24 23 66.5t61 99t113 99.5q146 92 335 92q80 0 147 -25q-23 120 -82 217l-342 -99q-5 15 -5 29.5t4.5 32t15.5 34.5q27 39 77 53l170 48q-127 121 -336 153q-6 15 -6 28q0 49 112 49q252 0 441 -170l309 89q5 -13 5 -40t-17.5 -58t-67.5 -45 l-139 -40q184 -229 234 -566q14 -94 67 -138q22 -19 55 -34q-68 -33 -88 -58q-27 -35 -34 -84q-30 -224 -172 -354q-139 -127 -344 -127q-206 0 -343 119q-146 127 -177 362q-7 49 -23 70q-31 39 -99 72zM188 598q54 -25 59 -51q37 -169 61 -215t39 -67q14 11 14 25 q0 22 -9 56q-41 157 -41 218.5t2.5 84.5t7.5 45q9 38 24 78q16 43 16 59q0 29 -14 40q-55 -67 -73 -123.5t-24 -83.5q-8 -41 -62 -66zM510 361q0 -188 100 -227q31 -13 70 -13q170 0 170 240v328q0 245 -170 245t-170 -245v-328zM848 1250q52 -100 69 -192q29 -157 29 -352 v-441q44 17 52 91q13 118 13 282l-1 109q0 242 -50 374q-42 111 -80 123q-18 6 -32 6z" />
<glyph unicode="&#xf1;" horiz-adv-x="1385" d="M46 991.5q0 20.5 10.5 46t31.5 48.5q53 54 122.5 54t115.5 -22q55 62 112 62t79 -26.5t22 -81.5v-94q52 93 142 147.5t191 54.5t162.5 -26.5t101.5 -75.5q78 -97 78 -282v-66q0 -48 21 -69q31 -32 101 -64q-75 -37 -94 -56q-28 -31 -28 -75v-313q19 -62 83 -62 q34 0 56 17q11 -15 11 -44t-26.5 -56.5t-81.5 -27.5t-100 31q-40 -31 -93.5 -31t-95.5 30q-44 -30 -94 -30t-79 25t-29 72q0 22 15 35q23 -18 46 -18q44 0 63 49v596q0 194 -95 225q-31 10 -67 10t-67 -14.5t-56 -40.5q-55 -58 -65 -138v-638q19 -49 63 -49q23 0 46 18 q15 -13 15 -47.5t-29 -59.5t-76.5 -25t-86.5 30q-38 -30 -93 -30t-102 32q-46 -32 -105 -32t-85.5 27.5t-26.5 52.5q0 33 11 48q22 -17 56 -17q64 0 83 62v311q0 44 -19 64q-29 33 -103 69q70 32 89 51q33 33 33 81v146q0 85 -58 92q-17 2 -43 2t-48 -17q-14 19 -14 39.5z M225 597q60 -21 68 -50q12 -48 12 -216v-65q46 30 53 122q4 65 4.5 98t1 55.5t0.5 36.5v28.5t-0.5 38.5t-1 53t-2.5 57q-3 69 -9 95q-12 58 -46 80v-65q0 -168 -7.5 -197.5t-24 -44.5t-48.5 -26zM384 1490q0 53 14.5 93t41.5 69q58 62 148 62q65 0 114 -23l79 -37 q73 -37 99.5 -40t40.5 -3t28.5 7t26.5 20q25 29 21 74q12 12 33 12t38.5 -11.5t31.5 -30.5q28 -42 28 -95t-14.5 -93t-41.5 -69q-56 -62 -144 -62q-68 0 -116.5 19.5t-79.5 33.5l-50 24q-56 26 -80.5 26t-39.5 -6.5t-26 -19.5q-25 -29 -21 -75q-12 -12 -33 -12t-38.5 11.5 t-31.5 31.5q-28 41 -28 94zM487 1509q0 -18 8 -28q22 56 92 56q51 0 93 -17t75 -32.5t61 -26.5t50 -17q40 -11 76 -11t65 21.5t30 58.5q0 18 -8 28q-22 -57 -91 -57q-56 0 -129.5 34.5t-100 44.5t-47.5 15q-36 10 -75 10t-68.5 -21t-30.5 -58zM935 953q38 -90 44 -164 t6 -143v-381q50 19 55 131q6 112 6 211t-8 163.5t-23 101t-35.5 53t-44.5 28.5z" />
<glyph unicode="&#xf2;" horiz-adv-x="1375" d="M47 597q87 39 111 125q7 24 11 48q26 179 173 299.5t343 120.5q204 0 351 -122q143 -119 169 -298q9 -63 27 -92q34 -53 95 -81q-68 -33 -88 -58q-27 -35 -34 -83q-32 -236 -164 -358.5t-352 -122.5q-236 0 -371 137q-63 64 -99.5 152t-44.5 151t-13.5 81t-18.5 34 q-26 33 -95 67zM195 597q54 -25 59 -50q37 -169 61 -215t39 -67q14 11 14 25q0 22 -9 56q-41 157 -41 218.5t4 96t10 69.5q13 68 27 120q9 34 9 46q0 24 -14 35q-42 -50 -64 -134t-36 -148q-5 -27 -59 -52zM511 1727q0 68 42 113q40 44 93 44q105 0 141 -40l-6 -31 q-4 -16 -4 -57t8 -93.5t22 -95.5q26 -77 58 -117t32 -60q0 -27 -30.5 -27t-76.5 12t-100.5 47.5t-94.5 83.5q-84 103 -84 221zM517 356q0 -240 169 -240q171 0 171 240v443q0 250 -170 250t-170 -250v-443zM581 1737q0 -33 8.5 -62.5t22.5 -59t31.5 -56.5t36.5 -47 q42 -45 71 -39q-68 81 -86 126t-22.5 77t-4.5 67.5t14 65.5q-29 14 -45 -6q-26 -33 -26 -66zM953 265q50 19 55 131q6 112 6 166.5t-0.5 91t-1.5 75.5q-4 146 -23 170t-36 32v-666z" />
<glyph unicode="&#xf3;" horiz-adv-x="1375" d="M47 597q87 39 111 125q7 24 11 48q26 179 173 299.5t343 120.5q204 0 351 -122q143 -119 169 -298q9 -63 27 -92q34 -53 95 -81q-68 -33 -88 -58q-27 -35 -34 -83q-32 -236 -164 -358.5t-352 -122.5q-236 0 -371 137q-63 64 -99.5 152t-44.5 151t-13.5 81t-18.5 34 q-26 33 -95 67zM195 597q54 -25 59 -50q37 -169 61 -215t39 -67q14 11 14 25q0 22 -9 56q-41 157 -41 218.5t4 96t10 69.5q13 68 27 120q9 34 9 46q0 24 -14 35q-42 -50 -64 -134t-36 -148q-5 -27 -59 -52zM462 1390q0 20 29.5 57t60 120.5t30.5 166t-10 110.5q36 40 124 40 q105 0 141 -94q11 -29 11 -75.5t-22.5 -103.5t-61.5 -105q-85 -103 -212 -135q-29 -8 -59.5 -8t-30.5 27zM517 356q0 -240 169 -240q171 0 171 240v443q0 250 -170 250t-170 -250v-443zM576 1473q48 -11 94 93q44 97 44 161q0 101 -47 101q-13 0 -20 -7q11 -24 11 -64 q0 -172 -82 -284zM953 265q50 19 55 131q6 112 6 166.5t-0.5 91t-1.5 75.5q-4 146 -23 170t-36 32v-666z" />
<glyph unicode="&#xf4;" horiz-adv-x="1375" d="M47 597q87 39 111 125q7 24 11 48q26 179 173 299.5t343 120.5q204 0 351 -122q143 -119 169 -298q9 -63 27 -92q34 -53 95 -81q-68 -33 -88 -58q-27 -35 -34 -83q-32 -236 -164 -358.5t-352 -122.5q-236 0 -371 137q-63 64 -99.5 152t-44.5 151t-13.5 81t-18.5 34 q-26 33 -95 67zM195 597q54 -25 59 -50q37 -169 61 -215t39 -67q14 11 14 25q0 22 -9 56q-41 157 -41 218.5t4 96t10 69.5q13 68 27 120q9 34 9 46q0 24 -14 35q-42 -50 -64 -134t-36 -148q-5 -27 -59 -52zM345 1399l210 343q63 103 119 103q44 0 87 -51q16 -20 39 -52 l229 -324q-34 -55 -118 -55q-99 0 -162 59q-23 21 -46 51l-101 132l-93 -157q-30 -51 -56 -68t-52.5 -17t-41 11t-14.5 25zM517 356q0 -240 169 -240q171 0 171 240v443q0 250 -170 250t-170 -250v-443zM637 1664l102 -134q55 -75 98 -86q13 -4 29 -4l-203 264zM953 265 q50 19 55 131q6 112 6 166.5t-0.5 91t-1.5 75.5q-4 146 -23 170t-36 32v-666z" />
<glyph unicode="&#xf5;" horiz-adv-x="1375" d="M47 597q87 39 111 125q7 24 11 48q26 179 173 299.5t343 120.5q204 0 351 -122q143 -119 169 -298q9 -63 27 -92q34 -53 95 -81q-68 -33 -88 -58q-27 -35 -34 -83q-32 -236 -164 -358.5t-352 -122.5q-236 0 -371 137q-63 64 -99.5 152t-44.5 151t-13.5 81t-18.5 34 q-26 33 -95 67zM195 597q54 -25 59 -50q37 -169 61 -215t39 -67q14 11 14 25q0 22 -9 56q-41 157 -41 218.5t4 96t10 69.5q13 68 27 120q9 34 9 46q0 24 -14 35q-42 -50 -64 -134t-36 -148q-5 -27 -59 -52zM311 1490q0 53 14.5 93t41.5 69q58 62 148 62q65 0 114 -23l79 -37 q73 -37 99.5 -40t40.5 -3t28.5 7t26.5 20q25 29 21 74q12 12 33 12t38.5 -11.5t31.5 -30.5q28 -42 28 -95t-14.5 -93t-41.5 -69q-56 -62 -144 -62q-68 0 -116.5 19.5t-79.5 33.5l-50 24q-56 26 -80.5 26t-39.5 -6.5t-26 -19.5q-25 -29 -21 -75q-12 -12 -33 -12t-38.5 11.5 t-31.5 31.5q-28 41 -28 94zM414 1509q0 -18 8 -28q22 56 92 56q51 0 93 -17t75 -32.5t61 -26.5t50 -17q40 -11 76 -11t65 21.5t30 58.5q0 18 -8 28q-22 -57 -91 -57q-56 0 -129.5 34.5t-100 44.5t-47.5 15q-36 10 -75 10t-68.5 -21t-30.5 -58zM517 356q0 -240 169 -240 q171 0 171 240v443q0 250 -170 250t-170 -250v-443zM953 265q50 19 55 131q6 112 6 166.5t-0.5 91t-1.5 75.5q-4 146 -23 170t-36 32v-666z" />
<glyph unicode="&#xf6;" horiz-adv-x="1375" d="M47 597q87 39 111 125q7 24 11 48q26 179 173 299.5t343 120.5q204 0 351 -122q143 -119 169 -298q9 -63 27 -92q34 -53 95 -81q-68 -33 -88 -58q-27 -35 -34 -83q-32 -236 -164 -358.5t-352 -122.5q-236 0 -371 137q-63 64 -99.5 152t-44.5 151t-13.5 81t-18.5 34 q-26 33 -95 67zM195 597q54 -25 59 -50q37 -169 61 -215t39 -67q14 11 14 25q0 22 -9 56q-41 157 -41 218.5t4 96t10 69.5q13 68 27 120q9 34 9 46q0 24 -14 35q-42 -50 -64 -134t-36 -148q-5 -27 -59 -52zM197 1531q34 21 54.5 37.5t39 51t58.5 57.5t88 23q94 0 140 -85 q32 -59 92 -84l-26 -15q-42 -22 -66 -63q-50 -90 -140 -90q-45 0 -86 24.5t-56.5 53.5t-25 40.5t-20 20t-23.5 14.5zM305 1531q14 -8 25.5 -26t27.5 -37q24 -30 63 -30q-6 10 -12 18.5t-11 18t-8 23t-3 48t34 83.5q-20 0 -35 -5t-26 -20t-16 -24t-11 -19q-17 -25 -28 -30z M517 356q0 -240 169 -240q171 0 171 240v443q0 250 -170 250t-170 -250v-443zM700 1531q34 21 54.5 37.5t39 51t58.5 57.5t87 23q95 0 141 -85q32 -59 92 -84l-26 -15q-42 -22 -66 -63q-50 -90 -141 -90q-44 0 -85 24.5t-56.5 53.5t-25 40.5t-20 20t-23.5 14.5zM808 1531 q14 -8 25.5 -26t27.5 -37q24 -30 63 -30q-6 10 -12 18.5t-11 18t-8 23t-3 48t34 83.5q-20 0 -35 -5t-26 -20t-16 -24t-12 -19q-16 -25 -27 -30zM953 265q50 19 55 131q6 112 6 166.5t-0.5 91t-1.5 75.5q-4 146 -23 170t-36 32v-666z" />
<glyph unicode="&#xf7;" horiz-adv-x="1078" d="M120 525v146h838v-146h-838zM404 262q0 60 28 89q47 49 94 49t71.5 -12t40.5 -32q33 -38 33 -79.5t-9.5 -65t-27.5 -42.5q-38 -42 -97 -42q-55 0 -94 39t-39 96zM404 930q0 60 28 89q47 49 94 49t71.5 -12t40.5 -32q33 -38 33 -79.5t-9.5 -65t-27 -42.5t-42.5 -30.5 t-53.5 -11.5t-53 10.5t-42.5 28.5q-39 39 -39 96z" />
<glyph unicode="&#xf8;" horiz-adv-x="1360" d="M40 597q87 39 111 125q7 24 11 48q26 179 173 299.5t343 120.5q74 0 148 -19l127 286q17 13 41 13q85 0 85 -100q0 -54 -23 -107l-72 -162q183 -122 214 -331q9 -63 27 -92q34 -53 95 -81q-68 -33 -88 -58q-27 -35 -34 -83q-32 -236 -164 -358.5t-352 -122.5 q-101 0 -179 24l-122 -276q-17 -13 -41 -13q-84 0 -84 100q0 58 23 107l71 160q-156 123 -188 379q-7 49 -23 70q-30 37 -99 71zM188 597q54 -25 59 -50q37 -169 61 -215t39 -67q14 11 14 25q0 22 -9 56q-41 157 -41 218.5t4 96t11 69.5q12 68 26 120q9 34 9 46q0 24 -14 35 q-42 -50 -64 -134t-36 -148q-5 -27 -59 -52zM510 356q0 -240 169 -240q171 0 171 240v443q0 250 -170 250t-170 -250v-443zM946 265q50 19 56 131q5 112 5 166.5t-0.5 91t-1.5 75.5q-4 146 -23 170t-36 32v-666z" />
<glyph unicode="&#xf9;" horiz-adv-x="1389" d="M45 991.5q0 20.5 10.5 46t32.5 48.5q52 54 121 54t130 -23q44 63 104 63q103 0 103 -108v-651q0 -190 88 -228q28 -12 62.5 -12t62.5 14.5t49 39.5q39 49 50 134v506q0 114 -93 114q-34 0 -56 -17q-14 19 -14 39.5t10.5 43t32.5 41.5q49 44 119.5 44t131.5 -23 q44 63 104 63q103 0 103 -108v-332q0 -46 18 -68q32 -39 104 -74q-122 -56 -122 -172v-258q19 -77 83 -77q34 0 56 17q14 -19 14 -47.5t-28.5 -54.5t-89 -26t-114.5 32q-40 -32 -89 -32q-141 0 -152 195q-51 -92 -137.5 -146t-186 -54t-161.5 27t-103 78q-80 100 -80 284v62 q0 116 -122 172q72 35 92 59q30 37 30 83v135q0 85 -58 92q-17 2 -43 2t-48 -17q-14 19 -14 39.5zM224 598q60 -21 68 -51q12 -48 12 -217v-65q30 7 49 89q5 23 5 112l-3 132l3 132q0 89 -6 118q-17 76 -48 83v-65q0 -169 -7.5 -198.5t-24 -44t-48.5 -25.5zM504 1727 q0 68 42 113q40 44 93 44q105 0 141 -40l-6 -31q-4 -16 -4 -57t8 -93.5t22 -95.5q26 -77 58 -117t32 -60q0 -27 -30.5 -27t-76.5 12t-100.5 47.5t-94.5 83.5q-84 103 -84 221zM574 1737q0 -33 8.5 -62.5t22.5 -59t31.5 -56.5t36.5 -47q42 -45 71 -39q-68 81 -86 126 t-22.5 77t-4.5 67.5t14 65.5q-29 14 -45 -6q-26 -33 -26 -66zM953 265q58 23 61 221v96t-0.5 92.5t-1.5 73.5q-4 126 -23 150.5t-36 32.5v-666z" />
<glyph unicode="&#xfa;" horiz-adv-x="1389" d="M45 991.5q0 20.5 10.5 46t32.5 48.5q52 54 121 54t130 -23q44 63 104 63q103 0 103 -108v-651q0 -190 88 -228q28 -12 62.5 -12t62.5 14.5t49 39.5q39 49 50 134v506q0 114 -93 114q-34 0 -56 -17q-14 19 -14 39.5t10.5 43t32.5 41.5q49 44 119.5 44t131.5 -23 q44 63 104 63q103 0 103 -108v-332q0 -46 18 -68q32 -39 104 -74q-122 -56 -122 -172v-258q19 -77 83 -77q34 0 56 17q14 -19 14 -47.5t-28.5 -54.5t-89 -26t-114.5 32q-40 -32 -89 -32q-141 0 -152 195q-51 -92 -137.5 -146t-186 -54t-161.5 27t-103 78q-80 100 -80 284v62 q0 116 -122 172q72 35 92 59q30 37 30 83v135q0 85 -58 92q-17 2 -43 2t-48 -17q-14 19 -14 39.5zM224 598q60 -21 68 -51q12 -48 12 -217v-65q30 7 49 89q5 23 5 112l-3 132l3 132q0 89 -6 118q-17 76 -48 83v-65q0 -169 -7.5 -198.5t-24 -44t-48.5 -25.5zM455 1390 q0 20 29.5 57t60 120.5t30.5 166t-10 110.5q36 40 124 40q105 0 141 -94q11 -29 11 -75.5t-22.5 -103.5t-61.5 -105q-85 -103 -212 -135q-29 -8 -59.5 -8t-30.5 27zM569 1473q48 -11 94 93q44 97 44 161q0 101 -47 101q-13 0 -20 -7q11 -24 11 -64q0 -172 -82 -284zM953 265 q58 23 61 221v96t-0.5 92.5t-1.5 73.5q-4 126 -23 150.5t-36 32.5v-666z" />
<glyph unicode="&#xfb;" horiz-adv-x="1389" d="M45 991.5q0 20.5 10.5 46t32.5 48.5q52 54 121 54t130 -23q44 63 104 63q103 0 103 -108v-651q0 -190 88 -228q28 -12 62.5 -12t62.5 14.5t49 39.5q39 49 50 134v506q0 114 -93 114q-34 0 -56 -17q-14 19 -14 39.5t10.5 43t32.5 41.5q49 44 119.5 44t131.5 -23 q44 63 104 63q103 0 103 -108v-332q0 -46 18 -68q32 -39 104 -74q-122 -56 -122 -172v-258q19 -77 83 -77q34 0 56 17q14 -19 14 -47.5t-28.5 -54.5t-89 -26t-114.5 32q-40 -32 -89 -32q-141 0 -152 195q-51 -92 -137.5 -146t-186 -54t-161.5 27t-103 78q-80 100 -80 284v62 q0 116 -122 172q72 35 92 59q30 37 30 83v135q0 85 -58 92q-17 2 -43 2t-48 -17q-14 19 -14 39.5zM224 598q60 -21 68 -51q12 -48 12 -217v-65q30 7 49 89q5 23 5 112l-3 132l3 132q0 89 -6 118q-17 76 -48 83v-65q0 -169 -7.5 -198.5t-24 -44t-48.5 -25.5zM352 1399 l210 343q63 103 119 103q44 0 87 -51q16 -20 39 -52l229 -324q-34 -55 -118 -55q-99 0 -162 59q-23 21 -46 51l-101 132l-93 -157q-30 -51 -56 -68t-52.5 -17t-41 11t-14.5 25zM644 1664l102 -134q55 -75 98 -86q13 -4 29 -4l-203 264zM953 265q58 23 61 221v96t-0.5 92.5 t-1.5 73.5q-4 126 -23 150.5t-36 32.5v-666z" />
<glyph unicode="&#xfc;" horiz-adv-x="1389" d="M45 991.5q0 20.5 10.5 46t32.5 48.5q52 54 121 54t130 -23q44 63 104 63q103 0 103 -108v-651q0 -190 88 -228q28 -12 62.5 -12t62.5 14.5t49 39.5q39 49 50 134v506q0 114 -93 114q-34 0 -56 -17q-14 19 -14 39.5t10.5 43t32.5 41.5q49 44 119.5 44t131.5 -23 q44 63 104 63q103 0 103 -108v-332q0 -46 18 -68q32 -39 104 -74q-122 -56 -122 -172v-258q19 -77 83 -77q34 0 56 17q14 -19 14 -47.5t-28.5 -54.5t-89 -26t-114.5 32q-40 -32 -89 -32q-141 0 -152 195q-51 -92 -137.5 -146t-186 -54t-161.5 27t-103 78q-80 100 -80 284v62 q0 116 -122 172q72 35 92 59q30 37 30 83v135q0 85 -58 92q-17 2 -43 2t-48 -17q-14 19 -14 39.5zM190 1531q34 21 54.5 37.5t39 51t58.5 57.5t88 23q94 0 140 -85q32 -59 92 -84l-26 -15q-42 -22 -66 -63q-50 -90 -140 -90q-45 0 -86 24.5t-56.5 53.5t-25 40.5t-20 20 t-23.5 14.5zM224 598q60 -21 68 -51q12 -48 12 -217v-65q30 7 49 89q5 23 5 112l-3 132l3 132q0 89 -6 118q-17 76 -48 83v-65q0 -169 -7.5 -198.5t-24 -44t-48.5 -25.5zM298 1531q14 -8 25.5 -26t27.5 -37q24 -30 63 -30q-6 10 -12 18.5t-11 18t-8 23t-3 48t34 83.5 q-20 0 -35 -5t-26 -20t-16 -24t-11 -19q-17 -25 -28 -30zM693 1531q34 21 54.5 37.5t39 51t58.5 57.5t87 23q95 0 141 -85q32 -59 92 -84l-26 -15q-42 -22 -66 -63q-50 -90 -141 -90q-44 0 -85 24.5t-56.5 53.5t-25 40.5t-20 20t-23.5 14.5zM801 1531q14 -8 25.5 -26 t27.5 -37q24 -30 63 -30q-6 10 -12 18.5t-11 18t-8 23t-3 48t34 83.5q-20 0 -35 -5t-26 -20t-16 -24t-12 -19q-16 -25 -27 -30zM953 265q58 23 61 221v96t-0.5 92.5t-1.5 73.5q-4 126 -23 150.5t-36 32.5v-666z" />
<glyph unicode="&#xfd;" horiz-adv-x="1210" d="M-56.5 1067q-0.5 23 5.5 38.5t20 27.5q30 27 86.5 27t106.5 -36q41 36 100 36t104 -33q45 33 101 33t88.5 -26.5t33.5 -52.5q1 -39 -13 -53q-24 18 -50 18t-42.5 -15t-14.5 -49l231 -624l219 641q-11 51 -73 51q-39 0 -74 -19q-10 19 -9.5 49t28 55t75 25t81.5 -32 q36 32 81 32t82 -28q34 28 75.5 28t66 -24t23.5 -50q-2 -40 -12 -55q-22 14 -70 14q-96 0 -145 -130l-31 -87q-34 -95 -34.5 -130t12 -56.5t56.5 -44.5q-108 -30 -147 -101q-12 -22 -21 -46l-166 -451q-97 -279 -180 -378q-76 -91 -190 -91q-87 0 -164 56q-88 63 -88 148 q0 53 28 80.5t51.5 27.5t32.5 -0.5t18 -3.5q18 -8 34 -36q-21 -40 27 -88q45 -47 84.5 -47t66 15t47.5 46q46 68 46 195q0 69 -37 152q-10 28 -24 59l-142 320q-23 51 -69.5 90.5t-104.5 52.5q69 35 69 92q0 41 -33 121l-59 142q-26 58 -43 73q-30 24 -69.5 24t-61.5 -17 q-12 12 -12.5 35zM277.5 893q0.5 -23 2 -35.5t5.5 -29.5q9 -32 36.5 -94.5t29 -78t-10.5 -34t-29 -24.5q64 -12 79 -45q7 -14 20 -44l68 -152q20 -46 42 -91q41 50 -36 230l-184 436q-23 -15 -22.5 -38zM456 1390q0 20 29.5 57t60 120.5t30.5 166t-10 110.5q36 40 124 40 q105 0 141 -94q11 -29 11 -75.5t-22.5 -103.5t-61.5 -105q-85 -103 -212 -135q-29 -8 -59.5 -8t-30.5 27zM570 1473q48 -11 94 93q44 97 44 161q0 101 -47 101q-13 0 -20 -7q11 -24 11 -64q0 -172 -82 -284z" />
<glyph unicode="&#xfe;" horiz-adv-x="1384" d="M43 1431.5q0 20.5 10.5 39.5t32.5 35q47 34 119 34t112 -9q55 69 124 69q103 0 103 -108v-398q73 86 202 86q299 0 419 -228q41 -77 57 -182q21 -126 122 -172q-68 -33 -88 -58q-27 -35 -37.5 -111.5t-45 -164.5t-90.5 -152q-120 -137 -316 -137q-130 0 -223 83v-388 q25 -69 83 -69q34 0 56 17q14 -19 14 -47.5t-28.5 -54.5t-86.5 -26t-105 33q-40 -33 -99.5 -33t-104.5 33q-45 -33 -104 -33t-87.5 26t-28.5 50q0 33 14 52q22 -17 56 -17q58 0 83 67v788q0 46 -18 68q-32 39 -104 74q122 56 122 172v525q0 114 -93 114q-34 0 -56 -17 q-14 19 -14 39.5zM220 598q60 -21 68 -51q12 -48 12 -488v-79q48 31 52 134q7 208 7 406v284q0 293 -4 319t-9 49q-12 56 -46 78v-175q0 -386 -12 -426q-8 -30 -68 -51zM544 312q0 -80 53 -136q51 -55 117 -55q119 0 156 127q14 46 14 113v438q0 235 -170 235 q-121 0 -157 -126q-13 -45 -13 -109v-487zM980 265q50 19 56 131q5 112 5 166.5t-0.5 91t-1.5 75.5q-4 146 -23 170t-36 32v-666z" />
<glyph unicode="&#xff;" horiz-adv-x="1210" d="M-56.5 1067q-0.5 23 5.5 38.5t20 27.5q30 27 86.5 27t106.5 -36q41 36 100 36t104 -33q45 33 101 33t88.5 -26.5t33.5 -52.5q1 -39 -13 -53q-24 18 -50 18t-42.5 -15t-14.5 -49l231 -624l219 641q-11 51 -73 51q-39 0 -74 -19q-10 19 -9.5 49t28 55t75 25t81.5 -32 q36 32 81 32t82 -28q34 28 75.5 28t66 -24t23.5 -50q-2 -40 -12 -55q-22 14 -70 14q-96 0 -145 -130l-31 -87q-34 -95 -34.5 -130t12 -56.5t56.5 -44.5q-108 -30 -147 -101q-12 -22 -21 -46l-166 -451q-97 -279 -180 -378q-76 -91 -190 -91q-87 0 -164 56q-88 63 -88 148 q0 53 28 80.5t51.5 27.5t32.5 -0.5t18 -3.5q18 -8 34 -36q-21 -40 27 -88q45 -47 84.5 -47t66 15t47.5 46q46 68 46 195q0 69 -37 152q-10 28 -24 59l-142 320q-23 51 -69.5 90.5t-104.5 52.5q69 35 69 92q0 41 -33 121l-59 142q-26 58 -43 73q-30 24 -69.5 24t-61.5 -17 q-12 12 -12.5 35zM191 1531q34 21 54.5 37.5t39 51t58.5 57.5t88 23q94 0 140 -85q32 -59 92 -84l-26 -15q-42 -22 -66 -63q-50 -90 -140 -90q-45 0 -86 24.5t-56.5 53.5t-25 40.5t-20 20t-23.5 14.5zM277.5 893q0.5 -23 2 -35.5t5.5 -29.5q9 -32 36.5 -94.5t29 -78 t-10.5 -34t-29 -24.5q64 -12 79 -45q7 -14 20 -44l68 -152q20 -46 42 -91q41 50 -36 230l-184 436q-23 -15 -22.5 -38zM299 1531q14 -8 25.5 -26t27.5 -37q24 -30 63 -30q-6 10 -12 18.5t-11 18t-8 23t-3 48t34 83.5q-20 0 -35 -5t-26 -20t-16 -24t-11 -19q-17 -25 -28 -30z M694 1531q34 21 54.5 37.5t39 51t58.5 57.5t87 23q95 0 141 -85q32 -59 92 -84l-26 -15q-42 -22 -66 -63q-50 -90 -141 -90q-44 0 -85 24.5t-56.5 53.5t-25 40.5t-20 20t-23.5 14.5zM802 1531q14 -8 25.5 -26t27.5 -37q24 -30 63 -30q-6 10 -12 18.5t-11 18t-8 23t-3 48 t34 83.5q-20 0 -35 -5t-26 -20t-16 -24t-12 -19q-16 -25 -27 -30z" />
<glyph unicode="&#x152;" horiz-adv-x="2169" d="M40 797q87 41 102.5 168.5t70.5 237t140 187.5q176 160 431 160q153 0 267 -50q61 50 132 50t129 -38q103 38 243 38q103 0 176 -20l89 -24q16 -4 31 -4q28 0 28 40q0 10 -7 34q28 5 71 5t73 -28.5t30 -84t-22 -85.5q30 -46 30 -108t-40 -107q13 -32 13 -64.5t-9.5 -57.5 t-23.5 -42q-29 -35 -57 -35q-42 0 -76 18q12 24 12 59.5t-2.5 64t-8.5 57.5q-32 154 -157 218q-55 29 -121.5 29t-128 -37t-86.5 -106v-387q35 -22 71 -22q134 0 156 59q11 28 11 66t-21 62q20 14 50 14q67 0 97 -54q11 -19 11 -42t-12 -57q41 -47 41 -111.5t-41 -111.5 q12 -34 12 -61.5t-11 -52.5t-27 -40q-31 -28 -70 -28q-28 0 -50 16q21 35 21 82q0 93 -51 115q-45 18 -98 18t-89 -21v-492q28 -46 87 -78t132 -32q156 0 251 130q89 121 89 271q0 34 -8 58q31 25 55 25t38 -6t25 -16q24 -22 24 -49l-6 -49q0 -19 10 -31q20 -21 20 -39.5 t-12 -44.5q23 -13 41.5 -38.5t18.5 -66t-43 -83.5q26 -30 26 -84t-32.5 -93.5t-84.5 -39.5q-28 0 -58 6q4 22 4 44q0 46 -42 46q-31 0 -91 -24q-125 -50 -264 -50t-233 37q-54 -37 -133.5 -37t-135.5 41q-123 -41 -261 -41t-249 45t-193 129q-170 172 -202 470 q-15 131 -102 173zM175 797q56 -25 59 -51q36 -310 92 -414q19 -37 43 -67q15 6 15 21q0 22 -21 69q-53 121 -53 442q0 234 56 398q7 25 7 38t-13 17q-47 -59 -67 -117q-37 -106 -59 -287q-3 -26 -59 -49zM561 327q0 -159 135 -201q40 -12 87 -12t86.5 12.5t68.5 38.5 q60 55 60 162v297q0 120 -108 173q108 50 108 161v239q0 109 -65 168q-58 52 -151 52q-155 0 -204 -119q-17 -42 -17 -101v-239q0 -113 110 -161q-110 -53 -110 -173v-297zM1049 797q60 -27 63 -52q10 -98 10 -169.5t-2 -115t-6 -80.5q-8 -79 -20 -115q78 24 87 231 q5 116 5 258.5t-3 214t-9 117.5q-12 106 -50 147q-11 12 -34 17q28 -84 28 -289q0 -116 -10 -127t-20 -18q-18 -12 -39 -19zM1349 275q0 -6 1 -9z" />
<glyph unicode="&#x153;" horiz-adv-x="1909" d="M40 598q87 40 111 124q7 24 11 48q26 179 173 299.5t343.5 120.5t344.5 -118q142 118 317 118q190 0 330 -134q143 -138 143 -339q0 -69 48 -90q0 -85 -95 -85q-31 0 -131 -14q-271 -41 -446 -71v-96q0 -116 69 -184q67 -65 168 -65q90 0 162 56q73 59 73 144 q5 8 22.5 20t37.5 12q64 0 64 -65.5t-38 -120t-97 -94.5q-131 -89 -268 -89q-216 0 -351 112q-131 -112 -349 -112q-370 0 -475 289q-32 88 -40 151t-13.5 81t-18.5 34q-27 35 -95 68zM188 598q54 -25 59 -51q37 -169 61 -215t39 -67q14 11 14 25q0 22 -9 56 q-41 157 -41 218.5t4 96t11 69.5q12 68 26 120q9 34 9 46q0 24 -14 35q-42 -50 -64 -134t-36 -148q-5 -26 -59 -51zM510 361q0 -188 100 -227q31 -13 70 -13q170 0 170 240v438q0 245 -170 245t-170 -245v-438zM946 265q50 19 56 131q5 112 5 166.5t-0.5 91t-1.5 75.5 q-4 146 -23 170t-36 32v-666zM1189 579l270 46v280q0 66 -27 97q-45 53 -100 53q-143 0 -143 -221v-255zM1545 640l62 10v31q0 186 -31 225q-14 17 -31 25v-291z" />
<glyph unicode="&#x2c6;" horiz-adv-x="884" d="M100 1399l210 343q63 103 119 103q44 0 87 -51q16 -20 39 -52l229 -324q-34 -55 -118 -55q-99 0 -162 59q-23 21 -46 51l-101 132l-93 -157q-30 -51 -56 -68t-52.5 -17t-41 11t-14.5 25zM392 1664l102 -134q55 -75 98 -86q13 -4 29 -4l-203 264z" />
<glyph unicode="&#x2dc;" horiz-adv-x="944" d="M100 1490q0 53 14.5 93t41.5 69q58 62 148 62q65 0 114 -23l79 -37q73 -37 99.5 -40t40.5 -3t28.5 7t26.5 20q25 29 21 74q12 12 33 12t38.5 -11.5t31.5 -30.5q28 -42 28 -95t-14.5 -93t-41.5 -69q-56 -62 -144 -62q-68 0 -116.5 19.5t-79.5 33.5l-50 24q-56 26 -80.5 26 t-39.5 -6.5t-26 -19.5q-25 -29 -21 -75q-12 -12 -33 -12t-38.5 11.5t-31.5 31.5q-28 41 -28 94zM203 1509q0 -18 8 -28q22 56 92 56q51 0 93 -17t75 -32.5t61 -26.5t50 -17q40 -11 76 -11t65 21.5t30 58.5q0 18 -8 28q-22 -57 -91 -57q-56 0 -129.5 34.5t-100 44.5t-47.5 15 q-36 10 -75 10t-68.5 -21t-30.5 -58z" />
<glyph unicode="&#x2000;" horiz-adv-x="1010" />
<glyph unicode="&#x2001;" horiz-adv-x="2020" />
<glyph unicode="&#x2002;" horiz-adv-x="1010" />
<glyph unicode="&#x2003;" horiz-adv-x="2020" />
<glyph unicode="&#x2004;" horiz-adv-x="673" />
<glyph unicode="&#x2005;" horiz-adv-x="505" />
<glyph unicode="&#x2006;" horiz-adv-x="336" />
<glyph unicode="&#x2007;" horiz-adv-x="336" />
<glyph unicode="&#x2008;" horiz-adv-x="252" />
<glyph unicode="&#x2009;" horiz-adv-x="404" />
<glyph unicode="&#x200a;" horiz-adv-x="112" />
<glyph unicode="&#x2010;" horiz-adv-x="860" d="M130 572q0 33 32.5 66t96.5 33h463q8 -14 8 -47t-32.5 -66t-96.5 -33h-463q-8 14 -8 47z" />
<glyph unicode="&#x2011;" horiz-adv-x="860" d="M130 572q0 33 32.5 66t96.5 33h463q8 -14 8 -47t-32.5 -66t-96.5 -33h-463q-8 14 -8 47z" />
<glyph unicode="&#x2012;" horiz-adv-x="860" d="M130 572q0 33 32.5 66t96.5 33h463q8 -14 8 -47t-32.5 -66t-96.5 -33h-463q-8 14 -8 47z" />
<glyph unicode="&#x2013;" horiz-adv-x="1002" d="M0 769q0 33 32.5 66t96.5 33h865q8 -14 8 -47t-32.5 -66t-96.5 -33h-865q-8 14 -8 47z" />
<glyph unicode="&#x2014;" horiz-adv-x="1222" d="M0 769q0 33 32.5 66t96.5 33h1085q8 -14 8 -47t-32.5 -66t-96.5 -33h-1085q-8 14 -8 47z" />
<glyph unicode="&#x2018;" horiz-adv-x="701" d="M80 1363q65 33 96 85q62 102 175 102q112 0 176 -105q28 -48 94 -82q-59 -21 -88 -67q-57 -91 -139 -99q18 -125 112 -201q28 -22 57 -34q0 -44 -63 -44q-84 0 -164 78q-85 82 -150 258q-29 84 -106 109zM184 1363q26 -15 49 -41q41 -47 85 -57q-21 40 -21 76.5t1 48.5 t3 25q5 31 16 48q-35 -12 -52.5 -30t-27.5 -31q-17 -21 -53 -39z" />
<glyph unicode="&#x2019;" horiz-adv-x="701" d="M80 1363q66 34 95 83q62 104 175 104q114 0 176 -105q30 -49 95 -82q-77 -25 -108 -112t-68.5 -151t-79.5 -105q-80 -77 -177 -77q-20 0 -35 12t-15 32q98 45 146 157q17 37 22 79q-83 8 -132 88q-35 56 -94 77zM175 1363q26 -15 49 -41q41 -47 85 -57q-21 40 -21 76.5 t1 48.5t3 25q5 31 16 48q-35 -12 -52.5 -30t-27.5 -30q-17 -22 -53 -40z" />
<glyph unicode="&#x201a;" horiz-adv-x="701" d="M80 146q66 34 95 83q62 104 175 104q114 0 176 -105q30 -49 95 -82q-77 -25 -108 -112t-68.5 -151t-79.5 -105q-80 -77 -177 -77q-20 0 -35 12t-15 32q98 45 146 157q17 37 22 79q-83 8 -132 88q-35 56 -94 77zM175 146q26 -15 49 -41q41 -47 85 -57q-21 40 -21 76.5 t1 48.5t3 25q5 31 16 48q-35 -12 -52.5 -30t-27.5 -30q-17 -22 -53 -40z" />
<glyph unicode="&#x201c;" horiz-adv-x="1240" d="M80 1363q65 33 96 85q62 102 175 102q112 0 176 -105q28 -48 94 -82q-59 -21 -88 -67q-57 -91 -139 -99q18 -125 112 -201q28 -22 57 -34q0 -44 -63 -44q-84 0 -164 78q-85 82 -150 258q-29 84 -106 109zM184 1363q26 -15 49 -41q41 -47 85 -57q-21 40 -21 76.5t1 48.5 t3 25q5 31 16 48q-35 -12 -52.5 -30t-27.5 -31q-17 -21 -53 -39zM619 1363q65 33 96 85q62 102 175 102q112 0 176 -105q28 -48 94 -82q-59 -21 -88 -67q-57 -91 -139 -99q18 -125 112 -201q28 -22 57 -34q0 -44 -63 -44q-84 0 -164 78q-85 82 -150 258q-29 84 -106 109z M723 1363q26 -15 49 -41q41 -47 85 -57q-21 40 -21 76.5t1 48.5t3 25q5 31 16 48q-35 -12 -52.5 -30t-27.5 -31q-17 -21 -53 -39z" />
<glyph unicode="&#x201d;" horiz-adv-x="1240" d="M80 1363q66 34 95 83q62 104 175 104q114 0 176 -105q30 -49 95 -82q-77 -25 -108 -112t-68.5 -151t-79.5 -105q-80 -77 -177 -77q-20 0 -35 12t-15 32q98 45 146 157q17 37 22 79q-83 8 -132 88q-35 56 -94 77zM175 1363q26 -15 49 -41q41 -47 85 -57q-21 40 -21 76.5 t1 48.5t3 25q5 31 16 48q-35 -12 -52.5 -30t-27.5 -30q-17 -22 -53 -40zM619 1363q66 34 95 83q62 104 175 104q114 0 176 -105q30 -49 95 -82q-77 -25 -108 -112t-68.5 -151t-79.5 -105q-80 -77 -177 -77q-20 0 -35 12t-15 32q98 45 146 157q17 37 22 79q-83 8 -132 88 q-35 56 -94 77zM714 1363q26 -15 49 -41q41 -47 85 -57q-21 40 -21 76.5t1 48.5t3 25q5 31 16 48q-35 -12 -52.5 -30t-27.5 -30q-17 -22 -53 -40z" />
<glyph unicode="&#x201e;" horiz-adv-x="1240" d="M80 146q66 34 95 83q62 104 175 104q114 0 176 -105q30 -49 95 -82q-77 -25 -108 -112t-68.5 -151t-79.5 -105q-80 -77 -177 -77q-20 0 -35 12t-15 32q98 45 146 157q17 37 22 79q-83 8 -132 88q-35 56 -94 77zM175 146q26 -15 49 -41q41 -47 85 -57q-21 40 -21 76.5 t1 48.5t3 25q5 31 16 48q-35 -12 -52.5 -30t-27.5 -30q-17 -22 -53 -40zM619 146q66 34 95 83q62 104 175 104q114 0 176 -105q30 -49 95 -82q-77 -25 -108 -112t-68.5 -151t-79.5 -105q-80 -77 -177 -77q-20 0 -35 12t-15 32q98 45 146 157q17 37 22 79q-83 8 -132 88 q-35 56 -94 77zM714 146q26 -15 49 -41q41 -47 85 -57q-21 40 -21 76.5t1 48.5t3 25q5 31 16 48q-35 -12 -52.5 -30t-27.5 -30q-17 -22 -53 -40z" />
<glyph unicode="&#x2022;" horiz-adv-x="732" d="M120 798q0 103 66 172q69 74 177 74q106 0 179 -76q70 -74 70 -170q0 -103 -72 -174q-72 -70 -171 -70q-48 0 -92 17t-79 49q-78 71 -78 178zM217 805q0 -23 28 -76t72 -53q-12 23 -25 50.5t-13 85.5t38 115q-52 0 -79 -62q-21 -44 -21 -60z" />
<glyph unicode="&#x2026;" horiz-adv-x="2034" d="M78 164q56 35 70.5 56.5t23.5 38.5q24 45 70.5 70.5t100.5 25.5q112 0 162 -94q40 -74 95 -97q-15 -9 -28 -16t-24 -16q-23 -19 -46 -58.5t-65.5 -69t-93.5 -29.5t-98.5 29.5t-72.5 74.5q-29 50 -52.5 63.5t-41.5 21.5zM193 164q16 -9 29.5 -28.5t31.5 -41.5 q27 -32 71 -32q-6 11 -12.5 20.5t-12.5 20t-9.5 25t-3.5 54t38 96.5q-22 0 -39 -8.5t-30 -25.5t-18.5 -26.5t-13.5 -19.5q-19 -28 -31 -34zM756 164q56 35 70.5 56.5t23.5 38.5q24 45 70.5 70.5t100.5 25.5q112 0 162 -94q40 -74 95 -97q-15 -9 -28 -16t-24 -16 q-23 -19 -46 -58.5t-65.5 -69t-93.5 -29.5t-98.5 29.5t-72.5 74.5q-29 50 -52.5 63.5t-41.5 21.5zM871 164q16 -9 29.5 -28.5t31.5 -41.5q27 -32 71 -32q-6 11 -12.5 20.5t-12.5 20t-9.5 25t-3.5 54t38 96.5q-22 0 -39 -8.5t-30 -25.5t-18.5 -26.5t-13.5 -19.5 q-19 -28 -31 -34zM1434 164q56 35 70.5 56.5t23.5 38.5q24 45 70.5 70.5t100.5 25.5q112 0 162 -94q40 -74 95 -97q-15 -9 -28 -16t-24 -16q-23 -19 -46 -58.5t-65.5 -69t-93.5 -29.5t-98.5 29.5t-72.5 74.5q-29 50 -52.5 63.5t-41.5 21.5zM1549 164q16 -9 29.5 -28.5 t31.5 -41.5q27 -32 71 -32q-6 11 -12.5 20.5t-12.5 20t-9.5 25t-3.5 54t38 96.5q-22 0 -39 -8.5t-30 -25.5t-18.5 -26.5t-13.5 -19.5q-19 -28 -31 -34z" />
<glyph unicode="&#x202f;" horiz-adv-x="404" />
<glyph unicode="&#x2039;" horiz-adv-x="679" d="M80 604q0 18 21 33l41 28q242 159 394 363q23 -22 23 -65q0 -163 -223 -360q223 -197 223 -358q0 -43 -23 -65q-152 204 -394 363q-55 36 -58.5 45t-3.5 16z" />
<glyph unicode="&#x203a;" horiz-adv-x="679" d="M119 245q0 -43 23 -65q152 204 394 363q55 36 58.5 45t3.5 16q0 18 -21 33l-41 28q-242 159 -394 363q-23 -22 -23 -65q0 -163 223 -360q-223 -197 -223 -358z" />
<glyph unicode="&#x205f;" horiz-adv-x="505" />
<glyph unicode="&#x20ac;" horiz-adv-x="1417" d="M0 601q0 94 129 94h76q-3 46 -3 91v33h-194q-8 14 -8 32q0 94 129 94h84v2q29 253 191 419q179 184 476 184q217 0 348 -115q124 -108 124 -280q0 -54 -27.5 -87t-58.5 -33q-65 0 -81 28q23 33 23 83.5t-20 103t-59 92.5q-85 86 -231 86q-177 0 -228 -148 q-18 -50 -18 -120v-215h421q8 -14 8 -32q0 -94 -129 -94h-300v-124h321q8 -14 8 -32q0 -94 -129 -94h-200v-192q0 -123 69.5 -191.5t191.5 -68.5q118 0 205 76q90 79 90 197q0 44 -23 77q16 28 64 28t75.5 -33t27.5 -101.5t-36.5 -140.5t-103.5 -125q-144 -115 -364 -115 q-388 0 -552 332q-55 110 -77 257h-211q-8 14 -8 32zM302 798q0 -313 138 -533q15 6 15 18.5t-1 19t-4 18t-8 29.5l-13 44q-48 151 -48 403q0 174 49 354q14 56 14 75.5t-13 23.5q-129 -181 -129 -452z" />
<glyph unicode="&#xe000;" horiz-adv-x="1160" d="M0 0v1160h1160v-1160h-1160z" />
</font>
</defs>
</svg>
