<?xml version="1.0" standalone="no"?>
<!DOCTYPE svg PUBLIC "-//W3C//DTD SVG 1.1//EN" "http://www.w3.org/Graphics/SVG/1.1/DTD/svg11.dtd" >
<svg xmlns="http://www.w3.org/2000/svg">
<metadata></metadata>
<defs>
<font id="diplomata_scregular" horiz-adv-x="1515" >
<font-face units-per-em="2048" ascent="1638" descent="-410" />
<missing-glyph horiz-adv-x="921" />
<glyph horiz-adv-x="0" />
<glyph unicode="&#xd;" horiz-adv-x="681" />
<glyph unicode=" "  horiz-adv-x="921" />
<glyph unicode="&#x09;" horiz-adv-x="921" />
<glyph unicode="&#xa0;" horiz-adv-x="921" />
<glyph unicode="!" horiz-adv-x="1390" d="M223 231.5q0 118.5 137.5 201.5t333 83t332.5 -83t137 -201.5t-137 -201.5t-332.5 -83t-333 83t-137.5 201.5zM287 1397q0 119 105.5 181t301 62t302 -62t106.5 -181q0 -76 -81 -268.5t-180.5 -356.5t-145.5 -164t-146 164t-181 356.5t-81 268.5zM375 231.5 q0 -61.5 51 -115t135 -83.5l6 10q-82 78 -82 188.5t82 188.5l-6 10q-84 -31 -135 -84t-51 -114.5zM424 1423q0 -80 94 -319.5t176 -382.5l62 98q-82 164 -157 361.5t-77 265.5q0 25 29 50.5t70 39.5l-9 18q-82 -14 -135 -49t-53 -82z" />
<glyph unicode="&#x22;" horiz-adv-x="1626" d="M102 1214.5q0 94.5 82 143.5t235.5 49t236.5 -49t83 -141q0 -61 -63.5 -211t-141 -278t-114.5 -128q-53 0 -185.5 260t-132.5 354.5zM209 1237q0 -61 73.5 -249.5t137.5 -301.5l49 80q-63 127 -122.5 281.5t-60.5 203.5t40 82l-4 13q-113 -27 -113 -109zM887 1214.5 q0 94.5 82 143.5t235.5 49t236.5 -49t83 -141q0 -61 -63.5 -211t-141.5 -278t-115 -128q-53 0 -185 260t-132 354.5zM993 1237q0 -61 74 -249.5t137 -301.5l49 80q-63 123 -122.5 279.5t-60.5 205.5t40 82l-4 13q-113 -27 -113 -109z" />
<glyph unicode="#" horiz-adv-x="1720" d="M102 317l43 164h275l98 369h-274l43 164h276l113 420h164l-113 -420h451l112 420h164l-113 -420h277l-43 -164h-279l-98 -369h277l-43 -164h-277l-113 -419h-163l112 419h-450l-113 -419h-164l113 419h-275zM584 481h450l99 369h-451z" />
<glyph unicode="$" horiz-adv-x="2582" d="M193 0v575h96q61 -139 327.5 -301.5t579.5 -214.5v306q-504 113 -672 196q-82 39 -165 92.5t-122.5 120t-39.5 150.5t34.5 157.5t86 120.5t138.5 81t160.5 51.5t186.5 25.5q166 12 358 12h35v184h102v-188q422 -25 883 -125l37 88h96v-432h-96q-66 94 -360.5 216 t-559.5 161v-281q408 -70 510 -94q465 -113 555 -346q25 -61 25 -133q0 -244 -268.5 -354.5t-800.5 -110.5h-21v-182h-102v184q-383 14 -850 160l-57 -119h-96zM322 942q0 -141 170 -244q201 -123 776 -256q127 -31 198.5 -47t154.5 -37.5t131 -40t97 -45.5q86 -47 144 -133 l8 2v47q0 119 -90 187q-94 70 -204 99.5t-175.5 45t-173 38t-225 50t-238.5 65.5t-244 97q-252 119 -289 313l-14 2q-27 -59 -26 -143zM883 1178q0 -59 79.5 -96.5t233.5 -67.5v272l-53 2q-260 0 -260 -110zM1298 45q78 -4 117 -4q342 0 342 102q0 57 -114.5 101.5 t-344.5 97.5v-297z" />
<glyph unicode="%" horiz-adv-x="2385" d="M41 1019q0 165 153.5 277.5t403.5 112.5t403.5 -111.5t153.5 -277.5t-164 -280.5t-394 -114.5t-393 114.5t-163 279.5zM123 1017.5q0 -102.5 73.5 -193.5t204.5 -140l2 6q-92 59 -145 152.5t-53 175.5t53 175t145 153l-2 6q-131 -49 -204.5 -140.5t-73.5 -194zM430 1022 q0 -168 44 -254t123 -86t124 86t45 254t-37 248t-132 80t-131 -80t-36 -248zM717 -45l807 1417h106l-807 -1417h-106zM801 748l6 -5q53 41 88 114t35 159t-35 158.5t-88 113.5l-6 -4q47 -100 47 -268t-47 -268zM1231 370q0 165 153.5 277.5t403.5 112.5t403.5 -111.5 t153.5 -277.5t-164 -281t-394.5 -115t-393 115t-162.5 280zM1313 368.5q0 -102.5 73.5 -193.5t204.5 -140l2 6q-92 59 -145 152.5t-53 175.5t53 175t145 152l-2 6q-131 -49 -204.5 -140t-73.5 -193.5zM1620 373q0 -168 44 -254t123 -86t124 86t45 254t-37 247.5t-132 79.5 t-131 -79.5t-36 -247.5zM1991 98l6 -4q53 41 88 114t35 159t-35 158.5t-88 113.5l-6 -4q47 -100 47 -268t-47 -269z" />
<glyph unicode="&#x26;" horiz-adv-x="2844" d="M0 358q0 178 209 293q233 129 762 133q-49 137 -49 242q0 82 250.5 137.5t506.5 55.5q174 0 280.5 -58.5t106.5 -139.5t-97 -154.5t-322 -118.5q121 -225 309 -394q209 135 209 240q0 47 -92 47h-107v88h879v-88h-322q-217 -190 -493 -348q264 -205 559 -205h256v-88 h-1145q-84 0 -187 63q-346 -111 -669 -110q-416 0 -630 112.5t-214 292.5zM102 360q0 -141 156 -251l8 6q-66 100 -65.5 244.5t65.5 244.5l-8 8q-156 -111 -156 -252zM741 365q0 -297 303 -297q178 0 383 57q-121 100 -235.5 257t-185.5 318q-137 -12 -201 -87.5t-64 -247.5 zM1051 1016q96 -395 328.5 -668.5t506.5 -273.5q-160 72 -294 193.5t-222 264.5q-166 267 -229 527q-29 -2 -55.5 -16.5t-34.5 -26.5zM1550 1034q0 -84 58 -207q313 59 313 193q0 129 -185.5 129t-185.5 -115z" />
<glyph unicode="'" horiz-adv-x="841" d="M102 1214.5q0 94.5 82 143.5t235.5 49t236.5 -49t83 -141q0 -61 -63.5 -211t-141 -278t-114.5 -128q-53 0 -185.5 260t-132.5 354.5zM209 1237q0 -61 73.5 -249.5t137.5 -301.5l49 80q-63 123 -122.5 279.5t-60.5 205.5t40 82l-4 13q-113 -27 -113 -109z" />
<glyph unicode="(" horiz-adv-x="1648" d="M246 635q0 330 307 561t848 313v-110q-16 -2 -42 -8.5t-91.5 -51.5t-115.5 -117.5t-91 -226t-41 -330t21.5 -300t54 -200.5t73.5 -136.5t82 -87.5q86 -61 129 -68l21 -2v-111q-541 82 -848 313.5t-307 561.5zM375 635q0 -242 195.5 -431.5t533.5 -303.5l6 14 q-262 119 -424 304t-162 416.5t162 417t424 304.5l-6 14q-338 -115 -533.5 -304t-195.5 -431z" />
<glyph unicode=")" horiz-adv-x="1638" d="M236 -129q16 2 41.5 8t91 51t116 118t91 226.5t40.5 329.5t-21.5 300t-54 201t-73.5 136t-82 88q-86 61 -127 68l-22 2v110q541 -82 848 -313t307 -561t-307.5 -561.5t-847.5 -313.5v111zM535 -51l14 -12q109 74 215 231q57 86 93 207t36 256t-36 256t-93 207 q-106 158 -215 231l-14 -12q209 -199 208.5 -682.5t-208.5 -681.5z" />
<glyph unicode="*" horiz-adv-x="1384" d="M102 1110q0 121 58.5 205t118 84t208 -139.5t148.5 -190.5q0 -33 -137.5 -59.5t-249.5 -26.5q-145 0 -146 127zM141 1141q0 -92 147.5 -92t293.5 32l-47 58q-164 -25 -261.5 -25t-107.5 51l-23 -2zM225 721q0 84 174 180t246 96q27 0 27 -87t-34 -225t-75 -171 q-18 -16 -69.5 -16t-120 37.5t-119.5 109.5q-29 37 -29 76zM283 701.5q0 -39.5 32 -72.5l21 6q-6 13 -6 27q0 41 107.5 109.5t183.5 102.5l4 76q-172 -88 -257 -148.5t-85 -100zM481 1516q0 125 212 125t212 -125q0 -66 -87 -239t-125 -173t-125 173t-87 239zM551 1526 q0 -43 48 -164t93 -201l41 64q-117 240 -121 313q0 29 29 49l-6 19q-84 -14 -84 -80zM715 928q-1 71 30 71q66 0 230 -93t182 -148q4 -16 4 -25q0 -57 -61.5 -126.5t-163.5 -102.5q-23 -8 -47 -8q-84 0 -117 106q-57 176 -57 326zM750 1069q0 51 148.5 190.5t207.5 139.5 t117.5 -84t58.5 -205q0 -127 -145 -127q-113 0 -250 26.5t-137 59.5zM762 950q27 -266 98 -364q29 -41 61.5 -41t53.5 12v21q-53 0 -89 100t-55 246zM803 1081q145 -33 260 -32.5t147.5 19.5t32.5 69q0 14 -2 26l-20 4q-10 -53 -108.5 -53t-262.5 25z" />
<glyph unicode="+" d="M205 610v164h471v471h164v-471h471v-164h-471v-471h-164v471h-471z" />
<glyph unicode="," horiz-adv-x="1218" d="M186 210.5q0 106.5 124 182.5t304.5 76t290 -95t109.5 -231q0 -170 -178 -307q-86 -66 -234.5 -105.5t-337.5 -39.5v76q158 0 283 28q236 57 264 195q-104 -35 -203 -35q-174 0 -298 74.5t-124 181zM270 211q0 -55 47.5 -103.5t122.5 -76.5l6 8q-75 72 -75 172t75 172 l-6 8q-76 -29 -123 -77t-47 -103z" />
<glyph unicode="-" d="M205 539v163h1106v-163h-1106z" />
<glyph unicode="." horiz-adv-x="1216" d="M186 210.5q0 106.5 123 182.5t297 76t297 -76t123 -182.5t-123 -181t-297 -74.5t-297 74.5t-123 181zM268 211q0 -55 47 -103.5t123 -76.5l6 8q-75 72 -75 172t75 172l-6 8q-76 -29 -123 -77t-47 -103z" />
<glyph unicode="/" horiz-adv-x="1191" d="M102 -106l820 1478h168l-820 -1478h-168z" />
<glyph unicode="0" horiz-adv-x="2125" d="M55 668q0 299 277.5 501.5t730.5 202.5t730.5 -202.5t277.5 -501.5q0 -195 -135.5 -359t-367 -259t-506 -95t-505.5 95t-366.5 259t-135.5 359zM137 666.5q0 -187.5 129 -343t346 -243.5l4 10q-168 92 -267 242.5t-99 333t99.5 334t266.5 243.5l-4 10 q-217 -88 -346 -243.5t-129 -343zM741 673.5q0 -315.5 84 -475t236.5 -159.5t237.5 160.5t85 475t-69.5 464t-251.5 149.5t-252 -149.5t-70 -465zM1409 109l10 -7q88 95 147.5 249.5t59.5 315t-59.5 315.5t-147.5 249l-10 -6q100 -250 100 -557.5t-100 -558.5z" />
<glyph unicode="1" horiz-adv-x="1894" d="M117 922l655 409h1006v-88h-160q-90 0 -155.5 -66.5t-65.5 -158.5v-707q0 -115 61.5 -169t159.5 -54h160v-88h-1469v88h160q98 0 159.5 54.5t61.5 168.5v576q0 164 33 264l10 33l-530 -367zM827 88h134v1155h-134v-1155z" />
<glyph unicode="2" horiz-adv-x="2066" d="M102 0v135q276 82 488.5 188.5t334.5 193.5t205.5 204t83.5 219t-24.5 168t-59 99.5t-79.5 54.5q-70 29 -129 28q-231 0 -434 -172t-242 -377h-72v557h72v-110q319 184 760 184q295 0 589 -78q156 -41 255.5 -125t99.5 -198.5t-126 -231t-312.5 -209t-438.5 -180.5 q-410 -143 -880 -254v-10q958 2 1677 217v168h72v-471h-1840zM1069 520l4 -10q51 14 116.5 53t112 84t84 126t37.5 154.5t-20.5 123t-50.5 84.5q-59 72 -107 102l-20 12l-6 -6q109 -109 108 -287q0 -131 -80 -244.5t-178 -191.5z" />
<glyph unicode="3" horiz-adv-x="2099" d="M106 12v424h72q63 -166 289.5 -282.5t482.5 -116.5q162 0 259.5 92t97.5 234.5t-95.5 231.5t-248 89t-247.5 -51t-95 -150h-70v457h70q0 -180 284 -180q147 0 233.5 71.5t86.5 186.5t-80 193.5t-258 78.5t-362.5 -104.5t-278.5 -296.5h-72v391h72v-86q133 59 215 90 t224 59.5t300 28.5q383 0 624.5 -105.5t241.5 -244.5q0 -109 -181 -194t-458 -111q362 -25 572.5 -122.5t210.5 -240.5q0 -109 -135.5 -201t-367.5 -145t-507 -53q-471 0 -807 145v-88h-72zM1268 793l10 -7q72 45 115 110t43 130.5t-43 130t-115 109.5l-10 -6 q68 -119 67.5 -234t-67.5 -233zM1341 76l9 -8q70 55 112.5 129.5t42.5 150.5q0 156 -155 281l-9 -11q66 -111 66 -271.5t-66 -270.5z" />
<glyph unicode="4" horiz-adv-x="2072" d="M117 365v86l833 880h1006v-88h-160q-90 0 -155.5 -66.5t-65.5 -158.5v-567h383v-86h-383v-56q0 -115 61.5 -168t159.5 -53h160v-88h-1469v88h158q100 0 161.5 53.5t61.5 167.5v56h-751zM293 451h575v419q0 176 33 265l10 32zM1006 86h133v1157h-133v-1157z" />
<glyph unicode="5" horiz-adv-x="2088" d="M100 571l619 787h41q6 -27 160 -27h895q96 0 127 27l47 -27l-519 -256h-882l-248 -317q182 72 325.5 103.5t334 31.5t338 -23.5t294 -72.5t238.5 -143.5t92 -221.5t-99.5 -223t-260.5 -150q-317 -104 -697 -104q-190 0 -372.5 34t-270.5 66l-88 33v-88h-72v408h72 q66 -78 121 -131.5t143 -114.5q182 -125 463 -125q115 0 194 37t113 98q66 109 66 231q0 381 -516 381q-106 0 -210 -25.5t-175 -62.5q-143 -72 -209 -131l-29 -26zM1196 784l18 -12q12 -8 41 -39t51.5 -69.5t41 -107.5t18.5 -146.5t-13.5 -144t-31.5 -105.5 q-39 -82 -68 -105l-14 -10l2 -8q29 6 74 34.5t74.5 66.5t54 111t24.5 164t-27.5 163.5t-66.5 111.5t-79 63.5t-67.5 34t-27.5 7.5z" />
<glyph unicode="6" horiz-adv-x="2246" d="M117 658.5q0 205.5 145.5 371.5t384 254t520.5 88q195 0 368 -32.5t251 -65.5l76 -31v74h69v-342h-69q-43 43 -124 103.5t-153 102.5t-170 75.5t-186 33.5q-422 0 -422 -557q104 49 280.5 89t334 40t318.5 -45t275.5 -143.5t114.5 -225t-89 -224t-239 -154.5 q-307 -115 -694 -115q-248 0 -473 85t-371.5 249t-146.5 369.5zM229 659.5q0 -112.5 40 -211t96 -157.5q117 -125 208 -164l39 -18l6 10q-10 8 -29.5 23.5t-66.5 67.5t-83 110.5t-65.5 150.5t-29.5 188.5t33 187.5t78 152q96 127 172 177l32 22l-6 12q-61 -23 -141 -74 t-135 -108t-101.5 -156.5t-46.5 -212zM805 567q0 -313 76 -420q31 -47 92 -79.5t152.5 -32.5t158 31.5t98 70.5t50 101.5t20.5 97.5t2 86q0 139 -64.5 240.5t-193.5 101.5q-82 0 -179 -27.5t-155 -56.5l-57 -29v-84zM1452 786q12 -10 30.5 -33.5t49.5 -114.5t31 -206 t-28 -207t-54 -127l-27 -32l6 -9q131 66 178 224q23 70 23 151.5t-21.5 149t-50.5 106.5q-61 76 -110 98l-23 9z" />
<glyph unicode="7" horiz-adv-x="2265" d="M98 819v512h2050v-92h-188q-45 -23 -118 -75t-132 -107.5t-132 -144.5t-124 -185h305v-90h-346q-78 -190 -78 -399q0 -61 11 -150h303v-88h-990q0 305 166 637h-329v90h376q80 143 183.5 278.5t165.5 198.5l63 64q-39 6 -121 6t-185.5 -16.5t-247.5 -58.5t-295.5 -140 t-278.5 -240h-58zM201 1004l84 63v172h-84v-235zM791 88h110q0 178 64.5 365.5t156.5 328.5q180 279 340 426l64 62h-111q-25 -23 -67.5 -63t-150 -168t-189.5 -260t-149.5 -322.5t-67.5 -368.5z" />
<glyph unicode="8" horiz-adv-x="2248" d="M117 356q0 129 168 229.5t460 143.5v8q-219 41 -352 122t-133 179q0 141 238.5 237.5t626.5 96.5t627 -96.5t239 -237.5q0 -98 -133.5 -179t-352.5 -122v-8q293 -43 460 -143.5t167 -229.5q0 -109 -135 -201t-366.5 -146t-506 -54t-506 54t-366.5 146.5t-135 200.5z M229 356.5q0 -98.5 116 -182.5t312 -133l5 8q-145 51 -231.5 132t-86.5 175.5t84 175t229 132.5l-4 8q-197 -51 -310.5 -134t-113.5 -181.5zM377 1040.5q0 -79.5 93 -148.5t253 -114l4 8q-252 98 -252 252q0 78 69.5 145.5t190.5 112.5l-2 9q-164 -41 -260 -113t-96 -151.5z M803 366q0 -171 84 -256t237.5 -85t237.5 85t84 250.5t-74 256t-244 90.5t-247.5 -85t-77.5 -256zM805 1034q0 -279 320.5 -278.5t320.5 278.5q0 150 -69.5 218.5t-251 68.5t-251 -68.5t-69.5 -218.5zM1479 788l8 -6q160 106 160 257t-158 257l-8 -8q66 -127 65.5 -251 t-67.5 -249zM1491 57l8 -6q186 117 186.5 304.5t-188.5 308.5l-4 -9q80 -147 80 -300.5t-82 -297.5z" />
<glyph unicode="9" horiz-adv-x="2226" d="M117 856q0 147 149.5 265t375.5 178.5t478 60.5t474.5 -82t368.5 -250t146 -381t-145 -371.5t-383 -239.5t-520 -81q-195 0 -369 24.5t-250 49.5l-75 26v-69h-72v338h72q35 -35 119.5 -92.5t155.5 -95.5t170 -68.5t187 -30.5q225 0 322.5 133t97.5 395q-31 -14 -86 -35.5 t-212.5 -56.5t-294 -35t-255 22.5t-224 70t-168 131t-62.5 194.5zM246 843.5q0 -69.5 24.5 -125.5t55 -87t71.5 -53.5t57.5 -27.5t28.5 -9l2 6q-92 61 -129 184q-14 53 -14 113q0 186 139 309l-2 6q-27 -6 -74 -35.5t-77.5 -61.5t-56 -90.5t-25.5 -128zM772 893 q0 -158 64.5 -257t195.5 -99q82 0 179.5 28.5t152.5 57.5l57 28v131q0 109 -8 181.5t-37 152.5q-61 162 -270 162q-334 0 -334 -385zM1391 57l4 -6q10 8 28.5 22.5t65.5 68t83 115.5t65.5 165.5t29.5 216.5t-21.5 215t-51 169t-60.5 115t-51.5 70.5t-22.5 20.5l-6 -4 q10 -16 26.5 -52t44 -186.5t27.5 -326t-41 -320.5t-81 -213z" />
<glyph unicode=":" horiz-adv-x="1216" d="M186 210.5q0 106.5 123 182.5t297 76t297 -76t123 -182.5t-123 -181t-297 -74.5t-297 74.5t-123 181zM186 1040.5q0 106.5 123 182t297 75.5t297 -75.5t123 -182t-123 -181.5t-297 -75t-297 75t-123 181.5zM268 211q0 -55 47 -103.5t123 -76.5l6 8q-75 72 -75 172t75 172 l-6 8q-76 -29 -123 -77t-47 -103zM268 1040.5q0 -55.5 47 -103.5t123 -77l6 8q-75 72 -75 172.5t75 171.5l-6 9q-76 -29 -123 -77t-47 -103.5z" />
<glyph unicode=";" horiz-adv-x="1218" d="M186 210.5q0 106.5 124 182.5t304.5 76t290 -95t109.5 -231q0 -170 -178 -307q-86 -66 -234.5 -105.5t-337.5 -39.5v76q158 0 283 28q236 57 264 195q-104 -35 -203 -35q-174 0 -298 74.5t-124 181zM201 1040.5q0 106.5 122.5 182t297 75.5t297 -75.5t122.5 -182 t-122.5 -181.5t-297 -75t-297 75t-122.5 181.5zM270 211q0 -55 47.5 -103.5t122.5 -76.5l6 8q-75 72 -75 172t75 172l-6 8q-76 -29 -123 -77t-47 -103zM283 1040.5q0 -55.5 47 -103.5t123 -77l6 8q-76 72 -76 172.5t76 171.5l-6 9q-76 -29 -123 -77t-47 -103.5z" />
<glyph unicode="&#x3c;" d="M219 633v123l979 454l70 -145l-824 -371l824 -370l-70 -146z" />
<glyph unicode="=" d="M205 385v164h1106v-164h-1106zM205 836v163h1106v-163h-1106z" />
<glyph unicode="&#x3e;" d="M219 324l823 370l-823 371l70 145l979 -454v-123l-979 -455z" />
<glyph unicode="?" horiz-adv-x="2236" d="M199 1098v540h86v-133q346 98 743 99q983 -1 983 -357q0 -160 -161.5 -298t-429 -219t-566.5 -81q-27 0 -162 4v92q127 -4 201 -4q150 0 232.5 85t82.5 307q0 266 -57 335q-29 35 -53.5 46.5t-61.5 11.5q-207 0 -456.5 -143.5t-294.5 -284.5h-86zM545 231.5 q0 118.5 138 201.5t332.5 83t331 -83t136.5 -201.5t-136.5 -201.5t-331 -83t-332.5 83t-138 201.5zM696 231.5q0 -61.5 47.5 -116t122.5 -82.5l6 10q-75 80 -75 188.5t75 188.5l-6 10q-76 -31 -123 -84t-47 -114.5zM1245 786l12 -18q43 20 84 55t83 129.5t42 202t-22.5 177 t-59.5 110.5q-63 72 -127 96l-12 -16q90 -143 90 -360.5t-90 -375.5z" />
<glyph unicode="@" horiz-adv-x="2617" d="M102 497.5q0 180.5 71 343.5t204 294t347 208.5t445.5 77.5t376 -15t277.5 -56q268 -84 268 -332v-981h-504l-49 106q-168 -145 -364.5 -145t-314.5 126t-118 297t126 294t362 123q180 0 276 -7v185q0 303 -303 303q-147 0 -270 -72.5t-202 -192.5t-122 -269.5 t-43 -307.5t43 -299t125 -257t220.5 -184.5t312.5 -68.5q315 0 584.5 131t426 357.5t156.5 492.5h123q0 -299 -173 -553t-470 -402.5t-647 -148.5q-281 0 -508.5 82t-366.5 218.5t-214 304t-75 348zM225 499.5q0 -229.5 117 -445.5t303 -296l6 17q-129 100 -212 298.5 t-83 426t82 425t211 296.5l-6 16q-186 -82 -302 -295t-116 -442.5zM844 419.5q0 -108.5 74.5 -203.5t203.5 -146l4 14q-90 59 -135 152.5t-45 183.5t45 183t135 153l-4 14q-131 -53 -204.5 -147.5t-73.5 -203zM1229 472q0 -99 49 -166.5t143 -67.5q37 0 84 10v479 q-27 2 -82 2q-92 0 -143 -79t-51 -178zM1481 1313q131 -52 131 -238v-923h131v923q0 68 -64.5 150t-191.5 108z" />
<glyph unicode="A" horiz-adv-x="2861" d="M-29 0v88q63 0 133 32t123.5 77t98.5 92t68.5 77.5t23.5 32.5l526 670l-51 64q-49 59 -103.5 84.5t-148.5 25.5h-162v88h1172l1003 -1243h234v-88h-1538v88h151q53 0 87 23.5t34 70.5t-59 121l-76 94h-907q-60 -93 -60 -164q0 -69 43 -107t111 -38h190v-88h-893zM657 496 h752l-385 475zM969 1243l932 -1155h157l-932 1155h-157z" />
<glyph unicode="B" horiz-adv-x="3033" d="M150 0v88h245q100 0 160.5 53.5t60.5 167.5v709q0 92 -64.5 158.5t-156.5 66.5h-245v88h1970q401 0 542 -78q127 -74 127 -215q0 -74 -30.5 -133t-79.5 -96q-88 -66 -164 -92v-10q98 -16 229 -84q74 -39 120 -108t46 -155t-43 -151.5t-108.5 -103t-153.5 -62.5 q-154 -43 -324 -43h-2131zM756 88h133v1155h-133v-1155zM1417 297q0 -209 172 -209h187q123 0 216 68.5t93 217t-91 219.5t-241 71h-336v-367zM1417 741h322q104 0 186 64.5t82 185.5t-90 185.5t-258 64.5q-113 0 -177.5 -54.5t-64.5 -146.5v-299zM2091 754l6 -9 q98 33 159.5 93.5t61.5 140.5t-61.5 141.5t-159.5 89.5l-6 -6q82 -102 82 -226t-82 -224zM2130 653q127 -111 127 -275.5t-125 -273.5l4 -8q119 39 191.5 113t72.5 169t-72.5 170t-191.5 114z" />
<glyph unicode="C" horiz-adv-x="2246" d="M45 671.5q0 184.5 112.5 327t297.5 222.5q371 159 829 159h6q317 0 735 -151v102h99v-489h-99q-88 166 -304 307t-441 141q-168 0 -238.5 -78.5t-70.5 -218.5v-561q0 -209 89 -300t288.5 -91t354.5 39t236.5 87t147 87t84.5 39q49 0 49 -41q0 -57 -213 -166 q-266 -131 -643 -131q-549 0 -922 168q-186 82 -291.5 223t-105.5 325.5zM166 663.5q0 -186.5 155.5 -332t407.5 -210.5l2 10q-186 80 -303 212t-117 320.5t117 334t303 231.5l-2 10q-250 -70 -406.5 -229.5t-156.5 -346z" />
<glyph unicode="D" horiz-adv-x="3008" d="M143 0v88h246q100 0 161.5 53.5t61.5 169.5v709q0 90 -65.5 156.5t-157.5 66.5h-246v88h1563q504 0 860 -143q182 -72 288.5 -200t106.5 -295t-75.5 -294t-189 -199.5t-263.5 -119.5q-256 -80 -539 -80h-1751zM750 88h133v1155h-133v-1155zM1409 297q0 -209 172 -209h186 q121 0 201 88q141 154 141 488q0 577 -454 577h-2q-113 0 -178.5 -54t-65.5 -147v-743zM2114 109l4 -7q340 193 340 561.5t-340 561.5l-4 -6q178 -242 178 -555.5t-178 -554.5z" />
<glyph unicode="E" horiz-adv-x="2785" d="M150 0v88h245q223 0 223 221v709q0 92 -65.5 158.5t-157.5 66.5h-245v88h2471v-471h-59q-119 160 -344 269.5t-571 109.5q-106 0 -169 -55.5t-63 -143.5v-69q0 -209 180 -209q139 0 294 78t204 182h76v-625h-76q-47 109 -198.5 175.5t-299.5 66.5q-96 0 -138 -53.5 t-42 -128.5v-74q0 -158 32 -226.5t144 -68.5h51q115 0 189 3t188.5 22.5t198.5 53.5t178 102.5t166 164.5h59v-434h-2471zM756 88h135v1155h-135v-1155z" />
<glyph unicode="F" horiz-adv-x="2529" d="M150 0v88h245q100 0 160.5 53.5t60.5 169.5v707q0 92 -64.5 158.5t-156.5 66.5h-245v88h2324v-383h-57q-55 59 -82 84t-97.5 74t-140.5 74q-184 61 -450 61q-106 0 -168 -55.5t-62 -145.5v-69q0 -209 178 -209q125 0 221.5 52t151.5 134h76v-512h-76q-49 113 -140 159 t-233 46q-96 0 -137 -53t-41 -131v-156q0 -135 51.5 -174t190.5 -39h205v-88h-1714zM756 88h133v1155h-133v-1155z" />
<glyph unicode="G" horiz-adv-x="2809" d="M45 672q0 708 1241 708h4q461 0 920 -137v88h98v-432h-98q-98 152 -326.5 270.5t-482.5 118.5q-193 0 -311.5 -73.5t-118.5 -227.5v-571q0 -373 399 -373q115 0 213 55q55 33 88 99.5t33 160.5v148q0 86 -71.5 146.5t-162.5 60.5h-235v88h1638v-88h-389v-713h-98 q0 57 -38 93t-96.5 36t-142.5 -27.5t-173 -60.5t-244.5 -60.5t-355 -27.5t-394 24.5t-361.5 79t-285 137t-184.5 204.5t-66.5 274zM174 686q0 -184 123 -334.5t317 -214.5l2 8q-131 78 -210.5 222.5t-79.5 317.5t79.5 316.5t210.5 219.5l-4 10q-195 -63 -316.5 -212 t-121.5 -333zM1841 305q0 -160 31 -160q37 0 69.5 89t32.5 206v269h-133v-404z" />
<glyph unicode="H" horiz-adv-x="3504" d="M150 0v88h245q100 0 160.5 52.5t60.5 168.5v709q0 92 -64.5 158.5t-156.5 66.5h-245v88h1544v-88q-158 0 -217.5 -52t-59.5 -151v-280h656v280q0 98 -59.5 150.5t-217.5 52.5v88h1546v-88h-247q-90 0 -157 -67.5t-67 -157.5v-709q0 -115 61.5 -168t162.5 -53h247v-88 h-1546v88q195 0 240 57q25 31 31 58.5t6 81.5v276q0 90 -86 90h-484q-86 0 -86 -90v-282q0 -53 6.5 -80t30.5 -56q45 -55 240 -55v-88h-1544zM756 88h133v1155h-133v-1155zM2214 88h133v1155h-133v-1155z" />
<glyph unicode="I" horiz-adv-x="2054" d="M150 0v88h249q100 0 162 53.5t62 167.5v709q0 92 -65.5 158.5t-158.5 66.5h-249v88h1742v-88h-247q-92 0 -158 -66.5t-66 -158.5v-709q0 -115 61.5 -168t162.5 -53h247v-88h-1742zM760 88h133v1155h-133v-1155z" />
<glyph unicode="J" horiz-adv-x="2228" d="M-29 0v537h101q25 -59 96.5 -157.5t144 -164t191.5 -119t233 -53.5q240 0 240 221v754q0 94 -60.5 159.5t-162.5 65.5h-248v88h1696v-88h-203q-104 0 -163.5 -65.5t-59.5 -159.5v-617q0 -109 -42 -187.5t-141 -139.5q-195 -119 -666.5 -119t-854.5 149v-104h-101z M1114 131q131 53 131 295v817h-131v-1112z" />
<glyph unicode="K" horiz-adv-x="3389" d="M150 0v88h245q100 0 160.5 53.5t60.5 167.5v711q0 92 -64.5 157.5t-156.5 65.5h-245v88h1724v-88h-227q-106 0 -168 -55t-62 -146v-217q0 -118 117 -118h2h41q76 0 192 53l404 182q131 59 188.5 107.5t57.5 102.5t-62.5 72.5t-224.5 18.5v88h1212v-88h-219 q-76 0 -233 -65q-190 -80 -402 -199q-61 -37 -61 -83t31 -83l610 -725h274v-88h-1138l-541 606h-162q-86 0 -86 -90v-207q0 -115 61.5 -168t161.5 -53h148v-88h-1638zM756 88h133v1155h-133v-1155zM1792 664l514 -576h178l-514 576h-178z" />
<glyph unicode="L" horiz-adv-x="2557" d="M150 0v88h245q100 0 160.5 52.5t60.5 168.5v709q0 92 -64.5 158.5t-156.5 66.5h-245v88h1832v-88h-342q-92 0 -157.5 -66.5t-65.5 -158.5v-709q0 -221 223 -221q172 0 375 94q109 51 225.5 155.5t221.5 252.5h69v-590h-2381zM756 88h133v1155h-133v-1155z" />
<glyph unicode="M" horiz-adv-x="3805" d="M45 1243v88h1325l629 -534l344 534h1395v-88h-342q-100 0 -162 -40t-62 -126v-768q0 -115 61.5 -168t162.5 -53h342v-88h-1833v88h245q100 0 162 53.5t62 167.5v836l-627 -971h-107l-790 668v-275q0 -125 61.5 -222t159.5 -150q197 -106 424 -107v-88h-1423v88 q227 0 424 107q98 53 159.5 150t61.5 222v215q0 135 -98.5 243t-250 163t-323.5 55zM606 1239l1055 -893h51v129l-901 764h-205zM2511 88h133v1155h-133v-1155z" />
<glyph unicode="N" horiz-adv-x="3162" d="M47 1243v88h1534l713 -448q156 -98 192 -99q47 0 47 56q0 403 -467 403v88h1065v-88q-467 0 -467 -403v-926h-184l-1425 862q-51 29 -103 29q-102 0 -102 -143v-95q0 -127 61.5 -223t161.5 -149q197 -106 422 -107v-88h-1423v88q223 0 424 107q98 53 159.5 149t61.5 223 v215q0 135 -98.5 243t-250 163t-321.5 55zM729 1130l1751 -1058v147l-1696 1024h-55v-113z" />
<glyph unicode="O" horiz-adv-x="2754" d="M45 666q0 301 366.5 503.5t964.5 202.5t964.5 -202.5t366.5 -503.5q0 -193 -178 -357t-484 -259t-668.5 -95t-669 95t-484.5 259t-178 357zM156 665.5q0 -186.5 171 -341t459 -242.5l2 8q-221 88 -352 240.5t-131 335t134 336t358 241.5l-2 8q-291 -86 -465 -242.5 t-174 -343zM952 672.5q0 -314.5 111 -474t313.5 -159.5t313 159.5t110.5 475t-91 465t-331.5 149.5t-333 -150.5t-92.5 -465zM1849 100l13 -4q119 109 188.5 259.5t69.5 310t-70 310t-188 259.5l-13 -4q117 -289 117 -565.5t-117 -565.5z" />
<glyph unicode="P" horiz-adv-x="2963" d="M150 0v88h247q100 0 162 53.5t62 167.5v709q0 92 -66 158.5t-158 66.5h-247v88h2066q721 0 721 -370q0 -379 -639 -379h-764q-57 0 -85 -33t-28 -107v-133q0 -115 60.5 -168t160.5 -53h250v-88h-1742zM758 88h135v1155h-135v-1155zM1423 776q0 -41 30 -71.5t73 -30.5h207 q164 0 274 119q61 68 61 166t-61 165q-111 119 -274 119h-207q-43 0 -73 -30.5t-30 -73.5v-363zM2163 688l10 -6q80 29 138.5 109.5t58.5 166.5t-58.5 167t-138.5 110l-10 -6q66 -99 66 -268q0 -172 -66 -273z" />
<glyph unicode="Q" horiz-adv-x="2754" d="M45 666q0 303 366.5 505.5t964.5 202.5t964.5 -202.5t366.5 -505.5q0 -178 -154.5 -333t-421.5 -253t-593 -119q-61 -80 -61 -178q0 -53 20.5 -86t56.5 -33h322v-88h-1002v88q74 156 433 285v8q-346 10 -636 106.5t-458 256t-168 346.5zM156 665.5q0 -186.5 171 -341 t459 -242.5l2 8q-221 88 -352 240.5t-131 335t134 336t358 241.5l-2 8q-291 -86 -465 -242.5t-174 -343zM952 674.5q0 -314.5 111 -474t313.5 -159.5t313 159.5t110.5 474t-91 464t-331.5 149.5t-333 -149.5t-92.5 -464zM1018 -336h125q0 78 203 250l-5 6 q-90 -33 -206.5 -118t-116.5 -138zM1849 100l13 -4q119 109 188.5 259.5t69.5 310t-70 310t-188 259.5l-13 -4q117 -289 117 -565.5t-117 -565.5z" />
<glyph unicode="R" horiz-adv-x="3246" d="M150 0v88h247q102 0 163 53.5t61 169.5v707q0 92 -66 158.5t-158 66.5h-247v88h2199q381 0 555 -96q72 -39 119 -108.5t47 -162t-49 -157t-122 -101t-183 -59.5q-182 -37 -422 -41v-10q51 -43 160.5 -89t246.5 -67l275 -352h241v-88h-1214l-410 524q-66 86 -108.5 86 t-53 -30.5t-10.5 -114.5v-154q0 -117 60.5 -170t160.5 -53h154v-88h-1646zM758 88h135v1155h-135v-1155zM1423 846q0 -53 100.5 -92t237.5 -39t238.5 59.5t101.5 171t-61 178.5q-111 119 -275 119h-239q-43 0 -73 -30.5t-30 -73.5v-293zM1692 610l405 -522h170l-405 522 h-170zM2230 1225q62 -91 62 -267q0 -172 -60 -264l6 -6q86 23 140.5 98.5t54.5 173t-55.5 172t-141.5 99.5z" />
<glyph unicode="S" horiz-adv-x="2582" d="M193 0v575h96q33 -76 139.5 -167t256 -173.5t346 -138t384.5 -55.5q342 0 342 102q0 63 -160.5 117.5t-390 105t-459 114t-390 174.5t-160.5 261q0 92 34.5 166t86 121t138.5 81t160.5 51.5t186.5 25.5q166 12 362.5 12t497.5 -40t518 -89l37 88h96v-432h-96 q-78 111 -447.5 250t-628.5 139t-259 -110q0 -104 299 -160q133 -25 292.5 -49.5t320.5 -64.5t294 -95t216 -154.5t83 -232.5q0 -244 -268.5 -354.5t-800.5 -110.5q-268 0 -482 39t-491 123l-57 -119h-96zM322 942q0 -141 170 -244q201 -123 776 -256q127 -31 198.5 -47 t154.5 -37.5t131 -40t97 -45.5q86 -47 144 -133l8 2v47q0 119 -90 187q-94 70 -204 99.5t-175.5 45t-173 38t-225 50t-238.5 65.5t-244 97q-252 119 -289 313l-14 2q-26 -57 -26 -137v-6z" />
<glyph unicode="T" horiz-adv-x="2260" d="M135 748v583h2026v-583h-78q-33 47 -115 151.5t-140.5 170t-121.5 118.5t-98 53q-78 0 -78 -100v-830q0 -117 61.5 -170t161.5 -53h248v-88h-1741v88h248q100 0 160.5 53.5t60.5 169.5v830q0 100 -76 100q-35 0 -97 -51t-126 -123q-127 -143 -217 -268l-37 -51h-41z M868 88h133v1155h-133v-1155z" />
<glyph unicode="U" horiz-adv-x="2492" d="M82 1243v88h1354v-88h-33q-100 0 -160.5 -52t-60.5 -169v-680q0 -147 54 -213t196.5 -66t249 23t160.5 66t75.5 91t21.5 113v486q0 100 -29.5 177t-70.5 118t-98 67q-90 39 -191 39v88h932v-88q-88 0 -151.5 -14.5t-126.5 -52.5q-131 -80 -131 -334v-391q0 -219 -66 -304 q-78 -98 -213 -139q-182 -53 -447.5 -53t-449.5 27.5t-281.5 66.5t-152.5 99.5t-68.5 106.5t-13.5 107v660q0 117 -60.5 169t-160.5 52h-78zM520 430q0 -180 84 -233q27 -16 49 -17v1063h-133v-813z" />
<glyph unicode="V" horiz-adv-x="2578" d="M-29 1243v88h1442v-88h-57q-61 0 -95 -43t-34 -108q0 -98 71 -170l383 -390l267 291q61 63 61 158.5t-102.5 178.5t-257.5 83h-103v88h1061v-88h-104l-1164 -1290h-73l-1157 1290h-138zM289 1243l1044 -1165l82 92l-962 1073h-164z" />
<glyph unicode="W" horiz-adv-x="4153" d="M-29 1243v88h1442v-88h-57q-61 0 -95 -43t-34 -108q0 -98 71 -170l383 -390l322 355l-320 356h-137v88h1442v-88h-55q-61 0 -95 -43t-34 -108q0 -98 71 -170l379 -390l269 291q61 63 61 159.5t-102.5 178.5t-259.5 82h-101v88h1059v-88h-100l-1166 -1290h-73l-750 831 l-752 -831h-73l-1157 1290h-138zM289 1243l1044 -1165l82 92l-962 1073h-164zM1864 1243l1044 -1165l82 92l-962 1073h-164z" />
<glyph unicode="X" horiz-adv-x="2811" d="M27 0v88h69q193 0 443 160l557 358l-400 412q-90 92 -219 158.5t-221 66.5h-125v88h1407v-88h-37q-94 0 -94 -72q0 -66 88 -153l154 -158l57 39q178 121 178 219q0 55 -36 90t-87 35h-39v86h996v-86h-68q-178 0 -440 -168l-471 -305l446 -461q216 -221 441 -221h159v-88 h-1487v88h82q109 0 109 59q0 53 -103 162l-204 211l-142 -92q-178 -117 -178 -219q0 -55 35 -88t88 -33h195v-88h-1153zM641 1243l1131 -1155h157l-1130 1155h-158z" />
<glyph unicode="Y" horiz-adv-x="2680" d="M-29 1243v88h1534v-88h-57q-45 0 -71.5 -26.5t-26.5 -67.5q0 -70 61 -129l264 -262l121 98q147 119 148 238q0 66 -53.5 107.5t-149.5 41.5h-103v88h1072v-88h-136l-899 -647v-287q0 -115 61.5 -168t161.5 -53h248v-88h-1743v88h250q100 0 160.5 53.5t60.5 167.5v244 l-696 690h-207zM360 1243l654 -645v-510h133v539l-625 616h-162z" />
<glyph unicode="Z" horiz-adv-x="2402" d="M111 0v88h47l1124 1155h-117q-141 0 -269 -27.5t-213 -63.5t-172 -95.5t-127 -96t-95 -92.5h-60v463h2063v-88h-43l-1127 -1155h242q360 0 567 135q100 66 154.5 116t116.5 124h59v-463h-2150zM338 88h174l1116 1155h-166z" />
<glyph unicode="[" horiz-adv-x="1443" d="M307 -195v1659h1178v-92h-248q-92 0 -157.5 -65.5t-65.5 -155.5v-1036q0 -115 61.5 -168t161.5 -53h248v-89h-1178zM444 -106h134v1478h-134v-1478z" />
<glyph unicode="\" horiz-adv-x="1191" d="M102 1372h168l820 -1478h-168z" />
<glyph unicode="]" horiz-adv-x="1464" d="M-20 -106h247q100 0 162 53t62 168v1036q0 90 -66 155.5t-158 65.5h-247v92h1177v-1659h-1177v89zM588 -106h133v1478h-133v-1478z" />
<glyph unicode="^" d="M293 457l414 762h102l414 -762l-136 -70l-329 619l-330 -619z" />
<glyph unicode="_" horiz-adv-x="2068" d="M205 -41h1659v-164h-1659v164z" />
<glyph unicode="`" horiz-adv-x="1331" d="M102 1577h596q84 -119 196 -172t335 -53v-74h-111q-553 0 -712 37q-145 33 -218 119q-68 78 -79 122zM252 1520q102 -150 338 -162v8q-57 18 -119.5 60t-87.5 94h-131z" />
<glyph unicode="a" horiz-adv-x="2433" d="M-29 0v88q98 0 179 35t112 70l33 34l520 666l-57 72q-29 35 -45 51q-47 39 -166 39h-144v88h1006l848 -1055h203v-88h-1319v88h135q43 0 69.5 17.5t26.5 56.5t-47 98l-63 80h-766q-47 -80 -47 -136.5t34.5 -86t89.5 -29.5h168v-88h-770zM561 424h633l-322 401zM866 1055 l781 -967h122l-778 967h-125z" />
<glyph unicode="b" horiz-adv-x="2572" d="M150 0v88h215q182 0 182 180v602q0 74 -54.5 129.5t-127.5 55.5h-215v88h1644q326 0 434 -41q123 -45 156 -119q20 -45 20 -113.5t-44 -129t-88 -86t-91 -40.5v-8q94 -16 197 -76q57 -32 94 -89.5t37 -137.5t-54.5 -145.5t-140.5 -96.5q-166 -61 -346 -61h-1818zM676 88 h102v967h-102v-967zM1239 260q0 -172 139 -172h160q104 0 181 56.5t77 178t-77 181t-199 59.5h-281v-303zM1239 641h266q88 0 156 53.5t68 153.5t-76 153.5t-191.5 53.5t-169 -45t-53.5 -121v-248zM1815 643l8 -8q74 29 123 86t49 116.5t-49.5 116t-122.5 84.5l-8 -6 q68 -95 68 -193q0 -99 -68 -196zM1862 90l6 -8q88 33 141 100.5t53 143t-53 143.5t-141 100l-6 -8q90 -100 90 -235.5t-90 -235.5z" />
<glyph unicode="c" horiz-adv-x="1931" d="M45 574.5q0 158.5 96.5 281.5t253.5 193q315 139 713 139q266 0 621 -125v82h96v-426h-92q-88 123 -270.5 252t-362.5 129q-258 0 -258 -250v-481q0 -176 74.5 -253t239.5 -77t295 33.5t202.5 72.5t130 73t74.5 34q47 0 47 -41q0 -51 -185 -145q-225 -111 -551 -111 q-473 0 -786 143q-158 74 -248 196t-90 280.5zM158 571.5q0 -153.5 121.5 -281.5t308.5 -204l4 8q-143 82 -232.5 204t-89.5 274.5t89.5 274.5t232.5 204l-4 8q-186 -76 -308 -205t-122 -282.5z" />
<glyph unicode="d" horiz-adv-x="2596" d="M143 0v88h215q184 0 185 182v602q0 74 -54.5 128.5t-130.5 54.5h-215v88h1336q432 0 735 -123q156 -61 247 -171t91 -253t-65.5 -251.5t-163 -172t-226.5 -102.5q-219 -70 -461 -70h-1493zM672 86h100v969h-100v-969zM1231 258q0 -170 141 -170h158q100 0 166 72 q119 127 119 409q0 485 -383 486q-92 0 -146.5 -45t-54.5 -119v-633zM1835 106l8 -6q127 72 196.5 198t69.5 271.5t-69.5 271.5t-196.5 197l-8 -6q145 -190 145 -462.5t-145 -463.5z" />
<glyph unicode="e" horiz-adv-x="2424" d="M150 0v88h215q182 0 182 180v604q0 74 -53.5 128.5t-128.5 54.5h-215v88h2111v-410h-59q-98 135 -290 228.5t-485 93.5q-88 0 -138 -45t-50 -119v-82q0 -150 145 -150q117 0 247 67t171 155h76v-541h-76q-41 92 -168 148.5t-250 56.5q-145 0 -145 -150v-137 q0 -170 139 -170h158q451 0 666 293h59v-381h-2111zM674 88h104v967h-104v-967z" />
<glyph unicode="f" horiz-adv-x="2191" d="M150 0v88h215q182 0 182 182v600q0 76 -53.5 130.5t-128.5 54.5h-215v88h1986v-338h-55q-45 53 -85 89t-116 77q-152 84 -453 84q-88 0 -138 -46t-50 -118v-84q0 -150 145 -150q104 0 186.5 45.5t129.5 114.5h74v-446h-76q-41 96 -118 135t-196 39q-145 0 -145 -150v-135 q0 -96 30.5 -134t108.5 -38h240v-88h-1468zM676 88h102v967h-102v-967z" />
<glyph unicode="g" horiz-adv-x="2394" d="M45 592q0 174 84 295t240 184q283 117 715 117t800 -109v74h96v-377h-92q-74 106 -277.5 218t-385.5 112q-383 0 -383 -254v-494q0 -229 166 -292q68 -25 141.5 -25t116.5 10t88 37t72.5 82t27.5 133v125q0 70 -59.5 120t-132.5 50h-205v86h1403v-86h-332v-606h-92 q0 49 -31 79.5t-83 30.5t-155 -36q-307 -111 -616 -111t-555 62.5t-398.5 209t-152.5 365.5zM166 589q0 -163 90 -277.5t240 -182.5l6 10q-105 74 -161 194t-56 256t56 256t161 193l-6 11q-150 -68 -240 -182.5t-90 -277.5zM1581 258q0 -131 23 -131q29 0 55.5 74t26.5 172 v223h-105v-338z" />
<glyph unicode="h" horiz-adv-x="3035" d="M150 0v88h215q182 0 182 182v602q0 74 -53.5 128.5t-128.5 54.5h-215v88h1323v-88q-133 0 -183.5 -42t-50.5 -122v-242h545v242q0 80 -50.5 122t-183.5 42v88h1323v-88h-215q-76 0 -130 -54.5t-54 -128.5v-604q0 -180 184 -180h215v-88h-1323v88q168 0 205 51 q20 27 24.5 50.5t4.5 70.5v232q0 69 -66 69h-2h-409q-68 0 -68 -69v-232q0 -49 4 -71.5t25 -49.5q37 -51 205 -51v-88h-1323zM676 88h102v967h-102v-967zM1915 88h102v967h-102v-967z" />
<glyph unicode="i" horiz-adv-x="1804" d="M150 0v88h217q184 0 184 180v602q0 74 -54.5 129.5t-129.5 55.5h-217v88h1492v-88h-217q-76 0 -130 -55.5t-54 -129.5v-602q0 -180 184 -180h217v-88h-1492zM678 88h104v967h-104v-967z" />
<glyph unicode="j" horiz-adv-x="1904" d="M-29 0v461h95l22 -45q14 -29 67.5 -100.5t114 -127t161.5 -100.5t210 -45q184 0 184 182v645q0 74 -54 129.5t-130 55.5h-215v88h1450v-88h-176q-76 0 -130 -55.5t-54 -129.5v-530q0 -94 -36 -161.5t-120 -119.5q-168 -102 -604 -102q-205 0 -395.5 43t-292.5 92v-92h-97 zM952 117q35 12 69 79.5t34 163.5v695h-103v-938z" />
<glyph unicode="k" horiz-adv-x="2920" d="M150 0v88h215q182 0 182 180v604q0 74 -53.5 128.5t-128.5 54.5h-215v88h1478v-88h-201q-86 0 -137 -45t-51 -119v-182q0 -96 94 -97h37q59 0 154.5 40t138.5 61q80 35 209 98q205 98 205 174q0 43 -51.5 56.5t-190.5 13.5v88h1040v-88h-190q-63 0 -195 -54 q-188 -78 -344 -170q-49 -31 -49 -65.5t25 -65.5l518 -612h235v-88h-972l-461 516h-135q-68 0 -68 -72v-176q0 -180 184 -180h131v-88h-1404zM676 88h102v967h-102v-967zM1561 563l401 -475h139l-399 475h-141z" />
<glyph unicode="l" horiz-adv-x="2211" d="M150 0v88h215q182 0 182 180v602q0 74 -54.5 129.5t-127.5 55.5h-215v88h1570v-88h-297q-76 0 -130 -55.5t-54 -129.5v-602q0 -182 184 -182q150 0 318 78q207 98 379 348h63v-512h-2033zM676 88h102v967h-102v-967z" />
<glyph unicode="m" horiz-adv-x="3260" d="M45 1055v88h1133l530 -453q223 344 291 453h1196v-88h-297q-184 0 -184 -133v-654q0 -180 184 -180h297v-88h-1569v88h213q184 0 184 180v693l-522 -814h-96l-666 562v-222q0 -104 52.5 -185t136.5 -126q164 -88 360 -88v-88h-1220v88q197 0 360 88q84 45 136 126t52 185 v185q0 168 -173 275.5t-398 107.5zM543 1055q137 -117 882 -750h37v103q-680 575 -764 647h-155zM2150 88h103v967h-103v-967z" />
<glyph unicode="n" horiz-adv-x="2711" d="M47 1055v88h1313l604 -381l25 -14q25 -14 51 -31q66 -39 88 -39q33 0 33 43q-1 334 -398 334v88h918v-88q-397 0 -397 -334v-795h-166l-1213 733q-49 25 -84 25q-80 0 -80 -117v-78q0 -106 52.5 -187t136.5 -126q164 -88 358 -88v-88h-1220v88q197 0 360 88 q84 45 136 126t52 187v181q0 170 -172 277.5t-397 107.5zM680 969l1436 -891v110l-1399 867h-37v-86z" />
<glyph unicode="o" horiz-adv-x="2342" d="M45 573q0 260 311.5 437.5t815 177.5t814 -177.5t310.5 -437.5q0 -168 -150.5 -310t-408.5 -225t-564.5 -83t-565.5 83t-410.5 225.5t-151.5 309.5zM127 572.5q0 -185.5 181 -324.5t478 -203l5 14q-236 62 -380.5 198t-144.5 315.5t144.5 314.5t382.5 198l-5 13 q-299 -61 -480 -200.5t-181 -325zM805 577.5q0 -266.5 95 -400.5t271.5 -134t271.5 134t95 400.5t-80 393.5t-286.5 127t-286.5 -127t-80 -393.5zM1569 78l8 -6q231 199 231 500.5t-229 498.5l-8 -6q96 -242 96 -491.5t-98 -495.5z" />
<glyph unicode="p" horiz-adv-x="2557" d="M150 0v88h217q184 0 184 180v602q0 74 -54.5 129.5t-129.5 55.5h-217v88h1761q621 0 620 -322q0 -325 -548 -325h-3h-647q-90 0 -90 -115v-113q0 -180 182 -180h217v-88h-1492zM678 88h104v967h-104v-967zM1243 666q0 -35 23.5 -58.5t58.5 -23.5h176q137 0 228 98 q51 57 51 137q0 119 -93.5 177.5t-185.5 58.5h-176q-35 0 -58.5 -24.5t-23.5 -59.5v-305zM1882 602l8 -6q61 27 104.5 90.5t43.5 133t-43 133t-105 89.5l-8 -6q45 -80 45 -217t-45 -217z" />
<glyph unicode="q" horiz-adv-x="2365" d="M45 569q0 262 313.5 438.5t824.5 176.5t823 -176.5t312 -438.5q0 -229 -288.5 -402t-708.5 -206q-49 -72 -49 -129q0 -113 61 -113h279v-86h-862v82q59 125 333 238l-2 6q-438 23 -737 197.5t-299 412.5zM150 571.5q0 -180.5 181 -316.5t478 -198l4 15 q-235 59 -379.5 191t-144.5 307t144.5 307.5t381.5 191.5l-4 12q-299 -59 -480 -194t-181 -315.5zM827 578.5q0 -267.5 93.5 -402.5t263.5 -135t262 135t92 402.5t-77 394.5t-278.5 127t-278.5 -127t-77 -394.5zM883 -281h96q12 56 162 197l-4 6q-82 -39 -166 -101.5 t-88 -101.5zM1591 90l8 -6q231 195 232 488q0 290 -229 483l-9 -6q97 -237 97 -480q0 -240 -99 -479z" />
<glyph unicode="r" horiz-adv-x="2795" d="M150 0v88h217q184 0 184 182v600q0 76 -54.5 130.5t-129.5 54.5h-217v88q1577 2 1875 2q618 0 619 -324q0 -92 -58.5 -154.5t-164.5 -93.5q-180 -49 -441 -53v-12q43 -37 136.5 -75t210.5 -56l231 -289h211v-88h-1040l-351 449q-53 70 -88 70q-35 -1 -41 -25t-6 -95v-129 q0 -182 182 -182h134v-88h-1409zM678 88h104v967h-104v-967zM1243 725q0 -43 84 -75t198.5 -32t198.5 49.5t84 160t-93 169t-185 58.5h-205q-35 0 -58.5 -24.5t-23.5 -59.5v-246zM1479 518l336 -430h129q-221 287 -334 430h-131zM1935 602l9 -6q61 27 104 90.5t43 133 t-43 133t-104 89.5l-9 -6q45 -80 45 -217t-45 -217z" />
<glyph unicode="s" horiz-adv-x="2263" d="M193 -8v500h92q27 -63 117 -141.5t215.5 -148t292.5 -116.5t327 -47q283 0 283 80q0 82 -344 153q-340 70 -637 174q-148 52 -246 138t-98 187t35.5 174t106.5 116t140.5 69.5t177.5 36.5q172 16 338 17q420 0 891 -123q2 10 31 88h92v-391h-90q-145 141 -430 242.5 t-490.5 101.5t-205.5 -103q0 -98 331 -143q328 -47 617 -135q141 -45 236.5 -139.5t95.5 -223.5q0 -403 -832 -403q-449 0 -907 137l-47 -100h-92zM311 801q0 -137 215 -236.5t711 -214.5q221 -51 316.5 -88t164.5 -115q0 4 5.5 6.5t5.5 4.5q0 102 -78 157q-86 59 -176.5 84 t-143.5 37.5t-146 31.5t-149 32q-676 156 -684 405h-14q-27 -47 -27 -104z" />
<glyph unicode="t" horiz-adv-x="1961" d="M100 635l29 508h1704l29 -508h-74q-12 16 -32.5 45t-78 101.5t-105.5 128t-102.5 100.5t-83.5 45q-61 0 -61 -80v-705q0 -182 184 -182h217v-88h-1490v88h217q182 0 182 182v705q0 80 -57 80q-47 0 -148.5 -105.5t-179.5 -210.5l-76 -104h-74zM764 88h100v967h-100v-967z " />
<glyph unicode="u" horiz-adv-x="2144" d="M82 1055v88h1161v-88h-33q-182 0 -182 -181v-585q0 -129 46 -190.5t151 -61.5q250 0 343 70.5t93 193.5v422q0 104 -35 176t-92 102q-100 53 -203 54v88h803v-88q-143 0 -238 -56q-111 -63 -110 -276v-373q0 -184 -84 -256q-106 -94 -277 -123q-106 -16 -291.5 -16 t-350.5 24.5t-248.5 58.5t-131 87t-56.5 92t-9 92v565q0 180 -182 181h-74zM467 362q0 -129 65 -186q14 -12 35 -20v899h-100v-693z" />
<glyph unicode="v" horiz-adv-x="2195" d="M-29 1055v88h1237v-88h-53q-39 0 -67.5 -41t-28.5 -105.5t51 -115.5l320 -324l225 240q49 55 49 134t-85 145.5t-216 66.5h-92v88h911v-88h-92l-987 -1094h-66l-985 1094h-121zM205 1055l903 -1006l70 76l-836 930h-137z" />
<glyph unicode="w" horiz-adv-x="3532" d="M-29 1055v88h1237v-88h-55q-39 0 -66.5 -41t-27.5 -105.5t51 -115.5l320 -330l266 295l-266 297h-119v88h1237v-88h-56q-39 0 -67.5 -40t-28.5 -104.5t53 -117.5l320 -324l223 240q49 51 49 131t-85 147.5t-216 67.5h-92v88h913v-88h-90l-991 -1094h-65l-637 705 l-635 -705h-66l-985 1094h-121zM203 1055l907 -1006l66 76l-834 930h-139zM1540 1055l907 -1006l68 76l-834 930h-141z" />
<glyph unicode="x" horiz-adv-x="2408" d="M27 0v88h63q166 0 373 133l469 303l-334 342q-74 76 -184.5 132.5t-186.5 56.5h-112v88h1206v-88h-37q-78 0 -78 -56q0 -45 43 -88l162 -168l45 33q150 106 150 180q0 43 -34 71t-67 28h-39v86h861v-86h-66q-156 -2 -371 -142l-395 -256q317 -328 375 -385 q182 -184 368 -184h144v-88h-1276v88h76q82 0 82 57q0 41 -39 80l-211 215l-119 -78q-150 -100 -150 -180q0 -43 34 -68.5t69 -25.5h170v-88h-991zM547 1055l942 -967h139l-942 967h-139z" />
<glyph unicode="y" horiz-adv-x="2283" d="M-29 1055v88h1317v-88h-55q-37 0 -58.5 -21.5t-21.5 -52.5q0 -57 53 -107l221 -217l97 80q125 104 125 199q0 53 -43 86t-123 33h-92v88h921v-88h-119l-761 -545v-242q0 -94 51 -137t133 -43h217v-88h-1493v88h219q82 0 132 43t50 137v205l-587 582h-183zM324 1055 l546 -541v-426h101v463l-512 504h-135z" />
<glyph unicode="z" horiz-adv-x="2086" d="M111 0v88h45l944 967h-86q-393 0 -662 -238q-35 -31 -82 -78h-57v404h1763v-88h-41l-946 -967h193q283 0 456 109q88 55 138.5 97t115.5 109h58v-403h-1839zM324 88h145l940 967h-145z" />
<glyph unicode="{" horiz-adv-x="1648" d="M88 575v119q115 0 161 36t46 147q0 150 121 301q74 92 189.5 162.5t322.5 119.5t473 49v-110q-16 0 -65.5 -11.5t-85.5 -26.5t-80 -47t-76 -73q-74 -100 -74 -234.5t-19.5 -204t-62.5 -101t-87 -41t-120 -9.5v-33q76 0 120 -9t87 -40q82 -61 82 -284q0 -111 39 -194 t96 -124q117 -82 207 -92l39 -4v-111q-266 0 -473 49.5t-323 120t-189 162.5q-121 152 -121 301q0 111 -46 146.5t-161 35.5zM334 627q94 -38 94 -185q0 -221 128 -359t429 -210l4 14q-258 98 -334.5 204t-76.5 351q0 168 -191 193q190 25 191 192q0 246 76.5 351.5 t334.5 203.5l-4 15q-301 -72 -429 -210t-128 -360q0 -147 -94 -184v-16z" />
<glyph unicode="|" horiz-adv-x="747" d="M307 -195v1659h133v-1659h-133z" />
<glyph unicode="}" horiz-adv-x="1648" d="M248 -129q16 0 65 11.5t85 26.5t80 47t75 73q76 100 76 234t19.5 204t62.5 101.5t87 40.5t120 9v33q-76 0 -120 9.5t-87 39.5q-82 61 -82 285q0 111 -39 194t-94 124q-119 82 -209 92l-39 4v110q266 0 473 -49t322.5 -119.5t189.5 -162.5q121 -152 121 -301 q0 -111 46 -147t161 -36v-119q-115 0 -161 -35.5t-46 -146.5q0 -150 -121 -301q-74 -92 -189.5 -162.5t-322.5 -120t-473 -49.5v111zM446 -137l5 -15q272 72 373.5 190t101.5 339q0 147 94 184v17q-119 0 -181.5 -43t-62.5 -158q0 -244 -65.5 -345.5t-264.5 -168.5z M446 1407q199 -68 264.5 -169t65.5 -345q0 -115 62.5 -158t181.5 -43v17q-94 37 -94 184q0 221 -101.5 339t-373.5 189z" />
<glyph unicode="~" d="M205 610v164q98 -92 215 -92t335 93t335.5 93t220.5 -92v-164q-90 92 -220 92.5t-334 -93t-338 -93.5t-214 92z" />
<glyph unicode="&#xa1;" horiz-adv-x="1390" d="M221 952.5q0 118.5 137.5 201.5t333 83t332.5 -83t137 -201.5t-137 -201.5t-332.5 -83t-333 83t-137.5 201.5zM285 -213q0 76 80.5 268.5t181 356t146.5 163.5t145.5 -163.5t180.5 -356t81 -268.5q0 -119 -106.5 -181.5t-302 -62.5t-301 62.5t-105.5 181.5zM373 952.5 q0 -61.5 51 -115t135 -83.5l6 10q-82 78 -82 188.5t82 188.5l-6 10q-84 -31 -135 -84t-51 -114.5zM422 -240q0 -47 53 -81.5t135 -49.5l8 19q-41 14 -69.5 39.5t-28.5 50.5q2 68 77 265.5t157 361.5l-62 98q-82 -143 -176 -383t-94 -320z" />
<glyph unicode="&#xa2;" horiz-adv-x="1931" d="M45 676q0 145 81 261t218 185q272 141 639 162v272h102v-268h23q266 0 621 -125v82h96v-426h-92q-88 123 -270.5 252t-362.5 129q-258 0 -258 -250v-481q0 -176 74.5 -253t239.5 -77t295 33t202.5 74t130 73.5t74.5 32.5q47 0 47 -41q0 -51 -185 -145 q-225 -111 -551 -111h-84v-280h-102v286q-270 18 -475 86t-334 204t-129 325zM158 671.5q0 -153.5 121.5 -281.5t308.5 -204l4 9q-143 81 -232.5 203t-89.5 274.5t89.5 274.5t232.5 204l-4 8q-186 -76 -308 -205t-122 -282.5z" />
<glyph unicode="&#xa3;" horiz-adv-x="2271" d="M92 170q0 119 153.5 207t418.5 88q66 0 129 -12q-66 70 -144 137t-108 96h-408v102h305q-129 135 -129 252q0 334 873 334q174 0 350 -31.5t266 -62.5l90 -31v125h99v-446h-101q-201 199 -357.5 269.5t-302 70.5t-198.5 -42t-53 -102q0 -57 74 -125q57 -53 141 -116.5 t121 -94.5h446v-102h-334q158 -162 158 -328q0 -102 -51 -176q182 -57 344 -57q82 0 139.5 38t80 84t44 84t39.5 38q29 0 46.5 -47.5t17.5 -106.5q0 -104 -59.5 -182t-202 -78t-511.5 160q-193 -160 -784.5 -160t-591.5 215zM289 182q0 -55 64.5 -85.5t180 -30.5t230.5 57 t115 153q0 29 -19 76q-112 27 -196 27q-156 0 -265.5 -56.5t-109.5 -140.5zM446 1071q0 -102 197 -289q80 -76 160 -153q197 -188 196.5 -296t-58.5 -169.5t-130 -89.5l4 -13q125 15 204 87.5t79 173t-58.5 194.5t-141.5 174t-165 154q-199 178 -198.5 255t53.5 134l-6 10 q-135 -53 -136 -172z" />
<glyph unicode="&#xa5;" horiz-adv-x="2680" d="M-29 1243v88h1534v-88h-57q-45 0 -71.5 -26.5t-26.5 -67.5q0 -70 61 -129l264 -262l121 98q147 119 148 238q0 66 -53.5 107.5t-149.5 41.5h-103v88h1072v-88h-136l-661 -475h457v-102h-598l-97 -70v-90h695v-103h-695v-94q0 -115 61.5 -168t161.5 -53h248v-88h-1743v88 h250q100 0 160.5 53.5t60.5 167.5v94h-696v103h696v47l-114 113h-582v102h479l-479 475h-207zM360 1243l654 -645v-510h133v565l-596 590h-191z" />
<glyph unicode="&#xa6;" horiz-adv-x="747" d="M307 -195v672h133v-672h-133zM307 793v671h133v-671h-133z" />
<glyph unicode="&#xa7;" horiz-adv-x="2263" d="M193 129h92q27 -63 117 -141t215.5 -147.5t292.5 -117t327 -47.5q283 0 283 80q0 82 -344 154q-340 70 -637 174q-147 51 -245.5 137t-98.5 193q0 362 555 399v21q-256 72 -405.5 166t-149.5 233q0 199 141 285q72 43 141.5 69.5t177.5 36.5q172 16 338 16 q420 0 891 -122q2 10 31 88h92v-392h-90q-145 141 -430 243t-490.5 102t-205.5 -103q0 -98 331 -145q328 -45 617 -135q141 -43 236.5 -137.5t95.5 -223.5q0 -315 -512 -385v-20q233 -57 372.5 -153.5t139.5 -260.5q0 -403 -832 -404q-449 0 -907 138l-47 -101h-92v500z M311 438q0 -137 215 -236.5t711 -213.5q221 -51 316.5 -88t164.5 -115q0 2 5.5 4t5.5 28.5t-17.5 65.5t-59.5 69t-82 50.5t-113 39.5t-126 31.5t-146 32t-149 31.5q-676 156 -684 406h-14q-27 -48 -27 -105zM311 1257q0 -137 215 -236t711 -214q221 -51 316.5 -88 t164.5 -115q0 2 5.5 4t5.5 29t-17.5 65.5t-59.5 68.5t-82 50.5t-113 40t-126 31.5t-146 31.5t-149 31.5q-676 156 -684 406h-14q-27 -48 -27 -105zM791 637q0 -57 100 -92q141 -49 346 -49q283 -1 283 79q0 57 -126 97.5t-234.5 53.5t-155.5 13q-213 0 -213 -102z" />
<glyph unicode="&#xa8;" horiz-adv-x="1812" d="M158 1446q0 96 82 165.5t198.5 69.5t198.5 -69.5t82 -165.5t-82 -164t-198.5 -68t-198.5 68t-82 164zM233 1446q0 -57 39 -107.5t103 -76.5l6 6q-64 69 -64 177.5t64 178.5l-6 6q-63 -27 -102.5 -77t-39.5 -107zM1092 1446q0 96 81.5 165.5t198.5 69.5t199 -69.5 t82 -165.5t-82 -164t-199 -68t-198.5 68t-81.5 164zM1167 1446q0 -57 39 -107.5t103 -76.5l6 6q-64 69 -64 177.5t64 178.5l-6 6q-63 -27 -102.5 -77t-39.5 -107z" />
<glyph unicode="&#xa9;" horiz-adv-x="1587" d="M92 936q0 225 206 384t496.5 159t495.5 -159t205 -384t-205 -384t-495.5 -159t-496.5 159t-206 384zM164 935.5q0 -190.5 186.5 -331.5t444.5 -141t443 140t185 332.5t-185 333t-443 140.5t-444.5 -141.5t-186.5 -332zM444 946.5q0 143.5 113 214t260 70.5q94 0 221 -62 v41h29v-196h-29q-27 68 -91 124t-134 56q-92 0 -92 -119v-225q0 -82 27.5 -119t94 -37t121 25.5t83 50.5t34.5 25q14 0 15 -17q0 -25 -72.5 -72t-183.5 -47q-172 0 -284 72t-112 215.5z" />
<glyph unicode="&#xaa;" horiz-adv-x="1624" d="M59 631v82q59 0 106.5 19.5t63.5 37.5l320 399l-29 35q-33 45 -110 45h-99v82h613l495 -618h127v-82h-805v82h97q41 0 41 26q0 14 -25 49l-33 41h-430q-23 -45 -22.5 -66.5t16.5 -35.5t41 -14h115v-82h-482zM449 909h309l-156 195zM602 1249l428 -536h86l-426 536h-88z " />
<glyph unicode="&#xab;" horiz-adv-x="1388" d="M0 528v86l559 510v-178l-229 -211l229 -213v-506zM135 557l346 -313v127l-276 250zM666 528v86l559 510v-178l-230 -211l230 -213v-506zM801 557l346 -313v127l-277 250z" />
<glyph unicode="&#xac;" d="M205 610v164h1106v-553h-160v389h-946z" />
<glyph unicode="&#xad;" d="M205 539v163h1106v-163h-1106z" />
<glyph unicode="&#xae;" horiz-adv-x="1587" d="M92 936q0 225 206 384t496.5 159t495.5 -159t205 -384t-205 -384t-495.5 -159t-496.5 159t-206 384zM164 935.5q0 -190.5 186.5 -331.5t444.5 -141t443 140t185 332.5t-185 333t-443 140.5t-444.5 -141.5t-186.5 -332zM344 678v35h74q68 0 67 90v282q0 37 -19.5 64 t-47.5 27h-74v34h660q217 0 217 -147q0 -86 -78 -117q-61 -23 -156 -26v-9q35 -35 115 -45l90 -153h72v-35h-365l-123 209q-18 35 -33 35q-18 0 -18 -58v-61q0 -90 68 -90h45v-35h-494zM725 1016q0 -20 30.5 -35.5t71.5 -15.5t72 23.5t31 75.5t-34 82t-67 30h-73 q-31 0 -31 -43v-117z" />
<glyph unicode="&#xaf;" horiz-adv-x="1034" d="M102 1290v275h830v-275h-830zM227 1331h111v193h-111v-193z" />
<glyph unicode="&#xb0;" horiz-adv-x="915" d="M61 1319q0 164 116 280.5t280 116.5t280.5 -116.5t116.5 -280.5t-116.5 -279.5t-280.5 -115.5t-280 115.5t-116 279.5zM184 1319q0 -115 80 -193.5t193.5 -78.5t193.5 79.5t80 193.5t-81 193.5t-193.5 79.5t-192.5 -79.5t-80 -194.5z" />
<glyph unicode="&#xb1;" d="M205 0v164h1106v-164h-1106zM205 737v164h471v471h164v-471h471v-164h-471v-471h-164v471h-471z" />
<glyph unicode="&#xb2;" horiz-adv-x="1136" d="M51 741v84q178 51 371 158q102 55 167.5 131t65.5 142.5t-17 104.5t-46 52q-45 23 -86 23q-125 0 -232.5 -91.5t-128.5 -199.5h-55v315h55v-53q186 86 437 86q143 0 262 -31q229 -59 229 -186q0 -72 -83 -144.5t-224 -132.5q-260 -111 -555 -186v-12q473 14 801 114v97 h55v-271h-1016zM629 1042l4 -8q115 29 166 137q20 43 20 102.5t-41 108t-96 68.5l-6 -6q61 -57 61 -186.5t-108 -215.5z" />
<glyph unicode="&#xb3;" horiz-adv-x="1155" d="M53 741v250h53q33 -90 155 -153.5t259 -63.5q84 0 135.5 48t51.5 122t-49.5 122t-129 48t-129 -27.5t-49.5 -80.5h-55v258h55q0 -96 146 -97q76 0 121 37t45 96.5t-41 97.5t-136.5 38t-193.5 -53.5t-148 -157.5h-53v225h55v-41q203 84 406 84t335 -55t132 -135 q0 -55 -81 -99.5t-214 -64.5q174 -18 274.5 -71.5t100.5 -127.5q0 -92 -164 -157.5t-411 -65.5t-414 74v-50h-56zM688 1178l6 -7q131 43 131 125q0 86 -131 146l-6 -6q55 -70 55 -133.5t-55 -124.5zM731 784l6 -6q137 70 137 164q0 43 -37.5 87t-99.5 75l-6 -6 q57 -66 57 -157t-57 -157z" />
<glyph unicode="&#xb4;" horiz-adv-x="1331" d="M102 1278v74q223 0 335 53t196 172h596q-6 -27 -30.5 -70t-55.5 -75.5t-88.5 -66.5t-128.5 -50q-160 -37 -713 -37h-111zM508 1358q236 12 338 162h-131q-25 -51 -87.5 -93.5t-119.5 -60.5v-8z" />
<glyph unicode="&#xb5;" horiz-adv-x="2947" d="M41 1055v90h1092v-684q0 -250 251 -250q117 0 229.5 53t190.5 129v479q0 182 -184 183h-217v90h1091v-875q0 -74 54.5 -128t130.5 -54h217v-88h-1092v264q-236 -209 -483 -209q-104 0 -215 33v-178q0 -227 264 -227h166v-91h-606q-287 0 -395 93q-92 78 -93 231v956 q0 182 -184 183h-217zM428 1067q143 -52 143 -195v-933q0 -213 211 -252l2 16q-109 55 -108 236v933q0 164 -244 209zM1790 1067q143 -52 143 -195v-784h105v784q0 164 -244 209z" />
<glyph unicode="&#xb6;" horiz-adv-x="2287" d="M45 778.5q0 225.5 168 389t479 163.5h412q49 154 252.5 231.5t615.5 77.5q100 0 213 -10l-10 -82q-33 4 -68 4q-100 0 -161.5 -53t-61.5 -168v-1292q0 -109 -42 -187.5t-140 -138.5q-195 -121 -705 -121q-100 0 -213 11l11 82q33 -4 67 -4q100 0 161.5 53t61.5 168v493 q-219 -178 -473 -178t-410.5 168t-156.5 393.5zM180 777.5q0 -142.5 99.5 -269.5t271.5 -197l6 21q-121 78 -180.5 200.5t-59.5 242.5t59.5 244t180.5 204l-6 18q-172 -70 -271.5 -195.5t-99.5 -268zM692 850q0 -135 64.5 -225t191.5 -90q68 0 137 20v633h-135 q-135 0 -196.5 -101.5t-61.5 -236.5zM1223 -231q131 52 131 294v1401q-131 -53 -131 -295v-1400z" />
<glyph unicode="&#xb7;" horiz-adv-x="1216" d="M186 626.5q0 106.5 123 182.5t297 76t297 -76t123 -182.5t-123 -181t-297 -74.5t-297 74.5t-123 181zM268 626.5q0 -55.5 47 -103.5t123 -77l6 9q-75 71 -75 171.5t75 172.5l-6 8q-76 -29 -123 -77t-47 -103.5z" />
<glyph unicode="&#xb8;" horiz-adv-x="1159" d="M102 -162h80q33 -80 118 -138t161 -58t121 35.5t45 107.5q0 176 -269 215v33q393 0 596 -139q102 -70 103 -166q0 -184 -477 -185q-285 0 -478 72v223zM655 -61q95 -58 95 -158q0 -47 -26 -90t-67 -64l7 -12q70 18 129 64.5t59 101.5q0 109 -188 170z" />
<glyph unicode="&#xb9;" horiz-adv-x="1042" d="M55 1251l363 228h559v-64h-92q-47 0 -81 -33.5t-34 -81.5v-382q0 -115 115 -115h92v-62h-813v62h94q111 0 111 115v311q0 63 12 125l4 20l-274 -190zM451 803h81v612h-81v-612z" />
<glyph unicode="&#xba;" horiz-adv-x="1470" d="M61 990q0 161 187.5 271.5t487.5 110.5t486.5 -110.5t186.5 -271.5t-197.5 -273.5t-476 -112.5t-476.5 112.5t-198 273.5zM154 990.5q0 -103.5 103 -185.5t267 -119v10q-129 41 -208.5 121t-79.5 173t77.5 173t210.5 119v8q-172 -33 -271 -114.5t-99 -185zM539 987 q0 -295 196 -295q94 0 146.5 75t52.5 224.5t-43 220t-154.5 70.5t-154.5 -70.5t-43 -224.5zM987 1276q53 -141 53 -282.5t-45 -282.5q127 135 127 282.5t-135 282.5z" />
<glyph unicode="&#xbb;" horiz-adv-x="1388" d="M164 16v179l229 211l-229 212v506l559 -512v-86zM242 657l213 -196l69 63l-282 260v-127zM829 16v179l230 211l-230 212v506l560 -512v-86zM907 657l213 -196l70 63l-283 260v-127z" />
<glyph unicode="&#xbc;" horiz-adv-x="2385" d="M37 1159l362 227h559v-63h-92q-47 0 -80.5 -34t-33.5 -81v-383q0 -115 114 -114h92v-62h-813v62h95q111 0 110 114v312q0 63 12 125l5 20l-275 -190zM432 711h82v612h-82v-612zM739 -45l807 1417h107l-807 -1417h-107zM1264 199v55l458 483h559v-63h-96q-45 0 -77.5 -34 t-32.5 -81v-301h209v-59h-209v-25q0 -115 110 -115h96v-59h-815v59h95q113 0 112 115v25h-409zM1384 258h289v221l13 125q-51 -61 -150.5 -174t-151.5 -172zM1755 59h82v615h-82v-615z" />
<glyph unicode="&#xbd;" horiz-adv-x="2385" d="M37 1159l362 227h559v-63h-92q-47 0 -80.5 -34t-33.5 -81v-383q0 -115 114 -114h92v-62h-813v62h95q111 0 110 114v312q0 63 12 125l5 20l-275 -190zM432 711h82v612h-82v-612zM662 -45l806 1417h107l-807 -1417h-106zM1257 0v84q178 51 371 158q102 55 168 131t66 142.5 t-17.5 104t-46.5 52.5q-45 23 -86 22q-125 0 -232.5 -91t-127.5 -200h-56v316h56v-53q186 86 436 86q143 0 262 -31q229 -59 229 -186q0 -72 -82.5 -145t-222.5 -132q-262 -111 -557 -186v-13q473 14 801 115v96h55v-270h-1016zM1835 301l4 -8q115 29 166 137 q20 43 20 102.5t-40.5 107.5t-96.5 69l-6 -7q61 -57 61.5 -186t-108.5 -215z" />
<glyph unicode="&#xbe;" horiz-adv-x="2385" d="M96 649v250h54q33 -90 154.5 -153.5t258.5 -63.5q84 0 135.5 48t51.5 122t-49.5 122t-129 48t-129 -27.5t-49.5 -81.5h-55v258h55q0 -96 146 -96q76 0 121 37t45 96.5t-41 97t-136.5 37.5t-193.5 -53t-148 -157h-53v225h55v-41q203 84 406 84t335 -55.5t132 -135.5 q0 -55 -81 -99t-214 -64q174 -18 274.5 -71.5t100.5 -127.5q0 -92 -164 -157.5t-411 -65.5t-414 73v-49h-56zM731 1085l6 -6q131 43 131 125q0 86 -131 146l-6 -7q55 -70 55 -133t-55 -125zM774 692l6 -6q137 70 137.5 163t-137.5 163l-6 -6q57 -66 57 -157t-57 -157z M801 -45l807 1417h106l-807 -1417h-106zM1264 199v55l458 483h559v-63h-96q-45 0 -77.5 -34t-32.5 -81v-301h209v-59h-209v-25q0 -115 110 -115h96v-59h-815v59h95q113 0 112 115v25h-409zM1384 258h289v221l13 125q-51 -61 -150.5 -174t-151.5 -172zM1755 59h82v615h-82 v-615z" />
<glyph unicode="&#xbf;" horiz-adv-x="2236" d="M195 303q0 160 161.5 298t429 219t566.5 81q27 0 161 -4v-92q-127 4 -200 4q-150 0 -233 -85t-83 -306q0 -266 58 -336q29 -35 53.5 -46t60.5 -11q207 0 457 143t295 285h86v-541h-86v133q-346 -98 -743 -98q-983 0 -983 356zM317 303q0 -199 367 -268l4 18 q-237 74 -237 250q0 143 123.5 269t326.5 200l-8 16q-256 -72 -416 -201.5t-160 -283.5zM723 1319q0 119 138 202t333 83t331 -83t136 -202t-136 -202t-331 -83t-333 83t-138 202zM874 1318.5q0 -61.5 47.5 -114.5t122.5 -84l7 10q-76 80 -76 188.5t76 188.5l-7 11 q-76 -29 -123 -83.5t-47 -116z" />
<glyph unicode="&#xc0;" horiz-adv-x="2861" d="M-29 0v88q63 0 133 32t123.5 77t98.5 92t68.5 77.5t23.5 32.5l526 670l-51 64q-49 59 -103.5 84.5t-148.5 25.5h-162v88h1172l1003 -1243h234v-88h-1538v88h151q53 0 87 23.5t34 70.5t-59 121l-76 94h-907q-59 -92 -59.5 -162.5t42.5 -108.5t111 -38h190v-88h-893z M621 1765h596q84 -119 195.5 -172t334.5 -53v-74h-111q-553 0 -712 37q-145 33 -217 119q-68 78 -80 123zM657 496h752l-385 475zM770 1708q102 -150 338 -162v8q-57 18 -119.5 60.5t-87.5 93.5h-131zM969 1243l932 -1155h157l-932 1155h-157z" />
<glyph unicode="&#xc1;" horiz-adv-x="2861" d="M-29 0v88q63 0 133 32t123.5 77t98.5 92t68.5 77.5t23.5 32.5l526 670l-51 64q-49 59 -103.5 84.5t-148.5 25.5h-162v88h1172l1003 -1243h234v-88h-1538v88h151q53 0 87 23.5t34 70.5t-59 121l-76 94h-907q-59 -92 -59.5 -162.5t42.5 -108.5t111 -38h190v-88h-893z M621 1466v74q223 0 334.5 53.5t195.5 171.5h596q-6 -27 -30.5 -69.5t-55.5 -75.5t-88 -66.5t-129 -50.5q-160 -37 -713 -37h-110zM657 496h752l-385 475zM969 1243l932 -1155h157l-932 1155h-157zM1026 1546q236 12 338 162h-131q-25 -51 -87.5 -93.5t-119.5 -60.5v-8z" />
<glyph unicode="&#xc2;" horiz-adv-x="2861" d="M-29 0v88q63 0 133 32t123.5 77t98.5 92t68.5 77.5t23.5 32.5l526 670l-51 64q-49 59 -103.5 84.5t-148.5 25.5h-162v88h1172l1003 -1243h234v-88h-1538v88h151q53 0 87 23.5t34 70.5t-59 121l-76 94h-907q-59 -92 -59.5 -162.5t42.5 -108.5t111 -38h190v-88h-893z M467 1466l274 299h664l272 -299h-178l-211 230l-213 -230h-608zM657 496h752l-385 475zM694 1544h127l154 170h-127zM969 1243l932 -1155h157l-932 1155h-157z" />
<glyph unicode="&#xc3;" horiz-adv-x="2861" d="M-29 0v88q63 0 133 32t123.5 77t98.5 92t68.5 77.5t23.5 32.5l526 670l-51 64q-49 59 -103.5 84.5t-148.5 25.5h-162v88h1172l1003 -1243h234v-88h-1538v88h151q53 0 87 23.5t34 70.5t-59 121l-76 94h-907q-59 -92 -59.5 -162.5t42.5 -108.5t111 -38h190v-88h-893z M530 1468q8 100 134.5 216t310.5 116t360 -37t283.5 -37t150.5 72h68q-10 -82 -60.5 -151.5t-98.5 -109.5t-119.5 -66.5t-196.5 -26.5t-322.5 50t-324.5 50q-96 0 -127 -76h-58zM657 496h752l-385 475zM678 1614l6 -8q47 10 102.5 10t265.5 -51.5t369.5 -51.5t270.5 95l-4 8 q-96 -31 -239.5 -31t-325 45t-278.5 45t-167 -61zM969 1243l932 -1155h157l-932 1155h-157z" />
<glyph unicode="&#xc4;" horiz-adv-x="2861" d="M-29 0v88q63 0 133 32t123.5 77t98.5 92t68.5 77.5t23.5 32.5l526 670l-51 64q-49 59 -103.5 84.5t-148.5 25.5h-162v88h1172l1003 -1243h234v-88h-1538v88h151q53 0 87 23.5t34 70.5t-59 121l-76 94h-907q-59 -92 -59.5 -162.5t42.5 -108.5t111 -38h190v-88h-893z M436 1634.5q0 96.5 82 166t199 69.5t198.5 -69.5t81.5 -166t-81.5 -164t-198.5 -67.5t-199 67.5t-82 164zM512 1634.5q0 -57.5 39 -107.5t102 -77l6 6q-63 70 -63 178.5t63 177.5l-6 7q-63 -27 -102 -77t-39 -107.5zM657 496h752l-385 475zM969 1243l932 -1155h157 l-932 1155h-157zM1370 1634.5q0 96.5 82 166t198.5 69.5t198.5 -69.5t82 -166t-82 -164t-198.5 -67.5t-198.5 67.5t-82 164zM1446 1634.5q0 -57.5 39 -107.5t102 -77l6 6q-63 70 -63 178.5t63 177.5l-6 7q-63 -27 -102 -77t-39 -107.5z" />
<glyph unicode="&#xc5;" horiz-adv-x="2861" d="M-29 0v88q63 0 133 32t123.5 77t98.5 92t68.5 77.5t23.5 32.5l526 670l-51 64q-49 59 -103.5 84.5t-148.5 25.5h-162v88h1172l1003 -1243h234v-88h-1538v88h151q53 0 87 23.5t34 70.5t-59 121l-76 94h-907q-59 -92 -59.5 -162.5t42.5 -108.5t111 -38h190v-88h-893z M657 496h752l-385 475zM862 1634.5q0 110.5 95.5 190.5t228.5 80t228 -80t95 -191.5t-95 -188.5t-229 -77t-228.5 78t-94.5 188.5zM928 1634.5q0 -57.5 39 -109.5t100 -81l6 6q-63 74 -63 184.5t63 184.5l-6 6q-61 -29 -100 -81t-39 -109.5zM969 1243l932 -1155h157 l-932 1155h-157zM1085 1634q0 -84 29 -143t70 -59t69.5 59t28.5 143t-28.5 143.5t-69.5 59.5t-70 -59.5t-29 -143.5z" />
<glyph unicode="&#xc6;" horiz-adv-x="3753" d="M-29 0v88q63 0 133 32t123.5 77t98.5 92t68.5 77.5t23.5 32.5l526 670l-51 64q-49 59 -103.5 84.5t-148.5 25.5h-162v88h3111v-471h-59q-119 160 -344.5 269.5t-571.5 109.5q-106 0 -168.5 -55.5t-62.5 -143.5v-69q0 -209 180 -209q139 0 294 78t204 182h76v-625h-76 q-47 109 -198.5 175.5t-299.5 66.5q-96 0 -138 -53.5t-42 -128.5v-74q0 -158 31.5 -226.5t144.5 -68.5h51q115 0 188.5 3t188.5 22.5t199 53.5t178 102.5t166 164.5h59v-434h-2472v88h246q223 0 223 221v330h-819l-188 -242q-59 -76 -59.5 -154.5t42.5 -116.5t111 -38h190 v-88h-893zM862 762h725v276q0 205 -223 205h-127zM1724 88h136v1155h-136v-1155z" />
<glyph unicode="&#xc7;" horiz-adv-x="2246" d="M45 687q0 169 112.5 311.5t297.5 222.5q373 160 835 159q317 0 735 -151v102h99v-489h-99q-88 166 -304 307t-441 141q-168 0 -238.5 -78.5t-70.5 -218.5v-561q0 -209 89 -300t288.5 -91t354.5 39t236.5 87t147 87t84.5 39q49 0 49 -41q0 -57 -232.5 -175t-605.5 -122 q217 -84 217 -227q0 -184 -477 -185q-285 0 -477 72v223h80q33 -80 118 -138t160.5 -58t120.5 35.5t45 107.5q0 133 -157 188q-428 49 -686 213q-133 84 -207 208t-74 293zM166 663.5q0 -186.5 155.5 -332t407.5 -210.5l2 10q-186 80 -303 212t-117 320.5t117 334t303 231.5 l-2 10q-250 -70 -406.5 -229.5t-156.5 -346zM1198 -61q94 -58 94 -158q0 -47 -25.5 -90t-66.5 -64l6 -12q70 18 129.5 64.5t59.5 101.5q0 109 -189 170z" />
<glyph unicode="&#xc8;" horiz-adv-x="2785" d="M150 0v88h245q223 0 223 221v709q0 92 -65.5 158.5t-157.5 66.5h-245v88h2471v-471h-59q-119 160 -344 269.5t-571 109.5q-106 0 -169 -55.5t-63 -143.5v-69q0 -209 180 -209q139 0 294 78t204 182h76v-625h-76q-47 109 -198.5 175.5t-299.5 66.5q-96 0 -138 -53.5 t-42 -128.5v-74q0 -158 32 -226.5t144 -68.5h51q115 0 189 3t188.5 22.5t198.5 53.5t178 102.5t166 164.5h59v-434h-2471zM756 88h135v1155h-135v-1155zM829 1765h596q84 -119 196 -172t335 -53v-74h-111q-553 0 -712 37q-145 33 -218 119q-68 78 -79 123zM979 1708 q102 -150 338 -162v8q-57 18 -119.5 60.5t-87.5 93.5h-131z" />
<glyph unicode="&#xc9;" horiz-adv-x="2785" d="M150 0v88h245q223 0 223 221v709q0 92 -65.5 158.5t-157.5 66.5h-245v88h2471v-471h-59q-119 160 -344 269.5t-571 109.5q-106 0 -169 -55.5t-63 -143.5v-69q0 -209 180 -209q139 0 294 78t204 182h76v-625h-76q-47 109 -198.5 175.5t-299.5 66.5q-96 0 -138 -53.5 t-42 -128.5v-74q0 -158 32 -226.5t144 -68.5h51q115 0 189 3t188.5 22.5t198.5 53.5t178 102.5t166 164.5h59v-434h-2471zM756 88h135v1155h-135v-1155zM829 1466v74q223 0 335 53.5t196 171.5h596q-6 -27 -30.5 -69.5t-55.5 -75.5t-88.5 -66.5t-128.5 -50.5 q-160 -37 -713 -37h-111zM1235 1546q236 12 338 162h-131q-25 -51 -87.5 -93.5t-119.5 -60.5v-8z" />
<glyph unicode="&#xca;" horiz-adv-x="2785" d="M150 0v88h245q223 0 223 221v709q0 92 -65.5 158.5t-157.5 66.5h-245v88h2471v-471h-59q-119 160 -344 269.5t-571 109.5q-106 0 -169 -55.5t-63 -143.5v-69q0 -209 180 -209q139 0 294 78t204 182h76v-625h-76q-47 109 -198.5 175.5t-299.5 66.5q-96 0 -138 -53.5 t-42 -128.5v-74q0 -158 32 -226.5t144 -68.5h51q115 0 189 3t188.5 22.5t198.5 53.5t178 102.5t166 164.5h59v-434h-2471zM756 88h135v1155h-135v-1155zM963 1466l274 299h664l272 -299h-178l-211 230l-213 -230h-608zM1190 1544h127l153 170h-127z" />
<glyph unicode="&#xcb;" horiz-adv-x="2785" d="M150 0v88h245q223 0 223 221v709q0 92 -65.5 158.5t-157.5 66.5h-245v88h2471v-471h-59q-119 160 -344 269.5t-571 109.5q-106 0 -169 -55.5t-63 -143.5v-69q0 -209 180 -209q139 0 294 78t204 182h76v-625h-76q-47 109 -198.5 175.5t-299.5 66.5q-96 0 -138 -53.5 t-42 -128.5v-74q0 -158 32 -226.5t144 -68.5h51q115 0 189 3t188.5 22.5t198.5 53.5t178 102.5t166 164.5h59v-434h-2471zM756 88h135v1155h-135v-1155zM788 1634.5q0 96.5 82 166t199 69.5t199 -69.5t82 -166t-82 -164t-199 -67.5t-199 67.5t-82 164zM864 1634.5 q0 -57.5 39 -107.5t103 -77l6 6q-64 70 -64 178.5t64 177.5l-6 7q-63 -27 -102.5 -77t-39.5 -107.5zM1722 1634.5q0 96.5 82 166t199 69.5t199 -69.5t82 -166t-82 -164t-199 -67.5t-199 67.5t-82 164zM1798 1634.5q0 -57.5 39 -107.5t102 -77l7 6q-64 70 -64 178.5t64 177.5 l-7 7q-63 -27 -102 -77t-39 -107.5z" />
<glyph unicode="&#xcc;" horiz-adv-x="2054" d="M150 0v88h249q100 0 162 53.5t62 167.5v709q0 92 -65.5 158.5t-158.5 66.5h-249v88h1742v-88h-247q-92 0 -158 -66.5t-66 -158.5v-709q0 -115 61.5 -168t162.5 -53h247v-88h-1742zM463 1765h596q84 -119 195.5 -172t334.5 -53v-74h-110q-553 0 -713 37q-145 33 -217 119 q-68 78 -80 123zM612 1708q102 -150 338 -162v8q-57 18 -119.5 60.5t-87.5 93.5h-131zM760 88h133v1155h-133v-1155z" />
<glyph unicode="&#xcd;" horiz-adv-x="2054" d="M150 0v88h249q100 0 162 53.5t62 167.5v709q0 92 -65.5 158.5t-158.5 66.5h-249v88h1742v-88h-247q-92 0 -158 -66.5t-66 -158.5v-709q0 -115 61.5 -168t162.5 -53h247v-88h-1742zM463 1466v74q223 0 334.5 53.5t195.5 171.5h596q-6 -27 -30.5 -69.5t-55 -75.5t-88 -66.5 t-129.5 -50.5q-160 -37 -713 -37h-110zM760 88h133v1155h-133v-1155zM868 1546q236 12 338 162h-131q-25 -51 -87.5 -93.5t-119.5 -60.5v-8z" />
<glyph unicode="&#xce;" horiz-adv-x="2054" d="M150 0v88h249q100 0 162 53.5t62 167.5v709q0 92 -65.5 158.5t-158.5 66.5h-249v88h1742v-88h-247q-92 0 -158 -66.5t-66 -158.5v-709q0 -115 61.5 -168t162.5 -53h247v-88h-1742zM422 1466l274 299h664l272 -299h-178l-211 230l-213 -230h-608zM649 1544h127l154 170 h-127zM760 88h133v1155h-133v-1155z" />
<glyph unicode="&#xcf;" horiz-adv-x="2054" d="M150 0v88h249q100 0 162 53.5t62 167.5v709q0 92 -65.5 158.5t-158.5 66.5h-249v88h1742v-88h-247q-92 0 -158 -66.5t-66 -158.5v-709q0 -115 61.5 -168t162.5 -53h247v-88h-1742zM279 1634.5q0 96.5 81.5 166t198.5 69.5t199 -69.5t82 -166t-82 -164t-199 -67.5 t-198.5 67.5t-81.5 164zM354 1634.5q0 -57.5 39 -107.5t103 -77l6 6q-64 70 -64 178.5t64 177.5l-6 7q-63 -27 -102.5 -77t-39.5 -107.5zM760 88h133v1155h-133v-1155zM1212 1634.5q0 96.5 82 166t199 69.5t199 -69.5t82 -166t-82 -164t-199 -67.5t-199 67.5t-82 164z M1288 1634.5q0 -57.5 39 -107.5t103 -77l6 6q-64 70 -64 178.5t64 177.5l-6 7q-63 -27 -102.5 -77t-39.5 -107.5z" />
<glyph unicode="&#xd0;" horiz-adv-x="3008" d="M143 0v88h246q100 0 161.5 53.5t61.5 169.5v273h-309v164h309v272q0 90 -65.5 156.5t-157.5 66.5h-246v88h1563q504 0 860 -143q182 -72 288.5 -200t106.5 -295t-75.5 -294t-189 -199.5t-263.5 -119.5q-256 -80 -539 -80h-1751zM750 88h133v1155h-133v-1155zM1409 297 q0 -209 172 -209h186q121 0 201 88q141 154 141 488q0 578 -456 577q-113 0 -178.5 -54t-65.5 -147v-292h385v-164h-385v-287zM2114 109l4 -7q340 193 340 561.5t-340 561.5l-4 -6q178 -242 178 -555.5t-178 -554.5z" />
<glyph unicode="&#xd1;" horiz-adv-x="3196" d="M47 1243v88h1534l713 -448q156 -98 192 -99q47 0 47 56q0 403 -467 403v88h1065v-88q-467 0 -467 -403v-926h-184l-1425 862q-51 29 -103 29q-102 0 -102 -143v-95q0 -127 61.5 -223t161.5 -149q197 -106 422 -107v-88h-1423v88q223 0 424 107q98 53 159.5 149t61.5 223 v215q0 135 -98.5 243t-250 163t-321.5 55zM729 1130l1751 -1058v147l-1696 1024h-55v-113zM944 1468q8 100 134 216t310.5 116t360.5 -37t283.5 -37t150.5 72h68q-10 -82 -60.5 -151.5t-98.5 -109.5t-119.5 -66.5t-196.5 -26.5t-323 50t-325 50q-96 0 -127 -76h-57z M1092 1614l6 -8q47 10 102 10t265 -51.5t370 -51.5t270 95l-4 8q-96 -31 -239.5 -31t-324.5 45t-278.5 45t-166.5 -61z" />
<glyph unicode="&#xd2;" horiz-adv-x="2754" d="M45 666q0 301 366.5 503.5t964.5 202.5t964.5 -202.5t366.5 -503.5q0 -193 -178 -357t-484 -259t-668.5 -95t-669 95t-484.5 259t-178 357zM156 665.5q0 -186.5 171 -341t459 -242.5l2 8q-221 88 -352 240.5t-131 335t134 336t358 241.5l-2 8q-291 -86 -465 -242.5 t-174 -343zM813 1765h596q84 -119 195.5 -172t334.5 -53v-74h-110q-553 0 -713 37q-145 33 -217 119q-68 78 -80 123zM952 672.5q0 -314.5 111 -474t313.5 -159.5t313 159.5t110.5 475t-91 465t-331.5 149.5t-333 -150.5t-92.5 -465zM963 1708q101 -150 337 -162v8 q-57 18 -119.5 60.5t-86.5 93.5h-131zM1849 100l13 -4q119 109 188.5 259.5t69.5 310t-70 310t-188 259.5l-13 -4q117 -289 117 -565.5t-117 -565.5z" />
<glyph unicode="&#xd3;" horiz-adv-x="2754" d="M45 666q0 301 366.5 503.5t964.5 202.5t964.5 -202.5t366.5 -503.5q0 -193 -178 -357t-484 -259t-668.5 -95t-669 95t-484.5 259t-178 357zM156 665.5q0 -186.5 171 -341t459 -242.5l2 8q-221 88 -352 240.5t-131 335t134 336t358 241.5l-2 8q-291 -86 -465 -242.5 t-174 -343zM813 1466v74q223 0 335 53.5t195 171.5h596q-6 -27 -30.5 -69.5t-55 -75.5t-88 -66.5t-129.5 -50.5q-159 -37 -712 -37h-111zM952 672.5q0 -314.5 111 -474t313.5 -159.5t313 159.5t110.5 475t-91 465t-331.5 149.5t-333 -150.5t-92.5 -465zM1219 1546 q236 12 337 162h-131q-25 -51 -87 -93.5t-119 -60.5v-8zM1849 100l13 -4q119 109 188.5 259.5t69.5 310t-70 310t-188 259.5l-13 -4q117 -289 117 -565.5t-117 -565.5z" />
<glyph unicode="&#xd4;" horiz-adv-x="2754" d="M45 666q0 301 366.5 503.5t964.5 202.5t964.5 -202.5t366.5 -503.5q0 -193 -178 -357t-484 -259t-668.5 -95t-669 95t-484.5 259t-178 357zM156 665.5q0 -186.5 171 -341t459 -242.5l2 8q-221 88 -352 240.5t-131 335t134 336t358 241.5l-2 8q-291 -86 -465 -242.5 t-174 -343zM772 1466l275 299h663l272 -299h-178l-211 230l-213 -230h-608zM952 672.5q0 -314.5 111 -474t313.5 -159.5t313 159.5t110.5 475t-91 465t-331.5 149.5t-333 -150.5t-92.5 -465zM999 1544h127l154 170h-127zM1849 100l13 -4q119 109 188.5 259.5t69.5 310 t-70 310t-188 259.5l-13 -4q117 -289 117 -565.5t-117 -565.5z" />
<glyph unicode="&#xd5;" horiz-adv-x="2754" d="M45 666q0 301 366.5 503.5t964.5 202.5t964.5 -202.5t366.5 -503.5q0 -193 -178 -357t-484 -259t-668.5 -95t-669 95t-484.5 259t-178 357zM156 665.5q0 -186.5 171 -341t459 -242.5l2 8q-221 88 -352 240.5t-131 335t134 336t358 241.5l-2 8q-291 -86 -465 -242.5 t-174 -343zM723 1468q8 100 134 216t310.5 116t360.5 -37t283.5 -37t150.5 72h68q-10 -82 -60.5 -151.5t-98.5 -109.5t-120 -66.5t-196.5 -26.5t-322.5 50t-325 50q-96 0 -127 -76h-57zM870 1614l7 -8q47 10 102 10t265 -51.5t370 -51.5t270 95l-4 8q-96 -31 -239.5 -31 t-324.5 45t-278.5 45t-167.5 -61zM952 672.5q0 -314.5 111 -474t313.5 -159.5t313 159.5t110.5 475t-91 465t-331.5 149.5t-333 -150.5t-92.5 -465zM1849 100l13 -4q119 109 188.5 259.5t69.5 310t-70 310t-188 259.5l-13 -4q117 -289 117 -565.5t-117 -565.5z" />
<glyph unicode="&#xd6;" horiz-adv-x="2754" d="M45 666q0 301 366.5 503.5t964.5 202.5t964.5 -202.5t366.5 -503.5q0 -193 -178 -357t-484 -259t-668.5 -95t-669 95t-484.5 259t-178 357zM156 665.5q0 -186.5 171 -341t459 -242.5l2 8q-221 88 -352 240.5t-131 335t134 336t358 241.5l-2 8q-291 -86 -465 -242.5 t-174 -343zM629 1634.5q0 96.5 82 166t198.5 69.5t198.5 -69.5t82 -166t-82 -164t-198.5 -67.5t-198.5 67.5t-82 164zM705 1634.5q0 -57.5 38.5 -107.5t102.5 -77l6 6q-64 70 -64 178.5t64 177.5l-6 7q-63 -27 -102 -77t-39 -107.5zM952 672.5q0 -314.5 111 -474 t313.5 -159.5t313 159.5t110.5 475t-91 465t-331.5 149.5t-333 -150.5t-92.5 -465zM1563 1634.5q0 96.5 81.5 166t198.5 69.5t199 -69.5t82 -166t-82 -164t-199 -67.5t-198.5 67.5t-81.5 164zM1638 1634.5q0 -57.5 39 -107.5t103 -77l6 6q-64 70 -64 178.5t64 177.5l-6 7 q-63 -27 -102.5 -77t-39.5 -107.5zM1849 100l13 -4q119 109 188.5 259.5t69.5 310t-70 310t-188 259.5l-13 -4q117 -289 117 -565.5t-117 -565.5z" />
<glyph unicode="&#xd7;" d="M272 319l373 373l-373 373l113 113l373 -373l372 373l113 -113l-373 -373l373 -373l-113 -112l-372 373l-373 -373z" />
<glyph unicode="&#xd8;" horiz-adv-x="2754" d="M45 666q0 301 366.5 503.5t964.5 202.5q121 0 275 -14l75 160h107l-80 -170q440 -61 697 -248t257 -434q0 -193 -178 -357t-484 -259t-669 -95q-135 0 -278 16l-72 -153h-106l77 166q-418 66 -685 254t-267 428zM156 665.5q0 -186.5 171 -341t459 -242.5l2 8 q-221 88 -352 240.5t-131 335t134 336t358 241.5l-2 8q-291 -86 -465 -242.5t-174 -343zM952 658.5q0 -328.5 133 -490.5l510 1073q-88 47 -219 47q-240 0 -332 -150.5t-92 -479zM1159 100q92 -61 217 -61q203 0 313.5 160t110.5 465q0 383 -127 518zM1849 100l13 -4 q119 109 188.5 259.5t69.5 310t-70 310t-188 259.5l-13 -4q117 -289 117 -565.5t-117 -565.5z" />
<glyph unicode="&#xd9;" horiz-adv-x="2492" d="M82 1243v88h1354v-88h-33q-100 0 -160.5 -52t-60.5 -169v-680q0 -147 54 -213t196.5 -66t249 23t160.5 66t75.5 91t21.5 113v486q0 100 -29.5 177t-70.5 118t-98 67q-90 39 -191 39v88h932v-88q-88 0 -151.5 -14.5t-126.5 -52.5q-131 -80 -131 -334v-391q0 -219 -66 -304 q-78 -98 -213 -139q-182 -53 -447.5 -53t-449.5 27.5t-281.5 66.5t-152.5 99.5t-68.5 106.5t-13.5 107v660q0 117 -60.5 169t-160.5 52h-78zM520 430q0 -180 84 -233q27 -16 49 -17v1063h-133v-813zM702 1765h596q84 -119 196 -172t335 -53v-74h-111q-553 0 -712 37 q-145 33 -218 119q-68 78 -79 123zM852 1708q102 -150 338 -162v8q-57 18 -119.5 60.5t-87.5 93.5h-131z" />
<glyph unicode="&#xda;" horiz-adv-x="2492" d="M82 1243v88h1354v-88h-33q-100 0 -160.5 -52t-60.5 -169v-680q0 -147 54 -213t196.5 -66t249 23t160.5 66t75.5 91t21.5 113v486q0 100 -29.5 177t-70.5 118t-98 67q-90 39 -191 39v88h932v-88q-88 0 -151.5 -14.5t-126.5 -52.5q-131 -80 -131 -334v-391q0 -219 -66 -304 q-78 -98 -213 -139q-182 -53 -447.5 -53t-449.5 27.5t-281.5 66.5t-152.5 99.5t-68.5 106.5t-13.5 107v660q0 117 -60.5 169t-160.5 52h-78zM520 430q0 -180 84 -233q27 -16 49 -17v1063h-133v-813zM764 1466v74q223 0 334.5 53.5t195.5 171.5h596q-6 -27 -30.5 -69.5 t-55 -75.5t-88 -66.5t-129.5 -50.5q-160 -37 -713 -37h-110zM1169 1546q236 12 338 162h-131q-25 -51 -87.5 -93.5t-119.5 -60.5v-8z" />
<glyph unicode="&#xdb;" horiz-adv-x="2492" d="M82 1243v88h1354v-88h-33q-100 0 -160.5 -52t-60.5 -169v-680q0 -147 54 -213t196.5 -66t249 23t160.5 66t75.5 91t21.5 113v486q0 100 -29.5 177t-70.5 118t-98 67q-90 39 -191 39v88h932v-88q-88 0 -151.5 -14.5t-126.5 -52.5q-131 -80 -131 -334v-391q0 -219 -66 -304 q-78 -98 -213 -139q-182 -53 -447.5 -53t-449.5 27.5t-281.5 66.5t-152.5 99.5t-68.5 106.5t-13.5 107v660q0 117 -60.5 169t-160.5 52h-78zM520 430q0 -180 84 -233q27 -16 49 -17v1063h-133v-813zM733 1466l275 299h663l273 -299h-179l-211 230l-213 -230h-608zM961 1544 h126l154 170h-127z" />
<glyph unicode="&#xdc;" horiz-adv-x="2492" d="M82 1243v88h1354v-88h-33q-100 0 -160.5 -52t-60.5 -169v-680q0 -147 54 -213t196.5 -66t249 23t160.5 66t75.5 91t21.5 113v486q0 100 -29.5 177t-70.5 118t-98 67q-90 39 -191 39v88h932v-88q-88 0 -151.5 -14.5t-126.5 -52.5q-131 -80 -131 -334v-391q0 -219 -66 -304 q-78 -98 -213 -139q-182 -53 -447.5 -53t-449.5 27.5t-281.5 66.5t-152.5 99.5t-68.5 106.5t-13.5 107v660q0 117 -60.5 169t-160.5 52h-78zM520 430q0 -180 84 -233q27 -16 49 -17v1063h-133v-813zM612 1634.5q0 96.5 82 166t199 69.5t199 -69.5t82 -166t-82 -164 t-199 -67.5t-199 67.5t-82 164zM688 1634.5q0 -57.5 39 -107.5t102 -77l7 6q-64 70 -64 178.5t64 177.5l-7 7q-63 -27 -102 -77t-39 -107.5zM1546 1634.5q0 96.5 82 166t199 69.5t198.5 -69.5t81.5 -166t-81.5 -164t-198.5 -67.5t-199 67.5t-82 164zM1622 1634.5 q0 -57.5 39 -107.5t102 -77l6 6q-63 70 -63 178.5t63 177.5l-6 7q-63 -27 -102 -77t-39 -107.5z" />
<glyph unicode="&#xdd;" horiz-adv-x="2680" d="M-29 1243v88h1534v-88h-57q-45 0 -71.5 -26.5t-26.5 -67.5q0 -70 61 -129l264 -262l121 98q147 119 148 238q0 66 -53.5 107.5t-149.5 41.5h-103v88h1072v-88h-136l-899 -647v-287q0 -115 61.5 -168t161.5 -53h248v-88h-1743v88h250q100 0 160.5 53.5t60.5 167.5v244 l-696 690h-207zM360 1243l654 -645v-510h133v539l-625 616h-162zM872 1466v74q223 0 335 53.5t196 171.5h596q-6 -27 -30.5 -69.5t-55.5 -75.5t-88.5 -66.5t-128.5 -50.5q-160 -37 -713 -37h-111zM1278 1546q236 12 338 162h-131q-25 -51 -87.5 -93.5t-119.5 -60.5v-8z" />
<glyph unicode="&#xde;" horiz-adv-x="2963" d="M150 0v88h249q100 0 162 53.5t62 167.5v709q0 92 -65.5 158.5t-158.5 66.5h-249v88h1742v-88h-473v-61q0 -74 28 -107t85 -33h682q721 0 721 -372q0 -379 -639 -379h-764q-57 0 -85 -33t-28 -106v-64h473v-88h-1742zM760 88h133v1155h-133v-1155zM1421 485 q0 -41 30 -71.5t73 -30.5h207q164 0 272 119q63 68 63 165t-63 164q-106 119 -272 119h-207q-43 0 -73 -30.5t-30 -73.5v-361zM2161 397l10 -6q80 29 138 110t58 167t-58 166.5t-138 109.5l-10 -6q66 -100 65.5 -270t-65.5 -271z" />
<glyph unicode="&#xdf;" horiz-adv-x="2560" d="M150 0v88h217q184 0 184 180v609q0 72 -55.5 125t-128.5 53h-217v88h436q227 279 839 278q272 0 466 -89t194 -232q0 -88 -69.5 -174t-198.5 -140v-10q344 -27 543.5 -140.5t199.5 -260.5q0 -190 -280.5 -305t-708.5 -115q-100 0 -217 10l10 86q72 -14 152 -14 q141 0 217.5 93t76.5 237.5t-98 245t-274 139.5v57q123 49 187.5 132t64.5 182.5t-65.5 153.5t-157 54t-159 -54t-67.5 -151v-1126h-1091zM678 88h104v741q0 268 136 390l-5 14q-235 -129 -235 -422v-723zM1683 881l11 -7q80 39 139 94.5t59 118.5q0 102 -123 173l-10 -7 q35 -74 35 -139q0 -117 -111 -233zM1815 666q53 -57 78.5 -146.5t25.5 -167.5q0 -172 -84 -293l8 -8q172 121 172 305.5t-192 319.5z" />
<glyph unicode="&#xe0;" horiz-adv-x="2433" d="M-29 0v88q98 0 179 35t112 70l33 34l520 666l-57 72q-29 35 -45 51q-47 39 -166 39h-144v88h1006l848 -1055h203v-88h-1319v88h135q43 0 69.5 17.5t26.5 56.5t-47 98l-63 80h-766q-47 -80 -47 -136.5t34.5 -86t89.5 -29.5h168v-88h-770zM389 1577h596q84 -119 196 -172 t335 -53v-74h-111q-553 0 -713 37q-145 33 -217 119q-68 78 -80 122zM539 1520q102 -150 338 -162v8q-57 18 -120 60t-87 94h-131zM561 424h633l-322 401zM866 1055l781 -967h122l-778 967h-125z" />
<glyph unicode="&#xe1;" horiz-adv-x="2433" d="M-29 0v88q98 0 179 35t112 70l33 34l520 666l-57 72q-29 35 -45 51q-47 39 -166 39h-144v88h1006l848 -1055h203v-88h-1319v88h135q43 0 69.5 17.5t26.5 56.5t-47 98l-63 80h-766q-47 -80 -47 -136.5t34.5 -86t89.5 -29.5h168v-88h-770zM479 1278v74q223 0 335 53 t196 172h596q-6 -27 -31 -70t-55.5 -75.5t-88 -66.5t-128.5 -50q-160 -37 -713 -37h-111zM561 424h633l-322 401zM866 1055l781 -967h122l-778 967h-125zM885 1358q236 12 338 162h-131q-25 -51 -87.5 -93.5t-119.5 -60.5v-8z" />
<glyph unicode="&#xe2;" horiz-adv-x="2433" d="M-29 0v88q98 0 179 35t112 70l33 34l520 666l-57 72q-29 35 -45 51q-47 39 -166 39h-144v88h1006l848 -1055h203v-88h-1319v88h135q43 0 69.5 17.5t26.5 56.5t-47 98l-63 80h-766q-47 -80 -47 -136.5t34.5 -86t89.5 -29.5h168v-88h-770zM342 1278l274 299h664l272 -299 h-178l-211 229l-213 -229h-608zM561 424h633l-322 401zM569 1356h127l154 170h-127zM866 1055l781 -967h122l-778 967h-125z" />
<glyph unicode="&#xe3;" horiz-adv-x="2433" d="M-29 0v88q98 0 179 35t112 70l33 34l520 666l-57 72q-29 35 -45 51q-47 39 -166 39h-144v88h1006l848 -1055h203v-88h-1319v88h135q43 0 69.5 17.5t26.5 56.5t-47 98l-63 80h-766q-47 -80 -47 -136.5t34.5 -86t89.5 -29.5h168v-88h-770zM391 1280q8 100 134 216 t310.5 116t360.5 -37t283.5 -37t150.5 72h68q-10 -82 -60.5 -151.5t-98.5 -109.5t-119.5 -67t-196.5 -27t-323 50.5t-325 50.5q-96 0 -126 -76h-58zM539 1425l6 -8q47 10 102 10t265 -51t370 -51t270 94l-4 8q-96 -31 -239.5 -30.5t-324.5 45.5t-278.5 45t-166.5 -62z M561 424h633l-322 401zM866 1055l781 -967h122l-778 967h-125z" />
<glyph unicode="&#xe4;" horiz-adv-x="2433" d="M-29 0v88q98 0 179 35t112 70l33 34l520 666l-57 72q-29 35 -45 51q-47 39 -166 39h-144v88h1006l848 -1055h203v-88h-1319v88h135q43 0 69.5 17.5t26.5 56.5t-47 98l-63 80h-766q-47 -80 -47 -136.5t34.5 -86t89.5 -29.5h168v-88h-770zM256 1446q0 96 82 165.5 t198.5 69.5t198.5 -69.5t82 -165.5t-82 -164t-198.5 -68t-198.5 68t-82 164zM332 1446q0 -57 39 -107.5t102 -76.5l6 6q-63 69 -63 177.5t63 178.5l-6 6q-63 -27 -102 -77t-39 -107zM561 424h633l-322 401zM866 1055l781 -967h122l-778 967h-125zM1190 1446q0 96 82 165.5 t198.5 69.5t198.5 -69.5t82 -165.5t-82 -164t-198.5 -68t-198.5 68t-82 164zM1266 1446q0 -57 38.5 -107.5t102.5 -76.5l6 6q-63 69 -63 177.5t63 178.5l-6 6q-63 -27 -102 -77t-39 -107z" />
<glyph unicode="&#xe5;" horiz-adv-x="2433" d="M-29 0v88q98 0 179 35t112 70l33 34l520 666l-57 72q-29 35 -45 51q-47 39 -166 39h-144v88h1006l848 -1055h203v-88h-1319v88h135q43 0 69.5 17.5t26.5 56.5t-47 98l-63 80h-766q-47 -80 -47 -136.5t34.5 -86t89.5 -29.5h168v-88h-770zM561 424h633l-322 401z M719 1445.5q0 110.5 95 190.5t228.5 80t228.5 -80t95 -191.5t-95 -188t-229.5 -76.5t-228.5 77.5t-94 188zM784 1446q0 -57 39 -109.5t101 -81.5l6 7q-64 73 -64 183.5t64 184.5l-6 6q-61 -29 -100.5 -81t-39.5 -109zM866 1055l781 -967h122l-778 967h-125zM942 1446 q0 -84 28.5 -143.5t69.5 -59.5t70 59.5t29 143.5t-29 143.5t-70 59.5t-69.5 -59.5t-28.5 -143.5z" />
<glyph unicode="&#xe6;" horiz-adv-x="3192" d="M-29 0v88q98 0 179 35t112 70l33 34l520 666l-57 72q-29 35 -45 51q-47 39 -166 39h-144v88h2626v-410h-59q-98 135 -290 228.5t-485 93.5q-88 0 -138 -45t-50 -119v-82q0 -150 145 -150q117 0 247 67t171 155h76v-541h-76q-41 92 -168 148.5t-250 56.5q-145 0 -145 -150 v-137q0 -170 139 -170h158q451 0 666 293h59v-381h-2111v88h215q182 0 182 180v287h-653l-166 -215q-47 -59 -47 -126t34.5 -96.5t89.5 -29.5h168v-88h-770zM735 649h580v223q0 74 -53 128.5t-129 54.5h-84zM1442 88h104v967h-104v-967z" />
<glyph unicode="&#xe7;" horiz-adv-x="1931" d="M45 567q0 166 96.5 289t253.5 193q315 139 713 139q266 0 621 -125v82h96v-426h-92q-88 123 -270.5 252t-362.5 129q-258 0 -258 -250v-481q0 -176 74.5 -253t239.5 -77t295 33.5t202.5 72.5t130 73t74.5 34q47 0 47 -41q0 -51 -185 -145q-205 -100 -497 -109 q219 -86 219 -229q0 -184 -477 -185q-285 0 -478 72v223h80q33 -80 118 -138t161 -58t121 35.5t45 107.5q0 133 -158 188q-238 29 -414 99.5t-285.5 199.5t-109.5 295zM158 571.5q0 -153.5 121.5 -281.5t308.5 -204l4 8q-143 82 -232.5 204t-89.5 274.5t89.5 274.5 t232.5 204l-4 8q-186 -76 -308 -205t-122 -282.5zM1040 -61q95 -58 95 -158q0 -47 -26 -90t-67 -64l7 -12q70 18 129 64.5t59 101.5q0 109 -188 170z" />
<glyph unicode="&#xe8;" horiz-adv-x="2424" d="M150 0v88h215q182 0 182 180v604q0 74 -53.5 128.5t-128.5 54.5h-215v88h2111v-410h-59q-98 135 -290 228.5t-485 93.5q-88 0 -138 -45t-50 -119v-82q0 -150 145 -150q117 0 247 67t171 155h76v-541h-76q-41 92 -168 148.5t-250 56.5q-145 0 -145 -150v-137 q0 -170 139 -170h158q451 0 666 293h59v-381h-2111zM649 1577h596q84 -119 196 -172t335 -53v-74h-111q-553 0 -713 37q-145 33 -217 119q-68 78 -80 122zM674 88h104v967h-104v-967zM799 1520q102 -150 338 -162v8q-57 18 -120 60t-87 94h-131z" />
<glyph unicode="&#xe9;" horiz-adv-x="2424" d="M150 0v88h215q182 0 182 180v604q0 74 -53.5 128.5t-128.5 54.5h-215v88h2111v-410h-59q-98 135 -290 228.5t-485 93.5q-88 0 -138 -45t-50 -119v-82q0 -150 145 -150q117 0 247 67t171 155h76v-541h-76q-41 92 -168 148.5t-250 56.5q-145 0 -145 -150v-137 q0 -170 139 -170h158q451 0 666 293h59v-381h-2111zM674 88h104v967h-104v-967zM793 1278v74q223 0 334.5 53t195.5 172h596q-6 -27 -30.5 -70t-55.5 -75.5t-88 -66.5t-129 -50q-160 -37 -713 -37h-110zM1198 1358q236 12 338 162h-131q-25 -51 -87.5 -93.5t-119.5 -60.5v-8 z" />
<glyph unicode="&#xea;" horiz-adv-x="2424" d="M150 0v88h215q182 0 182 180v604q0 74 -53.5 128.5t-128.5 54.5h-215v88h2111v-410h-59q-98 135 -290 228.5t-485 93.5q-88 0 -138 -45t-50 -119v-82q0 -150 145 -150q117 0 247 67t171 155h76v-541h-76q-41 92 -168 148.5t-250 56.5q-145 0 -145 -150v-137 q0 -170 139 -170h158q451 0 666 293h59v-381h-2111zM674 88h104v967h-104v-967zM741 1278l275 299h663l273 -299h-178l-211 229l-213 -229h-609zM969 1356h127l153 170h-127z" />
<glyph unicode="&#xeb;" horiz-adv-x="2424" d="M150 0v88h215q182 0 182 180v604q0 74 -53.5 128.5t-128.5 54.5h-215v88h2111v-410h-59q-98 135 -290 228.5t-485 93.5q-88 0 -138 -45t-50 -119v-82q0 -150 145 -150q117 0 247 67t171 155h76v-541h-76q-41 92 -168 148.5t-250 56.5q-145 0 -145 -150v-137 q0 -170 139 -170h158q451 0 666 293h59v-381h-2111zM608 1446q0 96 82 165.5t199 69.5t198.5 -69.5t81.5 -165.5t-81.5 -164t-198.5 -68t-199 68t-82 164zM674 88h104v967h-104v-967zM684 1446q0 -57 39 -107.5t102 -76.5l6 6q-63 69 -63 177.5t63 178.5l-6 6 q-63 -27 -102 -77t-39 -107zM1542 1446q0 96 82 165.5t198.5 69.5t198.5 -69.5t82 -165.5t-82 -164t-198.5 -68t-198.5 68t-82 164zM1618 1446q0 -57 39 -107.5t102 -76.5l6 6q-63 69 -63 177.5t63 178.5l-6 6q-63 -27 -102 -77t-39 -107z" />
<glyph unicode="&#xec;" horiz-adv-x="1804" d="M150 0v88h217q184 0 184 180v602q0 74 -54.5 129.5t-129.5 55.5h-217v88h1492v-88h-217q-76 0 -130 -55.5t-54 -129.5v-602q0 -180 184 -180h217v-88h-1492zM338 1577h596q84 -119 195.5 -172t334.5 -53v-74h-110q-553 0 -713 37q-145 33 -217 119q-68 78 -80 122z M487 1520q102 -150 338 -162v8q-57 18 -119.5 60t-87.5 94h-131zM678 88h104v967h-104v-967z" />
<glyph unicode="&#xed;" horiz-adv-x="1804" d="M150 0v88h217q184 0 184 180v602q0 74 -54.5 129.5t-129.5 55.5h-217v88h1492v-88h-217q-76 0 -130 -55.5t-54 -129.5v-602q0 -180 184 -180h217v-88h-1492zM338 1278v74q223 0 334.5 53t195.5 172h596q-6 -27 -30.5 -70t-55 -75.5t-88 -66.5t-129.5 -50 q-159 -37 -712 -37h-111zM678 88h104v967h-104v-967zM743 1358q236 12 338 162h-131q-25 -51 -87.5 -93.5t-119.5 -60.5v-8z" />
<glyph unicode="&#xee;" horiz-adv-x="1804" d="M150 0v88h217q184 0 184 180v602q0 74 -54.5 129.5t-129.5 55.5h-217v88h1492v-88h-217q-76 0 -130 -55.5t-54 -129.5v-602q0 -180 184 -180h217v-88h-1492zM297 1278l274 299h664l272 -299h-178l-211 229l-213 -229h-608zM524 1356h127l154 170h-127zM678 88h104v967 h-104v-967z" />
<glyph unicode="&#xef;" horiz-adv-x="1804" d="M150 0v88h217q184 0 184 180v602q0 74 -54.5 129.5t-129.5 55.5h-217v88h1492v-88h-217q-76 0 -130 -55.5t-54 -129.5v-602q0 -180 184 -180h217v-88h-1492zM156 1446q0 96 81.5 165.5t198.5 69.5t199 -69.5t82 -165.5t-82 -164t-199 -68t-198.5 68t-81.5 164zM231 1446 q0 -57 39 -107.5t103 -76.5l6 6q-64 69 -64 177.5t64 178.5l-6 6q-63 -27 -102.5 -77t-39.5 -107zM678 88h104v967h-104v-967zM1090 1446q0 96 81.5 165.5t198.5 69.5t199 -69.5t82 -165.5t-82 -164t-199 -68t-198.5 68t-81.5 164zM1165 1446q0 -57 39 -107.5t103 -76.5l6 6 q-64 69 -64 177.5t64 178.5l-6 6q-63 -27 -102.5 -77t-39.5 -107z" />
<glyph unicode="&#xf0;" horiz-adv-x="2342" d="M45 502q0 231 312.5 392t813.5 161q166 0 345 -31q0 123 -39 215l-260 -43v123l186 31q-100 96 -285 96q-139 0 -296.5 -71.5t-248.5 -143.5l-88 -72h-71v324h71v-76q414 127 744 127t569 -104l524 104v-123l-364 -74q303 -215 303 -600q0 -309 -262 -536 q-127 -113 -341 -179.5t-503 -66.5t-549 73.5t-410.5 199.5t-150.5 274zM127 502q0 -160 181 -281t478 -176l5 14q-236 54 -380.5 171.5t-144.5 272t144.5 272.5t382.5 171l-5 10q-299 -53 -480 -173.5t-181 -280.5zM805 507.5q0 -231.5 95 -348t271.5 -116.5t271.5 116.5 t95 348t-80 344.5t-286.5 113t-286.5 -113t-80 -344.5zM1569 127l8 -8q231 248 231 620.5t-229 614.5l-8 -8q96 -295 96 -606.5t-98 -612.5z" />
<glyph unicode="&#xf1;" horiz-adv-x="2744" d="M47 1055v88h1313l604 -381l25 -14q25 -14 51 -31q66 -39 88 -39q33 0 33 43q-1 334 -398 334v88h918v-88q-397 0 -397 -334v-795h-166l-1213 733q-49 25 -84 25q-80 0 -80 -117v-78q0 -106 52.5 -187t136.5 -126q164 -88 358 -88v-88h-1220v88q197 0 360 88 q84 45 136 126t52 187v181q0 170 -172 277.5t-397 107.5zM680 969l1436 -891v110l-1399 867h-37v-86zM719 1280q8 100 134 216t310.5 116t360.5 -37t283.5 -37t150.5 72h67q-10 -82 -60 -151.5t-98 -109.5t-120 -67t-197 -27t-322.5 50.5t-324.5 50.5q-96 0 -127 -76h-57z M866 1425l6 -8q47 10 102.5 10t265.5 -51t369.5 -51t270.5 94l-4 8q-96 -31 -239.5 -30.5t-325 45.5t-278.5 45t-167 -62z" />
<glyph unicode="&#xf2;" horiz-adv-x="2342" d="M45 573q0 260 311.5 437.5t815 177.5t814 -177.5t310.5 -437.5q0 -168 -150.5 -310t-408.5 -225t-564.5 -83t-565.5 83t-410.5 225.5t-151.5 309.5zM127 572.5q0 -185.5 181 -324.5t478 -203l5 14q-236 62 -380.5 198t-144.5 315.5t144.5 314.5t382.5 198l-5 13 q-299 -61 -480 -200.5t-181 -325zM608 1577h596q84 -119 196 -172t335 -53v-74h-111q-553 0 -713 37q-145 33 -217 119q-68 78 -80 122zM758 1520q102 -150 338 -162v8q-57 18 -120 60t-87 94h-131zM805 577.5q0 -266.5 95 -400.5t271.5 -134t271.5 134t95 400.5t-80 393.5 t-286.5 127t-286.5 -127t-80 -393.5zM1569 78l8 -6q231 199 231 500.5t-229 498.5l-8 -6q96 -242 96 -491.5t-98 -495.5z" />
<glyph unicode="&#xf3;" horiz-adv-x="2342" d="M45 573q0 260 311.5 437.5t815 177.5t814 -177.5t310.5 -437.5q0 -168 -150.5 -310t-408.5 -225t-564.5 -83t-565.5 83t-410.5 225.5t-151.5 309.5zM127 572.5q0 -185.5 181 -324.5t478 -203l5 14q-236 62 -380.5 198t-144.5 315.5t144.5 314.5t382.5 198l-5 13 q-299 -61 -480 -200.5t-181 -325zM608 1278v74q223 0 335 53t196 172h596q-6 -27 -31 -70t-55.5 -75.5t-88 -66.5t-128.5 -50q-160 -37 -713 -37h-111zM805 577.5q0 -266.5 95 -400.5t271.5 -134t271.5 134t95 400.5t-80 393.5t-286.5 127t-286.5 -127t-80 -393.5z M1014 1358q236 12 338 162h-131q-25 -51 -87.5 -93.5t-119.5 -60.5v-8zM1569 78l8 -6q231 199 231 500.5t-229 498.5l-8 -6q96 -242 96 -491.5t-98 -495.5z" />
<glyph unicode="&#xf4;" horiz-adv-x="2342" d="M45 573q0 260 311.5 437.5t815 177.5t814 -177.5t310.5 -437.5q0 -168 -150.5 -310t-408.5 -225t-564.5 -83t-565.5 83t-410.5 225.5t-151.5 309.5zM127 572.5q0 -185.5 181 -324.5t478 -203l5 14q-236 62 -380.5 198t-144.5 315.5t144.5 314.5t382.5 198l-5 13 q-299 -61 -480 -200.5t-181 -325zM567 1278l275 299h663l273 -299h-179l-210 229l-213 -229h-609zM795 1356h127l153 170h-127zM805 577.5q0 -266.5 95 -400.5t271.5 -134t271.5 134t95 400.5t-80 393.5t-286.5 127t-286.5 -127t-80 -393.5zM1569 78l8 -6q231 199 231 500.5 t-229 498.5l-8 -6q96 -242 96 -491.5t-98 -495.5z" />
<glyph unicode="&#xf5;" horiz-adv-x="2342" d="M45 573q0 260 311.5 437.5t815 177.5t814 -177.5t310.5 -437.5q0 -168 -150.5 -310t-408.5 -225t-564.5 -83t-565.5 83t-410.5 225.5t-151.5 309.5zM127 572.5q0 -185.5 181 -324.5t478 -203l5 14q-236 62 -380.5 198t-144.5 315.5t144.5 314.5t382.5 198l-5 13 q-299 -61 -480 -200.5t-181 -325zM518 1280q8 100 134 216t310.5 116t360.5 -37t283.5 -37t150.5 72h68q-10 -82 -60.5 -151.5t-98.5 -109.5t-119.5 -67t-196.5 -27t-323 50.5t-325 50.5q-96 0 -127 -76h-57zM666 1425l6 -8q47 10 102 10t265 -51t370 -51t270 94l-4 8 q-96 -31 -239.5 -30.5t-324.5 45.5t-278.5 45t-166.5 -62zM805 577.5q0 -266.5 95 -400.5t271.5 -134t271.5 134t95 400.5t-80 393.5t-286.5 127t-286.5 -127t-80 -393.5zM1569 78l8 -6q231 199 231 500.5t-229 498.5l-8 -6q96 -242 96 -491.5t-98 -495.5z" />
<glyph unicode="&#xf6;" horiz-adv-x="2342" d="M45 573q0 260 311.5 437.5t815 177.5t814 -177.5t310.5 -437.5q0 -168 -150.5 -310t-408.5 -225t-564.5 -83t-565.5 83t-410.5 225.5t-151.5 309.5zM127 572.5q0 -185.5 181 -324.5t478 -203l5 14q-236 62 -380.5 198t-144.5 315.5t144.5 314.5t382.5 198l-5 13 q-299 -61 -480 -200.5t-181 -325zM424 1446q0 96 82 165.5t198.5 69.5t198.5 -69.5t82 -165.5t-82 -164t-198.5 -68t-198.5 68t-82 164zM500 1446q0 -57 39 -107.5t102 -76.5l6 6q-63 69 -63 177.5t63 178.5l-6 6q-63 -27 -102 -77t-39 -107zM805 577.5q0 -266.5 95 -400.5 t271.5 -134t271.5 134t95 400.5t-80 393.5t-286.5 127t-286.5 -127t-80 -393.5zM1358 1446q0 96 82 165.5t198.5 69.5t198.5 -69.5t82 -165.5t-82 -164t-198.5 -68t-198.5 68t-82 164zM1434 1446q0 -57 38.5 -107.5t102.5 -76.5l6 6q-63 69 -63 177.5t63 178.5l-6 6 q-63 -27 -102 -77t-39 -107zM1569 78l8 -6q231 199 231 500.5t-229 498.5l-8 -6q96 -242 96 -491.5t-98 -495.5z" />
<glyph unicode="&#xf7;" d="M205 610v164h1106v-164h-1106zM543 313.5q0 67.5 63.5 116.5t151.5 49t151.5 -49t63.5 -116.5t-63.5 -115.5t-151.5 -48t-151.5 48t-63.5 115.5zM543 1069q0 68 63.5 117t151.5 49t151.5 -49t63.5 -117t-63.5 -116t-151.5 -48t-151.5 48t-63.5 116z" />
<glyph unicode="&#xf8;" horiz-adv-x="2342" d="M45 573q0 260 311.5 437.5t814.5 177.5q141 0 299 -21l52 93h106l-61 -107q338 -61 533.5 -220t195.5 -360q0 -168 -150.5 -310t-408.5 -225t-566 -83q-129 0 -276 20l-74 -133h-106l84 148q-334 63 -544 222.5t-210 360.5zM127 572.5q0 -185.5 181 -324.5t478 -203l5 14 q-236 62 -380.5 198t-144.5 315.5t144.5 314.5t382.5 198l-5 13q-299 -61 -480 -200.5t-181 -325zM805 573.5q0 -270.5 98 -401.5l492 864q-81 62 -224 62q-207 0 -286.5 -127t-79.5 -397.5zM971 104q82 -61 200 -61q177 0 272 134t95 400.5t-78 389.5zM1569 78l8 -6 q231 199 231 500.5t-229 498.5l-8 -6q96 -242 96 -491.5t-98 -495.5z" />
<glyph unicode="&#xf9;" horiz-adv-x="2144" d="M82 1055v88h1161v-88h-33q-182 0 -182 -181v-585q0 -129 46 -190.5t151 -61.5q250 0 343 70.5t93 193.5v422q0 104 -35 176t-92 102q-100 53 -203 54v88h803v-88q-143 0 -238 -56q-111 -63 -110 -276v-373q0 -184 -84 -256q-106 -94 -277 -123q-106 -16 -291.5 -16 t-350.5 24.5t-248.5 58.5t-131 87t-56.5 92t-9 92v565q0 180 -182 181h-74zM467 362q0 -129 65 -186q14 -12 35 -20v899h-100v-693zM549 1577h596q84 -119 195.5 -172t334.5 -53v-74h-110q-553 0 -713 37q-145 33 -217 119q-68 78 -80 122zM698 1520q102 -150 338 -162v8 q-57 18 -119.5 60t-87.5 94h-131z" />
<glyph unicode="&#xfa;" horiz-adv-x="2144" d="M82 1055v88h1161v-88h-33q-182 0 -182 -181v-585q0 -129 46 -190.5t151 -61.5q250 0 343 70.5t93 193.5v422q0 104 -35 176t-92 102q-100 53 -203 54v88h803v-88q-143 0 -238 -56q-111 -63 -110 -276v-373q0 -184 -84 -256q-106 -94 -277 -123q-106 -16 -291.5 -16 t-350.5 24.5t-248.5 58.5t-131 87t-56.5 92t-9 92v565q0 180 -182 181h-74zM467 362q0 -129 65 -186q14 -12 35 -20v899h-100v-693zM631 1278v74q223 0 334.5 53t195.5 172h596q-6 -27 -30.5 -70t-55.5 -75.5t-88 -66.5t-129 -50q-160 -37 -713 -37h-110zM1036 1358 q236 12 338 162h-131q-25 -51 -87.5 -93.5t-119.5 -60.5v-8z" />
<glyph unicode="&#xfb;" horiz-adv-x="2144" d="M82 1055v88h1161v-88h-33q-182 0 -182 -181v-585q0 -129 46 -190.5t151 -61.5q250 0 343 70.5t93 193.5v422q0 104 -35 176t-92 102q-100 53 -203 54v88h803v-88q-143 0 -238 -56q-111 -63 -110 -276v-373q0 -184 -84 -256q-106 -94 -277 -123q-106 -16 -291.5 -16 t-350.5 24.5t-248.5 58.5t-131 87t-56.5 92t-9 92v565q0 180 -182 181h-74zM467 362q0 -129 65 -186q14 -12 35 -20v899h-100v-693zM539 1278l274 299h664l272 -299h-178l-211 229l-213 -229h-608zM766 1356h127l154 170h-127z" />
<glyph unicode="&#xfc;" horiz-adv-x="2144" d="M82 1055v88h1161v-88h-33q-182 0 -182 -181v-585q0 -129 46 -190.5t151 -61.5q250 0 343 70.5t93 193.5v422q0 104 -35 176t-92 102q-100 53 -203 54v88h803v-88q-143 0 -238 -56q-111 -63 -110 -276v-373q0 -184 -84 -256q-106 -94 -277 -123q-106 -16 -291.5 -16 t-350.5 24.5t-248.5 58.5t-131 87t-56.5 92t-9 92v565q0 180 -182 181h-74zM406 1446q0 96 81.5 165.5t198.5 69.5t199 -69.5t82 -165.5t-82 -164t-199 -68t-198.5 68t-81.5 164zM467 362q0 -129 65 -186q14 -12 35 -20v899h-100v-693zM481 1446q0 -57 39 -107.5t103 -76.5 l6 6q-64 69 -64 177.5t64 178.5l-6 6q-63 -27 -102.5 -77t-39.5 -107zM1339 1446q0 96 82 165.5t199 69.5t199 -69.5t82 -165.5t-82 -164t-199 -68t-199 68t-82 164zM1415 1446q0 -57 39 -107.5t102 -76.5l7 6q-64 69 -64 177.5t64 178.5l-7 6q-63 -27 -102 -77t-39 -107z " />
<glyph unicode="&#xfd;" horiz-adv-x="2283" d="M-29 1055v88h1317v-88h-55q-37 0 -58.5 -21.5t-21.5 -52.5q0 -57 53 -107l221 -217l97 80q125 104 125 199q0 53 -43 86t-123 33h-92v88h921v-88h-119l-761 -545v-242q0 -94 51 -137t133 -43h217v-88h-1493v88h219q82 0 132 43t50 137v205l-587 582h-183zM324 1055 l546 -541v-426h101v463l-512 504h-135zM680 1278v74q223 0 334.5 53t195.5 172h596q-6 -27 -30.5 -70t-55 -75.5t-88 -66.5t-129.5 -50q-159 -37 -712 -37h-111zM1085 1358q236 12 338 162h-131q-25 -51 -87.5 -93.5t-119.5 -60.5v-8z" />
<glyph unicode="&#xfe;" horiz-adv-x="2557" d="M150 0v88h217q184 0 184 180v602q0 74 -54.5 129.5t-129.5 55.5h-217v88h1492v-88h-401v-47q0 -115 90 -115h578q621 0 620 -322q0 -326 -551 -325h-647q-90 0 -90 -115v-43h401v-88h-1492zM678 88h104v967h-104v-967zM1241 416q0 -35 24.5 -58.5t57.5 -23.5h176 q137 0 225 98q53 57 54 137q0 119 -93.5 177.5t-185.5 58.5h-176q-35 0 -58.5 -24.5t-23.5 -59.5v-305zM1880 352l8 -6q61 27 104.5 90.5t43.5 133t-43 133t-105 90.5l-8 -7q45 -80 45 -217t-45 -217z" />
<glyph unicode="&#xff;" horiz-adv-x="2283" d="M-29 1055v88h1317v-88h-55q-37 0 -58.5 -21.5t-21.5 -52.5q0 -57 53 -107l221 -217l97 80q125 104 125 199q0 53 -43 86t-123 33h-92v88h921v-88h-119l-761 -545v-242q0 -94 51 -137t133 -43h217v-88h-1493v88h219q82 0 132 43t50 137v205l-587 582h-183zM324 1055 l546 -541v-426h101v463l-512 504h-135zM393 1446q0 96 82 165.5t199 69.5t198.5 -69.5t81.5 -165.5t-81.5 -164t-198.5 -68t-199 68t-82 164zM469 1446q0 -57 39 -107.5t102 -76.5l6 6q-63 69 -63 177.5t63 178.5l-6 6q-63 -27 -102 -77t-39 -107zM1327 1446q0 96 82 165.5 t198.5 69.5t198.5 -69.5t82 -165.5t-82 -164t-198.5 -68t-198.5 68t-82 164zM1403 1446q0 -57 39 -107.5t102 -76.5l6 6q-63 69 -63 177.5t63 178.5l-6 6q-63 -27 -102 -77t-39 -107z" />
<glyph unicode="&#x152;" horiz-adv-x="3969" d="M45 668q0 283 366.5 473t964.5 190h2429v-471h-59q-119 160 -344.5 269.5t-571.5 109.5q-106 0 -168.5 -55.5t-62.5 -143.5v-69q0 -209 180 -209q139 0 294 78t204 182h76v-625h-76q-47 109 -198.5 175.5t-299.5 66.5q-96 0 -138 -53.5t-42 -128.5v-74 q0 -158 31.5 -226.5t144.5 -68.5h51q115 0 188.5 3t188.5 22.5t199 53.5t178 102.5t166 164.5h59v-434h-2429q-362 0 -668.5 89t-484.5 242.5t-178 336.5zM156 666q0 -350 630 -543l2 8q-483 193 -483 536t492 535l-2 8q-301 -88 -470 -225t-169 -319zM952 674 q0 -291 110.5 -438.5t313.5 -147.5h203q223 0 223 221v709q0 92 -65.5 158.5t-157.5 66.5h-203q-240 0 -332 -139t-92 -430zM1939 88h136v1155h-136v-1155z" />
<glyph unicode="&#x153;" horiz-adv-x="3551" d="M150 575q0 242 310 405t816 163h2111v-410h-59q-98 135 -289.5 228.5t-484.5 93.5q-88 0 -138.5 -45t-50.5 -119v-82q0 -150 146 -150q117 0 247 67t171 155h75v-541h-75q-41 92 -168 148.5t-250 56.5q-145 0 -146 -150v-137q0 -170 140 -170h157q451 0 666 293h59v-381 h-2111q-305 0 -564 77t-410.5 210t-151.5 288zM231 575.5q0 -169.5 180.5 -297.5t479.5 -188l4 14q-236 58 -380 183t-144 289.5t144 288.5t382 182l-4 12q-299 -57 -480.5 -185.5t-181.5 -298zM909 580.5q0 -244.5 95.5 -368.5t271.5 -124h215q182 0 182 180v604 q0 74 -53 128.5t-129 54.5h-215q-207 0 -287 -115t-80 -359.5zM1800 88h105v967h-105v-967z" />
<glyph unicode="&#x178;" horiz-adv-x="2680" d="M-29 1243v88h1534v-88h-57q-45 0 -71.5 -26.5t-26.5 -67.5q0 -70 61 -129l264 -262l121 98q147 119 148 238q0 66 -53.5 107.5t-149.5 41.5h-103v88h1072v-88h-136l-899 -647v-287q0 -115 61.5 -168t161.5 -53h248v-88h-1743v88h250q100 0 160.5 53.5t60.5 167.5v244 l-696 690h-207zM360 1243l654 -645v-510h133v539l-625 616h-162zM592 1634.5q0 96.5 82 166t198.5 69.5t198.5 -69.5t82 -166t-82 -164t-198.5 -67.5t-198.5 67.5t-82 164zM668 1634.5q0 -57.5 38.5 -107.5t102.5 -77l6 6q-63 70 -63 178.5t63 177.5l-6 7q-63 -27 -102 -77 t-39 -107.5zM1526 1634.5q0 96.5 82 166t198.5 69.5t198.5 -69.5t82 -166t-82 -164t-198.5 -67.5t-198.5 67.5t-82 164zM1602 1634.5q0 -57.5 38.5 -107.5t102.5 -77l6 6q-63 70 -63 178.5t63 177.5l-6 7q-63 -27 -102 -77t-39 -107.5z" />
<glyph unicode="&#x2c6;" horiz-adv-x="1415" d="M102 1278l275 299h663l273 -299h-178l-211 229l-213 -229h-609zM330 1356h127l153 170h-127z" />
<glyph unicode="&#x2dc;" horiz-adv-x="1511" d="M102 1280q8 100 134 216t310.5 116t361.5 -37t283.5 -37t149.5 72h68q-10 -82 -60.5 -151.5t-98.5 -109.5t-119.5 -67t-196.5 -27t-322.5 50.5t-324.5 50.5q-96 0 -127 -76h-58zM250 1425l6 -8q47 10 102.5 10t265.5 -51t369.5 -51t270.5 94l-4 8q-96 -31 -239.5 -30.5 t-325 45.5t-279 45t-166.5 -62z" />
<glyph unicode="&#x2000;" horiz-adv-x="952" />
<glyph unicode="&#x2001;" horiz-adv-x="1905" />
<glyph unicode="&#x2002;" horiz-adv-x="952" />
<glyph unicode="&#x2003;" horiz-adv-x="1905" />
<glyph unicode="&#x2004;" horiz-adv-x="635" />
<glyph unicode="&#x2005;" horiz-adv-x="476" />
<glyph unicode="&#x2006;" horiz-adv-x="317" />
<glyph unicode="&#x2007;" horiz-adv-x="317" />
<glyph unicode="&#x2008;" horiz-adv-x="238" />
<glyph unicode="&#x2009;" horiz-adv-x="381" />
<glyph unicode="&#x200a;" horiz-adv-x="105" />
<glyph unicode="&#x2010;" d="M205 539v163h1106v-163h-1106z" />
<glyph unicode="&#x2011;" d="M205 539v163h1106v-163h-1106z" />
<glyph unicode="&#x2012;" d="M205 539v163h1106v-163h-1106z" />
<glyph unicode="&#x2013;" horiz-adv-x="2068" d="M205 539v163h1659v-163h-1659z" />
<glyph unicode="&#x2014;" horiz-adv-x="2482" d="M205 539v163h2072v-163h-2072z" />
<glyph unicode="&#x2018;" horiz-adv-x="1073" d="M123 920q0 170 176 305q88 68 236.5 107.5t336.5 39.5v-76q-158 0 -282 -30q-236 -55 -264 -193q104 35 202 35q174 0 298 -75t124 -181.5t-124 -182t-304 -75.5t-289.5 95t-109.5 231zM256 854q0 -61 42 -109.5t128 -72.5l6 8q-76 72 -76 172t76 172l-6 8 q-88 -16 -129 -66.5t-41 -111.5z" />
<glyph unicode="&#x2019;" horiz-adv-x="1073" d="M123 1114.5q0 106.5 124 182t304 75.5t289.5 -95t109.5 -230q0 -170 -176 -306q-88 -68 -236.5 -107.5t-336.5 -39.5v76q158 0 282 30q236 55 265 193q-104 -35 -203 -35q-174 0 -298 75t-124 181.5zM207 1114q0 -55 47 -103t123 -77l6 8q-76 72 -76 172t76 172l-6 8 q-76 -29 -123 -77t-47 -103z" />
<glyph unicode="&#x201a;" horiz-adv-x="1218" d="M186 210.5q0 106.5 124 182.5t304.5 76t290 -95t109.5 -231q0 -170 -178 -307q-86 -66 -234.5 -105.5t-337.5 -39.5v76q158 0 283 28q236 57 264 195q-104 -35 -203 -35q-174 0 -298 74.5t-124 181zM270 211q0 -55 47.5 -103.5t122.5 -76.5l6 8q-75 72 -75 172t75 172 l-6 8q-76 -29 -123 -77t-47 -103z" />
<glyph unicode="&#x201c;" horiz-adv-x="2023" d="M123 920q0 170 176 305q88 68 236.5 107.5t336.5 39.5v-76q-158 0 -282 -30q-236 -55 -264 -193q104 35 202 35q174 0 298 -75t124 -181.5t-124 -182t-304 -75.5t-289.5 95t-109.5 231zM256 854q0 -61 42 -109.5t128 -72.5l6 8q-76 72 -76 172t76 172l-6 8 q-88 -16 -129 -66.5t-41 -111.5zM1073 920q0 170 176 305q88 68 236.5 107.5t337.5 39.5v-76q-158 0 -283 -30q-236 -55 -264 -193q104 35 203 35q174 0 298 -75t124 -181.5t-124 -182t-304.5 -75.5t-290 95t-109.5 231zM1206 854q0 -61 42 -109.5t128 -72.5l6 8 q-75 72 -75 172t75 172l-6 8q-88 -16 -129 -66.5t-41 -111.5z" />
<glyph unicode="&#x201d;" horiz-adv-x="2023" d="M123 1114.5q0 106.5 124 182t304 75.5t289.5 -95t109.5 -230q0 -170 -176 -306q-88 -68 -236.5 -107.5t-336.5 -39.5v76q158 0 282 30q236 55 265 193q-104 -35 -203 -35q-174 0 -298 75t-124 181.5zM207 1114q0 -55 47 -103t123 -77l6 8q-76 72 -76 172t76 172l-6 8 q-76 -29 -123 -77t-47 -103zM1073 1114.5q0 106.5 124 182t304 75.5t290 -95t110 -230q0 -170 -177 -306q-88 -68 -236.5 -107.5t-336.5 -39.5v76q158 0 283 30q236 55 264 193q-104 -35 -203 -35q-174 0 -298 75t-124 181.5zM1157 1114q0 -55 47 -103t123 -77l6 8 q-76 72 -76 172t76 172l-6 8q-76 -29 -123 -77t-47 -103z" />
<glyph unicode="&#x201e;" horiz-adv-x="2168" d="M186 210.5q0 106.5 124 182.5t304.5 76t290 -95t109.5 -231q0 -170 -178 -307q-86 -66 -234.5 -105.5t-337.5 -39.5v76q158 0 283 28q236 57 264 195q-104 -35 -203 -35q-174 0 -298 74.5t-124 181zM270 211q0 -55 47.5 -103.5t122.5 -76.5l6 8q-75 72 -75 172t75 172 l-6 8q-76 -29 -123 -77t-47 -103zM1137 210.5q0 106.5 123.5 182.5t304 76t290 -95t109.5 -231q0 -170 -178 -307q-86 -66 -234.5 -105.5t-337.5 -39.5v76q158 0 283 28q236 57 264 195q-104 -35 -202 -35q-174 0 -298 74.5t-124 181zM1221 211q0 -55 47 -103.5t123 -76.5 l6 8q-76 72 -76 172t76 172l-6 8q-76 -29 -123 -77t-47 -103z" />
<glyph unicode="&#x2022;" horiz-adv-x="1136" d="M184 371v596h768v-596h-768zM322 453h133v432h-133v-432z" />
<glyph unicode="&#x2026;" horiz-adv-x="3649" d="M186 210.5q0 106.5 123 182.5t297 76t297 -76t123 -182.5t-123 -181t-297 -74.5t-297 74.5t-123 181zM268 211q0 -55 47 -103.5t123 -76.5l6 8q-75 72 -75 172t75 172l-6 8q-76 -29 -123 -77t-47 -103zM1403 210.5q0 106.5 123 182.5t297 76t297 -76t123 -182.5 t-123 -181t-297 -74.5t-297 74.5t-123 181zM1485 211q0 -55 47 -103.5t123 -76.5l6 8q-76 72 -76 172t76 172l-6 8q-76 -29 -123 -77t-47 -103zM2619 210.5q0 106.5 123 182.5t297 76t297 -76t123 -182.5t-123 -181t-297 -74.5t-297 74.5t-123 181zM2701 211 q0 -55 47.5 -103.5t122.5 -76.5l6 8q-75 72 -75 172t75 172l-6 8q-76 -29 -123 -77t-47 -103z" />
<glyph unicode="&#x202f;" horiz-adv-x="381" />
<glyph unicode="&#x2039;" horiz-adv-x="722" d="M0 528v86l559 510v-178l-229 -211l229 -213v-506zM135 557l346 -313v127l-276 250z" />
<glyph unicode="&#x203a;" horiz-adv-x="722" d="M164 16v179l229 211l-229 212v506l559 -512v-86zM242 657l213 -196l69 63l-282 260v-127z" />
<glyph unicode="&#x205f;" horiz-adv-x="476" />
<glyph unicode="&#x20ac;" horiz-adv-x="2402" d="M0 492v102h205q-4 49 -4 84t6 76h-207v102h233q51 135 177.5 237.5t298.5 161.5q336 117 737 117q317 0 735 -151v102h98v-489h-98q-88 166 -304 307t-441 141q-168 0 -239 -79t-71 -218v-129h664v-102h-664v-160h664v-102h-664v-60q0 -209 89.5 -300t289 -91t354 39 t236.5 87t147.5 87t84.5 39q49 0 49 -41q0 -57 -213 -166q-266 -131 -614.5 -131t-608.5 53t-454.5 177t-256.5 307h-229zM322 663.5q0 -186.5 155.5 -332t407.5 -210.5l2 10q-187 80 -303.5 212t-116.5 320.5t116.5 334t303.5 231.5l-2 10q-250 -70 -406.5 -229.5 t-156.5 -346z" />
<glyph unicode="&#x2122;" horiz-adv-x="3211" d="M82 1016v330h1063v-330h-49q-8 10 -20.5 26.5t-47.5 59.5t-65 76q-78 86 -111 86t-33 -37v-412q0 -102 109 -102h135v-82h-918v82h136q109 0 108 102v412q0 37 -29.5 37t-90 -62.5t-107.5 -124.5l-47 -61h-33zM471 713h82v553h-82v-553zM1204 1264v82h697l319 -273 l178 273h731v-80h-184q-109 0 -109 -72v-381q0 -100 109 -100h184v-82h-964v82h137q104 0 104 100v393l-313 -485h-57l-400 338v-113q0 -117 104.5 -175t229.5 -58v-82h-751v82q125 0 229 58t104 175v94q0 98 -105.5 161t-242.5 63zM1536 1264l514 -426h16v90l-405 336h-125 zM2488 713h84v553h-84v-553z" />
<glyph unicode="&#xe000;" horiz-adv-x="1146" d="M0 0v1147h1147v-1147h-1147z" />
<glyph unicode="&#xfb01;" horiz-adv-x="3995" d="M150 0v88h215q182 0 182 182v600q0 76 -53.5 130.5t-128.5 54.5h-215v88h1986v-338h-55q-45 53 -85 89t-116 77q-152 84 -453 84q-88 0 -138 -46t-50 -118v-84q0 -150 145 -150q104 0 186.5 45.5t129.5 114.5h74v-446h-76q-41 96 -118 135t-196 39q-145 0 -145 -150v-135 q0 -96 30.5 -134t108.5 -38h240v-88h-1468zM676 88h102v967h-102v-967zM2341 0v88h217q184 0 184 180v602q0 74 -54 129.5t-130 55.5h-217v88h1493v-88h-217q-76 0 -130.5 -55.5t-54.5 -129.5v-602q0 -180 185 -180h217v-88h-1493zM2869 88h105v967h-105v-967z" />
<glyph unicode="&#xfb02;" horiz-adv-x="4403" d="M150 0v88h215q182 0 182 182v600q0 76 -53.5 130.5t-128.5 54.5h-215v88h1986v-338h-55q-45 53 -85 89t-116 77q-152 84 -453 84q-88 0 -138 -46t-50 -118v-84q0 -150 145 -150q104 0 186.5 45.5t129.5 114.5h74v-446h-76q-41 96 -118 135t-196 39q-145 0 -145 -150v-135 q0 -96 30.5 -134t108.5 -38h240v-88h-1468zM676 88h102v967h-102v-967zM2341 0v88h215q182 0 182 180v602q0 74 -54 129.5t-128 55.5h-215v88h1571v-88h-297q-76 0 -130.5 -55.5t-54.5 -129.5v-602q0 -182 185 -182q150 0 317 78q207 98 379 348h64v-512h-2034zM2867 88h103 v967h-103v-967z" />
</font>
</defs>
</svg>
